<?xml version="1.0" encoding="UTF-8" standalone="no"?>
<!DOCTYPE svg PUBLIC "-//W3C//DTD SVG 1.1//EN"
 "http://www.w3.org/Graphics/SVG/1.1/DTD/svg11.dtd">
<!-- Generated by graphviz version 2.40.1 (20161225.0304)
 -->
<!-- Title: dependencies Pages: 1 -->
<svg width="540pt" height="284pt"
 viewBox="0.00 0.00 540.00 284.00" xmlns="http://www.w3.org/2000/svg" xmlns:xlink="http://www.w3.org/1999/xlink">
<g id="graph0" class="graph" transform="scale(1 1) rotate(0) translate(4 280)">
<title>dependencies</title>
<polygon fill="#ffffff" stroke="transparent" points="-4,4 -4,-280 536,-280 536,4 -4,4"/>
<text text-anchor="start" x="245.0091" y="-42.4" font-family="sans-serif" font-weight="bold" font-size="14.00" fill="#000000">Legend</text>
<polygon fill="#ffffb3" stroke="transparent" points="32,-10 32,-30 52,-30 52,-10 32,-10"/>
<text text-anchor="start" x="55.629" y="-15.4" font-family="sans-serif" font-size="14.00" fill="#000000"> &#160;Declarations</text>
<polygon fill="#8dd3c7" stroke="transparent" points="145,-10 145,-30 165,-30 165,-10 145,-10"/>
<text text-anchor="start" x="168.7251" y="-15.4" font-family="sans-serif" font-size="14.00" fill="#000000"> &#160;Module</text>
<polygon fill="#80b1d3" stroke="transparent" points="231,-10 231,-30 251,-30 251,-10 231,-10"/>
<text text-anchor="start" x="254.7812" y="-15.4" font-family="sans-serif" font-size="14.00" fill="#000000"> &#160;Bootstrap</text>
<polygon fill="#fdb462" stroke="transparent" points="328,-10 328,-30 348,-30 348,-10 328,-10"/>
<text text-anchor="start" x="351.6732" y="-15.4" font-family="sans-serif" font-size="14.00" fill="#000000"> &#160;Providers</text>
<polygon fill="#fb8072" stroke="transparent" points="424,-10 424,-30 444,-30 444,-10 424,-10"/>
<text text-anchor="start" x="447.7258" y="-15.4" font-family="sans-serif" font-size="14.00" fill="#000000"> &#160;Exports</text>
<g id="clust1" class="cluster">
<title>cluster_SidebarModule</title>
<polygon fill="none" stroke="#000000" stroke-dasharray="1,5" points="8,-70 8,-268 524,-268 524,-70 8,-70"/>
</g>
<g id="clust2" class="cluster">
<title>cluster_SidebarModule_declarations</title>
<polygon fill="none" stroke="#000000" points="178,-78 178,-130 516,-130 516,-78 178,-78"/>
</g>
<g id="clust6" class="cluster">
<title>cluster_SidebarModule_exports</title>
<polygon fill="none" stroke="#000000" points="94,-208 94,-260 438,-260 438,-208 94,-208"/>
</g>
<g id="clust8" class="cluster">
<title>cluster_SidebarModule_providers</title>
<polygon fill="none" stroke="#000000" points="16,-78 16,-130 170,-130 170,-78 16,-78"/>
</g>
<!-- SidebarContainerComponent -->
<g id="node1" class="node">
<title>SidebarContainerComponent</title>
<polygon fill="#ffffb3" stroke="#000000" points="507.8033,-122 328.1967,-122 328.1967,-86 507.8033,-86 507.8033,-122"/>
<text text-anchor="middle" x="418" y="-99.8" font-family="Times,serif" font-size="14.00" fill="#000000">SidebarContainerComponent</text>
</g>
<!-- SidebarModule -->
<g id="node3" class="node">
<title>SidebarModule</title>
<polygon fill="#8dd3c7" stroke="#000000" points="299.3133,-187 296.3133,-191 275.3133,-191 272.3133,-187 196.6867,-187 196.6867,-151 299.3133,-151 299.3133,-187"/>
<text text-anchor="middle" x="248" y="-164.8" font-family="Times,serif" font-size="14.00" fill="#000000">SidebarModule</text>
</g>
<!-- SidebarContainerComponent&#45;&gt;SidebarModule -->
<g id="edge1" class="edge">
<title>SidebarContainerComponent&#45;&gt;SidebarModule</title>
<path fill="none" stroke="#000000" d="M379.375,-122.1061C379.375,-141.3391 379.375,-169 379.375,-169 379.375,-169 309.1692,-169 309.1692,-169"/>
<polygon fill="#000000" stroke="#000000" points="309.1692,-165.5001 299.1692,-169 309.1692,-172.5001 309.1692,-165.5001"/>
</g>
<!-- SidebarComponent -->
<g id="node2" class="node">
<title>SidebarComponent</title>
<polygon fill="#ffffb3" stroke="#000000" points="310.0954,-122 185.9046,-122 185.9046,-86 310.0954,-86 310.0954,-122"/>
<text text-anchor="middle" x="248" y="-99.8" font-family="Times,serif" font-size="14.00" fill="#000000">SidebarComponent</text>
</g>
<!-- SidebarComponent&#45;&gt;SidebarModule -->
<g id="edge2" class="edge">
<title>SidebarComponent&#45;&gt;SidebarModule</title>
<path fill="none" stroke="#000000" d="M248,-122.1061C248,-122.1061 248,-140.991 248,-140.991"/>
<polygon fill="#000000" stroke="#000000" points="244.5001,-140.9909 248,-150.991 251.5001,-140.991 244.5001,-140.9909"/>
</g>
<!-- SidebarContainerComponent  -->
<g id="node4" class="node">
<title>SidebarContainerComponent </title>
<polygon fill="#fb8072" stroke="#000000" points="430.3031,-252 247.6969,-252 247.6969,-216 430.3031,-216 430.3031,-252"/>
<text text-anchor="middle" x="339" y="-229.8" font-family="Times,serif" font-size="14.00" fill="#000000">SidebarContainerComponent </text>
</g>
<!-- SidebarModule&#45;&gt;SidebarContainerComponent  -->
<g id="edge3" class="edge">
<title>SidebarModule&#45;&gt;SidebarContainerComponent </title>
<path fill="none" stroke="#000000" stroke-dasharray="5,2" d="M273.3775,-187.1061C273.3775,-187.1061 273.3775,-205.991 273.3775,-205.991"/>
<polygon fill="#000000" stroke="#000000" points="269.8775,-205.9909 273.3775,-215.991 276.8775,-205.991 269.8775,-205.9909"/>
</g>
<!-- SidebarComponent  -->
<g id="node5" class="node">
<title>SidebarComponent </title>
<polygon fill="#fb8072" stroke="#000000" points="229.596,-252 102.404,-252 102.404,-216 229.596,-216 229.596,-252"/>
<text text-anchor="middle" x="166" y="-229.8" font-family="Times,serif" font-size="14.00" fill="#000000">SidebarComponent </text>
</g>
<!-- SidebarModule&#45;&gt;SidebarComponent  -->
<g id="edge4" class="edge">
<title>SidebarModule&#45;&gt;SidebarComponent </title>
<path fill="none" stroke="#000000" stroke-dasharray="5,2" d="M213.3207,-187.1061C213.3207,-187.1061 213.3207,-205.991 213.3207,-205.991"/>
<polygon fill="#000000" stroke="#000000" points="209.8207,-205.9909 213.3207,-215.991 216.8207,-205.991 209.8207,-205.9909"/>
</g>
<!-- SidebarService -->
<g id="node6" class="node">
<title>SidebarService</title>
<ellipse fill="#fdb462" stroke="#000000" cx="93" cy="-104" rx="69.4781" ry="18"/>
<text text-anchor="middle" x="93" y="-99.8" font-family="Times,serif" font-size="14.00" fill="#000000">SidebarService</text>
</g>
<!-- SidebarService&#45;&gt;SidebarModule -->
<g id="edge5" class="edge">
<title>SidebarService&#45;&gt;SidebarModule</title>
<path fill="none" stroke="#000000" d="M132.3457,-119.0757C132.3457,-138.2773 132.3457,-169 132.3457,-169 132.3457,-169 186.5988,-169 186.5988,-169"/>
<polygon fill="#000000" stroke="#000000" points="186.5988,-172.5001 196.5988,-169 186.5988,-165.5001 186.5988,-172.5001"/>
</g>
</g>
</svg>
