<?xml version="1.0" encoding="UTF-8" standalone="no"?>
<!DOCTYPE svg PUBLIC "-//W3C//DTD SVG 1.1//EN"
 "http://www.w3.org/Graphics/SVG/1.1/DTD/svg11.dtd">
<!-- Generated by graphviz version 2.40.1 (20161225.0304)
 -->
<!-- Title: dependencies Pages: 1 -->
<svg width="608pt" height="284pt"
 viewBox="0.00 0.00 608.00 284.00" xmlns="http://www.w3.org/2000/svg" xmlns:xlink="http://www.w3.org/1999/xlink">
<g id="graph0" class="graph" transform="scale(1 1) rotate(0) translate(4 280)">
<title>dependencies</title>
<polygon fill="#ffffff" stroke="transparent" points="-4,4 -4,-280 604,-280 604,4 -4,4"/>
<text text-anchor="start" x="279.0091" y="-42.4" font-family="sans-serif" font-weight="bold" font-size="14.00" fill="#000000">Legend</text>
<polygon fill="#ffffb3" stroke="transparent" points="66,-10 66,-30 86,-30 86,-10 66,-10"/>
<text text-anchor="start" x="89.629" y="-15.4" font-family="sans-serif" font-size="14.00" fill="#000000"> &#160;Declarations</text>
<polygon fill="#8dd3c7" stroke="transparent" points="179,-10 179,-30 199,-30 199,-10 179,-10"/>
<text text-anchor="start" x="202.7251" y="-15.4" font-family="sans-serif" font-size="14.00" fill="#000000"> &#160;Module</text>
<polygon fill="#80b1d3" stroke="transparent" points="265,-10 265,-30 285,-30 285,-10 265,-10"/>
<text text-anchor="start" x="288.7812" y="-15.4" font-family="sans-serif" font-size="14.00" fill="#000000"> &#160;Bootstrap</text>
<polygon fill="#fdb462" stroke="transparent" points="362,-10 362,-30 382,-30 382,-10 362,-10"/>
<text text-anchor="start" x="385.6732" y="-15.4" font-family="sans-serif" font-size="14.00" fill="#000000"> &#160;Providers</text>
<polygon fill="#fb8072" stroke="transparent" points="458,-10 458,-30 478,-30 478,-10 458,-10"/>
<text text-anchor="start" x="481.7258" y="-15.4" font-family="sans-serif" font-size="14.00" fill="#000000"> &#160;Exports</text>
<g id="clust1" class="cluster">
<title>cluster_AccordionModule</title>
<polygon fill="none" stroke="#000000" stroke-dasharray="1,5" points="8,-70 8,-268 592,-268 592,-70 8,-70"/>
</g>
<g id="clust2" class="cluster">
<title>cluster_AccordionModule_declarations</title>
<polygon fill="none" stroke="#000000" points="22,-78 22,-130 578,-130 578,-78 22,-78"/>
</g>
<g id="clust7" class="cluster">
<title>cluster_AccordionModule_exports</title>
<polygon fill="none" stroke="#000000" points="16,-208 16,-260 584,-260 584,-208 16,-208"/>
</g>
<!-- AccordionComponent -->
<g id="node1" class="node">
<title>AccordionComponent</title>
<polygon fill="#ffffb3" stroke="#000000" points="570.42,-122 429.58,-122 429.58,-86 570.42,-86 570.42,-122"/>
<text text-anchor="middle" x="500" y="-99.8" font-family="Times,serif" font-size="14.00" fill="#000000">AccordionComponent</text>
</g>
<!-- AccordionModule -->
<g id="node4" class="node">
<title>AccordionModule</title>
<polygon fill="#8dd3c7" stroke="#000000" points="383.1374,-187 380.1374,-191 359.1374,-191 356.1374,-187 264.8626,-187 264.8626,-151 383.1374,-151 383.1374,-187"/>
<text text-anchor="middle" x="324" y="-164.8" font-family="Times,serif" font-size="14.00" fill="#000000">AccordionModule</text>
</g>
<!-- AccordionComponent&#45;&gt;AccordionModule -->
<g id="edge1" class="edge">
<title>AccordionComponent&#45;&gt;AccordionModule</title>
<path fill="none" stroke="#000000" d="M524.1532,-122.0225C524.1532,-139.3734 524.1532,-163 524.1532,-163 524.1532,-163 393.2402,-163 393.2402,-163"/>
<polygon fill="#000000" stroke="#000000" points="393.2402,-159.5001 383.2402,-163 393.2401,-166.5001 393.2402,-159.5001"/>
</g>
<!-- AccordionGroupComponent -->
<g id="node2" class="node">
<title>AccordionGroupComponent</title>
<polygon fill="#ffffb3" stroke="#000000" points="412.1867,-122 235.8133,-122 235.8133,-86 412.1867,-86 412.1867,-122"/>
<text text-anchor="middle" x="324" y="-99.8" font-family="Times,serif" font-size="14.00" fill="#000000">AccordionGroupComponent</text>
</g>
<!-- AccordionGroupComponent&#45;&gt;AccordionModule -->
<g id="edge2" class="edge">
<title>AccordionGroupComponent&#45;&gt;AccordionModule</title>
<path fill="none" stroke="#000000" d="M324,-122.1061C324,-122.1061 324,-140.991 324,-140.991"/>
<polygon fill="#000000" stroke="#000000" points="320.5001,-140.9909 324,-150.991 327.5001,-140.991 320.5001,-140.9909"/>
</g>
<!-- AccordionHeadingComponent -->
<g id="node3" class="node">
<title>AccordionHeadingComponent</title>
<polygon fill="#ffffb3" stroke="#000000" points="217.8459,-122 30.1541,-122 30.1541,-86 217.8459,-86 217.8459,-122"/>
<text text-anchor="middle" x="124" y="-99.8" font-family="Times,serif" font-size="14.00" fill="#000000">AccordionHeadingComponent</text>
</g>
<!-- AccordionHeadingComponent&#45;&gt;AccordionModule -->
<g id="edge3" class="edge">
<title>AccordionHeadingComponent&#45;&gt;AccordionModule</title>
<path fill="none" stroke="#000000" d="M153.8076,-122.0225C153.8076,-139.3734 153.8076,-163 153.8076,-163 153.8076,-163 254.475,-163 254.475,-163"/>
<polygon fill="#000000" stroke="#000000" points="254.475,-166.5001 264.475,-163 254.4749,-159.5001 254.475,-166.5001"/>
</g>
<!-- AccordionComponent  -->
<g id="node5" class="node">
<title>AccordionComponent </title>
<polygon fill="#fb8072" stroke="#000000" points="575.9194,-252 432.0806,-252 432.0806,-216 575.9194,-216 575.9194,-252"/>
<text text-anchor="middle" x="504" y="-229.8" font-family="Times,serif" font-size="14.00" fill="#000000">AccordionComponent </text>
</g>
<!-- AccordionModule&#45;&gt;AccordionComponent  -->
<g id="edge4" class="edge">
<title>AccordionModule&#45;&gt;AccordionComponent </title>
<path fill="none" stroke="#000000" stroke-dasharray="5,2" d="M383.5778,-175C426.9406,-175 478.0968,-175 478.0968,-175 478.0968,-175 478.0968,-205.9775 478.0968,-205.9775"/>
<polygon fill="#000000" stroke="#000000" points="474.5969,-205.9774 478.0968,-215.9775 481.5969,-205.9775 474.5969,-205.9774"/>
</g>
<!-- AccordionGroupComponent  -->
<g id="node6" class="node">
<title>AccordionGroupComponent </title>
<polygon fill="#fb8072" stroke="#000000" points="413.6869,-252 234.3131,-252 234.3131,-216 413.6869,-216 413.6869,-252"/>
<text text-anchor="middle" x="324" y="-229.8" font-family="Times,serif" font-size="14.00" fill="#000000">AccordionGroupComponent </text>
</g>
<!-- AccordionModule&#45;&gt;AccordionGroupComponent  -->
<g id="edge5" class="edge">
<title>AccordionModule&#45;&gt;AccordionGroupComponent </title>
<path fill="none" stroke="#000000" stroke-dasharray="5,2" d="M324,-187.1061C324,-187.1061 324,-205.991 324,-205.991"/>
<polygon fill="#000000" stroke="#000000" points="320.5001,-205.9909 324,-215.991 327.5001,-205.991 320.5001,-205.9909"/>
</g>
<!-- AccordionHeadingComponent  -->
<g id="node7" class="node">
<title>AccordionHeadingComponent </title>
<polygon fill="#fb8072" stroke="#000000" points="215.8461,-252 24.1539,-252 24.1539,-216 215.8461,-216 215.8461,-252"/>
<text text-anchor="middle" x="120" y="-229.8" font-family="Times,serif" font-size="14.00" fill="#000000">AccordionHeadingComponent </text>
</g>
<!-- AccordionModule&#45;&gt;AccordionHeadingComponent  -->
<g id="edge6" class="edge">
<title>AccordionModule&#45;&gt;AccordionHeadingComponent </title>
<path fill="none" stroke="#000000" stroke-dasharray="5,2" d="M264.8416,-175C196.0887,-175 91.9424,-175 91.9424,-175 91.9424,-175 91.9424,-205.9775 91.9424,-205.9775"/>
<polygon fill="#000000" stroke="#000000" points="88.4425,-205.9774 91.9424,-215.9775 95.4425,-205.9775 88.4425,-205.9774"/>
</g>
</g>
</svg>
