<?xml version="1.0" standalone="no"?>
<!DOCTYPE svg PUBLIC "-//W3C//DTD SVG 1.1//EN" "http://www.w3.org/Graphics/SVG/1.1/DTD/svg11.dtd" >
<svg xmlns="http://www.w3.org/2000/svg">
<defs>
  <font id="part" horiz-adv-x="256">
    <font-face font-family="part"
      units-per-em="256" ascent="256"
      descent="0" />
    <missing-glyph horiz-adv-x="0" />
    <glyph glyph-name="add-account"
      unicode="&#xEA01;"
      horiz-adv-x="256" d="M240 256H16C6.4 256 0 249.6 0 240V80C0 70.4 6.4 64 16 64H80V96H32V160H224V128H256V240C256 249.6 249.6 256 240 256zM32 192V224H224V192H32zM240 80H192V128H160V80H112V48H160V0H192V48H240V80z" />
    <glyph glyph-name="airplane"
      unicode="&#xEA02;"
      horiz-adv-x="256" d="M216 176H64L48 208H0L32 96H128L80 16H144L192 96H216C238.4 96 256 113.6 256 136V136C256 158.4 238.4 176 216 176zM161.6 208L144 240L80 240L99.2 208z" />
    <glyph glyph-name="alert"
      unicode="&#xEA03;"
      horiz-adv-x="256" d="M243.2 40L142.4 228.8C137.6 236.8 128 240 120 236.8C118.4 235.2 115.2 232 113.6 228.8L12.8 40C8 32 11.2 22.4 19.2 17.6C20.8 16 24 16 27.2 16H230.4C240 16 246.4 22.4 246.4 32C244.8 35.2 244.8 36.8 243.2 40zM128 48C118.4 48 112 54.4 112 64S118.4 80 128 80S144 73.6 144 64S137.6 48 128 48zM144 96H112V160H144V96z" />
    <glyph glyph-name="anon"
      unicode="&#xEA04;"
      horiz-adv-x="256" d="M233.6 166.4L102.4 35.2C110.4 33.6 120 32 128 32C185.6 32 230.4 81.6 249.6 110.4C257.6 121.6 257.6 136 249.6 147.2000000000001C246.4 152 240 158.4 233.6 166.4zM228.8 251.2L185.6 208C168 217.6 148.8 224 128 224C70.4 224 25.6 174.4 6.4 145.6C-1.6 134.4 -1.6 120 6.4 110.4C14.4 97.6 28.8 81.6 44.8 67.2L4.8 27.2C-1.6 20.8 -1.6 11.2 4.8 4.8C8 1.6 11.2 0 16 0S24 1.6 27.2 4.8L251.2 228.8C257.6 235.2 257.6 244.8 251.2 251.2S235.2 257.6 228.8 251.2zM84.8 107.2C81.6 113.6 80 120 80 128C80 155.2 100.8 176 128 176C136 176 142.4 174.4 148.8 171.2L84.8 107.2z" />
    <glyph glyph-name="arrow-down"
      unicode="&#xEA05;"
      horiz-adv-x="256" d="M235.2 107.2L212.8 129.6L144 60.8V256H112V60.8L43.2 129.6L20.8 107.2L128 0L235.2 107.2z" />
    <glyph glyph-name="arrow-left"
      unicode="&#xEA06;"
      horiz-adv-x="256" d="M107.2 20.8L129.6 43.2L60.8 112H256V144H60.8L129.6 212.8L107.2 235.2L0 128L107.2 20.8z" />
    <glyph glyph-name="arrow-right"
      unicode="&#xEA07;"
      horiz-adv-x="256" d="M148.8 235.2L126.4 212.8L195.2 144H0V112H195.2L126.4 43.2L148.8 20.8L256 128L148.8 235.2z" />
    <glyph glyph-name="arrow-up"
      unicode="&#xEA08;"
      horiz-adv-x="256" d="M20.8 148.8L43.2 126.4L112 195.2V0H144V195.2L212.8 126.4L235.2 148.8L128 256L20.8 148.8z" />
    <glyph glyph-name="attach"
      unicode="&#xEA09;"
      horiz-adv-x="256" d="M80 176V112C80 84.8 100.8 64 128 64S176 84.8 176 112V184C176 224 144 256 104 256S32 224 32 184V96C32 43.2 75.2 0 128 0S224 43.2 224 96V192H192V96C192 60.8 163.2 32 128 32S64 60.8 64 96V184C64 206.4 81.6 224 104 224S144 206.4 144 184V112C144 102.4 137.6 96 128 96S112 102.4 112 112V176H80z" />
    <glyph glyph-name="bag-buy"
      unicode="&#xEA0A;"
      horiz-adv-x="256" d="M224 192H192C192 227.2 163.2 256 128 256S64 227.2 64 192H32C22.4 192 16 185.6 16 176V16C16 6.4 22.4 0 32 0H224C233.6 0 240 6.4 240 16V176C240 185.6 233.6 192 224 192zM128 224C145.6 224 160 209.6 160 192H96C96 209.6 110.4 224 128 224zM176 80H144V48H112V80H80V112H112V144H144V112H176V80z" />
    <glyph glyph-name="bag-sell"
      unicode="&#xEA0B;"
      horiz-adv-x="256" d="M224 192H192C192 227.2 163.2 256 128 256S64 227.2 64 192H32C22.4 192 16 185.6 16 176V16C16 6.4 22.4 0 32 0H224C233.6 0 240 6.4 240 16V176C240 185.6 233.6 192 224 192zM128 224C145.6 224 160 209.6 160 192H96C96 209.6 110.4 224 128 224zM176 80H80V112H176V80z" />
    <glyph glyph-name="bag"
      unicode="&#xEA0C;"
      horiz-adv-x="256" d="M224 176H192V192C192 227.2 163.2 256 128 256S64 227.2 64 192V176H32C22.4 176 16 169.6 16 160V16C16 6.4 22.4 0 32 0H224C233.6 0 240 6.4 240 16V160C240 169.6 233.6 176 224 176zM96 192C96 209.6 110.4 224 128 224S160 209.6 160 192V176H96V192z" />
    <glyph glyph-name="blind"
      unicode="&#xEA0D;"
      horiz-adv-x="256" d="M233.6 164.8L211.2 142.4C216 137.6 219.2 131.2 222.4 128C209.6 110.4 176 67.2 132.8 64L104 35.2C110.4 33.6 120 32 128 32C203.2 32 251.2 116.8 254.4 120C257.6 124.8 257.6 131.2 254.4 136C252.8 137.6 246.4 150.4 233.6 164.8zM4.8 4.8C8 1.6 11.2 0 16 0S24 1.6 27.2 4.8L251.2 228.8C257.6 235.2 257.6 244.8 251.2 251.2S235.2 257.6 228.8 251.2L184 208C168 217.6 148.8 224 128 224C51.2 224 4.8 139.2 1.6 136C0 131.2 0 124.8 1.6 120C3.2 118.4 17.6 91.2 44.8 67.2L4.8 27.2C-1.6 20.8 -1.6 11.2 4.8 4.8zM35.2 128C48 147.2 81.6 192 128 192C139.2 192 150.4 188.8 161.6 184L136 158.4C132.8 160 131.2 160 128 160C110.4 160 96 145.6 96 128C96 124.8 96 123.2 97.6 120L68.8 91.2C52.8 104 41.6 118.4 35.2 128z" />
    <glyph glyph-name="bug"
      unicode="&#xEA0E;"
      horiz-adv-x="256" d="M256 96V128H224C222.4 140.8 219.2 152 214.4 163.2L246.4 190.4L225.6 214.4L196.8 190.4L182.4 204.8C184 228.8 156.8 256 128 256S72 228.8 72 204.8C67.2 200 62.4 196.8 57.6 190.4L30.4 214.4L9.6 190.4L41.6 163.2C36.8 152 33.6 140.8 32 128H0V96H32C33.6 80 40 64 46.4 49.6L20.8 27.2L41.6 3.2L65.6 24C81.6 8 104 -1.6 126.4 -1.6S171.2 8 187.2 24L211.2 3.2L232 27.2L206.4 49.6C217.6 64 222.4 80 224 96H256z" />
    <glyph glyph-name="cart"
      unicode="&#xEA0F;"
      horiz-adv-x="256" d="M240 208H72L64 243.2C62.4 251.2 56 256 48 256H0V224H35.2L64 92.8C65.6 84.8 72 80 80 80H208C214.4 80 220.8 84.8 222.4 91.2L254.4 187.2C257.6 195.2 252.8 208 240 208zM48 32A32 32 0 0 1 112 32A32 32 0 0 1 48 32M176 32A32 32 0 0 1 240 32A32 32 0 0 1 176 32" />
    <glyph glyph-name="check"
      unicode="&#xEA10;"
      horiz-adv-x="256" d="M89.6 102.4L38.4 153.6L0 115.2L89.6 25.6L256 192L217.6 230.4z" />
    <glyph glyph-name="circle-alert"
      unicode="&#xEA11;"
      horiz-adv-x="256" d="M128 256C57.6 256 0 198.4 0 128S57.6 0 128 0S256 57.6 256 128S198.4 256 128 256zM128 64C118.4 64 112 70.4 112 80S118.4 96 128 96S144 89.6 144 80S137.6 64 128 64zM144 112H112V192H144V112z" />
    <glyph glyph-name="circle-check"
      unicode="&#xEA12;"
      horiz-adv-x="256" d="M128 256C57.6 256 0 198.4 0 128S57.6 0 128 0S256 57.6 256 128S198.4 256 128 256zM112 73.6L57.6 128L80 150.4L112 118.4L176 182.4L198.4 160L112 73.6z" />
    <glyph glyph-name="circle-info"
      unicode="&#xEA13;"
      horiz-adv-x="256" d="M128 256C57.6 256 0 198.4 0 128S57.6 0 128 0S256 57.6 256 128S198.4 256 128 256zM144 64H112V144H144V64zM128 160C118.4 160 112 166.4 112 176S118.4 192 128 192S144 185.6 144 176S137.6 160 128 160z" />
    <glyph glyph-name="circle-minus"
      unicode="&#xEA14;"
      horiz-adv-x="256" d="M128 256C57.6 256 0 198.4 0 128S57.6 0 128 0S256 57.6 256 128S198.4 256 128 256zM192 112H64V144H192V112z" />
    <glyph glyph-name="circle-plus"
      unicode="&#xEA15;"
      horiz-adv-x="256" d="M128 256C57.6 256 0 198.4 0 128S57.6 0 128 0S256 57.6 256 128S198.4 256 128 256zM192 112H144V64H112V112H64V144H112V192H144V144H192V112z" />
    <glyph glyph-name="circle-question"
      unicode="&#xEA16;"
      horiz-adv-x="256" d="M128 256C57.6 256 0 198.4 0 128S57.6 0 128 0S256 57.6 256 128S198.4 256 128 256zM128 48C118.4 48 112 54.4 112 64S118.4 80 128 80S144 73.6 144 64S137.6 48 128 48zM152 121.6C144 116.8 144 115.2 144 112V96H112V112C112 132.8 124.8 142.4 134.4 148.8C142.4 153.6 144 155.2 144 160C144 169.6 137.6 176 128 176C121.6 176 116.8 172.8 113.6 168L105.6 153.6L78.4 169.6L86.4 184C94.4 198.4 110.4 208 128 208C155.2 208 176 187.2 176 160C176 137.6 161.6 128 152 121.6z" />
    <glyph glyph-name="circle-remove"
      unicode="&#xEA17;"
      horiz-adv-x="256" d="M128 256C57.6 256 0 198.4 0 128S57.6 0 128 0S256 57.6 256 128S198.4 256 128 256zM184 94.4L161.6 72L128 105.6L94.4 72L72 94.4L105.6 128L72 161.6L94.4 184L128 150.4L161.6 184L184 161.6L150.4 128L184 94.4z" />
    <glyph glyph-name="circle-user"
      unicode="&#xEA18;"
      horiz-adv-x="256" d="M128 256C57.6 256 0 198.4 0 128S57.6 0 128 0S256 57.6 256 128S198.4 256 128 256zM193.6 59.2C187.2 70.4 174.4 75.2 160 80C148.8 83.2 145.6 89.6 144 99.2C161.6 105.6 176 123.2 176 144C176 171.2 155.2 192 128 192S80 171.2 80 144C80 123.2 92.8 105.6 112 99.2C110.4 89.6 107.2 83.2 96 80C81.6 75.2 68.8 70.4 62.4 59.2C43.2 76.8 32 100.8 32 128C32 180.8 75.2 224 128 224S224 180.8 224 128C224 100.8 212.8 76.8 193.6 59.2z" />
    <glyph glyph-name="clear-all"
      unicode="&#xEA19;"
      horiz-adv-x="256" d="M96 112H16C6.4 112 0 105.6 0 96S6.4 80 16 80H96C105.6 80 112 86.4 112 96S105.6 112 96 112zM96 48H16C6.4 48 0 41.6 0 32S6.4 16 16 16H96C105.6 16 112 22.4 112 32S105.6 48 96 48zM16 208H240C249.6 208 256 214.4 256 224S249.6 240 240 240H16C6.4 240 0 233.6 0 224S6.4 208 16 208zM240 176H16C6.4 176 0 169.6 0 160S6.4 144 16 144H240C249.6 144 256 150.4 256 160S249.6 176 240 176zM251.2 107.2C244.8 113.6 235.2 113.6 228.8 107.2L208 86.4L187.2 107.2C180.8 113.6 171.2 113.6 164.8 107.2S158.4 91.2 164.8 84.8L185.6 64L164.8 43.2C158.4 36.8 158.4 27.2 164.8 20.8S180.8 14.4 187.2 20.8L208 41.6L228.8 20.8C235.2 14.4 244.8 14.4 251.2 20.8C257.6 27.2 257.6 36.8 251.2 43.2L230.4 64L251.2 84.8C257.6 91.2 257.6 100.8 251.2 107.2z" />
    <glyph glyph-name="cog"
      unicode="&#xEA1A;"
      horiz-adv-x="256" d="M212.8 172.8L230.4 206.4L208 228.8L174.4 211.2C169.6 214.4 163.2 216 156.8 217.6L144 256H112L99.2 219.2C94.4 217.6 88 216 83.2 212.8L49.6 230.4L25.6 206.4L43.2 172.8C40 168 38.4 161.6 36.8 156.8L0 144V112L36.8 99.2C38.4 92.8 41.6 88 43.2 81.6L25.6 48L48 25.6L81.6 43.2C86.4 40 92.8 38.4 99.2 36.8L112 0H144L156.8 36.8C163.2 38.4 168 41.6 174.4 43.2L208 25.6L230.4 48L212.8 81.6C216 86.4 217.6 92.8 219.2 99.2L256 112V144L219.2 156.8C217.6 161.6 216 168 212.8 172.8zM128 80C100.8 80 80 100.8 80 128S100.8 176 128 176S176 155.2 176 128S155.2 80 128 80z" />
    <glyph glyph-name="console-window"
      unicode="&#xEA1B;"
      horiz-adv-x="256" d="M43.2 224V256H11.2C4.8 256 0 251.2 0 244.8V224H43.2zM256 224V244.8C256 251.2 251.2 256 244.8 256H64V224H256zM0 201.6V30.4C0 25.6 4.8 20.8 11.2 20.8H246.4C252.8 20.8 257.6 25.6 257.6 32V201.6H0zM92.8 108.8L52.8 68.8L38.4 84.8L70.4 116.8L38.4 148.8L52.8 163.2L92.8 123.2C97.6 120 97.6 113.6 92.8 108.8zM180.8 73.6H116.8V94.4H180.8V73.6z" />
    <glyph glyph-name="console"
      unicode="&#xEA1C;"
      horiz-adv-x="256" d="M123.2 139.2L43.2 219.2C36.8 225.6 27.2 225.6 20.8 219.2S14.4 203.2 20.8 196.8L89.6 128L20.8 59.2C14.4 52.8 14.4 43.2 20.8 36.8C24 33.6 27.2 32 32 32S40 33.6 43.2 36.8L123.2 116.8C129.6 123.2 129.6 132.8 123.2 139.2zM128 64H240V32H128z" />
    <glyph glyph-name="copy"
      unicode="&#xEA1D;"
      horiz-adv-x="256" d="M240 176H128C118.4 176 112 169.6 112 160V16C112 6.4 118.4 0 128 0H240C249.6 0 256 6.4 256 16V160C256 169.6 249.6 176 240 176zM80 192C80 201.6 86.4 208 96 208H192V240C192 249.6 185.6 256 176 256H16C6.4 256 0 249.6 0 240V48C0 38.4 6.4 32 16 32H80V192z" />
    <glyph glyph-name="cross"
      unicode="&#xEA1E;"
      horiz-adv-x="256" d="M235.2 235.2C228.8 241.6 219.2 241.6 212.8 235.2L128 150.4L43.2 235.2C36.8 241.6 27.2 241.6 20.8 235.2S14.4 219.2 20.8 212.8L105.6 128L20.8 43.2C14.4 36.8 14.4 27.2 20.8 20.8C24 17.6 27.2 16 32 16S40 17.6 43.2 20.8L128 105.6L212.8 20.8C216 17.6 220.8 16 224 16S232 17.6 235.2 20.8C241.6 27.2 241.6 36.8 235.2 43.2L150.4 128L235.2 212.8C241.6 219.2 241.6 228.8 235.2 235.2z" />
    <glyph glyph-name="cryptocurrency-bitcoin"
      unicode="&#xEA1F;"
      horiz-adv-x="256" d="M172.8 158.4C174.4 164.8 176 169.6 176 176C176 203.2 155.2 224 128 224V256H96V224H80V256H48V224C38.4 224 32 217.6 32 208V48C32 38.4 38.4 32 48 32V0H80V32H96V0H128V32H160C195.2 32 224 60.8 224 96C224 126.4 201.6 153.6 172.8 158.4zM144 176C144 166.4 137.6 160 128 160H64V192H128C137.6 192 144 185.6 144 176zM160 64H64V128H160C177.6 128 192 113.6 192 96S177.6 64 160 64z" />
    <glyph glyph-name="cryptocurrency-particl"
      unicode="&#xEA20;"
      horiz-adv-x="256" d="M70.4 41.6V235.2H140.8C168 235.2 184 233.6 192 232C204.8 228.8 214.4 222.4 222.4 211.2S235.2 187.2 235.2 169.6C235.2 156.8 233.6 145.6 228.8 136C224 126.4 217.6 120 211.2 115.2C203.2 110.4 196.8 107.2 188.8 105.6C176 102.4 161.6 102.4 140.8 102.4H113.6V43.2C113.6 32 104 20.8 91.2 20.8C80 20.8 70.4 30.4 70.4 41.6zM113.6 198.4V137.6H137.6C155.2 137.6 166.4 139.2 171.2 140.8C177.6 142.4 180.8 147.2 184 152C187.2 156.8 188.8000000000001 161.6 188.8000000000001 168C188.8000000000001 176 187.2000000000001 182.4 182.4 187.2C177.6 192 171.2000000000001 195.2 164.8000000000001 196.8C160 198.4 148.8000000000001 198.4 132.8000000000001 198.4H113.6zM38.4 164.8H70.4V198.4H38.4C28.8 198.4 20.8 190.4 20.8 180.8C22.4 171.2 28.8 164.8 38.4 164.8zM38.4 104H70.4V137.6H38.4C28.8 137.6 20.8 129.6 20.8 120C22.4 110.4 28.8 104 38.4 104z" />
    <glyph glyph-name="currency-dollar"
      unicode="&#xEA21;"
      horiz-adv-x="256" d="M144 140.8V190.4C153.6 187.2 160 177.6 160 168S166.4 152 176 152S192 158.4 192 168C192 196.8 171.2 219.2 144 222.4V240C144 249.6 137.6 256 128 256S112 249.6 112 240V222.4C84.8 219.2 64 196.8 64 168C64 134.4 89.6 121.6 112 115.2V65.6C102.4 68.8 96 78.4 96 88C96 97.6 89.6 104 80 104S64 97.6 64 88C64 59.2 84.8 36.8 112 33.6V16C112 6.4 118.4 0 128 0S144 6.4 144 16V33.6C171.2 36.8 192 60.8 192 88C192 121.6 166.4 134.4 144 140.8zM96 168C96 179.2 102.4 187.2 112 190.4V148.8C100.8 153.6 96 158.4 96 168zM144 65.6V107.2C155.2 102.4 160 97.6 160 88C160 76.8 153.6 68.8 144 65.6z" />
    <glyph glyph-name="currency-euro"
      unicode="&#xEA22;"
      horiz-adv-x="256" d="M204.8 60.8C190.4 52.8 176 48 160 48C128 48 99.2 67.2 86.4 96H144C153.6 96 160 102.4 160 112S153.6 128 144 128H80C80 132.8 80 139.2 81.6 144H144C153.6 144 160 150.4 160 160S153.6 176 144 176H96C110.4 195.2 132.8 208 160 208C176 208 190.4 203.2 204.8 195.2C212.8 190.4 222.4 192 227.2 200C232.0000000000001 208 230.4 217.6 222.4 222.4C203.2 233.6 182.4 240 160 240C115.2 240 76.8 214.4 59.2 176H32C22.4 176 16 169.6 16 160S22.4 144 32 144H49.6C48 139.2 48 132.8 48 128H32C22.4 128 16 121.6 16 112S22.4 96 32 96H52.8C67.2 49.6 108.8 16 160 16C182.4 16 203.2 22.4 222.4 35.2C230.4 40 232 49.6 227.2 57.6C220.8 64 211.2 65.6 204.8 60.8z" />
    <glyph glyph-name="currency-pound"
      unicode="&#xEA23;"
      horiz-adv-x="256" d="M192 48H112V96H160C169.6 96 176 102.4 176 112S169.6 128 160 128H112V176C112 193.6 126.4 208 144 208S176 193.6 176 176C176 166.4 182.4 160 192 160S208 166.4 208 176C208 211.2 179.2 240 144 240S80 211.2 80 176V128H48C38.4 128 32 121.6 32 112S38.4 96 48 96H80V48H48C38.4 48 32 41.6 32 32S38.4 16 48 16H192C201.6 16 208 22.4 208 32S201.6 48 192 48z" />
    <glyph glyph-name="currency-yen"
      unicode="&#xEA24;"
      horiz-adv-x="256" d="M192 96H144V112H192C201.6 112 208 118.4 208 128S201.6 144 192 144H148.8L204.8 214.4C209.6 220.8 209.6 232 201.6 236.8C195.2 241.6 184 241.6 179.2 233.6L128 169.6L76.8 233.6C72 240 60.8 241.6 54.4 236.8S46.4 220.8 51.2 214.4L107.2 144H64C54.4 144 48 137.6 48 128S54.4 112 64 112H112V96H64C54.4 96 48 89.6 48 80S54.4 64 64 64H112V32C112 22.4 118.4 16 128 16S144 22.4 144 32V64H192C201.6 64 208 70.4 208 80S201.6 96 192 96z" />
    <glyph glyph-name="date"
      unicode="&#xEA25;"
      horiz-adv-x="256" d="M128 256C57.6 256 0 198.4 0 128S57.6 0 128 0S256 57.6 256 128S198.4 256 128 256zM192 112H112V192H144V144H192V112z" />
    <glyph glyph-name="document"
      unicode="&#xEA26;"
      horiz-adv-x="256" d="M224 256H32C22.4 256 16 249.6 16 240V16C16 6.4 22.4 0 32 0H224C233.6 0 240 6.4 240 16V240C240 249.6 233.6 256 224 256zM128 48H64V80H128V48zM192 112H64V144H192V112zM192 176H64V208H192V176z" />
    <glyph glyph-name="error"
      unicode="&#xEA27;"
      horiz-adv-x="256" d="M128 256C57.6 256 0 198.4 0 128S57.6 0 128 0S256 57.6 256 128S198.4 256 128 256zM128 224C148.8 224 168 217.6 184 206.4L49.6 72C38.4 88 32 107.2 32 128C32 180.8 75.2 224 128 224zM128 32C107.2 32 88 38.4 72 49.6L206.4 184C217.6 168 224 148.8 224 128C224 75.2 180.8 32 128 32z" />
    <glyph glyph-name="filter"
      unicode="&#xEA28;"
      horiz-adv-x="256" d="M144 16H112C103.168 16 96 23.168 96 32V32C96 40.832 103.168 48 112 48H144C152.832 48 160 40.832 160 32V32C160 23.168 152.832 16 144 16zM176 80H80C71.168 80 64 87.168 64 96V96C64 104.832 71.168 112 80 112H176C184.832 112 192 104.832 192 96V96C192 87.168 184.832 80 176 80zM208 144H48C39.168 144 32 151.168 32 160V160C32 168.832 39.168 176 48 176H208C216.832 176 224 168.832 224 160V160C224 151.168 216.832 144 208 144zM240 208H16C7.168 208 0 215.168 0 224V224C0 232.832 7.168 240 16 240H240C248.832 240 256 232.832 256 224V224C256 215.168 248.832 208 240 208z" />
    <glyph glyph-name="flag"
      unicode="&#xEA29;"
      horiz-adv-x="256" d="M113.6 8L1.6 216C-1.6 224 0 233.6 8 238.4C16 241.6 25.6 240 30.4 232L142.4 24C145.6 16 144 6.4 136 1.6C128 -1.6 118.4 0 113.6 8zM256 164.8C211.2 124.8 156.8 174.4 123.2 115.2L72 206.4C105.6 265.6 160 216 203.2 256L256 164.8z" />
    <glyph glyph-name="flash"
      unicode="&#xEA2A;"
      horiz-adv-x="256" d="M147.2 256H86.4C80 256 73.6 251.2 70.4 244.8L38.4 132.8C35.2 121.6 43.2 112 52.8 112H112L88 0L204.8 150.4C212.8 160 204.8 176 192 176H144L161.6 235.2C164.8 246.4 156.8 256 147.2 256z" />
    <glyph glyph-name="globe"
      unicode="&#xEA2B;"
      horiz-adv-x="256" d="M128 256C57.6 256 0 198.4 0 128S57.6 0 128 0S256 57.6 256 128S198.4 256 128 256zM222.4 144H192C190.4 168 185.6 190.4 179.2 209.6C201.6 195.2 217.6 171.2 222.4 144zM128 32C118.4 32 99.2 62.4 96 112H160C156.8 62.4 137.6 32 128 32zM96 144C99.2 193.6 116.8 224 128 224S156.8 193.6 160 144H96zM78.4 209.6C70.4 190.4 65.6 168 64 144H33.6C38.4 171.2 54.4 195.2 78.4 209.6zM33.6 112H64C65.6 88 70.4 65.6 76.8 46.4C54.4 60.8 38.4 84.8 33.6 112zM177.6 46.4C185.6 65.6 188.8 88 190.4 112H220.8C217.6 84.8 201.6 60.8 177.6 46.4z" />
    <glyph glyph-name="hamburger"
      unicode="&#xEA2C;"
      horiz-adv-x="256" d="M240 144H16C6.4 144 0 137.6 0 128S6.4 112 16 112H240C249.6 112 256 118.4 256 128S249.6 144 240 144zM240 240H16C6.4 240 0 233.6 0 224S6.4 208 16 208H240C249.6 208 256 214.4 256 224S249.6 240 240 240zM240 48H16C6.4 48 0 41.6 0 32S6.4 16 16 16H240C249.6 16 256 22.4 256 32S249.6 48 240 48z" />
    <glyph glyph-name="heart-outline-add"
      unicode="&#xEA2D;"
      horiz-adv-x="256" d="M112 48C112 54.464 112.976 60.672 114.416 66.688C73.328 106.32 32 156.88 32 186.176C32 207.04 48.96 224 69.824 224C82.512 224 94.304 217.664 101.344 207.04L128 171.328L154.656 207.04C161.712 217.664 173.488 224 186.176 224C207.04 224 224 207.04 224 186.176C224 170.912 212.704 149.84 196.144 127.584C207.936 126.976 218.944 123.792 228.848 118.608C244.656 141.776 256 165.504 256 186.176C256 224.736 224.736 256 186.176 256C161.888 256 140.512 243.568 128 224.752C115.488 243.568 94.112 256 69.824 256C31.264 256 0 224.736 0 186.176C0 128.896 86.032 48.24 116.976 21.072C113.936 29.52 112 38.496 112 48zM240 64L208 64L208 96L176 96L176 64L144 64L144 32L176 32L176 0L208 0L208 32L240 32z" />
    <glyph glyph-name="heart-outline-remove"
      unicode="&#xEA2E;"
      horiz-adv-x="256" d="M112 48C112 54.464 112.976 60.672 114.416 66.688C73.328 106.32 32 156.88 32 186.176C32 207.04 48.96 224 69.824 224C82.512 224 94.304 217.664 101.344 207.04L128 171.328L154.656 207.04C161.712 217.664 173.488 224 186.176 224C207.04 224 224 207.04 224 186.176C224 170.912 212.704 149.84 196.144 127.584C207.936 126.976 218.944 123.792 228.848 118.608C244.656 141.776 256 165.504 256 186.176C256 224.736 224.736 256 186.176 256C161.888 256 140.512 243.568 128 224.752C115.488 243.568 94.112 256 69.824 256C31.264 256 0 224.736 0 186.176C0 128.896 86.032 48.24 116.976 21.072C113.936 29.52 112 38.496 112 48zM144 64H240V32H144V64z" />
    <glyph glyph-name="heart-outline"
      unicode="&#xEA2F;"
      horiz-adv-x="256" d="M118.4 8C105.6 19.2 0 107.2 0 174.4C0 217.6 35.2 251.2 76.8 251.2C96 251.2 113.6 243.2 128 232C142.4 244.8 160 251.2 179.2 251.2C222.4 251.2 256 216 256 174.4C256 107.2 150.4 19.2 137.6 9.6C132.8 3.2 123.2 3.2 118.4 8zM76.8 219.2C52.8 219.2 32 198.4 32 174.4C32 139.2 88 78.4 128 43.2C161.6 73.6 224 136 224 174.4C224 200 203.2 219.2 179.2 219.2C164.8 219.2 150.4 211.2 142.4 198.4C136 188.8 121.6 188.8 115.2 198.4C105.6 211.2 92.8 219.2 76.8 219.2z" />
    <glyph glyph-name="heart"
      unicode="&#xEA30;"
      horiz-adv-x="256" d="M185.6 256C161.6 256 140.8 243.2 128 224C115.2 243.2 94.4 256 70.4 256C32 256 0 224 0 185.6C0 115.2 128 11.2 128 11.2S256 115.2 256 185.6C256 224 224 256 185.6 256z" />
    <glyph glyph-name="image-upload"
      unicode="&#xEA31;"
      horiz-adv-x="256" d="M144 128L144 240L112 240L112 128L73.6 128L128 64L182.4 128zM240 0H16C6.4 0 0 6.4 0 16V160C0 169.6 6.4 176 16 176H64V144H32V32H224V144H192V176H240C249.6 176 256 169.6 256 160V16C256 6.4 249.6 0 240 0z" />
    <glyph glyph-name="info"
      unicode="&#xEA32;"
      horiz-adv-x="256" d="M144 144C144 153.6 137.6 160 128 160H80V128H112V32H80V0H176V32H144V144zM96 216A24 24 0 0 1 144 216A24 24 0 0 1 96 216" />
    <glyph glyph-name="label"
      unicode="&#xEA33;"
      horiz-adv-x="256" d="M251.2 123.2L123.2 251.2C120 254.4 116.8 256 112 256H16C6.4 256 0 249.6 0 240V144C0 139.2 1.6 136 4.8 132.8L132.8 4.8C136 1.6 139.2 0 144 0S152 1.6 155.2 4.8L251.2 100.8C257.6 107.2 257.6 116.8 251.2 123.2zM64 176C54.4 176 48 182.4 48 192S54.4 208 64 208S80 201.6 80 192S73.6 176 64 176z" />
    <glyph glyph-name="lightning"
      unicode="&#xEA34;"
      horiz-adv-x="256" d="M240 160H134.4L160 235.2C164.8 251.2 145.6 264 132.8 251.2L4.8 123.2C-4.8 113.6 1.6 96 16 96H121.6L96 20.8C91.2 4.8 110.4 -8 123.2 4.8L251.2 132.8C260.8 142.4 254.4 160 240 160z" />
    <glyph glyph-name="listings"
      unicode="&#xEA35;"
      horiz-adv-x="256" d="M228.8 102.4C238.4 176 177.6 238.4 104 228.8C72 249.6 32 268.8 9.6 246.4C-6.4 230.4 0 200 17.6 169.6C9.6 153.6 4.8 136 4.8 116.8C4.8 54.4 56 4.8 116.8 4.8C136 4.8 153.6 9.6 169.6 17.6C193.6 4.8 227.2 -9.6 246.4 9.6C264 27.2 257.6 57.6 228.8 102.4zM198.4 116.8C198.4 92.8 187.2 70.4 169.6 56C129.6 83.2 83.2 128 56 169.6C70.4 187.2 92.8 198.4 116.8 198.4C161.6 198.4 198.4 161.6 198.4 116.8zM32 224C33.6 225.6 43.2 224 62.4 216C54.4 211.2 46.4 204.8 38.4 198.4C33.6 212.8 30.4 220.8 32 224zM40 137.6C67.2 100.8 100.8 67.2 137.6 40C78.4 24 24 78.4 40 137.6zM225.6 33.6C222.4 32 212.8 33.6 198.4 40C204.8 46.4 211.2 54.4 216 62.4C225.6 43.2 225.6 33.6 225.6 33.6z" />
    <glyph glyph-name="lock-open"
      unicode="&#xEA36;"
      horiz-adv-x="256" d="M16 16C16 6.4 22.4 0 32 0H224C233.6 0 240 6.4 240 16V160C240 169.6 233.6 176 224 176H96V192C96 209.6 110.4 224 128 224C137.6 224 145.6 220.8 152 212.8L163.2 201.6L187.2 222.4L176 235.2C163.2 248 145.6 256 128 256C92.8 256 64 227.2 64 192V176H32C22.4 176 16 169.6 16 160V16zM128 128C145.6 128 160 113.6 160 96C160 84.8 153.6 73.6 144 68.8V48H112V68.8C102.4 73.6 96 84.8 96 96C96 113.6 110.4 128 128 128z" />
    <glyph glyph-name="lock"
      unicode="&#xEA37;"
      horiz-adv-x="256" d="M128 256C92.8 256 64 227.2 64 192V176H32C22.4 176 16 169.6 16 160V16C16 6.4 22.4 0 32 0H224C233.6 0 240 6.4 240 16V160C240 169.6 233.6 176 224 176H192V192C192 227.2 163.2 256 128 256zM144 68.8V48H112V68.8C102.4 73.6 96 84.8 96 96C96 113.6 110.4 128 128 128S160 113.6 160 96C160 84.8 153.6 73.6 144 68.8zM160 176H96V192C96 209.6 110.4 224 128 224S160 209.6 160 192V176z" />
    <glyph glyph-name="minus"
      unicode="&#xEA38;"
      horiz-adv-x="256" d="M240 144H16C6.4 144 0 137.6 0 128S6.4 112 16 112H240C249.6 112 256 118.4 256 128S249.6 144 240 144z" />
    <glyph glyph-name="next-double"
      unicode="&#xEA39;"
      horiz-adv-x="256" d="M32 0C22.4 0 16 6.4 16 16C16 19.2 17.6 24 19.2 27.2L107.2 128L19.2 230.4C14.4 236.8 14.4 246.4 20.8 252.8S38.4 257.6 43.2 251.2L139.2 139.2C144 132.8 144 124.8 139.2 118.4L43.2 6.4C41.6 1.6 36.8 0 32 0zM128 0C118.4 0 112 6.4 112 16C112 19.2 113.6 24 115.2 27.2L203.2 128L115.2 230.4C110.4 236.8 110.4 246.4 116.8 252.8C123.2 259.2 134.4 257.6 139.2 251.2L235.2 139.2C240 132.8 240 124.8 235.2 118.4L139.2 6.4C137.6 1.6 132.8 0 128 0z" />
    <glyph glyph-name="next-single"
      unicode="&#xEA3A;"
      horiz-adv-x="256" d="M81.6 -6.4L57.6 14.4L155.2 128L57.6 241.6L81.6 262.4L188.8 137.6C193.6 131.2 193.6 123.2 188.8 116.8L81.6 -6.4z" />
    <glyph glyph-name="notification-bell"
      unicode="&#xEA3B;"
      horiz-adv-x="256" d="M160 32H96C96 14.4 110.4 0 128 0S160 14.4 160 32zM240 80H232C220.8 91.2 208 107.2 208 128V176C208 220.8 172.8 256 128 256S48 220.8 48 176V128C48 107.2 35.2 91.2 24 80H16C6.4 80 0 73.6 0 64S6.4 48 16 48H240C249.6 48 256 54.4 256 64S249.6 80 240 80z" />
    <glyph glyph-name="notification-speaker"
      unicode="&#xEA3C;"
      horiz-adv-x="256" d="M56 192C25.6 192 0 166.4 0 136S25.6 80 56 80H57.6L99.2 11.2C105.6 0 120 -3.2 132.8 3.2C144 9.6 147.2 24 140.8 36.8L113.6 80H144L256 16V256L144 192H56z" />
    <glyph glyph-name="overview"
      unicode="&#xEA3D;"
      horiz-adv-x="256" d="M0 256H64V192H0V256zM96 256H160V192H96V256zM192 256H256V192H192V256zM0 160H64V96H0V160zM96 160H160V96H96V160zM192 160H256V96H192V160zM0 64H64V0H0V64zM96 64H160V0H96V64zM192 64H256V0H192V64z" />
    <glyph glyph-name="past"
      unicode="&#xEA3E;"
      horiz-adv-x="256" d="M176 0V80H256V256H80V176H0V0H176zM32 144H144V32H32V144z" />
    <glyph glyph-name="pen-1"
      unicode="&#xEA3F;"
      horiz-adv-x="256" d="M129.6 200L4.8 75.2C1.6 72 0 68.8 0 64V16C0 6.4 6.4 0 16 0H64C68.8 0 72 1.6 75.2 4.8L200 129.6L129.6 200zM251.2 203.2L203.2 251.2C196.8 257.6 187.2 257.6 180.8 251.2L152 222.4L222.4 152L251.2 180.8C257.6 187.2 257.6 196.8 251.2 203.2z" />
    <glyph glyph-name="pen-2"
      unicode="&#xEA40;"
      horiz-adv-x="256" d="M243.2 115.2L155.2 203.2C148.8 209.6 139.2 209.6 132.8 203.2L20.8 91.2C19.2 89.6 17.6 86.4 16 83.2L0 19.2C-1.6 11.2 3.2 1.6 11.2 0H19.2L83.2 16C86.4 16 88 17.6 91.2 20.8L192 121.6L209.6 104L156.8 51.2C150.4 44.8 150.4 35.2 156.8 28.8S172.8 22.4 179.2 28.8L243.2 92.8C249.6 99.2 249.6 108.8 243.2 115.2zM177.6 225.6L225.6 177.6L246.4 198.4C259.2 211.2 259.2 233.6 244.8 246.4C232 259.2 211.2 259.2 198.4 246.4L177.6 225.6z" />
    <glyph glyph-name="people"
      unicode="&#xEA41;"
      horiz-adv-x="256" d="M163.2 73.6L120 105.6C134.4 116.8 144 132.8 144 152V164.8C144 195.2 121.6 222.4 91.2 224C59.2 225.6 32 200 32 168V152C32 132.8 41.6 116.8 56 105.6L12.8 72C4.8 65.6 0 56 0 46.4V16C0 6.4 6.4 0 16 0H160C169.6 0 176 6.4 176 16V48C176 57.6 171.2 67.2 163.2 73.6zM241.6 153.6L212.8 172.8C219.2 179.2 224 188.8 224 200V214.4C224 233.6 209.6 252.8 190.4 256S155.2 248 147.2 233.6C164.8 217.6 176 195.2 176 169.6V153.6C176 139.2 172.8 124.8 166.4 113.6C166.4 113.6 185.6 99.2 185.6 97.6H240C249.6 97.6 256 104 256 113.6V126.4C256 137.6 251.2 147.2 241.6 153.6z" />
    <glyph glyph-name="person-add"
      unicode="&#xEA42;"
      horiz-adv-x="256" d="M64 192A64 64 0 0 1 192 192A64 64 0 0 1 64 192M256 64H224V96H192V64H160V32H192V0H224V32H256zM128 48C128 65.6 134.4 81.6 144 96H128C76.8 96 40 83.2 19.2 73.6C8 68.8 0 57.6 0 44.8V0H144C134.4 12.8 128 30.4 128 48z" />
    <glyph glyph-name="person-check"
      unicode="&#xEA43;"
      horiz-adv-x="256" d="M112 32C112 56 120 78.4 136 96H128C76.8 96 40 83.2 19.2 73.6C8 68.8 0 57.6 0 44.8V0H116.8C113.6 9.6 112 20.8 112 32zM64 192A64 64 0 0 1 192 192A64 64 0 0 1 64 192M176 0C171.2 0 168 1.6 164.8 4.8L132.8 36.8L155.2 59.2L176 38.4L228.8 91.2L251.2 68.8L187.2 4.8C184 1.6 180.8 0 176 0z" />
    <glyph glyph-name="person-edit"
      unicode="&#xEA44;"
      horiz-adv-x="256" d="M64 192A64 64 0 0 1 192 192A64 64 0 0 1 64 192M112 44.8L161.6 94.4C150.4 96 139.2 96 128 96C76.8 96 40 83.2 19.2 73.6C8 68.8 0 57.6 0 44.8V0H112V44.8zM176 0H144V32L224 112L256 80z" />
    <glyph glyph-name="person-heart"
      unicode="&#xEA45;"
      horiz-adv-x="256" d="M64 192A64 64 0 0 1 192 192A64 64 0 0 1 64 192M115.2 30.4C102.4 43.2 96 59.2 96 76.8C96 83.2 97.6 88 99.2 94.4C62.4 91.2 35.2 81.6 19.2 73.6C8 68.8 0 57.6 0 44.8V0H147.2L115.2 30.4zM246.4 102.4C230.4 118.4 204.8 115.2 192 97.6C179.2 115.2 153.6 118.4 137.6 102.4C123.2 89.6 123.2 67.2 137.6 54.4L192 0L246.4 52.8C259.2 67.2 259.2 88 246.4 102.4z" />
    <glyph glyph-name="person-remove"
      unicode="&#xEA46;"
      horiz-adv-x="256" d="M64 192A64 64 0 0 1 192 192A64 64 0 0 1 64 192M160 64H256V32H160zM128 48C128 65.6 134.4 81.6 144 96H128C76.8 96 40 83.2 19.2 73.6C8 68.8 0 57.6 0 44.8V0H144C134.4 12.8 128 30.4 128 48z" />
    <glyph glyph-name="person"
      unicode="&#xEA47;"
      horiz-adv-x="256" d="M64 192A64 64 0 0 1 192 192A64 64 0 0 1 64 192M256 44.8C256 57.6 249.6 68.8 236.8 73.6C216 83.2 179.2 96 128 96S40 83.2 19.2 73.6C8 68.8 0 57.6 0 44.8V0H256V44.8z" />
    <glyph glyph-name="plus"
      unicode="&#xEA48;"
      horiz-adv-x="256" d="M240 144H144V240C144 249.6 137.6 256 128 256S112 249.6 112 240V144H16C6.4 144 0 137.6 0 128S6.4 112 16 112H112V16C112 6.4 118.4 0 128 0S144 6.4 144 16V112H240C249.6 112 256 118.4 256 128S249.6 144 240 144z" />
    <glyph glyph-name="preferences"
      unicode="&#xEA49;"
      horiz-adv-x="256" d="M80 176V240C80 249.6 73.6 256 64 256S48 249.6 48 240V176C48 166.4 54.4 160 64 160S80 166.4 80 176zM16 80C16 59.2 30.4 41.6 48 35.2V16C48 6.4 54.4 0 64 0S80 6.4 80 16V32V35.2C99.2 41.6 112 59.2 112 80C112 107.2 91.2 128 64 128S16 107.2 16 80zM176 80V16C176 6.4 182.4 0 192 0S208 6.4 208 16V80C208 89.6 201.6 96 192 96S176 89.6 176 80zM144 176C144 148.8 164.8 128 192 128S240 148.8 240 176C240 196.8 225.6 214.4 208 220.8V240C208 249.6 201.6 256 192 256S176 249.6 176 240V220.8C158.4 214.4 144 196.8 144 176z" />
    <glyph glyph-name="previous-double"
      unicode="&#xEA4A;"
      horiz-adv-x="256" d="M224 0C219.2 0 214.4 1.6 211.2 6.4L115.2 118.4C110.4 124.8 110.4 132.8 115.2 139.2L211.2 251.2C217.6 257.6 227.2 259.2 233.6 252.8C240 246.4 241.6 236.8 235.2 230.4L148.8 128L235.2 25.6C241.6 19.2 240.0000000000001 8 233.6 3.2C232.0000000000001 1.6 227.2 0 224 0zM128 0C123.2 0 118.4 1.6 115.2 6.4L19.2 118.4C14.4 124.8 14.4 132.8 19.2 139.2L115.2 251.2C121.6 257.6 131.2 259.2 137.6 252.8C144 246.4 145.6 236.8 139.2 230.4L52.8 128L139.2 25.6C145.6 19.2 144 8 137.6 3.2C136 1.6 131.2 0 128 0z" />
    <glyph glyph-name="previous-single"
      unicode="&#xEA4B;"
      horiz-adv-x="256" d="M174.4 -6.4L67.2 118.4C62.4 124.8 62.4 132.8 67.2 139.2L174.4 264L198.4 243.2L100.8 128L198.4 14.4L174.4 -6.4z" />
    <glyph glyph-name="public"
      unicode="&#xEA4C;"
      horiz-adv-x="256" d="M128 32C185.6 32 230.4 81.6 249.6 110.4C257.6 121.6 257.6 136 249.6 147.2C230.4 174.4 185.6 224 128 224S25.6 174.4 6.4 145.6C-1.6 134.4 -1.6 120 6.4 110.4C25.6 81.6 70.4 32 128 32zM128 176C155.2 176 176 155.2 176 128S155.2 80 128 80S80 100.8 80 128S100.8 176 128 176z" />
    <glyph glyph-name="qr"
      unicode="&#xEA4D;"
      horiz-adv-x="256" d="M96 144H16C6.4 144 0 150.4 0 160V240C0 249.6 6.4 256 16 256H96C105.6 256 112 249.6 112 240V160C112 150.4 105.6 144 96 144zM32 176H80V224H32V176zM96 0H16C6.4 0 0 6.4 0 16V96C0 105.6 6.4 112 16 112H96C105.6 112 112 105.6 112 96V16C112 6.4 105.6 0 96 0zM32 32H80V80H32V32zM240 144H160C150.4 144 144 150.4 144 160V240C144 249.6 150.4 256 160 256H240C249.6 256 256 249.6 256 240V160C256 150.4 249.6 144 240 144zM176 176H224V224H176V176zM48 208H64V192H48V208zM48 64H64V48H48V64zM144 32H256V0H144V32zM256 48H224V80H176V112H240C249.6 112 256 105.6 256 96V48zM192 64H208V48H192V64zM192 208H208V192H192V208z" />
    <glyph glyph-name="receive"
      unicode="&#xEA4E;"
      horiz-adv-x="256" d="M22.1866666666667 256L0 233.8133333333334L97.28 136.5333333333333H25.6V105.8133333333333H133.12C141.6533333333333 105.8133333333333 148.48 112.64 148.48 121.1733333333334V230.4H117.76V160.4266666666667L22.1866666666667 256zM29.0133333333333 15.36L59.7333333333333 30.72H226.9866666666667V196.2666666666667L242.3466666666667 226.9866666666667C250.88 226.9866666666667 256 221.8666666666667 256 211.6266666666667V13.6533333333333C256 5.12 249.1733333333334 -1.7066666666666 240.64 -1.7066666666666H44.3733333333333C34.1333333333333 0 29.0133333333333 5.12 29.0133333333333 15.36zM59.7333333333333 30.72H29.0133333333333V15.36M225.28 196.2666666666667V226.9866666666667H240.64" />
    <glyph glyph-name="refresh"
      unicode="&#xEA4F;"
      horiz-adv-x="256" d="M241.6 144L233.6 243.2L203.2 212.8C180.8 230.4 155.2 240 128 240C65.6 240 16 190.4 16 128S65.6 16 128 16C168 16 204.8 36.8 225.6 72L198.4 88C182.4 64 156.8 48 128 48C83.2 48 48 83.2 48 128S83.2 208 128 208C147.2 208 164.8 201.6 179.2 188.8L142.4 152L241.6 144z" />
    <glyph glyph-name="rocket"
      unicode="&#xEA50;"
      horiz-adv-x="256" d="M256 256C208 252.8 168 238.4 137.6 217.6C104 233.6 64 227.2 36.8 198.4C32 193.6 27.2 187.2 22.4 180.8L62.4 140.8C51.2 121.6 44.8 108.8 44.8 108.8L110.4 43.2S123.2 48 142.4 60.8L182.4 20.8C188.8 24 195.2 28.8 200 35.2C227.2 62.4 233.6 104 219.2 137.6C238.4 169.6 252.8 208 256 256zM9.6 54.4C22.4 67.2 41.6 67.2 54.4 54.4S67.2 22.4 54.4 9.6S0 0 0 0S-3.2 43.2 9.6 54.4z" />
    <glyph glyph-name="search"
      unicode="&#xEA51;"
      horiz-adv-x="256" d="M251.312 43.312L208 86.624C218.08 103.424 224 123.024 224 144C224 205.76 173.744 256 112 256S0 205.76 0 144S50.256 32 112 32C132.992 32 152.576 37.904 169.376 48L212.688 4.688C215.808 1.568 219.904 0 224 0S232.192 1.568 235.312 4.688L251.312 20.688C257.568 26.944 257.568 37.056 251.312 43.312zM112 64C67.824 64 32 99.824 32 144S67.824 224 112 224S192 188.176 192 144S156.176 64 112 64z" />
    <glyph glyph-name="select"
      unicode="&#xEA52;"
      horiz-adv-x="256" d="M233.6 0L172.8 60.8L144 16L112 144L240 112L195.2 83.2L256 22.4L233.6 0zM112 0H16C6.4 0 0 6.4 0 16V240C0 249.6 6.4 256 16 256H240C249.6 256 256 249.6 256 240V144H224V224H32V32H112V0z" />
    <glyph glyph-name="send"
      unicode="&#xEA53;"
      horiz-adv-x="256" d="M128 107.52L150.1866666666667 129.7066666666667L52.9066666666667 225.28H122.88V256H15.36C6.8266666666667 256 0 249.1733333333334 0 240.64V133.12H30.72V203.0933333333333L128 107.52zM29.0133333333333 15.36L59.7333333333333 30.72H226.9866666666667V196.2666666666667L242.3466666666667 226.9866666666667C250.88 226.9866666666667 256 221.8666666666667 256 211.6266666666667V13.6533333333333C256 5.12 249.1733333333334 -1.7066666666666 240.64 -1.7066666666666H44.3733333333333C34.1333333333333 0 29.0133333333333 5.12 29.0133333333333 15.36zM59.7333333333333 30.72H29.0133333333333V15.36M225.28 196.2666666666667V226.9866666666667H240.64" />
    <glyph glyph-name="ship"
      unicode="&#xEA54;"
      horiz-adv-x="256" d="M160 208L96 208L96 240L64 240L64 208L32 208L32 144L192 144zM32 16L0 112L256 112L208 16z" />
    <glyph glyph-name="small-cross"
      unicode="&#xEA55;"
      horiz-adv-x="256" d="M161.6 184L128 150.4L94.4 184L72 161.6L105.6 128L72 94.4L94.4 72L128 105.6L161.6 72L184 94.4L150.4 128L184 161.6L161.6 184z" />
    <glyph glyph-name="small-minus"
      unicode="&#xEA56;"
      horiz-adv-x="256" d="M64 144H192V112H64V144z" />
    <glyph glyph-name="small-plus"
      unicode="&#xEA57;"
      horiz-adv-x="256" d="M144 192H112V144H64V112H112V64H144V112H192V144H144V192z" />
    <glyph glyph-name="smiley"
      unicode="&#xEA58;"
      horiz-adv-x="256" d="M128 256C57.6 256 0 198.4 0 128S57.6 0 128 0S256 57.6 256 128S198.4 256 128 256zM128 32C75.2 32 32 75.2 32 128S75.2 224 128 224S224 180.8 224 128S180.8 32 128 32zM80 160A16 16 0 0 1 112 160A16 16 0 0 1 80 160M144 160A16 16 0 0 1 176 160A16 16 0 0 1 144 160M128 64C155.2 64 176 84.8 176 112H80C80 84.8 100.8 64 128 64z" />
    <glyph glyph-name="snowflake"
      unicode="&#xEA59;"
      horiz-adv-x="256" d="M235.2 115.2L200 105.6L160 128L200 150.4L236.8 140.8C244.8 139.2 254.4 144 256 152C257.6 160 252.8 169.6 244.8 171.2L217.6 179.2L224 208C225.6 216 220.8 225.6 212.8 227.2S195.2 224 193.6 216L184 179.2L144 155.2V201.6L171.2 228.8C177.6 235.2 177.6 244.8 171.2 251.2S155.2 257.6 148.8 251.2L128 230.4L107.2 251.2C100.8 257.6 91.2 257.6 84.8 251.2S78.4 235.2 84.8 228.8L112 201.6V155.2L72 179.2L62.4 216C60.8 224 51.2 228.8 43.2 227.2C33.6 225.6 28.8 216 32 208L40 179.2L12.8 172.8C3.2 169.6 -1.6 161.6 0 152C3.2 144 11.2 139.2 20.8 140.8L57.6 150.4L96 128L56 105.6L20.8 115.2C11.2 116.8 3.2 112 0 104S3.2 86.4 11.2 84.8L38.4 78.4L32 48C30.4 40 35.2 30.4 43.2 28.8C51.2 27.2 60.8 32 62.4 40L72 76.8L112 100.8V54.4L84.8 27.2C78.4 20.8 78.4 11.2 84.8 4.8C91.2 -1.6 100.8 -1.6 107.2 4.8L128 25.6L148.8 4.8C155.2 -1.6 164.8 -1.6 171.2 4.8C177.6 11.2 177.6 20.8 171.2 27.2L144 54.4V100.8L184 78.4L193.6 41.6C195.2 33.6 204.8 27.2 212.8 30.4C220.8 32 227.2 41.6 224 49.6L216 78.4L243.2 84.8C251.2 86.4 256 96 254.4 104S243.2 116.8000000000001 235.2 115.2z" />
    <glyph glyph-name="stake"
      unicode="&#xEA5A;"
      horiz-adv-x="256" d="M128 160C174.4 160 224 174.4 224 208S174.4 256 128 256S32 241.6 32 208S81.6 160 128 160zM32 152V128C32 94.4 81.6 80 128 80S224 94.4 224 128V152C201.6 137.6 168 128 128 128S54.4 137.6 32 152zM32 72V48C32 14.4 81.6 0 128 0S224 14.4 224 48V72C201.6 56 168 48 128 48S54.4 57.6 32 72z" />
    <glyph glyph-name="swap"
      unicode="&#xEA5B;"
      horiz-adv-x="256" d="M0 208A48 48 0 0 1 96 208A48 48 0 0 1 0 208M160 48A48 48 0 0 1 256 48A48 48 0 0 1 160 48M144 64L64 128V80H32V144H0V48H64V0zM192 208V256L112 192L192 128V176H224V112H256V208z" />
    <glyph glyph-name="tool"
      unicode="&#xEA5C;"
      horiz-adv-x="256" d="M211.2 172.8L172.8 211.2L211.2 249.6C203.2 254.4 193.6 256 184 256C144 256 112 224 112 184C112 176 113.6 169.6 115.2 161.6L9.6 83.2C-3.2 73.6 -3.2 56 6.4 44.8L43.2 6.4C54.4 -4.8 72 -3.2 81.6 9.6L160 115.2C168 113.6 176 112 184 112C224 112 256 144 256 184C256 193.6 254.4 203.2 251.2 211.2L211.2 172.8z" />
    <glyph glyph-name="transfer"
      unicode="&#xEA5D;"
      horiz-adv-x="256" d="M72 184C102.4 214.4 153.6 214.4 184 184C195.2 172.8 203.2 156.8 206.4 140.8L238.4 145.6C235.2 169.6 224 190.4 208 206.4C164.8 249.6 94.4 249.6 49.6 206.4L14.4 241.6L3.2 139.2L105.6 150.4L72 184zM252.8 116.8L150.4 105.6L184 72C153.6 41.6 102.4 41.6 72 72C60.8 83.2 52.8 99.2 49.6 115.2000000000001L17.6 110.4C20.8 86.4 32 65.6 48 49.6C70.4 27.2 97.6 17.6 126.4 17.6S184 28.8 204.8 49.6L240 14.4L252.8 116.8000000000001z" />
    <glyph glyph-name="triangle-down"
      unicode="&#xEA5E;"
      horiz-adv-x="256" d="M48 176L128 80L208 176H48z" />
    <glyph glyph-name="triangle-left"
      unicode="&#xEA5F;"
      horiz-adv-x="256" d="M176 208L80 128L176 48V208z" />
    <glyph glyph-name="triangle-right"
      unicode="&#xEA60;"
      horiz-adv-x="256" d="M80 48L176 128L80 208V48z" />
    <glyph glyph-name="triangle-up"
      unicode="&#xEA61;"
      horiz-adv-x="256" d="M208 80L128 176L48 80H208z" />
    <glyph glyph-name="truck"
      unicode="&#xEA62;"
      horiz-adv-x="256" d="M244.8 158.4L203.2 172.8L174.4 246.4C172.8 252.8 166.4 256 160 256H16C6.4 256 0 249.6 0 240V48C0 38.4 6.4 32 16 32H68.8C78.4 12.8 97.6 0 120 0C142.4 0 161.6 12.8 171.2 33.6C172.8 33.6 174.4 32 176 32H240C249.6 32 256 38.4 256 48V144C256 150.4 251.2 156.8 244.8 158.4zM224 64H176C176 64 176 64 176 64C172.8 91.2 148.8 112 120 112C91.2 112 68.8 91.2 65.6 64H32V224H148.8L176 153.6C177.6 148.8 180.8 145.6 185.6 144L224 132.8V64zM112 208H80V160C80 150.4 86.4 144 96 144H144V176H112V208z" />
    <glyph glyph-name="zoom-bold-in"
      unicode="&#xEA63;"
      horiz-adv-x="256" d="M160 128H128V96H96V128H64V160H96V192H128V160H160V128zM251.312 43.312L208 86.624C218.08 103.424 224 123.024 224 144C224 205.76 173.744 256 112 256S0 205.76 0 144S50.256 32 112 32C132.992 32 152.576 37.904 169.376 48L212.688 4.688C215.808 1.568 219.904 0 224 0S232.192 1.568 235.312 4.688L251.312 20.688C257.568 26.944 257.568 37.056 251.312 43.312zM112 64C67.824 64 32 99.824 32 144S67.824 224 112 224S192 188.176 192 144S156.176 64 112 64z" />
    <glyph glyph-name="zoom-out"
      unicode="&#xEA64;"
      horiz-adv-x="256" d="M64 160H160V128H64V160zM251.312 43.312L208 86.624C218.08 103.424 224 123.024 224 144C224 205.76 173.744 256 112 256S0 205.76 0 144S50.256 32 112 32C132.992 32 152.576 37.904 169.376 48L212.688 4.688C215.808 1.568 219.904 0 224 0S232.192 1.568 235.312 4.688L251.312 20.688C257.568 26.944 257.568 37.056 251.312 43.312zM112 64C67.824 64 32 99.824 32 144S67.824 224 112 224S192 188.176 192 144S156.176 64 112 64z" />
  </font>
</defs>
</svg>
