<?xml version="1.0" encoding="UTF-8" standalone="no"?>
<!DOCTYPE svg PUBLIC "-//W3C//DTD SVG 1.1//EN"
 "http://www.w3.org/Graphics/SVG/1.1/DTD/svg11.dtd">
<!-- Generated by graphviz version 2.40.1 (20161225.0304)
 -->
<!-- Title: dependencies Pages: 1 -->
<svg width="504pt" height="284pt"
 viewBox="0.00 0.00 504.00 284.00" xmlns="http://www.w3.org/2000/svg" xmlns:xlink="http://www.w3.org/1999/xlink">
<g id="graph0" class="graph" transform="scale(1 1) rotate(0) translate(4 280)">
<title>dependencies</title>
<polygon fill="#ffffff" stroke="transparent" points="-4,4 -4,-280 500,-280 500,4 -4,4"/>
<text text-anchor="start" x="227.0091" y="-42.4" font-family="sans-serif" font-weight="bold" font-size="14.00" fill="#000000">Legend</text>
<polygon fill="#ffffb3" stroke="transparent" points="14,-10 14,-30 34,-30 34,-10 14,-10"/>
<text text-anchor="start" x="37.629" y="-15.4" font-family="sans-serif" font-size="14.00" fill="#000000"> &#160;Declarations</text>
<polygon fill="#8dd3c7" stroke="transparent" points="127,-10 127,-30 147,-30 147,-10 127,-10"/>
<text text-anchor="start" x="150.7251" y="-15.4" font-family="sans-serif" font-size="14.00" fill="#000000"> &#160;Module</text>
<polygon fill="#80b1d3" stroke="transparent" points="213,-10 213,-30 233,-30 233,-10 213,-10"/>
<text text-anchor="start" x="236.7812" y="-15.4" font-family="sans-serif" font-size="14.00" fill="#000000"> &#160;Bootstrap</text>
<polygon fill="#fdb462" stroke="transparent" points="310,-10 310,-30 330,-30 330,-10 310,-10"/>
<text text-anchor="start" x="333.6732" y="-15.4" font-family="sans-serif" font-size="14.00" fill="#000000"> &#160;Providers</text>
<polygon fill="#fb8072" stroke="transparent" points="406,-10 406,-30 426,-30 426,-10 406,-10"/>
<text text-anchor="start" x="429.7258" y="-15.4" font-family="sans-serif" font-size="14.00" fill="#000000"> &#160;Exports</text>
<g id="clust1" class="cluster">
<title>cluster_LayoutsModule</title>
<polygon fill="none" stroke="#000000" stroke-dasharray="1,5" points="66,-70 66,-268 430,-268 430,-70 66,-70"/>
</g>
<g id="clust2" class="cluster">
<title>cluster_LayoutsModule_declarations</title>
<polygon fill="none" stroke="#000000" points="236,-78 236,-130 422,-130 422,-78 236,-78"/>
</g>
<g id="clust5" class="cluster">
<title>cluster_LayoutsModule_exports</title>
<polygon fill="none" stroke="#000000" points="154,-208 154,-260 342,-260 342,-208 154,-208"/>
</g>
<g id="clust7" class="cluster">
<title>cluster_LayoutsModule_providers</title>
<polygon fill="none" stroke="#000000" points="74,-78 74,-130 228,-130 228,-78 74,-78"/>
</g>
<!-- LayoutSideNavComponent -->
<g id="node1" class="node">
<title>LayoutSideNavComponent</title>
<polygon fill="#ffffb3" stroke="#000000" points="413.6993,-122 244.3007,-122 244.3007,-86 413.6993,-86 413.6993,-122"/>
<text text-anchor="middle" x="329" y="-99.8" font-family="Times,serif" font-size="14.00" fill="#000000">LayoutSideNavComponent</text>
</g>
<!-- LayoutsModule -->
<g id="node2" class="node">
<title>LayoutsModule</title>
<polygon fill="#8dd3c7" stroke="#000000" points="300.1528,-187 297.1528,-191 276.1528,-191 273.1528,-187 195.8472,-187 195.8472,-151 300.1528,-151 300.1528,-187"/>
<text text-anchor="middle" x="248" y="-164.8" font-family="Times,serif" font-size="14.00" fill="#000000">LayoutsModule</text>
</g>
<!-- LayoutSideNavComponent&#45;&gt;LayoutsModule -->
<g id="edge1" class="edge">
<title>LayoutSideNavComponent&#45;&gt;LayoutsModule</title>
<path fill="none" stroke="#000000" d="M272.3633,-122.1061C272.3633,-122.1061 272.3633,-140.991 272.3633,-140.991"/>
<polygon fill="#000000" stroke="#000000" points="268.8633,-140.9909 272.3633,-150.991 275.8633,-140.991 268.8633,-140.9909"/>
</g>
<!-- LayoutSideNavComponent  -->
<g id="node3" class="node">
<title>LayoutSideNavComponent </title>
<polygon fill="#fb8072" stroke="#000000" points="334.1995,-252 161.8005,-252 161.8005,-216 334.1995,-216 334.1995,-252"/>
<text text-anchor="middle" x="248" y="-229.8" font-family="Times,serif" font-size="14.00" fill="#000000">LayoutSideNavComponent </text>
</g>
<!-- LayoutsModule&#45;&gt;LayoutSideNavComponent  -->
<g id="edge2" class="edge">
<title>LayoutsModule&#45;&gt;LayoutSideNavComponent </title>
<path fill="none" stroke="#000000" stroke-dasharray="5,2" d="M248,-187.1061C248,-187.1061 248,-205.991 248,-205.991"/>
<polygon fill="#000000" stroke="#000000" points="244.5001,-205.9909 248,-215.991 251.5001,-205.991 244.5001,-205.9909"/>
</g>
<!-- ModalsService -->
<g id="node4" class="node">
<title>ModalsService</title>
<ellipse fill="#fdb462" stroke="#000000" cx="151" cy="-104" rx="68.9177" ry="18"/>
<text text-anchor="middle" x="151" y="-99.8" font-family="Times,serif" font-size="14.00" fill="#000000">ModalsService</text>
</g>
<!-- ModalsService&#45;&gt;LayoutsModule -->
<g id="edge3" class="edge">
<title>ModalsService&#45;&gt;LayoutsModule</title>
<path fill="none" stroke="#000000" d="M207.8164,-114.4434C207.8164,-114.4434 207.8164,-140.9681 207.8164,-140.9681"/>
<polygon fill="#000000" stroke="#000000" points="204.3165,-140.968 207.8164,-150.9681 211.3165,-140.9681 204.3165,-140.968"/>
</g>
</g>
</svg>
