<svg version="1.1" xmlns="http://www.w3.org/2000/svg" xmlns:xlink="http://www.w3.org/1999/xlink" x="0px" y="0px" viewBox="0 0 16 16" xml:space="preserve" width="16" height="16"><g class="nc-icon-wrapper" fill="#444444"><path fill="#444444" d="M7,14c0-1.531,0.578-2.924,1.522-3.984C8.348,10.011,8.18,10,8,10c-3.192,0-5.539,0.795-6.837,1.382 C0.45,11.705,0,12.417,0,13.2V16h7.349C7.127,15.374,7,14.702,7,14z"></path> <circle fill="#444444" cx="8" cy="4" r="4"></circle> <path data-color="color-2" fill="#444444" d="M11,16c-0.256,0-0.512-0.098-0.707-0.293l-2-2l1.414-1.414L11,13.586l3.293-3.293 l1.414,1.414l-4,4C11.512,15.902,11.256,16,11,16z"></path></g></svg>