<svg xmlns="http://www.w3.org/2000/svg" x="0" y="0" viewBox="0 0 16 16" enable-background="new 0 0 16 16" width="16" height="16"><g class="nc-icon-wrapper" fill="#444444"><path class="st0" d="M14.6 5.6l-8.2 8.2c.5.1 1.1.2 1.6.2 3.6 0 6.4-3.1 7.6-4.9.5-.7.5-1.6 0-2.3-.2-.3-.6-.7-1-1.2z" fill="#444444"></path><path class="st0" d="M14.3.3L11.6 3C10.5 2.4 9.3 2 8 2 4.4 2 1.6 5.1.4 6.9c-.5.7-.5 1.6 0 2.2.5.8 1.4 1.8 2.4 2.7L.3 14.3c-.4.4-.4 1 0 1.4.2.2.4.3.7.3s.5-.1.7-.3l14-14c.4-.4.4-1 0-1.4s-1-.4-1.4 0zm-9 9C5.1 8.9 5 8.5 5 8c0-1.7 1.3-3 3-3 .5 0 .9.1 1.3.3l-4 4z" fill="#444444"></path></g></svg>