<svg version="1.1" id="Layer_1" xmlns="http://www.w3.org/2000/svg" x="0" y="0" viewBox="0 0 16 16" xml:space="preserve" enable-background="new 0 0 16 16" width="16" height="16"><g class="nc-icon-wrapper" fill="#111111"><title>bitcointalk</title><path class="st0" d="M13.8 6.4c.3-1.7-1-2.6-2.8-3.2l.6-2.2-1.4-.3-.6 2.2c-.3-.1-.7-.2-1.1-.3L9.1.4 7.7 0l-.6 2.3c-.3-.1-.6-.1-.9-.2l-1.9-.5L4 3.1l1 .2c.6.1.7.5.6.8L5 6.7h.1H5l-.9 3.6c-.1.2-.2.4-.6.3l-1-.3-.8 1.7 1.8.4c.3.1.7.2 1 .3L4 15l1.4.3L6 13c.4.1.7.2 1.1.3l-.6 2.3 1.3.4.6-2.3c2.4.4 4.1.3 4.9-1.9.6-1.7 0-2.7-1.3-3.3.9-.2 1.6-.8 1.8-2.1zm-3.2 4.5c-.4 1.7-3.3.8-4.3.6l.8-3c.9.1 4 .6 3.5 2.4zm.4-4.5c-.4 1.6-2.8.8-3.5.6l.7-2.8c.7.2 3.2.6 2.8 2.2z" fill="#111111"/></g></svg>