<svg xmlns="http://www.w3.org/2000/svg" x="0" y="0" viewBox="0 0 16 16" enable-background="new 0 0 16 16" width="16" height="16"><g class="nc-icon-wrapper" fill="#444444"><path class="st0" d="M14.6 5.7l-1.4 1.4c.3.3.5.7.7.9-.8 1.1-2.9 3.8-5.6 4l-1.8 1.8c.4.1 1 .2 1.5.2 4.7 0 7.7-5.3 7.9-5.5.2-.3.2-.7 0-1-.1-.1-.5-.9-1.3-1.8z" fill="#444444"></path><path class="st0" d="M.3 15.7c.2.2.4.3.7.3s.5-.1.7-.3l14-14c.4-.4.4-1 0-1.4s-1-.4-1.4 0L11.5 3c-1-.6-2.2-1-3.5-1C3.2 2 .3 7.3.1 7.5c-.1.3-.1.7 0 1 .1.1 1 1.8 2.7 3.3L.3 14.3c-.4.4-.4 1 0 1.4zM2.2 8C3 6.8 5.1 4 8 4c.7 0 1.4.2 2.1.5L8.5 6.1C8.3 6 8.2 6 8 6c-1.1 0-2 .9-2 2 0 .2 0 .3.1.5l-1.8 1.8c-1-.8-1.7-1.7-2.1-2.3z" fill="#444444"></path></g></svg>