<svg version="1.1" xmlns="http://www.w3.org/2000/svg" xmlns:xlink="http://www.w3.org/1999/xlink" x="0px" y="0px" viewBox="0 0 16 16" xml:space="preserve" width="16" height="16"><g class="nc-icon-wrapper" fill="#444444"><path fill="#444444" d="M16,10V8h-2c-0.1-0.8-0.3-1.5-0.6-2.2l2-1.7l-1.3-1.5l-1.8,1.5c-0.3-0.3-0.6-0.6-0.9-0.9C11.5,1.7,9.8,0,8,0 S4.5,1.7,4.5,3.2C4.2,3.5,3.9,3.7,3.6,4.1L1.9,2.6L0.6,4.1l2,1.7C2.3,6.5,2.1,7.2,2,8H0v2h2c0.1,1,0.5,2,0.9,2.9l-1.6,1.4l1.3,1.5 l1.5-1.3c1,1,2.4,1.6,3.8,1.6s2.8-0.6,3.8-1.6l1.5,1.3l1.3-1.5l-1.6-1.4C13.6,12,13.9,11,14,10H16z"></path></g></svg>