<svg xmlns="http://www.w3.org/2000/svg" x="0" y="0" viewBox="0 0 16 16" enable-background="new 0 0 16 16" width="16" height="16"><g class="nc-icon-wrapper" fill="#444444"><path class="st0" d="M16 10V8h-2c-.1-.8-.3-1.5-.6-2.2l2-1.7-1.3-1.5-1.8 1.5-.9-.9C11.5 1.7 9.8 0 8 0S4.5 1.7 4.5 3.2c-.3.3-.6.5-.9.9L1.9 2.6.6 4.1l2 1.7c-.3.7-.5 1.4-.6 2.2H0v2h2c.1 1 .5 2 .9 2.9l-1.6 1.4 1.3 1.5 1.5-1.3c1 1 2.4 1.6 3.8 1.6s2.8-.6 3.8-1.6l1.5 1.3 1.3-1.5-1.6-1.4c.7-.9 1-1.9 1.1-2.9h2z" fill="#444444"></path></g></svg>