<svg version="1.1" xmlns="http://www.w3.org/2000/svg" xmlns:xlink="http://www.w3.org/1999/xlink" x="0px" y="0px" viewBox="0 0 16 16" xml:space="preserve" width="16" height="16"><g class="nc-icon-wrapper" fill="#444444"><path fill="#444444" d="M15,0H1C0.447,0,0,0.448,0,1v10c0,0.552,0.447,1,1,1h4v-2H2V6h12v2h2V1C16,0.448,15.553,0,15,0z M2,4V2h12v2 H2z"></path> <polygon data-color="color-2" fill="#444444" points="15,11 12,11 12,8 10,8 10,11 7,11 7,13 10,13 10,16 12,16 12,13 15,13 "></polygon></g></svg>