<svg xmlns="http://www.w3.org/2000/svg" viewBox="0 0 16 16" width="16" height="16"><title>cart add</title><g class="nc-icon-wrapper" fill="#111111"><path fill="#111111" d="M13,11H3c-0.553,0-1-0.448-1-1V2H0V0h3c0.553,0,1,0.448,1,1v8h8.246l1.428-5H12V2h3 c0.917,0,1.048,0.973,0.962,1.275l-2,7C13.839,10.704,13.446,11,13,11z"/> <circle data-color="color-2" cx="3" cy="14" r="2"/> <circle data-color="color-2" cx="13" cy="14" r="2"/> <polygon data-color="color-2" points="9,5 9,1 7,1 7,5 5,5 8,8 11,5 "/></g></svg>