<svg xmlns="http://www.w3.org/2000/svg" xmlns:xlink="http://www.w3.org/1999/xlink" x="0px" y="0px" viewBox="0 0 16 16" width="16" height="16"><title>chat discussion</title><g class="nc-icon-wrapper" fill="#111111"><path data-color="color-2" fill="#111111" d="M15,4h-1v6c0,0.552-0.448,1-1,1H6.828L5,13h5l3,3v-3h2c0.552,0,1-0.448,1-1V5 C16,4.448,15.552,4,15,4z"/> <path fill="#111111" d="M1,0h10c0.552,0,1,0.448,1,1v7c0,0.552-0.448,1-1,1H6l-3,3V9H1C0.448,9,0,8.552,0,8V1C0,0.448,0.448,0,1,0z"/></g></svg>