<svg xmlns="http://www.w3.org/2000/svg" xmlns:xlink="http://www.w3.org/1999/xlink" x="0px" y="0px" viewBox="0 0 16 16" width="16" height="16"><title>check in a box</title><g class="nc-icon-wrapper" fill="#111111"><path data-color="color-2" fill="#111111" d="M13.3,2.3L7,8.6L5.7,7.3c-0.4-0.4-1-0.4-1.4,0s-0.4,1,0,1.4l2,2C6.5,10.9,6.7,11,7,11 s0.5-0.1,0.7-0.3l7-7c0.4-0.4,0.4-1,0-1.4S13.7,1.9,13.3,2.3z"/> <path fill="#111111" d="M1,16h12c0.6,0,1-0.4,1-1v-5c0-0.6-0.4-1-1-1s-1,0.4-1,1v4H2V4h5c0.6,0,1-0.4,1-1S7.6,2,7,2H1 C0.4,2,0,2.4,0,3v12C0,15.6,0.4,16,1,16z"/></g></svg>