<svg xmlns="http://www.w3.org/2000/svg" x="0" y="0" viewBox="0 0 16 16" width="16" height="16"><g class="nc-icon-wrapper" fill="#444444"><g class="nc-icon-wrapper" fill="#444444"><path fill="#444444" d="M6 9.007H1a1 1 0 0 0 0 2h5a1 1 0 0 0 0-2z"></path><path fill="#444444" d="M6 13H1a1 1 0 0 0 0 2h5a1 1 0 0 0 0-2z"></path><path fill="#444444" d="M1 3h14a1 1 0 0 0 0-2H1a1 1 0 0 0 0 2z"></path><path fill="#444444" d="M15 5H1a1 1 0 0 0 0 2h14a1 1 0 0 0 0-2z"></path><path data-color="color-2" fill="#444444" d="M15.707 9.293a.999.999 0 0 0-1.414 0L13 10.586l-1.293-1.293a.999.999 0 1 0-1.414 1.414L11.586 12l-1.293 1.293a.999.999 0 1 0 1.414 1.414L13 13.414l1.293 1.293a.997.997 0 0 0 1.414 0 .999.999 0 0 0 0-1.414L14.414 12l1.293-1.293a.999.999 0 0 0 0-1.414z"></path></g></g></svg>