<svg xmlns="http://www.w3.org/2000/svg" x="0" y="0" viewBox="0 0 16 16" enable-background="new 0 0 16 16" width="16" height="16"><g class="nc-icon-wrapper" fill="#444444"><path class="st0" d="M13.3 5.2l1.1-2.1L13 1.7l-2.1 1.1c-.3-.2-.7-.3-1.1-.4L9 0H7l-.8 2.3c-.3.1-.7.2-1 .4L3.1 1.6 1.6 3.1l1.1 2.1c-.2.3-.3.7-.4 1L0 7v2l2.3.8c.1.4.3.7.4 1.1L1.6 13 3 14.4l2.1-1.1c.3.2.7.3 1.1.4L7 16h2l.8-2.3c.4-.1.7-.3 1.1-.4l2.1 1.1 1.4-1.4-1.1-2.1c.2-.3.3-.7.4-1.1L16 9V7l-2.3-.8c-.1-.3-.2-.7-.4-1zM8 11c-1.7 0-3-1.3-3-3s1.3-3 3-3 3 1.3 3 3-1.3 3-3 3z" fill="#444444"></path></g></svg>