<svg xmlns="http://www.w3.org/2000/svg" x="0" y="0" viewBox="0 0 16 16" enable-background="new 0 0 16 16" width="16" height="16"><g class="nc-icon-wrapper" fill="#444444"><path class="st0" d="M4.4 13.4V1.3h4.4c1.7 0 2.7.1 3.2.2.8.2 1.4.6 1.9 1.3s.8 1.5.8 2.6c0 .8-.1 1.5-.4 2.1-.3.6-.7 1-1.1 1.3-.5.3-.9.5-1.4.6-.8.2-1.7.2-3 .2H7.1v3.7c0 .7-.6 1.4-1.4 1.4-.7 0-1.3-.6-1.3-1.3zm2.7-9.8v3.8h1.5c1.1 0 1.8-.1 2.1-.2.4-.1.6-.4.8-.7.2-.3.3-.6.3-1 0-.5-.1-.9-.4-1.2-.3-.3-.7-.5-1.1-.6-.3-.1-1-.1-2-.1H7.1z" fill="#444444"></path><path class="st0" d="M2.4 5.7h2V3.6h-2c-.6 0-1.1.5-1.1 1.1.1.6.5 1 1.1 1z" fill="#444444"></path><path class="st0" d="M2.4 9.5h2V7.4h-2c-.6 0-1.1.5-1.1 1.1.1.6.5 1 1.1 1z" fill="#444444"></path></g></svg>