<svg version="1.1" xmlns="http://www.w3.org/2000/svg" xmlns:xlink="http://www.w3.org/1999/xlink" x="0px" y="0px" viewBox="0 0 16 16" xml:space="preserve" width="16" height="16"><g class="nc-icon-wrapper" fill="#444444"><path fill="#444444" d="M6,9.007H1c-0.552,0-1,0.448-1,1c0,0.552,0.448,1,1,1h5c0.552,0,1-0.448,1-1C7,9.454,6.552,9.007,6,9.007z"></path> <path fill="#444444" d="M6,13H1c-0.552,0-1,0.448-1,1c0,0.552,0.448,1,1,1h5c0.552,0,1-0.448,1-1C7,13.448,6.552,13,6,13z"></path> <path fill="#444444" d="M1,3h14c0.552,0,1-0.448,1-1c0-0.552-0.448-1-1-1H1C0.448,1,0,1.448,0,2C0,2.552,0.448,3,1,3z"></path> <path fill="#444444" d="M15,5H1C0.448,5,0,5.448,0,6c0,0.552,0.448,1,1,1h14c0.552,0,1-0.448,1-1C16,5.448,15.552,5,15,5z"></path> <path data-color="color-2" fill="#444444" d="M15.707,9.293c-0.391-0.391-1.023-0.391-1.414,0L13,10.586l-1.293-1.293 c-0.391-0.391-1.023-0.391-1.414,0s-0.391,1.023,0,1.414L11.586,12l-1.293,1.293c-0.391,0.391-0.391,1.023,0,1.414 C10.488,14.902,10.744,15,11,15s0.512-0.098,0.707-0.293L13,13.414l1.293,1.293C14.488,14.902,14.744,15,15,15 s0.512-0.098,0.707-0.293c0.391-0.391,0.391-1.023,0-1.414L14.414,12l1.293-1.293C16.098,10.316,16.098,9.684,15.707,9.293z"></path></g></svg>