<svg xmlns="http://www.w3.org/2000/svg" xmlns:xlink="http://www.w3.org/1999/xlink" x="0px" y="0px" viewBox="0 0 16 16" width="16" height="16"><g class="nc-icon-wrapper" fill="#444444"><path data-color="color-2" fill="#444444" d="M9,15H7c-0.552,0-1-0.448-1-1v0c0-0.552,0.448-1,1-1h2c0.552,0,1,0.448,1,1v0 C10,14.552,9.552,15,9,15z"></path> <path fill="#444444" d="M11,11H5c-0.552,0-1-0.448-1-1v0c0-0.552,0.448-1,1-1h6c0.552,0,1,0.448,1,1v0C12,10.552,11.552,11,11,11z"></path> <path data-color="color-2" fill="#444444" d="M13,7H3C2.448,7,2,6.552,2,6v0c0-0.552,0.448-1,1-1h10c0.552,0,1,0.448,1,1v0 C14,6.552,13.552,7,13,7z"></path> <path fill="#444444" d="M15,3H1C0.448,3,0,2.552,0,2v0c0-0.552,0.448-1,1-1h14c0.552,0,1,0.448,1,1v0C16,2.552,15.552,3,15,3z"></path></g></svg>