<svg xmlns="http://www.w3.org/2000/svg" xmlns:xlink="http://www.w3.org/1999/xlink" x="0px" y="0px" viewBox="0 0 16 16" width="16" height="16"><g class="nc-icon-wrapper" fill="#444444"><path data-color="color-2" fill="#444444" d="M15,7H1C0.4,7,0,7.4,0,8s0.4,1,1,1h14c0.6,0,1-0.4,1-1S15.6,7,15,7z"></path> <path fill="#444444" d="M15,1H1C0.4,1,0,1.4,0,2s0.4,1,1,1h14c0.6,0,1-0.4,1-1S15.6,1,15,1z"></path> <path fill="#444444" d="M15,13H1c-0.6,0-1,0.4-1,1s0.4,1,1,1h14c0.6,0,1-0.4,1-1S15.6,13,15,13z"></path></g></svg>