<svg xmlns="http://www.w3.org/2000/svg" xmlns:xlink="http://www.w3.org/1999/xlink" x="0px" y="0px" viewBox="0 0 16 16" width="16" height="16"><g class="nc-icon-wrapper" fill="#444444"><path fill="#444444" d="M7,13c0-0.404,0.061-0.792,0.151-1.168C4.583,9.355,2,6.195,2,4.364C2,3.06,3.06,2,4.364,2 c0.793,0,1.53,0.396,1.97,1.06L8,5.292L9.666,3.06C10.107,2.396,10.843,2,11.636,2C12.94,2,14,3.06,14,4.364 c0,0.954-0.706,2.271-1.741,3.662c0.737,0.038,1.425,0.237,2.044,0.561C15.291,7.139,16,5.656,16,4.364C16,1.954,14.046,0,11.636,0 C10.118,0,8.782,0.777,8,1.953C7.218,0.777,5.882,0,4.364,0C1.954,0,0,1.954,0,4.364c0,3.58,5.377,8.621,7.311,10.319 C7.121,14.155,7,13.594,7,13z"></path> <polygon data-color="color-2" fill="#444444" points="15,12 13,12 13,10 11,10 11,12 9,12 9,14 11,14 11,16 13,16 13,14 15,14 "></polygon> </g></svg>