<svg xmlns="http://www.w3.org/2000/svg" xmlns:xlink="http://www.w3.org/1999/xlink" x="0px" y="0px" viewBox="0 0 16 16" width="16" height="16"><title>image delete</title><g class="nc-icon-wrapper" fill="#111111"><circle cx="6" cy="5" r="1" fill="#111111"/> <rect x="10" y="12" width="6" height="2" data-color="color-2"/> <path d="M8,14H2V2H14V8h2V1a1,1,0,0,0-1-1H1A1,1,0,0,0,0,1V15a1,1,0,0,0,1,1H8Z" fill="#111111"/> <path d="M11.628,9.257,10,6,7,10,5,8,3,12H9.141A3.987,3.987,0,0,1,11.628,9.257Z" fill="#111111"/></g></svg>