<svg xmlns="http://www.w3.org/2000/svg" xmlns:xlink="http://www.w3.org/1999/xlink" x="0px" y="0px" viewBox="0 0 16 16" width="16" height="16"><g class="nc-icon-wrapper" fill="#444444"><path fill="#444444" d="M14.3,9.6c0.6-4.6-3.2-8.5-7.8-7.9C4.5,0.4,2-0.8,0.6,0.6C-0.4,1.6,0,3.5,1.1,5.4c-0.5,1-0.8,2.1-0.8,3.3 c0,3.9,3.2,7,7,7c1.2,0,2.3-0.3,3.3-0.8c1.5,0.8,3.6,1.7,4.8,0.5C16.5,14.3,16.1,12.4,14.3,9.6z M12.4,8.7c0,1.5-0.7,2.9-1.8,3.8 C8.1,10.8,5.2,8,3.5,5.4c0.9-1.1,2.3-1.8,3.8-1.8C10.1,3.6,12.4,5.9,12.4,8.7z M2,2c0.1-0.1,0.7,0,1.9,0.5c-0.5,0.3-1,0.7-1.5,1.1 C2.1,2.7,1.9,2.2,2,2z M2.5,7.4c1.7,2.3,3.8,4.4,6.1,6.1C4.9,14.5,1.5,11.1,2.5,7.4z M14.1,13.9c-0.2,0.1-0.8,0-1.7-0.4 c0.4-0.4,0.8-0.9,1.1-1.4C14.1,13.3,14.1,13.9,14.1,13.9z"></path></g></svg>