<svg version="1.1" xmlns="http://www.w3.org/2000/svg" xmlns:xlink="http://www.w3.org/1999/xlink" x="0px" y="0px" viewBox="0 0 16 16" xml:space="preserve" width="16" height="16"><g class="nc-icon-wrapper" fill="#444444"><path fill="#444444" d="M1,15c0,0.6,0.4,1,1,1h12c0.6,0,1-0.4,1-1V6c0-0.6-0.4-1-1-1h-2H6V4c0-1.1,0.9-2,2-2c0.6,0,1.1,0.2,1.5,0.7 l0.7,0.7l1.5-1.3L11,1.3C10.2,0.5,9.1,0,8,0C5.8,0,4,1.8,4,4v1H2C1.4,5,1,5.4,1,6V15z M8,8c1.1,0,2,0.9,2,2c0,0.7-0.4,1.4-1,1.7V13 H7v-1.3c-0.6-0.3-1-1-1-1.7C6,8.9,6.9,8,8,8z"></path></g></svg>