<svg version="1.1" id="Layer_1" xmlns="http://www.w3.org/2000/svg" x="0" y="0" viewBox="0 0 16 16" xml:space="preserve" enable-background="new 0 0 16 16" width="16" height="16"><g class="nc-icon-wrapper" fill="#111111"><title>mastodon</title><path class="st0" d="M8.1.1c-2 0-4 .2-5.1.8C3 .9.8 1.9.8 5.3V8c.1 3.4.6 6.7 3.7 7.5 1.4.4 2.7.5 3.7.4 1.8-.1 2.8-.6 2.8-.6l-.2-1.3s-1.3.4-2.7.4c-1.4 0-2.9-.2-3.2-1.9V12s1.4.3 3.2.4c1.1.1 2.1-.1 3.1-.2 2-.2 3.7-1.5 3.9-2.6.3-1.8.3-4.3.3-4.3 0-3.4-2.2-4.4-2.2-4.4C12.1.3 10.1.1 8.1.1zM5.7 2.6c1.1 0 1.9.6 2.3 1.7.5-1.1 1.2-1.7 2.3-1.7 1.5 0 2.5 1.1 2.5 2.4v4.6h-1.7V5.3c0-.8-.7-1-1.1-1s-1.1.3-1.1 1V8H7.2V5.3c0-.8-.8-1-1.2-1-.4 0-1 .2-1 1v4.2H3.3V5c0-.9.8-2.4 2.4-2.4z" fill="#111111"/></g></svg>