<svg version="1.1" xmlns="http://www.w3.org/2000/svg" xmlns:xlink="http://www.w3.org/1999/xlink" x="0px" y="0px" viewBox="0 0 16 16" xml:space="preserve" width="16" height="16"><g class="nc-icon-wrapper" fill="#444444"><path fill="#444444" d="M10.2,11.4l-2.7-2C8.4,8.7,9,7.7,9,6.5l0-0.8C9,3.8,7.6,2.1,5.7,2C3.7,1.9,2,3.5,2,5.5v1 c0,1.2,0.6,2.2,1.5,2.9l-2.7,2.1c-0.5,0.4-0.8,1-0.8,1.6V15c0,0.6,0.4,1,1,1h9c0.6,0,1-0.4,1-1v-2C11,12.4,10.7,11.8,10.2,11.4z"></path> <path data-color="color-2" fill="#444444" d="M15.1,6.4l-1.8-1.2c0.4-0.4,0.7-1,0.7-1.7l0-0.9c0-1.2-0.9-2.4-2.1-2.6 c-1.2-0.2-2.2,0.5-2.7,1.4c1.1,1,1.8,2.4,1.8,4v1c0,0.9-0.2,1.8-0.6,2.5c0,0,1.2,0.9,1.2,1H15c0.6,0,1-0.4,1-1V8.1 C16,7.4,15.7,6.8,15.1,6.4z"></path></g></svg>