<svg xmlns="http://www.w3.org/2000/svg" x="0" y="0" viewBox="0 0 16 16" enable-background="new 0 0 16 16" width="16" height="16"><g class="nc-icon-wrapper" fill="#444444"><path class="st0" d="M2 16c-.6 0-1-.4-1-1 0-.2.1-.5.2-.7L6.7 8 1.2 1.6C.9 1.2.9.6 1.3.2s1.1-.3 1.4.1l6 7c.3.4.3.9 0 1.3l-6 7c-.1.3-.4.4-.7.4z" fill="#444444"></path><path class="st0" d="M8 16c-.6 0-1-.4-1-1 0-.2.1-.5.2-.7L12.7 8 7.2 1.6c-.3-.4-.3-1 .1-1.4.4-.4 1.1-.3 1.4.1l6 7c.3.4.3.9 0 1.3l-6 7c-.1.3-.4.4-.7.4z" fill="#444444"></path></g></svg>