<svg xmlns="http://www.w3.org/2000/svg" viewBox="0 0 16 16" width="16" height="16"><title>nodes</title><g class="nc-icon-wrapper" fill="#111111"><path fill="#111111" d="M13,10c-0.6,0-1.1,0.2-1.6,0.5L9,8.5V5.8c1.2-0.4,2-1.5,2-2.8c0-1.7-1.3-3-3-3S5,1.3,5,3 c0,1.3,0.8,2.4,2,2.8v2.7l-2.4,1.9C4.1,10.2,3.6,10,3,10c-1.7,0-3,1.3-3,3s1.3,3,3,3s3-1.3,3-3c0-0.3-0.1-0.7-0.2-1L8,10.3l2.2,1.7 c-0.1,0.3-0.2,0.6-0.2,1c0,1.7,1.3,3,3,3s3-1.3,3-3S14.7,10,13,10z M3,14c-0.6,0-1-0.4-1-1s0.4-1,1-1s1,0.4,1,1S3.6,14,3,14z M8,4 C7.4,4,7,3.6,7,3s0.4-1,1-1s1,0.4,1,1S8.6,4,8,4z M13,14c-0.6,0-1-0.4-1-1s0.4-1,1-1s1,0.4,1,1S13.6,14,13,14z"/></g></svg>