<svg xmlns="http://www.w3.org/2000/svg" x="0" y="0" viewBox="0 0 16 16" enable-background="new 0 0 16 16" width="16" height="16"><g class="nc-icon-wrapper" fill="#444444"><path class="st0" d="M4.5 4.2c-.8 0-1.4-.6-1.4-1.3V2c0-.8.6-1.4 1.4-1.4.8 0 1.4.6 1.4 1.4v.8c-.1.8-.7 1.4-1.4 1.4z" fill="#444444"></path><path class="st0" d="M10 4c-.7 0-1.4-.6-1.4-1.3v-.8c0-.8.6-1.4 1.4-1.4.8 0 1.4.6 1.4 1.4v.8c0 .7-.6 1.3-1.4 1.3z" fill="#444444"></path><path class="st0" d="M3.2 14.1V3.3c0-.8.6-1.4 1.4-1.4h3c1.7 0 2.8.1 3.3.2.8.2 1.4.6 2 1.3s.8 1.6.8 2.7c0 .8-.2 1.5-.5 2.1-.3.6-.7 1-1.2 1.3-.5.3-.9.5-1.4.6-.7.1-1.6.2-2.9.2H5.9v3.8c0 .8-.6 1.4-1.4 1.4-.7 0-1.3-.6-1.3-1.4zm2.7-9.9v3.9h1.5c1.1 0 1.8-.1 2.2-.2.4-.1.7-.4.9-.7.2-.3.3-.7.3-1.1 0-.5-.1-.9-.4-1.2s-.7-.5-1.2-.6c-.3-.1-1-.1-2-.1H5.9z" fill="#444444"></path></g></svg>