<svg xmlns="http://www.w3.org/2000/svg" x="0" y="0" viewBox="0 0 16 16" width="16" height="16"><g class="nc-icon-wrapper" fill="#444444"><g class="nc-icon-wrapper" fill="#444444"><path fill="#444444" d="M15.207 8.793l-5.5-5.5a.999.999 0 0 0-1.414 0l-7 7a1.003 1.003 0 0 0-.263.464l-1 4a1.002 1.002 0 0 0 1.213 1.213l4-1a.998.998 0 0 0 .464-.263L12 8.414 13.086 9.5l-3.293 3.293a.999.999 0 1 0 1.414 1.414l4-4a.999.999 0 0 0 0-1.414z"></path><path data-color="color-2" fill="#444444" d="M11.121 1.879l3 3 1.258-1.258a2.122 2.122 0 0 0-3-3l-1.258 1.258z"></path></g></g></svg>