<svg version="1.1" xmlns="http://www.w3.org/2000/svg" xmlns:xlink="http://www.w3.org/1999/xlink" x="0px" y="0px" viewBox="0 0 16 16" xml:space="preserve" width="16" height="16"><g class="nc-icon-wrapper" fill="#444444"><path fill="#444444" d="M15.207,8.793l-5.5-5.5c-0.391-0.391-1.023-0.391-1.414,0l-7,7c-0.128,0.128-0.219,0.289-0.263,0.464l-1,4 c-0.085,0.341,0.015,0.701,0.263,0.95C0.483,15.897,0.738,16,1,16c0.081,0,0.162-0.01,0.243-0.03l4-1 c0.176-0.044,0.336-0.135,0.464-0.263L12,8.414L13.086,9.5l-3.293,3.293c-0.391,0.391-0.391,1.023,0,1.414 c0.391,0.391,1.023,0.391,1.414,0l4-4C15.598,9.816,15.598,9.184,15.207,8.793z"></path> <path data-color="color-2" fill="#444444" d="M11.121,1.879l3,3l1.258-1.258c0.828-0.828,0.828-2.172,0-3v0c-0.828-0.828-2.172-0.828-3,0 L11.121,1.879L11.121,1.879z"></path></g></svg>