<svg xmlns="http://www.w3.org/2000/svg" x="0" y="0" viewBox="0 0 16 16" enable-background="new 0 0 16 16" width="16" height="16"><g class="nc-icon-wrapper" fill="#444444"><path class="st0" d="M15.2 8.8L9.7 3.3c-.4-.4-1-.4-1.4 0l-7 7c-.1.1-.2.3-.3.5l-1 4c-.1.5.2 1.1.7 1.2h.5l4-1c.2 0 .3-.1.5-.3L12 8.4l1.1 1.1-3.3 3.3c-.4.4-.4 1 0 1.4s1 .4 1.4 0l4-4c.4-.4.4-1 0-1.4z" fill="#444444"></path><path class="st0" d="M11.1 1.9l3 3 1.3-1.3c.8-.8.8-2.2-.1-3-.8-.8-2.1-.8-2.9 0l-1.3 1.3z" fill="#444444"></path></g></svg>