<svg xmlns="http://www.w3.org/2000/svg" x="0" y="0" viewBox="0 0 16 16" enable-background="new 0 0 16 16" width="16" height="16"><g class="nc-icon-wrapper" fill="#444444"><path class="st0" d="M10.2 11.4l-2.7-2C8.4 8.7 9 7.7 9 6.5v-.8C9 3.8 7.6 2.1 5.7 2 3.7 1.9 2 3.5 2 5.5v1c0 1.2.6 2.2 1.5 2.9L.8 11.5c-.5.4-.8 1-.8 1.6V15c0 .6.4 1 1 1h9c.6 0 1-.4 1-1v-2c0-.6-.3-1.2-.8-1.6z" fill="#444444"></path><path class="st0" d="M15.1 6.4l-1.8-1.2c.4-.4.7-1 .7-1.7v-.9c0-1.2-.9-2.4-2.1-2.6S9.7.5 9.2 1.4c1.1 1 1.8 2.4 1.8 4v1c0 .9-.2 1.8-.6 2.5 0 0 1.2.9 1.2 1H15c.6 0 1-.4 1-1v-.8c0-.7-.3-1.3-.9-1.7z" fill="#444444"></path></g></svg>