<svg xmlns="http://www.w3.org/2000/svg" x="0" y="0" viewBox="0 0 16 16" width="16" height="16"><g class="nc-icon-wrapper" fill="#444444"><g class="nc-icon-wrapper" fill="#444444"><path fill="#444444" d="M7 14a5.97 5.97 0 0 1 1.522-3.984C8.348 10.011 8.18 10 8 10c-3.192 0-5.539.795-6.837 1.382A1.989 1.989 0 0 0 0 13.2V16h7.349A5.97 5.97 0 0 1 7 14z"></path><circle fill="#444444" cx="8" cy="4" r="4"></circle><path data-color="color-2" fill="#444444" d="M11 16a.997.997 0 0 1-.707-.293l-2-2 1.414-1.414L11 13.586l3.293-3.293 1.414 1.414-4 4A.997.997 0 0 1 11 16z"></path></g></g></svg>