<svg xmlns="http://www.w3.org/2000/svg" x="0" y="0" viewBox="0 0 16 16" enable-background="new 0 0 16 16" width="16" height="16"><g class="nc-icon-wrapper" fill="#444444"><path class="st0" d="M7 14c0-1.5.5-2.9 1.5-4H8c-3.2 0-5.5.8-6.8 1.4-.7.3-1.2 1-1.2 1.8V16h7.3c-.2-.6-.3-1.3-.3-2z" fill="#444444"></path><circle class="st0" cx="8" cy="4" r="4" fill="#444444"></circle><path class="st0" d="M11 16c-.3 0-.5-.1-.7-.3l-2-2 1.4-1.4 1.3 1.3 3.3-3.3 1.4 1.4-4 4c-.2.2-.4.3-.7.3z" fill="#444444"></path></g></svg>