<svg xmlns="http://www.w3.org/2000/svg" x="0" y="0" viewBox="0 0 16 16" enable-background="new 0 0 16 16" width="16" height="16"><g class="nc-icon-wrapper" fill="#444444"><circle class="st0" cx="8" cy="4" r="4" fill="#444444"></circle><path class="st0" d="M7.2 14.1c-.8-.8-1.2-1.8-1.2-2.9 0-.4.1-.7.2-1.1-2.3.2-4 .8-5 1.3-.7.3-1.2 1-1.2 1.8V16h9.2l-2-1.9z" fill="#444444"></path><path class="st0" d="M15.4 9.6c-1-1-2.6-.8-3.4.3-.8-1.1-2.4-1.3-3.4-.3-.9.8-.9 2.2 0 3L12 16l3.4-3.3c.8-.9.8-2.2 0-3.1z" fill="#444444"></path></g></svg>