<svg xmlns="http://www.w3.org/2000/svg" x="0" y="0" viewBox="0 0 16 16" enable-background="new 0 0 16 16" width="16" height="16"><g class="nc-icon-wrapper"><path class="st0" d="M5 5V1c0-.6-.4-1-1-1S3 .4 3 1v4c0 .6.4 1 1 1s1-.4 1-1z" fill="#444"></path><path class="st0" d="M1 11c0 1.3.9 2.4 2 2.8V15c0 .6.4 1 1 1s1-.4 1-1v-1-.2c1.2-.4 2-1.5 2-2.8 0-1.7-1.3-3-3-3s-3 1.3-3 3z" fill="#444"></path><path class="st0" d="M11 11v4c0 .6.4 1 1 1s1-.4 1-1v-4c0-.6-.4-1-1-1s-1 .4-1 1z" fill="#444"></path><path class="st0" d="M9 5c0 1.7 1.3 3 3 3s3-1.3 3-3c0-1.3-.9-2.4-2-2.8V1c0-.6-.4-1-1-1s-1 .4-1 1v1.2C9.9 2.6 9 3.7 9 5z" fill="#444"></path></g></svg>