<svg xmlns="http://www.w3.org/2000/svg" x="0" y="0" viewBox="0 0 16 16" enable-background="new 0 0 16 16" width="16" height="16"><g class="nc-icon-wrapper" fill="#444444"><path class="st0" d="M14 16c-.3 0-.6-.1-.8-.4l-6-7c-.3-.4-.3-.9 0-1.3l6-7c.4-.4 1-.5 1.4-.1.4.4.5 1 .1 1.4L9.3 8l5.4 6.4c.4.4.3 1.1-.1 1.4-.1.1-.4.2-.6.2z" fill="#444444"></path><path class="st0" d="M8 16c-.3 0-.6-.1-.8-.4l-6-7c-.3-.4-.3-.9 0-1.3l6-7c.4-.4 1-.5 1.4-.1.4.4.5 1 .1 1.4L3.3 8l5.4 6.4c.4.4.3 1.1-.1 1.4-.1.1-.4.2-.6.2z" fill="#444444"></path></g></svg>