<svg xmlns="http://www.w3.org/2000/svg" x="0" y="0" viewBox="0 0 16 16" enable-background="new 0 0 16 16" width="16" height="16"><g class="nc-icon-wrapper" fill="#444444"><path class="st0" d="M6 7H1c-.6 0-1-.4-1-1V1c0-.6.4-1 1-1h5c.6 0 1 .4 1 1v5c0 .6-.4 1-1 1zM2 5h3V2H2v3z" fill="#444444"></path><path class="st0" d="M6 16H1c-.6 0-1-.4-1-1v-5c0-.6.4-1 1-1h5c.6 0 1 .4 1 1v5c0 .6-.4 1-1 1zm-4-2h3v-3H2v3z" fill="#444444"></path><path class="st0" d="M15 7h-5c-.6 0-1-.4-1-1V1c0-.6.4-1 1-1h5c.6 0 1 .4 1 1v5c0 .6-.4 1-1 1zm-4-2h3V2h-3v3z" fill="#444444"></path><path class="st0" d="M3 3h1v1H3V3z" fill="#444444"></path><path class="st0" d="M3 12h1v1H3v-1z" fill="#444444"></path><path class="st0" d="M9 14h7v2H9v-2z" fill="#444444"></path><path class="st0" d="M16 13h-2v-2h-3V9h4c.6 0 1 .4 1 1v3z" fill="#444444"></path><path class="st0" d="M12 12h1v1h-1v-1z" fill="#444444"></path><path class="st0" d="M12 3h1v1h-1V3z" fill="#444444"></path></g></svg>