<svg xmlns="http://www.w3.org/2000/svg" x="0" y="0" viewBox="0 0 15 15" enable-background="new 0 0 15 15" width="15" height="15"><g class="nc-icon-wrapper" fill="#444444"><path class="st0" d="M1.3 0L0 1.3 5.7 7H1.5v1.8h6.3c.5 0 .9-.4.9-.9V1.5H6.9v4.1L1.3 0z" fill="#444444"></path><path class="st0" d="M1.7 14.1l1.8-.9h9.8V3.5l.9-1.8c.5 0 .8.3.8.9v11.6c0 .5-.4.9-.9.9H2.6c-.6-.1-.9-.4-.9-1z" fill="#444444"></path><path class="st0" d="M3.5 13.2H1.7v.9" fill="#444444"></path><path class="st0" d="M13.2 3.5V1.7h.9" fill="#444444"></path></g></svg>