<svg xmlns="http://www.w3.org/2000/svg" xmlns:xlink="http://www.w3.org/1999/xlink" x="0px" y="0px" viewBox="0 0 16 16" width="16" height="16"><title>reddit</title><g class="nc-icon-wrapper" fill="#111111"><path fill="#111111" d="M16,7.9c0-1.1-0.9-1.9-1.9-1.9c-0.5,0-0.9,0.2-1.2,0.4c-1.2-0.7-2.7-1.2-4.3-1.3l0.8-2.6L11.7,3 c0.1,0.8,0.8,1.5,1.6,1.5c0.9,0,1.6-0.7,1.6-1.6c0-0.9-0.7-1.6-1.6-1.6c-0.6,0-1.2,0.4-1.4,0.9L9.2,1.5C9,1.5,8.8,1.6,8.7,1.8 l-1,3.3C6,5.1,4.4,5.6,3.1,6.3C2.8,6.1,2.4,5.9,1.9,5.9C0.9,5.9,0,6.8,0,7.9c0,0.7,0.3,1.2,0.8,1.6c0,0.2,0,0.3,0,0.5 c0,1.3,0.8,2.6,2.2,3.5c1.3,0.9,3.1,1.4,5,1.4c1.9,0,3.7-0.5,5-1.4c1.4-0.9,2.2-2.1,2.2-3.5c0-0.1,0-0.3,0-0.4 C15.6,9.1,16,8.5,16,7.9z M4.5,9c0-0.6,0.5-1.1,1.1-1.1c0.6,0,1.1,0.5,1.1,1.1s-0.5,1.1-1.1,1.1C5,10.1,4.5,9.6,4.5,9z M10.6,12.2 c-0.6,0.6-1.4,0.8-2.6,0.8c0,0,0,0,0,0c0,0,0,0,0,0c-1.2,0-2.1-0.3-2.6-0.8c-0.2-0.2-0.2-0.4,0-0.6c0.2-0.2,0.4-0.2,0.6,0 c0.4,0.4,1,0.6,2,0.6c0,0,0,0,0,0c0,0,0,0,0,0c1,0,1.6-0.2,2-0.6c0.2-0.2,0.4-0.2,0.6,0C10.8,11.8,10.8,12.1,10.6,12.2z M10.4,10.1 c-0.6,0-1.1-0.5-1.1-1.1c0-0.6,0.5-1.1,1.1-1.1c0.6,0,1.1,0.5,1.1,1.1C11.5,9.6,11,10.1,10.4,10.1z"/></g></svg>