<svg version="1.1" xmlns="http://www.w3.org/2000/svg" xmlns:xlink="http://www.w3.org/1999/xlink" x="0px" y="0px" viewBox="0 0 16 16" xml:space="preserve" width="16" height="16"><g class="nc-icon-wrapper" fill="#444444"><path fill="#444444" d="M15.094,7.031L14.555,0.82l-1.93,1.93C11.353,1.632,9.71,1,8,1C4.14,1,1,4.14,1,8s3.14,7,7,7 c2.491,0,4.814-1.341,6.063-3.499L12.332,10.5C11.439,12.042,9.779,13,8,13c-2.757,0-5-2.243-5-5s2.243-5,5-5 c1.179,0,2.311,0.423,3.205,1.17L8.883,6.492L15.094,7.031z"></path> </g></svg>