<svg xmlns="http://www.w3.org/2000/svg" xmlns:xlink="http://www.w3.org/1999/xlink" x="0px" y="0px" viewBox="0 0 16 16" width="16" height="16"><g class="nc-icon-wrapper" fill="#444444"><path fill="#444444" d="M8,0C3.6,0,0,3.6,0,8s3.6,8,8,8s8-3.6,8-8S12.4,0,8,0z M8,14c-3.3,0-6-2.7-6-6s2.7-6,6-6s6,2.7,6,6 S11.3,14,8,14z"></path> <circle data-color="color-2" fill="#444444" cx="6" cy="6" r="1"></circle> <circle data-color="color-2" fill="#444444" cx="10" cy="6" r="1"></circle> <path data-color="color-2" fill="#444444" d="M8,12c1.7,0,3-1.3,3-3H5C5,10.7,6.3,12,8,12z"></path></g></svg>