<svg xmlns="http://www.w3.org/2000/svg" x="0" y="0" viewBox="0 0 16 16" enable-background="new 0 0 16 16" width="16" height="16"><g class="nc-icon-wrapper" fill="#444444"><path class="st0" d="M14.7 8.8l-2.2.6L10 8l2.5-1.4 2.3.6c.5.1 1.1-.2 1.2-.7.1-.5-.2-1.1-.7-1.2l-1.7-.5L14 3c.1-.5-.2-1.1-.7-1.2s-1.1.2-1.2.7l-.6 2.3L9 6.3V3.4l1.7-1.7c.4-.4.4-1 0-1.4s-1-.4-1.4 0L8 1.6 6.7.3c-.4-.4-1-.4-1.4 0s-.4 1 0 1.4L7 3.4v2.9L4.5 4.8l-.6-2.3c-.1-.5-.7-.8-1.2-.7-.6.1-.9.7-.7 1.2l.5 1.8-1.7.4c-.6.2-.9.7-.8 1.3.2.5.7.8 1.3.7l2.3-.6L6 8 3.5 9.4l-2.2-.6C.7 8.7.2 9 0 9.5s.2 1.1.7 1.2l1.7.4L2 13c-.1.5.2 1.1.7 1.2.5.1 1.1-.2 1.2-.7l.6-2.3L7 9.7v2.9l-1.7 1.7c-.4.4-.4 1 0 1.4.4.4 1 .4 1.4 0L8 14.4l1.3 1.3c.4.4 1 .4 1.4 0 .4-.4.4-1 0-1.4L9 12.6V9.7l2.5 1.4.6 2.3c.1.5.7.9 1.2.7.5-.1.9-.7.7-1.2l-.5-1.8 1.7-.4c.5-.1.8-.7.7-1.2s-.7-.8-1.2-.7z" fill="#444444"></path></g></svg>