<svg version="1.1" xmlns="http://www.w3.org/2000/svg" xmlns:xlink="http://www.w3.org/1999/xlink" x="0px" y="0px" viewBox="0 0 16 16" xml:space="preserve" width="16" height="16"><g class="nc-icon-wrapper" fill="#444444"><path fill="#444444" d="M14.7,8.8l-2.2,0.6L10,8l2.5-1.4l2.3,0.6c0.5,0.1,1.1-0.2,1.2-0.7c0.1-0.5-0.2-1.1-0.7-1.2l-1.7-0.5L14,3 c0.1-0.5-0.2-1.1-0.7-1.2c-0.5-0.1-1.1,0.2-1.2,0.7l-0.6,2.3L9,6.3V3.4l1.7-1.7c0.4-0.4,0.4-1,0-1.4s-1-0.4-1.4,0L8,1.6L6.7,0.3 c-0.4-0.4-1-0.4-1.4,0s-0.4,1,0,1.4L7,3.4v2.9L4.5,4.8L3.9,2.5C3.8,2,3.2,1.7,2.7,1.8C2.1,1.9,1.8,2.5,2,3l0.5,1.8L0.8,5.2 C0.2,5.4-0.1,5.9,0,6.5C0.2,7,0.7,7.3,1.3,7.2l2.3-0.6L6,8L3.5,9.4L1.3,8.8C0.7,8.7,0.2,9,0,9.5s0.2,1.1,0.7,1.2l1.7,0.4L2,13 c-0.1,0.5,0.2,1.1,0.7,1.2c0.5,0.1,1.1-0.2,1.2-0.7l0.6-2.3L7,9.7v2.9l-1.7,1.7c-0.4,0.4-0.4,1,0,1.4s1,0.4,1.4,0L8,14.4l1.3,1.3 c0.4,0.4,1,0.4,1.4,0c0.4-0.4,0.4-1,0-1.4L9,12.6V9.7l2.5,1.4l0.6,2.3c0.1,0.5,0.7,0.9,1.2,0.7c0.5-0.1,0.9-0.7,0.7-1.2l-0.5-1.8 l1.7-0.4c0.5-0.1,0.8-0.7,0.7-1.2C15.8,9,15.2,8.7,14.7,8.8z"></path></g></svg>