<svg xmlns="http://www.w3.org/2000/svg" x="0" y="0" viewBox="0 0 16 16" enable-background="new 0 0 16 16" width="16" height="16"><g class="nc-icon-wrapper" fill="#444444"><path class="st0" d="M8 6c2.9 0 6-.9 6-3s-3.1-3-6-3-6 .9-6 3 3.1 3 6 3z" fill="#444444"></path><path class="st0" d="M2 6.5V8c0 2.1 3.1 3 6 3s6-.9 6-3V6.5C12.6 7.4 10.5 8 8 8s-4.6-.6-6-1.5z" fill="#444444"></path><path class="st0" d="M2 11.5V13c0 2.1 3.1 3 6 3s6-.9 6-3v-1.5c-1.4 1-3.5 1.5-6 1.5s-4.6-.6-6-1.5z" fill="#444444"></path></g></svg>