<svg xmlns="http://www.w3.org/2000/svg" xmlns:xlink="http://www.w3.org/1999/xlink" x="0px" y="0px" viewBox="0 0 16 16" width="16" height="16"><title>star empty</title><g class="nc-icon-wrapper" fill="#111111"><path fill="#111111" d="M11.86,15.542L8,13.513l-3.86,2.029c-0.727,0.387-1.592-0.235-1.451-1.054l0.737-4.299L0.302,7.145 c-0.594-0.58-0.263-1.587,0.555-1.706l4.316-0.627L7.104,0.9c0.336-0.683,1.457-0.683,1.793,0l1.931,3.911l4.316,0.627 c0.818,0.119,1.148,1.126,0.555,1.706l-3.124,3.045l0.737,4.299C13.453,15.311,12.586,15.924,11.86,15.542z M8.466,11.498 l2.532,1.331l-0.483-2.82c-0.056-0.324,0.052-0.655,0.287-0.885l2.049-1.998L10.02,6.715C9.693,6.668,9.412,6.463,9.267,6.168 L8,3.602L6.733,6.168c-0.146,0.295-0.427,0.5-0.753,0.547L3.149,7.126l2.049,1.998c0.235,0.229,0.343,0.561,0.287,0.885 l-0.483,2.82l2.532-1.331C7.826,11.344,8.174,11.344,8.466,11.498z"/></g></svg>