<svg xmlns="http://www.w3.org/2000/svg" x="0" y="0" viewBox="0 0 16 16" width="16" height="16"><g class="nc-icon-wrapper" fill="#444444"><g class="nc-icon-wrapper" fill="#444444"><path data-color="color-2" fill="#444444" d="M14 16a.995.995 0 0 1-.76-.35l-6-7a1 1 0 0 1 0-1.301l6-7a.999.999 0 1 1 1.518 1.301L9.317 8l5.442 6.35A1 1 0 0 1 14 16z"></path><path fill="#444444" d="M8 16a.995.995 0 0 1-.76-.35l-6-7a1 1 0 0 1 0-1.301l6-7c.36-.419.992-.467 1.411-.108.419.36.468.99.108 1.409L3.317 8l5.442 6.35A1 1 0 0 1 8 16z"></path></g></g></svg>