<svg xmlns="http://www.w3.org/2000/svg" x="0" y="0" viewBox="0 0 16 16" width="16" height="16"><g class="nc-icon-wrapper" fill="#444444"><g class="nc-icon-wrapper" fill="#444444"><path data-color="color-2" fill="#444444" d="M2 16a.998.998 0 0 1-.758-1.65L6.683 8 1.241 1.65A.999.999 0 1 1 2.759.349l6 7a1 1 0 0 1 0 1.301l-6 7A.993.993 0 0 1 2 16z"></path><path fill="#444444" d="M8 16a.998.998 0 0 1-.758-1.65L12.683 8 7.241 1.65A.999.999 0 1 1 8.759.35l6 7a1 1 0 0 1 0 1.301l-6 7A.995.995 0 0 1 8 16z"></path></g></g></svg>