<svg xmlns="http://www.w3.org/2000/svg" xmlns:xlink="http://www.w3.org/1999/xlink" x="0px" y="0px" viewBox="0 0 16 16" width="16" height="16"><title>support help</title><g class="nc-icon-wrapper" fill="#111111"><path fill="#111111" d="M15,0H1C0.4,0,0,0.4,0,1v14c0,0.6,0.4,1,1,1h14c0.6,0,1-0.4,1-1V1C16,0.4,15.6,0,15,0z M8,13 c-0.6,0-1-0.4-1-1c0-0.6,0.4-1,1-1s1,0.4,1,1C9,12.6,8.6,13,8,13z M9.5,8.4C9,8.7,9,8.8,9,9v1H7V9c0-1.3,0.8-1.9,1.4-2.3 C8.9,6.4,9,6.3,9,6c0-0.6-0.4-1-1-1C7.6,5,7.3,5.2,7.1,5.5L6.6,6.4l-1.7-1l0.5-0.9C5.9,3.6,6.9,3,8,3c1.7,0,3,1.3,3,3 C11,7.4,10.1,8,9.5,8.4z"/></g></svg>