<svg xmlns="http://www.w3.org/2000/svg" viewBox="0 0 16 16" width="16" height="16"><title>telegram</title><g class="nc-icon-wrapper" fill="#111111"><path d="M15.968,1.684a.338.338,0,0,0-.232-.253,1.192,1.192,0,0,0-.63.045S1.087,6.514.286,7.072c-.172.121-.23.19-.259.272-.138.4.293.573.293.573L3.933,9.094a.388.388,0,0,0,.183-.011c.822-.519,8.27-5.222,8.7-5.38.068-.02.118,0,.1.049-.172.6-6.606,6.319-6.641,6.354a.138.138,0,0,0-.049.118l-.337,3.528s-.142,1.1.956,0c.779-.779,1.527-1.425,1.9-1.738,1.242.858,2.579,1.806,3.156,2.3a1,1,0,0,0,.732.283.825.825,0,0,0,.7-.622S15.894,3.7,15.979,2.317C15.987,2.182,16,2.1,16,2A1.177,1.177,0,0,0,15.968,1.684Z" fill="#111111"/></g></svg>