<svg xmlns="http://www.w3.org/2000/svg" x="0" y="0" viewBox="0 0 16 16" enable-background="new 0 0 16 16" width="16" height="16"><g class="nc-icon-wrapper" fill="#444444"><path class="st0" d="M4.5 4.5c1.9-1.9 5.1-1.9 7 0 .7.7 1.2 1.7 1.4 2.7l2-.3c-.2-1.5-.9-2.8-1.9-3.8C10.3.4 5.9.4 3.1 3.1L.9.9.2 7.3l6.4-.7-2.1-2.1z" fill="#444444"></path><path class="st0" d="M15.8 8.7l-6.4.7 2.1 2.1c-1.9 1.9-5.1 1.9-7 0-.7-.7-1.2-1.7-1.4-2.7l-2 .3c.2 1.5.9 2.8 1.9 3.8 1.4 1.4 3.1 2 4.9 2s3.6-.7 4.9-2l2.2 2.2.8-6.4z" fill="#444444"></path></g></svg>