<svg xmlns="http://www.w3.org/2000/svg" xmlns:xlink="http://www.w3.org/1999/xlink" x="0px" y="0px" viewBox="0 0 16 16" width="16" height="16"><title>vote</title><g class="nc-icon-wrapper" fill="#111111"><path d="M15,2a1,1,0,0,0-1,1V7a.5.5,0,0,1-.5.5h0A.5.5,0,0,1,13,7V1.553a1.037,1.037,0,0,0-.832-1.04A1,1,0,0,0,11,1.5V7a.5.5,0,0,1-.5.5h0A.5.5,0,0,1,10,7V1.053A1.037,1.037,0,0,0,9.168.014,1,1,0,0,0,8,1V7a.5.5,0,0,1-.5.5h0A.5.5,0,0,1,7,7V1.553A1.037,1.037,0,0,0,6.168.514,1,1,0,0,0,5,1.5V9.293a.5.5,0,0,1-.854.354l-2-2A1.081,1.081,0,0,0,.911,7.4,1.032,1.032,0,0,0,.469,8.834L2.78,12.942A6,6,0,0,0,8.009,16H10a6,6,0,0,0,6-6V3a1,1,0,0,0-1-1Z" fill="#111111"/></g></svg>