<svg xmlns="http://www.w3.org/2000/svg" xmlns:xlink="http://www.w3.org/1999/xlink" x="0px" y="0px" viewBox="0 0 16 16" width="16" height="16"><title>wikipedia</title><g class="nc-icon-wrapper" fill="#111111"><path fill="#111111" d="M16,3.104c0,0.058-0.018,0.11-0.053,0.158c-0.037,0.046-0.075,0.07-0.118,0.07 c-0.35,0.034-0.639,0.146-0.861,0.339c-0.224,0.191-0.453,0.559-0.691,1.099l-3.631,8.182c-0.024,0.076-0.09,0.114-0.2,0.114 c-0.086,0-0.152-0.038-0.2-0.114L8.21,8.694l-2.342,4.258c-0.048,0.076-0.114,0.114-0.2,0.114c-0.104,0-0.173-0.038-0.207-0.114 L1.894,4.77C1.672,4.262,1.437,3.908,1.189,3.707C0.943,3.505,0.598,3.38,0.158,3.332c-0.038,0-0.075-0.02-0.107-0.061 C0.017,3.232,0,3.186,0,3.134c0-0.134,0.038-0.2,0.114-0.2c0.318,0,0.65,0.014,0.998,0.042c0.322,0.03,0.626,0.044,0.91,0.044 c0.29,0,0.632-0.014,1.026-0.044C3.46,2.948,3.826,2.934,4.144,2.934c0.076,0,0.114,0.066,0.114,0.2c0,0.132-0.024,0.198-0.07,0.198 C3.87,3.356,3.619,3.438,3.436,3.574C3.253,3.712,3.162,3.892,3.162,4.116c0,0.114,0.038,0.256,0.114,0.426L6.224,11.2l1.673-3.161 L6.338,4.77c-0.28-0.583-0.511-0.96-0.691-1.129c-0.18-0.167-0.453-0.272-0.819-0.31c-0.034,0-0.065-0.02-0.096-0.061 C4.701,3.232,4.686,3.186,4.686,3.134c0-0.134,0.032-0.2,0.1-0.2c0.318,0,0.609,0.014,0.875,0.042C5.917,3.006,6.19,3.02,6.48,3.02 c0.284,0,0.585-0.014,0.903-0.044c0.328-0.028,0.65-0.042,0.968-0.042c0.076,0,0.114,0.066,0.114,0.2 c0,0.132-0.023,0.198-0.07,0.198C7.759,3.376,7.441,3.556,7.441,3.874c0,0.142,0.073,0.363,0.221,0.661l1.031,2.094L9.72,4.714 c0.142-0.27,0.214-0.498,0.214-0.684c0-0.436-0.318-0.668-0.954-0.698c-0.058,0-0.086-0.066-0.086-0.198 c0-0.048,0.014-0.093,0.042-0.135c0.03-0.044,0.058-0.065,0.086-0.065c0.228,0,0.508,0.014,0.84,0.042 c0.318,0.03,0.58,0.044,0.784,0.044c0.146,0,0.363-0.013,0.647-0.037c0.36-0.032,0.663-0.049,0.905-0.049 c0.056,0,0.084,0.056,0.084,0.17c0,0.152-0.052,0.228-0.156,0.228c-0.37,0.038-0.668,0.141-0.894,0.307 c-0.225,0.166-0.507,0.543-0.843,1.131L9.022,7.299l1.852,3.773l2.734-6.358c0.094-0.232,0.142-0.446,0.142-0.64 c0-0.466-0.318-0.712-0.954-0.742c-0.058,0-0.086-0.066-0.086-0.198c0-0.134,0.042-0.2,0.128-0.2c0.232,0,0.508,0.014,0.826,0.042 c0.294,0.03,0.542,0.044,0.74,0.044c0.21,0,0.452-0.014,0.726-0.044c0.286-0.028,0.542-0.042,0.77-0.042 C15.966,2.934,16,2.99,16,3.104z"/> </g></svg>