<?xml version="1.0" encoding="UTF-8" standalone="no"?>
<!DOCTYPE svg PUBLIC "-//W3C//DTD SVG 1.1//EN"
 "http://www.w3.org/Graphics/SVG/1.1/DTD/svg11.dtd">
<!-- Generated by graphviz version 2.40.1 (20161225.0304)
 -->
<!-- Title: dependencies Pages: 1 -->
<svg width="823pt" height="284pt"
 viewBox="0.00 0.00 823.00 284.00" xmlns="http://www.w3.org/2000/svg" xmlns:xlink="http://www.w3.org/1999/xlink">
<g id="graph0" class="graph" transform="scale(1 1) rotate(0) translate(4 280)">
<title>dependencies</title>
<polygon fill="#ffffff" stroke="transparent" points="-4,4 -4,-280 819,-280 819,4 -4,4"/>
<text text-anchor="start" x="386.5091" y="-42.4" font-family="sans-serif" font-weight="bold" font-size="14.00" fill="#000000">Legend</text>
<polygon fill="#ffffb3" stroke="transparent" points="173.5,-10 173.5,-30 193.5,-30 193.5,-10 173.5,-10"/>
<text text-anchor="start" x="197.129" y="-15.4" font-family="sans-serif" font-size="14.00" fill="#000000"> &#160;Declarations</text>
<polygon fill="#8dd3c7" stroke="transparent" points="286.5,-10 286.5,-30 306.5,-30 306.5,-10 286.5,-10"/>
<text text-anchor="start" x="310.2251" y="-15.4" font-family="sans-serif" font-size="14.00" fill="#000000"> &#160;Module</text>
<polygon fill="#80b1d3" stroke="transparent" points="372.5,-10 372.5,-30 392.5,-30 392.5,-10 372.5,-10"/>
<text text-anchor="start" x="396.2812" y="-15.4" font-family="sans-serif" font-size="14.00" fill="#000000"> &#160;Bootstrap</text>
<polygon fill="#fdb462" stroke="transparent" points="469.5,-10 469.5,-30 489.5,-30 489.5,-10 469.5,-10"/>
<text text-anchor="start" x="493.1732" y="-15.4" font-family="sans-serif" font-size="14.00" fill="#000000"> &#160;Providers</text>
<polygon fill="#fb8072" stroke="transparent" points="565.5,-10 565.5,-30 585.5,-30 585.5,-10 565.5,-10"/>
<text text-anchor="start" x="589.2258" y="-15.4" font-family="sans-serif" font-size="14.00" fill="#000000"> &#160;Exports</text>
<g id="clust1" class="cluster">
<title>cluster_SharedModule</title>
<polygon fill="none" stroke="#000000" stroke-dasharray="1,5" points="8,-70 8,-268 807,-268 807,-70 8,-70"/>
</g>
<g id="clust2" class="cluster">
<title>cluster_SharedModule_declarations</title>
<polygon fill="none" stroke="#000000" points="158,-78 158,-130 799,-130 799,-78 158,-78"/>
</g>
<g id="clust7" class="cluster">
<title>cluster_SharedModule_imports</title>
<polygon fill="none" stroke="#000000" points="16,-78 16,-130 150,-130 150,-78 16,-78"/>
</g>
<g id="clust8" class="cluster">
<title>cluster_SharedModule_exports</title>
<polygon fill="none" stroke="#000000" points="193,-208 193,-260 738,-260 738,-208 193,-208"/>
</g>
<!-- HeaderComponent -->
<g id="node1" class="node">
<title>HeaderComponent</title>
<polygon fill="#ffffb3" stroke="#000000" points="790.7437,-122 669.2563,-122 669.2563,-86 790.7437,-86 790.7437,-122"/>
<text text-anchor="middle" x="730" y="-99.8" font-family="Times,serif" font-size="14.00" fill="#000000">HeaderComponent</text>
</g>
<!-- SharedModule -->
<g id="node5" class="node">
<title>SharedModule</title>
<polygon fill="#8dd3c7" stroke="#000000" points="516.4231,-187 513.4231,-191 492.4231,-191 489.4231,-187 417.5769,-187 417.5769,-151 516.4231,-151 516.4231,-187"/>
<text text-anchor="middle" x="467" y="-164.8" font-family="Times,serif" font-size="14.00" fill="#000000">SharedModule</text>
</g>
<!-- HeaderComponent&#45;&gt;SharedModule -->
<g id="edge1" class="edge">
<title>HeaderComponent&#45;&gt;SharedModule</title>
<path fill="none" stroke="#000000" d="M699.375,-122.1061C699.375,-141.3391 699.375,-169 699.375,-169 699.375,-169 526.2808,-169 526.2808,-169"/>
<polygon fill="#000000" stroke="#000000" points="526.2808,-165.5001 516.2808,-169 526.2807,-172.5001 526.2808,-165.5001"/>
</g>
<!-- TableComponent -->
<g id="node2" class="node">
<title>TableComponent</title>
<polygon fill="#ffffb3" stroke="#000000" points="651.705,-122 538.295,-122 538.295,-86 651.705,-86 651.705,-122"/>
<text text-anchor="middle" x="595" y="-99.8" font-family="Times,serif" font-size="14.00" fill="#000000">TableComponent</text>
</g>
<!-- TableComponent&#45;&gt;SharedModule -->
<g id="edge2" class="edge">
<title>TableComponent&#45;&gt;SharedModule</title>
<path fill="none" stroke="#000000" d="M562.375,-122.027C562.375,-138.3976 562.375,-160 562.375,-160 562.375,-160 526.3637,-160 526.3637,-160"/>
<polygon fill="#000000" stroke="#000000" points="526.3637,-156.5001 516.3637,-160 526.3637,-163.5001 526.3637,-156.5001"/>
</g>
<!-- GridComponent -->
<g id="node3" class="node">
<title>GridComponent</title>
<polygon fill="#ffffb3" stroke="#000000" points="520.4902,-122 413.5098,-122 413.5098,-86 520.4902,-86 520.4902,-122"/>
<text text-anchor="middle" x="467" y="-99.8" font-family="Times,serif" font-size="14.00" fill="#000000">GridComponent</text>
</g>
<!-- GridComponent&#45;&gt;SharedModule -->
<g id="edge3" class="edge">
<title>GridComponent&#45;&gt;SharedModule</title>
<path fill="none" stroke="#000000" d="M467,-122.1061C467,-122.1061 467,-140.991 467,-140.991"/>
<polygon fill="#000000" stroke="#000000" points="463.5001,-140.9909 467,-150.991 470.5001,-140.991 463.5001,-140.9909"/>
</g>
<!-- DeleteConfirmationModalComponent -->
<g id="node4" class="node">
<title>DeleteConfirmationModalComponent</title>
<polygon fill="#ffffb3" stroke="#000000" points="395.8486,-122 166.1514,-122 166.1514,-86 395.8486,-86 395.8486,-122"/>
<text text-anchor="middle" x="281" y="-99.8" font-family="Times,serif" font-size="14.00" fill="#000000">DeleteConfirmationModalComponent</text>
</g>
<!-- DeleteConfirmationModalComponent&#45;&gt;SharedModule -->
<g id="edge4" class="edge">
<title>DeleteConfirmationModalComponent&#45;&gt;SharedModule</title>
<path fill="none" stroke="#000000" d="M368.3396,-122.027C368.3396,-138.3976 368.3396,-160 368.3396,-160 368.3396,-160 407.6698,-160 407.6698,-160"/>
<polygon fill="#000000" stroke="#000000" points="407.6698,-163.5001 417.6698,-160 407.6698,-156.5001 407.6698,-163.5001"/>
</g>
<!-- HeaderComponent  -->
<g id="node7" class="node">
<title>HeaderComponent </title>
<polygon fill="#fb8072" stroke="#000000" points="729.7436,-252 604.2564,-252 604.2564,-216 729.7436,-216 729.7436,-252"/>
<text text-anchor="middle" x="667" y="-229.8" font-family="Times,serif" font-size="14.00" fill="#000000">HeaderComponent </text>
</g>
<!-- SharedModule&#45;&gt;HeaderComponent  -->
<g id="edge6" class="edge">
<title>SharedModule&#45;&gt;HeaderComponent </title>
<path fill="none" stroke="#000000" stroke-dasharray="5,2" d="M516.616,-178C563.9188,-178 627.9904,-178 627.9904,-178 627.9904,-178 627.9904,-205.973 627.9904,-205.973"/>
<polygon fill="#000000" stroke="#000000" points="624.4904,-205.973 627.9904,-215.973 631.4904,-205.973 624.4904,-205.973"/>
</g>
<!-- TableComponent  -->
<g id="node8" class="node">
<title>TableComponent </title>
<polygon fill="#fb8072" stroke="#000000" points="586.2052,-252 469.7948,-252 469.7948,-216 586.2052,-216 586.2052,-252"/>
<text text-anchor="middle" x="528" y="-229.8" font-family="Times,serif" font-size="14.00" fill="#000000">TableComponent </text>
</g>
<!-- SharedModule&#45;&gt;TableComponent  -->
<g id="edge7" class="edge">
<title>SharedModule&#45;&gt;TableComponent </title>
<path fill="none" stroke="#000000" stroke-dasharray="5,2" d="M492.9294,-187.1061C492.9294,-187.1061 492.9294,-205.991 492.9294,-205.991"/>
<polygon fill="#000000" stroke="#000000" points="489.4294,-205.9909 492.9294,-215.991 496.4294,-205.991 489.4294,-205.9909"/>
</g>
<!-- GridComponent  -->
<g id="node9" class="node">
<title>GridComponent </title>
<polygon fill="#fb8072" stroke="#000000" points="451.4913,-252 340.5087,-252 340.5087,-216 451.4913,-216 451.4913,-252"/>
<text text-anchor="middle" x="396" y="-229.8" font-family="Times,serif" font-size="14.00" fill="#000000">GridComponent </text>
</g>
<!-- SharedModule&#45;&gt;GridComponent  -->
<g id="edge8" class="edge">
<title>SharedModule&#45;&gt;GridComponent </title>
<path fill="none" stroke="#000000" stroke-dasharray="5,2" d="M434.517,-187.1061C434.517,-187.1061 434.517,-205.991 434.517,-205.991"/>
<polygon fill="#000000" stroke="#000000" points="431.0171,-205.9909 434.517,-215.991 438.0171,-205.991 431.0171,-205.9909"/>
</g>
<!-- AccordionModule  -->
<g id="node10" class="node">
<title>AccordionModule </title>
<polygon fill="#fb8072" stroke="#000000" points="323.1369,-252 200.8631,-252 200.8631,-216 323.1369,-216 323.1369,-252"/>
<text text-anchor="middle" x="262" y="-229.8" font-family="Times,serif" font-size="14.00" fill="#000000">AccordionModule </text>
</g>
<!-- SharedModule&#45;&gt;AccordionModule  -->
<g id="edge9" class="edge">
<title>SharedModule&#45;&gt;AccordionModule </title>
<path fill="none" stroke="#000000" stroke-dasharray="5,2" d="M417.6365,-178C356.9772,-178 262,-178 262,-178 262,-178 262,-205.973 262,-205.973"/>
<polygon fill="#000000" stroke="#000000" points="258.5001,-205.973 262,-215.973 265.5001,-205.973 258.5001,-205.973"/>
</g>
<!-- AccordionModule -->
<g id="node6" class="node">
<title>AccordionModule</title>
<polygon fill="#8dd3c7" stroke="#000000" points="142.1374,-122 139.1374,-126 118.1374,-126 115.1374,-122 23.8626,-122 23.8626,-86 142.1374,-86 142.1374,-122"/>
<text text-anchor="middle" x="83" y="-99.8" font-family="Times,serif" font-size="14.00" fill="#000000">AccordionModule</text>
</g>
<!-- AccordionModule&#45;&gt;SharedModule -->
<g id="edge5" class="edge">
<title>AccordionModule&#45;&gt;SharedModule</title>
<path fill="none" stroke="#000000" d="M83,-122.1061C83,-141.3391 83,-169 83,-169 83,-169 407.5848,-169 407.5848,-169"/>
<polygon fill="#000000" stroke="#000000" points="407.5849,-172.5001 417.5848,-169 407.5848,-165.5001 407.5849,-172.5001"/>
</g>
</g>
</svg>
