<?xml version="1.0" encoding="UTF-8" standalone="no"?>
<!DOCTYPE svg PUBLIC "-//W3C//DTD SVG 1.1//EN"
 "http://www.w3.org/Graphics/SVG/1.1/DTD/svg11.dtd">
<!-- Generated by graphviz version 2.40.1 (20161225.0304)
 -->
<!-- Title: dependencies Pages: 1 -->
<svg width="2639pt" height="284pt"
 viewBox="0.00 0.00 2639.00 284.00" xmlns="http://www.w3.org/2000/svg" xmlns:xlink="http://www.w3.org/1999/xlink">
<g id="graph0" class="graph" transform="scale(1 1) rotate(0) translate(4 280)">
<title>dependencies</title>
<polygon fill="#ffffff" stroke="transparent" points="-4,4 -4,-280 2635,-280 2635,4 -4,4"/>
<text text-anchor="start" x="1294.5091" y="-42.4" font-family="sans-serif" font-weight="bold" font-size="14.00" fill="#000000">Legend</text>
<polygon fill="#ffffb3" stroke="transparent" points="1081.5,-10 1081.5,-30 1101.5,-30 1101.5,-10 1081.5,-10"/>
<text text-anchor="start" x="1105.129" y="-15.4" font-family="sans-serif" font-size="14.00" fill="#000000"> &#160;Declarations</text>
<polygon fill="#8dd3c7" stroke="transparent" points="1194.5,-10 1194.5,-30 1214.5,-30 1214.5,-10 1194.5,-10"/>
<text text-anchor="start" x="1218.2251" y="-15.4" font-family="sans-serif" font-size="14.00" fill="#000000"> &#160;Module</text>
<polygon fill="#80b1d3" stroke="transparent" points="1280.5,-10 1280.5,-30 1300.5,-30 1300.5,-10 1280.5,-10"/>
<text text-anchor="start" x="1304.2812" y="-15.4" font-family="sans-serif" font-size="14.00" fill="#000000"> &#160;Bootstrap</text>
<polygon fill="#fdb462" stroke="transparent" points="1377.5,-10 1377.5,-30 1397.5,-30 1397.5,-10 1377.5,-10"/>
<text text-anchor="start" x="1401.1732" y="-15.4" font-family="sans-serif" font-size="14.00" fill="#000000"> &#160;Providers</text>
<polygon fill="#fb8072" stroke="transparent" points="1473.5,-10 1473.5,-30 1493.5,-30 1493.5,-10 1473.5,-10"/>
<text text-anchor="start" x="1497.2258" y="-15.4" font-family="sans-serif" font-size="14.00" fill="#000000"> &#160;Exports</text>
<g id="clust1" class="cluster">
<title>cluster_ModalsModule</title>
<polygon fill="none" stroke="#000000" stroke-dasharray="1,5" points="8,-70 8,-268 2623,-268 2623,-70 8,-70"/>
</g>
<g id="clust2" class="cluster">
<title>cluster_ModalsModule_declarations</title>
<polygon fill="none" stroke="#000000" points="594,-78 594,-130 2615,-130 2615,-78 594,-78"/>
</g>
<g id="clust17" class="cluster">
<title>cluster_ModalsModule_exports</title>
<polygon fill="none" stroke="#000000" points="1331,-208 1331,-260 1473,-260 1473,-208 1331,-208"/>
</g>
<g id="clust19" class="cluster">
<title>cluster_ModalsModule_providers</title>
<polygon fill="none" stroke="#000000" points="16,-78 16,-130 586,-130 586,-78 16,-78"/>
</g>
<!-- FocusDirective -->
<g id="node1" class="node">
<title>FocusDirective</title>
<polygon fill="#ffffb3" stroke="#000000" points="2606.5257,-122 2505.4743,-122 2505.4743,-86 2606.5257,-86 2606.5257,-122"/>
<text text-anchor="middle" x="2556" y="-99.8" font-family="Times,serif" font-size="14.00" fill="#000000">FocusDirective</text>
</g>
<!-- ModalsModule -->
<g id="node14" class="node">
<title>ModalsModule</title>
<polygon fill="#8dd3c7" stroke="#000000" points="1452.5452,-187 1449.5452,-191 1428.5452,-191 1425.5452,-187 1351.4548,-187 1351.4548,-151 1452.5452,-151 1452.5452,-187"/>
<text text-anchor="middle" x="1402" y="-164.8" font-family="Times,serif" font-size="14.00" fill="#000000">ModalsModule</text>
</g>
<!-- FocusDirective&#45;&gt;ModalsModule -->
<g id="edge1" class="edge">
<title>FocusDirective&#45;&gt;ModalsModule</title>
<path fill="none" stroke="#000000" d="M2556,-122.3228C2556,-145.6602 2556,-183 2556,-183 2556,-183 1462.7008,-183 1462.7008,-183"/>
<polygon fill="#000000" stroke="#000000" points="1462.7009,-179.5001 1452.7008,-183 1462.7008,-186.5001 1462.7009,-179.5001"/>
</g>
<!-- FocusTimeoutDirective -->
<g id="node2" class="node">
<title>FocusTimeoutDirective</title>
<polygon fill="#ffffb3" stroke="#000000" points="2487.4636,-122 2338.5364,-122 2338.5364,-86 2487.4636,-86 2487.4636,-122"/>
<text text-anchor="middle" x="2413" y="-99.8" font-family="Times,serif" font-size="14.00" fill="#000000">FocusTimeoutDirective</text>
</g>
<!-- FocusTimeoutDirective&#45;&gt;ModalsModule -->
<g id="edge2" class="edge">
<title>FocusTimeoutDirective&#45;&gt;ModalsModule</title>
<path fill="none" stroke="#000000" d="M2413,-122.2921C2413,-144.2057 2413,-178 2413,-178 2413,-178 1462.8285,-178 1462.8285,-178"/>
<polygon fill="#000000" stroke="#000000" points="1462.8285,-174.5001 1452.8285,-178 1462.8285,-181.5001 1462.8285,-174.5001"/>
</g>
<!-- ModalsComponent -->
<g id="node3" class="node">
<title>ModalsComponent</title>
<polygon fill="#ffffb3" stroke="#000000" points="2320.8272,-122 2197.1728,-122 2197.1728,-86 2320.8272,-86 2320.8272,-122"/>
<text text-anchor="middle" x="2259" y="-99.8" font-family="Times,serif" font-size="14.00" fill="#000000">ModalsComponent</text>
</g>
<!-- ModalsComponent&#45;&gt;ModalsModule -->
<g id="edge3" class="edge">
<title>ModalsComponent&#45;&gt;ModalsModule</title>
<path fill="none" stroke="#000000" d="M2259,-122.0267C2259,-142.7672 2259,-174 2259,-174 2259,-174 1462.7258,-174 1462.7258,-174"/>
<polygon fill="#000000" stroke="#000000" points="1462.7259,-170.5001 1452.7258,-174 1462.7258,-177.5001 1462.7259,-170.5001"/>
</g>
<!-- PassphraseComponent -->
<g id="node4" class="node">
<title>PassphraseComponent</title>
<polygon fill="#ffffb3" stroke="#000000" points="2179.2534,-122 2036.7466,-122 2036.7466,-86 2179.2534,-86 2179.2534,-122"/>
<text text-anchor="middle" x="2108" y="-99.8" font-family="Times,serif" font-size="14.00" fill="#000000">PassphraseComponent</text>
</g>
<!-- PassphraseComponent&#45;&gt;ModalsModule -->
<g id="edge4" class="edge">
<title>PassphraseComponent&#45;&gt;ModalsModule</title>
<path fill="none" stroke="#000000" d="M2108,-122.1061C2108,-141.3391 2108,-169 2108,-169 2108,-169 1462.7738,-169 1462.7738,-169"/>
<polygon fill="#000000" stroke="#000000" points="1462.7738,-165.5001 1452.7738,-169 1462.7737,-172.5001 1462.7738,-165.5001"/>
</g>
<!-- PasswordComponent -->
<g id="node5" class="node">
<title>PasswordComponent</title>
<polygon fill="#ffffb3" stroke="#000000" points="2018.486,-122 1883.514,-122 1883.514,-86 2018.486,-86 2018.486,-122"/>
<text text-anchor="middle" x="1951" y="-99.8" font-family="Times,serif" font-size="14.00" fill="#000000">PasswordComponent</text>
</g>
<!-- PasswordComponent&#45;&gt;ModalsModule -->
<g id="edge5" class="edge">
<title>PasswordComponent&#45;&gt;ModalsModule</title>
<path fill="none" stroke="#000000" d="M1951,-122.302C1951,-140.2699 1951,-165 1951,-165 1951,-165 1462.6646,-165 1462.6646,-165"/>
<polygon fill="#000000" stroke="#000000" points="1462.6646,-161.5001 1452.6646,-165 1462.6645,-168.5001 1462.6646,-161.5001"/>
</g>
<!-- CreateWalletComponent -->
<g id="node6" class="node">
<title>CreateWalletComponent</title>
<polygon fill="#ffffb3" stroke="#000000" points="1865.6797,-122 1710.3203,-122 1710.3203,-86 1865.6797,-86 1865.6797,-122"/>
<text text-anchor="middle" x="1788" y="-99.8" font-family="Times,serif" font-size="14.00" fill="#000000">CreateWalletComponent</text>
</g>
<!-- CreateWalletComponent&#45;&gt;ModalsModule -->
<g id="edge6" class="edge">
<title>CreateWalletComponent&#45;&gt;ModalsModule</title>
<path fill="none" stroke="#000000" d="M1788,-122.027C1788,-138.3976 1788,-160 1788,-160 1788,-160 1462.8597,-160 1462.8597,-160"/>
<polygon fill="#000000" stroke="#000000" points="1462.8597,-156.5001 1452.8597,-160 1462.8597,-163.5001 1462.8597,-156.5001"/>
</g>
<!-- DaemonComponent -->
<g id="node7" class="node">
<title>DaemonComponent</title>
<polygon fill="#ffffb3" stroke="#000000" points="1692.259,-122 1563.741,-122 1563.741,-86 1692.259,-86 1692.259,-122"/>
<text text-anchor="middle" x="1628" y="-99.8" font-family="Times,serif" font-size="14.00" fill="#000000">DaemonComponent</text>
</g>
<!-- DaemonComponent&#45;&gt;ModalsModule -->
<g id="edge7" class="edge">
<title>DaemonComponent&#45;&gt;ModalsModule</title>
<path fill="none" stroke="#000000" d="M1628,-122.1871C1628,-137.1824 1628,-156 1628,-156 1628,-156 1462.7188,-156 1462.7188,-156"/>
<polygon fill="#000000" stroke="#000000" points="1462.7188,-152.5001 1452.7188,-156 1462.7188,-159.5001 1462.7188,-152.5001"/>
</g>
<!-- SyncingComponent -->
<g id="node8" class="node">
<title>SyncingComponent</title>
<polygon fill="#ffffb3" stroke="#000000" points="1545.7204,-122 1418.2796,-122 1418.2796,-86 1545.7204,-86 1545.7204,-122"/>
<text text-anchor="middle" x="1482" y="-99.8" font-family="Times,serif" font-size="14.00" fill="#000000">SyncingComponent</text>
</g>
<!-- SyncingComponent&#45;&gt;ModalsModule -->
<g id="edge8" class="edge">
<title>SyncingComponent&#45;&gt;ModalsModule</title>
<path fill="none" stroke="#000000" d="M1435.581,-122.1061C1435.581,-122.1061 1435.581,-140.991 1435.581,-140.991"/>
<polygon fill="#000000" stroke="#000000" points="1432.0811,-140.9909 1435.581,-150.991 1439.0811,-140.991 1432.0811,-140.9909"/>
</g>
<!-- UnlockwalletComponent -->
<g id="node9" class="node">
<title>UnlockwalletComponent</title>
<polygon fill="#ffffb3" stroke="#000000" points="1400.252,-122 1243.748,-122 1243.748,-86 1400.252,-86 1400.252,-122"/>
<text text-anchor="middle" x="1322" y="-99.8" font-family="Times,serif" font-size="14.00" fill="#000000">UnlockwalletComponent</text>
</g>
<!-- UnlockwalletComponent&#45;&gt;ModalsModule -->
<g id="edge9" class="edge">
<title>UnlockwalletComponent&#45;&gt;ModalsModule</title>
<path fill="none" stroke="#000000" d="M1375.8019,-122.1061C1375.8019,-122.1061 1375.8019,-140.991 1375.8019,-140.991"/>
<polygon fill="#000000" stroke="#000000" points="1372.302,-140.9909 1375.8019,-150.991 1379.302,-140.991 1372.302,-140.9909"/>
</g>
<!-- EncryptwalletComponent -->
<g id="node10" class="node">
<title>EncryptwalletComponent</title>
<polygon fill="#ffffb3" stroke="#000000" points="1225.8585,-122 1066.1415,-122 1066.1415,-86 1225.8585,-86 1225.8585,-122"/>
<text text-anchor="middle" x="1146" y="-99.8" font-family="Times,serif" font-size="14.00" fill="#000000">EncryptwalletComponent</text>
</g>
<!-- EncryptwalletComponent&#45;&gt;ModalsModule -->
<g id="edge10" class="edge">
<title>EncryptwalletComponent&#45;&gt;ModalsModule</title>
<path fill="none" stroke="#000000" d="M1146,-122.1871C1146,-137.1824 1146,-156 1146,-156 1146,-156 1341.4226,-156 1341.4226,-156"/>
<polygon fill="#000000" stroke="#000000" points="1341.4227,-159.5001 1351.4226,-156 1341.4226,-152.5001 1341.4227,-159.5001"/>
</g>
<!-- AlertComponent -->
<g id="node11" class="node">
<title>AlertComponent</title>
<polygon fill="#ffffb3" stroke="#000000" points="1048.0954,-122 937.9046,-122 937.9046,-86 1048.0954,-86 1048.0954,-122"/>
<text text-anchor="middle" x="993" y="-99.8" font-family="Times,serif" font-size="14.00" fill="#000000">AlertComponent</text>
</g>
<!-- AlertComponent&#45;&gt;ModalsModule -->
<g id="edge11" class="edge">
<title>AlertComponent&#45;&gt;ModalsModule</title>
<path fill="none" stroke="#000000" d="M993,-122.027C993,-138.3976 993,-160 993,-160 993,-160 1341.4384,-160 1341.4384,-160"/>
<polygon fill="#000000" stroke="#000000" points="1341.4384,-163.5001 1351.4384,-160 1341.4383,-156.5001 1341.4384,-163.5001"/>
</g>
<!-- ColdstakeComponent -->
<g id="node12" class="node">
<title>ColdstakeComponent</title>
<polygon fill="#ffffb3" stroke="#000000" points="919.8244,-122 782.1756,-122 782.1756,-86 919.8244,-86 919.8244,-122"/>
<text text-anchor="middle" x="851" y="-99.8" font-family="Times,serif" font-size="14.00" fill="#000000">ColdstakeComponent</text>
</g>
<!-- ColdstakeComponent&#45;&gt;ModalsModule -->
<g id="edge12" class="edge">
<title>ColdstakeComponent&#45;&gt;ModalsModule</title>
<path fill="none" stroke="#000000" d="M851,-122.302C851,-140.2699 851,-165 851,-165 851,-165 1341.1509,-165 1341.1509,-165"/>
<polygon fill="#000000" stroke="#000000" points="1341.1509,-168.5001 1351.1509,-165 1341.1508,-161.5001 1341.1509,-168.5001"/>
</g>
<!-- PercentageBarComponent -->
<g id="node13" class="node">
<title>PercentageBarComponent</title>
<polygon fill="#ffffb3" stroke="#000000" points="764.451,-122 601.549,-122 601.549,-86 764.451,-86 764.451,-122"/>
<text text-anchor="middle" x="683" y="-99.8" font-family="Times,serif" font-size="14.00" fill="#000000">PercentageBarComponent</text>
</g>
<!-- PercentageBarComponent&#45;&gt;ModalsModule -->
<g id="edge13" class="edge">
<title>PercentageBarComponent&#45;&gt;ModalsModule</title>
<path fill="none" stroke="#000000" d="M683,-122.1061C683,-141.3391 683,-169 683,-169 683,-169 1341.4413,-169 1341.4413,-169"/>
<polygon fill="#000000" stroke="#000000" points="1341.4414,-172.5001 1351.4413,-169 1341.4413,-165.5001 1341.4414,-172.5001"/>
</g>
<!-- ModalsComponent  -->
<g id="node15" class="node">
<title>ModalsComponent </title>
<polygon fill="#fb8072" stroke="#000000" points="1465.3269,-252 1338.6731,-252 1338.6731,-216 1465.3269,-216 1465.3269,-252"/>
<text text-anchor="middle" x="1402" y="-229.8" font-family="Times,serif" font-size="14.00" fill="#000000">ModalsComponent </text>
</g>
<!-- ModalsModule&#45;&gt;ModalsComponent  -->
<g id="edge14" class="edge">
<title>ModalsModule&#45;&gt;ModalsComponent </title>
<path fill="none" stroke="#000000" stroke-dasharray="5,2" d="M1402,-187.1061C1402,-187.1061 1402,-205.991 1402,-205.991"/>
<polygon fill="#000000" stroke="#000000" points="1398.5001,-205.9909 1402,-215.991 1405.5001,-205.991 1398.5001,-205.9909"/>
</g>
<!-- ModalsService -->
<g id="node16" class="node">
<title>ModalsService</title>
<ellipse fill="#fdb462" stroke="#000000" cx="509" cy="-104" rx="68.9177" ry="18"/>
<text text-anchor="middle" x="509" y="-99.8" font-family="Times,serif" font-size="14.00" fill="#000000">ModalsService</text>
</g>
<!-- ModalsService&#45;&gt;ModalsModule -->
<g id="edge15" class="edge">
<title>ModalsService&#45;&gt;ModalsModule</title>
<path fill="none" stroke="#000000" d="M509,-122.0267C509,-142.7672 509,-174 509,-174 509,-174 1341.4298,-174 1341.4298,-174"/>
<polygon fill="#000000" stroke="#000000" points="1341.4299,-177.5001 1351.4298,-174 1341.4298,-170.5001 1341.4299,-177.5001"/>
</g>
<!-- PassphraseService -->
<g id="node17" class="node">
<title>PassphraseService</title>
<ellipse fill="#fdb462" stroke="#000000" cx="340" cy="-104" rx="82.2179" ry="18"/>
<text text-anchor="middle" x="340" y="-99.8" font-family="Times,serif" font-size="14.00" fill="#000000">PassphraseService</text>
</g>
<!-- PassphraseService&#45;&gt;ModalsModule -->
<g id="edge16" class="edge">
<title>PassphraseService&#45;&gt;ModalsModule</title>
<path fill="none" stroke="#000000" d="M340,-122.2921C340,-144.2057 340,-178 340,-178 340,-178 1341.1353,-178 1341.1353,-178"/>
<polygon fill="#000000" stroke="#000000" points="1341.1354,-181.5001 1351.1353,-178 1341.1353,-174.5001 1341.1354,-181.5001"/>
</g>
<!-- FlashNotificationService -->
<g id="node18" class="node">
<title>FlashNotificationService</title>
<ellipse fill="#fdb462" stroke="#000000" cx="132" cy="-104" rx="107.656" ry="18"/>
<text text-anchor="middle" x="132" y="-99.8" font-family="Times,serif" font-size="14.00" fill="#000000">FlashNotificationService</text>
</g>
<!-- FlashNotificationService&#45;&gt;ModalsModule -->
<g id="edge17" class="edge">
<title>FlashNotificationService&#45;&gt;ModalsModule</title>
<path fill="none" stroke="#000000" d="M132,-122.3228C132,-145.6602 132,-183 132,-183 132,-183 1341.4308,-183 1341.4308,-183"/>
<polygon fill="#000000" stroke="#000000" points="1341.4308,-186.5001 1351.4308,-183 1341.4307,-179.5001 1341.4308,-186.5001"/>
</g>
</g>
</svg>
