<?xml version="1.0" encoding="UTF-8" standalone="no"?>

<svg
   xmlns:dc="http://purl.org/dc/elements/1.1/"
   xmlns:cc="http://creativecommons.org/ns#"
   xmlns:rdf="http://www.w3.org/1999/02/22-rdf-syntax-ns#"
   xmlns:svg="http://www.w3.org/2000/svg"
   xmlns="http://www.w3.org/2000/svg"
   xmlns:sodipodi="http://sodipodi.sourceforge.net/DTD/sodipodi-0.dtd"
   xmlns:inkscape="http://www.inkscape.org/namespaces/inkscape"
   style="isolation:isolate"
   viewBox="517 419 26 16"
   width="26"
   height="16"
   version="1.1"
   id="svg249"
   sodipodi:docname="lock-off.svg"
   inkscape:version="0.92.2 5c3e80d, 2017-08-06">
  <metadata
     id="metadata255">
    <rdf:RDF>
      <cc:Work
         rdf:about="">
        <dc:format>image/svg+xml</dc:format>
        <dc:type
           rdf:resource="http://purl.org/dc/dcmitype/StillImage" />
      </cc:Work>
    </rdf:RDF>
  </metadata>
  <defs
     id="defs253" />
  <sodipodi:namedview
     pagecolor="#ffffff"
     bordercolor="#666666"
     borderopacity="1"
     objecttolerance="10"
     gridtolerance="10"
     guidetolerance="10"
     inkscape:pageopacity="0"
     inkscape:pageshadow="2"
     inkscape:window-width="1920"
     inkscape:window-height="1174"
     id="namedview251"
     showgrid="false"
     inkscape:zoom="2.0669275"
     inkscape:cx="112.94294"
     inkscape:cy="-22.255986"
     inkscape:window-x="0"
     inkscape:window-y="0"
     inkscape:window-maximized="1"
     inkscape:current-layer="svg249" />
  <path
     d=" M 523 434 C 523 434.6 523.4 435 524 435 L 536 435 C 536.6 435 537 434.6 537 434 L 537 425 C 537 424.4 536.6 424 536 424 L 528 424 L 528 423 C 528 421.9 528.9 421 530 421 C 530.6 421 531.1 421.2 531.5 421.7 L 532.2 422.4 L 533.7 421.1 L 533 420.3 C 532.2 419.5 531.1 419 530 419 C 527.8 419 526 420.8 526 423 L 526 424 L 524 424 C 523.4 424 523 424.4 523 425 L 523 434 Z  M 530 427 C 531.1 427 532 427.9 532 429 C 532 429.7 531.6 430.4 531 430.7 L 531 432 L 529 432 L 529 430.7 C 528.4 430.4 528 429.7 528 429 C 528 427.9 528.9 427 530 427 Z "
     fill="rgb(2,232,176)"
     id="path165" />
</svg>
