<?xml version="1.0" encoding="UTF-8" standalone="no"?>

<svg
   xmlns:dc="http://purl.org/dc/elements/1.1/"
   xmlns:cc="http://creativecommons.org/ns#"
   xmlns:rdf="http://www.w3.org/1999/02/22-rdf-syntax-ns#"
   xmlns:svg="http://www.w3.org/2000/svg"
   xmlns="http://www.w3.org/2000/svg"
   xmlns:sodipodi="http://sodipodi.sourceforge.net/DTD/sodipodi-0.dtd"
   xmlns:inkscape="http://www.inkscape.org/namespaces/inkscape"
   style="isolation:isolate"
   viewBox="487 419 26 16"
   width="26"
   height="16"
   version="1.1"
   id="svg249"
   sodipodi:docname="lock.svg"
   inkscape:version="0.92.2 5c3e80d, 2017-08-06">
  <metadata
     id="metadata255">
    <rdf:RDF>
      <cc:Work
         rdf:about="">
        <dc:format>image/svg+xml</dc:format>
        <dc:type
           rdf:resource="http://purl.org/dc/dcmitype/StillImage" />
      </cc:Work>
    </rdf:RDF>
  </metadata>
  <defs
     id="defs253" />
  <sodipodi:namedview
     pagecolor="#ffffff"
     bordercolor="#666666"
     borderopacity="1"
     objecttolerance="10"
     gridtolerance="10"
     guidetolerance="10"
     inkscape:pageopacity="0"
     inkscape:pageshadow="2"
     inkscape:window-width="1920"
     inkscape:window-height="1174"
     id="namedview251"
     showgrid="false"
     inkscape:zoom="1.4615385"
     inkscape:cx="147.26378"
     inkscape:cy="-68.751677"
     inkscape:window-x="0"
     inkscape:window-y="0"
     inkscape:window-maximized="1"
     inkscape:current-layer="svg249" />
  <path
     d=" M 500 419 C 497.8 419 496 420.8 496 423 L 496 424 L 494 424 C 493.4 424 493 424.4 493 425 L 493 434 C 493 434.6 493.4 435 494 435 L 506 435 C 506.6 435 507 434.6 507 434 L 507 425 C 507 424.4 506.6 424 506 424 L 504 424 L 504 423 C 504 420.8 502.2 419 500 419 Z  M 501 430.7 L 501 432 L 499 432 L 499 430.7 C 498.4 430.4 498 429.7 498 429 C 498 427.9 498.9 427 500 427 C 501.1 427 502 427.9 502 429 C 502 429.7 501.6 430.4 501 430.7 Z  M 502 424 L 498 424 L 498 423 C 498 421.9 498.9 421 500 421 C 501.1 421 502 421.9 502 423 L 502 424 Z "
     fill="rgb(227,34,60)"
     id="path163" />
</svg>
