<svg width="21" height="21" viewBox="0 0 21 21" fill="none" xmlns="http://www.w3.org/2000/svg">
<path d="M12.5648 11.3177C12.3228 11.1964 11.7837 11.0331 11.142 10.9906C10.5 10.9482 9.67661 10.9906 9.67661 10.9906V13.77C9.67661 13.77 10.5364 13.7883 11.1119 13.7459C11.6869 13.7035 12.2804 13.5582 12.5771 13.3945C12.8737 13.231 13.231 12.9767 13.231 12.341C13.231 11.7051 12.8071 11.4388 12.5648 11.3177ZM10.7544 9.70075C11.2269 9.68251 11.7294 9.57364 12.0925 9.37375C12.4559 9.17396 12.6617 8.85927 12.6498 8.38682C12.6374 7.91446 12.3228 7.51487 11.79 7.35119C11.257 7.18768 10.9 7.17556 10.494 7.16954C10.0883 7.16361 9.67651 7.1999 9.67651 7.1999V9.70075C9.67661 9.70075 10.2821 9.71899 10.7544 9.70075Z" fill="#F7931A"/>
<path d="M10.5001 0C4.70108 0 0 4.70099 0 10.5001C0 16.2991 4.70108 21.0002 10.5001 21.0002C16.2991 21.0002 21 16.2991 21 10.5001C21 4.70099 16.2991 0 10.5001 0ZM14.7754 14.5149C13.994 15.0599 13.1584 15.1569 12.789 15.2052C12.6067 15.2291 12.2944 15.2544 11.9596 15.274V17.3792H10.6636V15.3081H9.67667V17.3792H8.38079V15.3081H5.83152L6.09788 13.7516H6.87289C7.13342 13.7516 7.2422 13.7274 7.35117 13.6246C7.46014 13.5215 7.4844 13.3642 7.4844 13.2369V7.87482C7.4844 7.53893 7.45709 7.44801 7.30266 7.27553C7.14823 7.10268 6.78503 7.08 6.58051 7.08H5.83142V5.73449H8.38069V3.65749H9.67648V5.73449H10.6634V3.65749H11.9594V5.7594C12.9255 5.8193 13.6447 6.00335 14.2724 6.46719C15.084 7.06666 15.0414 8.10813 15.0232 8.35644C15.0052 8.60474 14.8962 9.08321 14.678 9.39179C14.4602 9.70074 13.9273 10.0096 13.9273 10.0096C13.9273 10.0096 14.557 10.1427 14.9993 10.4758C15.441 10.809 15.7683 11.3962 15.7497 12.2561C15.732 13.116 15.5564 13.9699 14.7754 14.5149Z" fill="#F7931A"/>
</svg>
