<svg width="21" height="21" viewBox="0 0 21 21" fill="none" xmlns="http://www.w3.org/2000/svg">
<path fill-rule="evenodd" clip-rule="evenodd" d="M0 10.4999C0 4.70102 4.70102 0 10.5 0C16.2989 0 21 4.70102 21 10.4999C21 16.299 16.2989 21 10.5 21C4.70102 21 0 16.299 0 10.4999ZM11.3726 12.8121H9.10959V12.5844C9.10959 11.0237 9.48836 10.5398 10.2027 10.0797C10.8116 9.68596 11.2767 9.35863 11.2767 8.82732C11.2767 8.35294 10.8932 8.03036 10.4137 8.03036C9.89589 8.03036 9.45479 8.41461 9.45479 8.96015H7C7.01918 6.87287 8.56781 6 10.4329 6C12.4801 6 14 6.89184 14 8.67552C14 9.82827 13.3623 10.5066 12.4274 11.0474C11.7322 11.4507 11.3726 11.8302 11.3726 12.5844V12.8121ZM11.6219 14.6717C11.6123 15.4118 10.9842 16 10.2795 16C9.5363 16 8.9274 15.4118 8.93699 14.6717C8.9274 13.9507 9.5363 13.3624 10.2795 13.3624C10.9842 13.3624 11.6123 13.9507 11.6219 14.6717Z" fill="#C4C4C4"/>
</svg>
