<svg id="fc5c3225-7602-4bc9-83b7-60b4757d2e45" data-name="Layer 1" xmlns="http://www.w3.org/2000/svg" width="1106" height="776" viewBox="0 0 1106 776"><title>invest</title><ellipse cx="416" cy="743.5" rx="416" ry="32.5" fill="#3f3d56"/><path d="M403.14648,882.52148c-.22949-.375-5.64062-9.41015-7.5166-28.17187-1.7207-17.21289-.61425-46.22656,14.43262-86.69824,28.50586-76.6709-6.56934-138.53321-6.92773-139.14942l1.73046-1.0039c.09082.15625,9.14161,15.92871,14.48829,41.04394a179.06122,179.06122,0,0,1-7.416,99.80664c-28.457,76.54-7.30078,112.77344-7.084,113.13086Z" transform="translate(-247 -162)" fill="#3f3d56"/><circle cx="145" cy="449" r="13" fill="#45d391"/><circle cx="186" cy="497" r="13" fill="#3f3d56"/><circle cx="158" cy="529" r="13" fill="#45d391"/><circle cx="192" cy="556" r="13" fill="#45d391"/><circle cx="148" cy="598" r="13" fill="#3f3d56"/><path d="M411,883s-13-32,26-56Z" transform="translate(-247 -162)" fill="#3f3d56"/><path d="M395.012,882.41953s-5.91642-34.02934-51.7085-33.73768Z" transform="translate(-247 -162)" fill="#3f3d56"/><path d="M617,317s1,26-5,32,30,27,30,27l21-33s-8-14-6-26Z" transform="translate(-247 -162)" fill="#a0616a"/><polygon points="305.5 683.5 305.5 708.5 336.5 710.5 334.5 683.5 305.5 683.5" fill="#a0616a"/><polygon points="475.5 683.5 475.5 708.5 444.5 710.5 446.5 683.5 475.5 683.5" fill="#a0616a"/><path d="M568.5,568.5s-16,58-6,104c0,0,0,20,4,24s5,4,2,6-9,7-6,10,4,7,2,8-4,3-2,7-10,111-10,111-12,13,0,14,32,6,34-2,18-121,18-121,2-3,6-8,2-7,2-8,21-96,21-96,31,108,34,110,4,2,4,5-2,5,0,8a51.953,51.953,0,0,1,3,5s5,112,15,112,40-2,37-11-7-7-7-7,7-92-10-119v-22c0-2,1-3,0-5s3-121-16-128S568.5,568.5,568.5,568.5Z" transform="translate(-247 -162)" fill="#d0cde1"/><path d="M571.5,863.5s-5-8-12-8-12,8-12,8l-18,25s-26,16-16,25,37,4,37,4,22-16,25-17,11-6,12-7-2-37-5-34.5S577.5,869.5,571.5,863.5Z" transform="translate(-247 -162)" fill="#2f2e41"/><path d="M703.5,863.5s5-8,12-8,12,8,12,8l18,25s26,16,16,25-37,4-37,4-22-16-25-17-11-6-12-7,2-37,5-34.5S697.5,869.5,703.5,863.5Z" transform="translate(-247 -162)" fill="#2f2e41"/><circle cx="387.5" cy="133.5" r="36" fill="#a0616a"/><path d="M625,352s-6.72751.37087-9.86376-9.81457L562,381l22,59s3,32,0,41-5,16-5,20-21,71-13,74,130,15,133-5-10-152-10-152l21-51-51.05491-33.39657S654,354,625,352Z" transform="translate(-247 -162)" fill="#3f3d56"/><path d="M558.5,444.5l-4,31s-16,33-12,77l-1,29s-10,50,10,52,7-55,7-55l11-27,11.26029-60.06194L586.5,449.5Z" transform="translate(-247 -162)" fill="#a0616a"/><path d="M576.5,379.5,562,381s-9.5,70.5-6.5,70.5,37,8,38,6S576.5,379.5,576.5,379.5Z" transform="translate(-247 -162)" fill="#3f3d56"/><path d="M606.7236,258.59754l-6.48961-2.35987s13.56911-13.5691,32.448-12.38912l-5.3098-5.30972s12.9792-4.71963,24.77842,7.66949c6.20262,6.51271,13.37914,14.168,17.853,22.79168h6.9499l-2.90063,5.80127,10.15222,5.80126-10.42026-1.04206a29.27363,29.27363,0,0,1-.98558,15.02464l-2.35978,6.48952S661,282.1959,661,279.836v5.89961s-6.4896-5.30963-6.4896-8.84938l-3.53975,4.12974-1.76988-6.4896L627.3722,281.016l3.53975-5.30962-13.5691,1.76987,5.3098-6.4896s-15.339,7.66949-15.929,14.15909c-.5899,6.48951-8.2593,14.749-8.2593,14.749l-3.53975-5.89961S589.61474,267.44691,606.7236,258.59754Z" transform="translate(-247 -162)" fill="#2f2e41"/><ellipse cx="454.25" cy="514.5" rx="66.75" ry="95" fill="#3f3d56"/><ellipse cx="454.25" cy="514.5" rx="66.75" ry="95" opacity="0.1"/><ellipse cx="463.25" cy="514.5" rx="66.75" ry="95" fill="#3f3d56"/><ellipse cx="463.25" cy="514.5" rx="57.25" ry="81.4794" opacity="0.1"/><path d="M709.754,715.74791v-9.56458c-4.83486-.09432-9.8366-1.79954-12.754-4.16687l2.00045-6.34464a20.38775,20.38775,0,0,0,12.00393,4.07163c5.91873,0,9.92-3.88252,9.92-9.28022,0-5.2086-3.25119-8.42808-9.41983-11.26934-8.50283-3.78773-13.75447-8.14417-13.75447-16.38268,0-7.86028,4.9183-13.82623,12.58758-15.24663V638h5.1682v9.1859a20.28186,20.28186,0,0,1,10.837,3.31426l-2.08429,6.25031a18.42058,18.42058,0,0,0-10.50329-3.21994c-6.41853,0-8.83617,4.356-8.83617,8.14418,0,4.92424,3.08432,7.38635,10.33682,10.79587,8.58586,3.9773,12.92091,8.90154,12.92091,17.32961,0,7.48114-4.585,14.48928-13.17122,16.09832v9.8494Z" transform="translate(-247 -162)" fill="#45d391"/><path d="M724.5,433.5v41s1,50-16,81l-9,20s-18,58-29,40,12-48,12-48l13.01614-76.11956L687.5,440.5Z" transform="translate(-247 -162)" fill="#a0616a"/><path d="M690.5,364.5,710,367s23.5,71.5,17.5,74.5-45,5-45,5Z" transform="translate(-247 -162)" fill="#3f3d56"/><rect x="591" y="50.25896" width="458" height="512.74104" fill="#f2f2f2"/><path d="M922,598.81445H910v-2h12Zm-24,0H886v-2h12Zm-24,0H862v-2h12Zm-24,0H838v-2h12Z" transform="translate(-247 -162)" fill="#e6e6e6"/><path d="M1090,504h-12v-2h12Zm-24,0h-12v-2h12Zm-24,0h-12v-2h12Zm-24,0h-12v-2h12Zm-24,0H982v-2h12Zm-24,0H958v-2h12Zm-24,0H934v-2h12Zm-24,0H910v-2h12Zm-24,0H886v-2h12Zm-24,0H862v-2h12Zm-24,0H838v-2h12Z" transform="translate(-247 -162)" fill="#e6e6e6"/><path d="M1330,445h-12v-2h12Zm-24,0h-12v-2h12Zm-24,0h-12v-2h12Zm-24,0h-12v-2h12Zm-24,0h-12v-2h12Zm-24,0h-12v-2h12Zm-24,0h-12v-2h12Zm-24,0h-12v-2h12Zm-24,0h-12v-2h12Zm-24,0h-12v-2h12Zm-24,0h-12v-2h12Zm-24,0h-12v-2h12Zm-24,0h-12v-2h12Zm-24,0h-12v-2h12Zm-24,0H982v-2h12Zm-24,0H958v-2h12Zm-24,0H934v-2h12Zm-24,0H910v-2h12Zm-24,0H886v-2h12Zm-24,0H862v-2h12Zm-24,0H838v-2h12Z" transform="translate(-247 -162)" fill="#e6e6e6"/><rect x="680" y="0.77588" width="2" height="6" fill="#e6e6e6"/><path d="M929,617.19922h-2V605.39844h2Zm0-23.60156h-2V581.79688h2Zm0-23.60157h-2v-11.7998h2Zm0-23.60058h-2V534.59473h2Zm0-23.60156h-2V510.99316h2Zm0-23.60157h-2v-11.7998h2Zm0-23.60058h-2V463.791h2Zm0-23.60157h-2V440.18945h2Zm0-23.60156h-2v-11.7998h2Zm0-23.60058h-2V392.9873h2Zm0-23.60157h-2V369.38623h2Zm0-23.60107h-2V345.78467h2Zm0-23.60107h-2V322.18359h2Zm0-23.60157h-2V298.58252h2Zm0-23.60107h-2V274.981h2Zm0-23.60108h-2V251.37988h2Zm0-23.60156h-2V227.77881h2Zm0-23.60107h-2V204.17725h2Zm0-23.60108h-2V180.57617h2Z" transform="translate(-247 -162)" fill="#e6e6e6"/><rect x="680" y="467" width="2" height="6" fill="#e6e6e6"/><rect x="854" y="0.77588" width="2" height="6" fill="#e6e6e6"/><path d="M1103,526.08984h-2V514.17871h2Zm0-23.82129h-2V490.3584h2Zm0-23.82128h-2V466.53711h2Zm0-23.82032h-2V442.71582h2Zm0-23.82129h-2V418.89551h2Zm0-23.8208h-2V395.07422h2Zm0-23.8208h-2V371.25342h2Zm0-23.82129h-2V347.43262h2Zm0-23.8208h-2V323.61133h2Zm0-23.8208h-2V299.79053h2Zm0-23.8208h-2V275.96973h2Zm0-23.82129h-2V252.14893h2Zm0-23.8208h-2V228.32764h2Zm0-23.8208h-2V204.50684h2Zm0-23.8208h-2V180.686h2Z" transform="translate(-247 -162)" fill="#e6e6e6"/><rect x="854" y="376" width="2" height="6" fill="#e6e6e6"/><polygon points="591 563 682 472 723.5 513.5 855 382 940 467 1093 314 1093 563 591 563" fill="#45d391"/><path d="M1341,726H837V162h504Zm-502-2h500V164H839Z" transform="translate(-247 -162)" fill="#3f3d56"/><circle cx="681" cy="434" r="13" fill="#3f3d56"/><circle cx="855" cy="341" r="13" fill="#3f3d56"/><circle cx="1093" cy="282" r="13" fill="#3f3d56"/><path d="M1249,242c-5.81738,1.68762-13.62061,2.99127-19.39758,2.52979l7.53845,5.00732L882.40527,512.19629l1.18946,1.60742,354.73608-262.65948,2.5907,8.6726C1242.16577,254.15662,1245.68958,247.07343,1249,242Z" transform="translate(-247 -162)" fill="#3f3d56"/></svg>