<?xml version="1.0" standalone="no"?><!-- Generator: Gravit.io --><svg xmlns="http://www.w3.org/2000/svg" xmlns:xlink="http://www.w3.org/1999/xlink" style="isolation:isolate" viewBox="-129.5 209.5 73.59 80.077" width="73.59" height="80.077"><g id="place"><path d=" M -71 258.182 L -71 214 L -125 214 L -125 274.873 L -87.691 274.873" fill="none" vector-effect="non-scaling-stroke" stroke-width="3" stroke="rgb(220,220,220)" stroke-linejoin="miter" stroke-linecap="square" stroke-miterlimit="3"/><g id="list"><line x1="-102.375" y1="251.273" x2="-88.5" y2="251.273" vector-effect="non-scaling-stroke" stroke-width="2" stroke="rgb(195,195,195)" stroke-linejoin="miter" stroke-linecap="square" stroke-miterlimit="3"/><path d=" M -114 251.273 C -114 249.617 -112.656 248.273 -111 248.273 C -109.344 248.273 -108 249.617 -108 251.273 C -108 252.928 -109.344 254.273 -111 254.273 C -112.656 254.273 -114 252.928 -114 251.273 Z " fill="none" vector-effect="non-scaling-stroke" stroke-width="2" stroke="rgb(195,195,195)" stroke-linejoin="miter" stroke-linecap="square" stroke-miterlimit="3"/><line x1="-102.375" y1="240" x2="-92.625" y2="240" vector-effect="non-scaling-stroke" stroke-width="2" stroke="rgb(195,195,195)" stroke-linejoin="miter" stroke-linecap="square" stroke-miterlimit="3"/><path d=" M -114 240 C -114 238.344 -112.656 237 -111 237 C -109.344 237 -108 238.344 -108 240 C -108 241.656 -109.344 243 -111 243 C -112.656 243 -114 241.656 -114 240 Z " fill="none" vector-effect="non-scaling-stroke" stroke-width="2" stroke="rgb(195,195,195)" stroke-linejoin="miter" stroke-linecap="square" stroke-miterlimit="3"/><line x1="-102.375" y1="228.727" x2="-83.625" y2="228.727" vector-effect="non-scaling-stroke" stroke-width="2" stroke="rgb(195,195,195)" stroke-linejoin="miter" stroke-linecap="square" stroke-miterlimit="3"/><path d=" M -114 228.727 C -114 227.072 -112.656 225.727 -111 225.727 C -109.344 225.727 -108 227.072 -108 228.727 C -108 230.383 -109.344 231.727 -111 231.727 C -112.656 231.727 -114 230.383 -114 228.727 Z " fill="none" vector-effect="non-scaling-stroke" stroke-width="2" stroke="rgb(195,195,195)" stroke-linejoin="miter" stroke-linecap="square" stroke-miterlimit="3"/></g><g id="arrow"><path d=" M -65.487 255.775 C -67.221 255.27 -69.053 255 -70.949 255 C -81.732 255 -90.487 263.755 -90.487 274.538 C -90.487 276.532 -90.188 278.457 -89.632 280.269 L -65.487 280.269 L -65.487 255.775 Z " fill="rgb(255,255,255)"/><path d=" M -84.487 274.538 C -84.487 267.066 -78.421 261 -70.949 261 C -63.477 261 -57.41 267.066 -57.41 274.538 C -57.41 282.011 -63.477 288.077 -70.949 288.077 C -78.421 288.077 -84.487 282.011 -84.487 274.538 Z " fill="rgb(255,255,255)" vector-effect="non-scaling-stroke" stroke-width="3" stroke="rgb(2,232,176)" stroke-linejoin="miter" stroke-linecap="butt" stroke-miterlimit="3"/><line x1="-75.66" y1="274.536" x2="-67.364" y2="274.536" vector-effect="non-scaling-stroke" stroke-width="3" stroke="rgb(2,232,176)" stroke-linejoin="miter" stroke-linecap="square" stroke-miterlimit="3"/><path d=" M -70.34 279.071 L -65.805 274.536 L -70.34 270" fill="none" vector-effect="non-scaling-stroke" stroke-width="3" stroke="rgb(2,232,176)" stroke-linejoin="miter" stroke-linecap="square" stroke-miterlimit="3"/></g></g></svg>