<?xml version="1.0" standalone="no"?><!-- Generator: Gravit.io --><svg xmlns="http://www.w3.org/2000/svg" xmlns:xlink="http://www.w3.org/1999/xlink" style="isolation:isolate" viewBox="225.987 209.962 78.59 79.615" width="78.59" height="79.615"><g id="shipped"><path d=" M 289.564 275.232 L 289.564 230.872 L 280.538 214.462 L 239.513 214.462 L 230.487 230.872 L 230.487 275.179 L 289.564 275.232 Z " fill="none" vector-effect="non-scaling-stroke" stroke-width="3" stroke="rgb(220,220,220)" stroke-linejoin="miter" stroke-linecap="square" stroke-miterlimit="3"/><line x1="231.526" y1="230.872" x2="288.675" y2="230.872" vector-effect="non-scaling-stroke" stroke-width="3" stroke="rgb(220,220,220)" stroke-linejoin="miter" stroke-linecap="square" stroke-miterlimit="3"/><line x1="260.026" y1="215.433" x2="260.026" y2="230.382" vector-effect="non-scaling-stroke" stroke-width="3" stroke="rgb(220,220,220)" stroke-linejoin="miter" stroke-linecap="square" stroke-miterlimit="3"/><g id="stamp"><path d="M 241.805 246.221 L 265.189 242.035 C 266.379 241.822 267.518 242.615 267.731 243.805 L 268.889 250.274 C 269.103 251.464 268.309 252.604 267.119 252.817 L 243.735 257.004 C 242.545 257.217 241.406 256.423 241.193 255.233 L 240.035 248.764 C 239.822 247.574 240.615 246.435 241.805 246.221 Z" style="fill:none;stroke:#C3C3C3;stroke-width:2;stroke-linecap:square;stroke-miterlimit:3;"/><line x1="245.668" y1="251.094" x2="258.606" y2="248.777" vector-effect="non-scaling-stroke" stroke-width="2" stroke="rgb(195,195,195)" stroke-linejoin="miter" stroke-linecap="square" stroke-miterlimit="3"/></g><g id="check"><path d=" M 295 255.775 C 293.267 255.27 291.434 255 289.538 255 C 278.755 255 270 263.755 270 274.538 C 270 276.532 270.299 278.457 270.855 280.269 L 295 280.269 L 295 255.775 Z " fill="rgb(255,255,255)"/><path d=" M 276 274.538 C 276 267.066 282.066 261 289.538 261 C 297.011 261 303.077 267.066 303.077 274.538 C 303.077 282.011 297.011 288.077 289.538 288.077 C 282.066 288.077 276 282.011 276 274.538 Z " fill="rgb(255,255,255)" vector-effect="non-scaling-stroke" stroke-width="3" stroke="rgb(2,232,176)" stroke-linejoin="miter" stroke-linecap="butt" stroke-miterlimit="3"/><path d=" M 284.037 275.052 L 287.846 278.861 L 295.04 271.667" fill="none" vector-effect="non-scaling-stroke" stroke-width="3" stroke="rgb(2,232,176)" stroke-linejoin="miter" stroke-linecap="square" stroke-miterlimit="3"/></g></g></svg>