<?xml version="1.0" encoding="UTF-8" standalone="no"?>
<!DOCTYPE svg PUBLIC "-//W3C//DTD SVG 1.1//EN"
 "http://www.w3.org/Graphics/SVG/1.1/DTD/svg11.dtd">
<!-- Generated by graphviz version 2.40.1 (20161225.0304)
 -->
<!-- Title: dependencies Pages: 1 -->
<svg width="1751pt" height="349pt"
 viewBox="0.00 0.00 1751.00 349.00" xmlns="http://www.w3.org/2000/svg" xmlns:xlink="http://www.w3.org/1999/xlink">
<g id="graph0" class="graph" transform="scale(1 1) rotate(0) translate(4 345)">
<title>dependencies</title>
<polygon fill="#ffffff" stroke="transparent" points="-4,4 -4,-345 1747,-345 1747,4 -4,4"/>
<text text-anchor="start" x="850.5091" y="-42.4" font-family="sans-serif" font-weight="bold" font-size="14.00" fill="#000000">Legend</text>
<polygon fill="#ffffb3" stroke="transparent" points="637.5,-10 637.5,-30 657.5,-30 657.5,-10 637.5,-10"/>
<text text-anchor="start" x="661.129" y="-15.4" font-family="sans-serif" font-size="14.00" fill="#000000"> &#160;Declarations</text>
<polygon fill="#8dd3c7" stroke="transparent" points="750.5,-10 750.5,-30 770.5,-30 770.5,-10 750.5,-10"/>
<text text-anchor="start" x="774.2251" y="-15.4" font-family="sans-serif" font-size="14.00" fill="#000000"> &#160;Module</text>
<polygon fill="#80b1d3" stroke="transparent" points="836.5,-10 836.5,-30 856.5,-30 856.5,-10 836.5,-10"/>
<text text-anchor="start" x="860.2812" y="-15.4" font-family="sans-serif" font-size="14.00" fill="#000000"> &#160;Bootstrap</text>
<polygon fill="#fdb462" stroke="transparent" points="933.5,-10 933.5,-30 953.5,-30 953.5,-10 933.5,-10"/>
<text text-anchor="start" x="957.1732" y="-15.4" font-family="sans-serif" font-size="14.00" fill="#000000"> &#160;Providers</text>
<polygon fill="#fb8072" stroke="transparent" points="1029.5,-10 1029.5,-30 1049.5,-30 1049.5,-10 1029.5,-10"/>
<text text-anchor="start" x="1053.2258" y="-15.4" font-family="sans-serif" font-size="14.00" fill="#000000"> &#160;Exports</text>
<g id="clust1" class="cluster">
<title>cluster_AppModule</title>
<polygon fill="none" stroke="#000000" stroke-dasharray="1,5" points="8,-70 8,-333 1735,-333 1735,-70 8,-70"/>
</g>
<g id="clust2" class="cluster">
<title>cluster_AppModule_declarations</title>
<polygon fill="none" stroke="#000000" points="853,-143 853,-195 1727,-195 1727,-143 853,-143"/>
</g>
<g id="clust3" class="cluster">
<title>cluster_AppModule_AppComponent_providers</title>
<polygon fill="none" stroke="#000000" points="1569,-78 1569,-130 1727,-130 1727,-78 1569,-78"/>
</g>
<g id="clust9" class="cluster">
<title>cluster_AppModule_imports</title>
<polygon fill="none" stroke="#000000" points="611,-143 611,-195 845,-195 845,-143 611,-143"/>
</g>
<g id="clust11" class="cluster">
<title>cluster_AppModule_bootstrap</title>
<polygon fill="none" stroke="#000000" points="797,-273 797,-325 921,-325 921,-273 797,-273"/>
</g>
<g id="clust12" class="cluster">
<title>cluster_AppModule_providers</title>
<polygon fill="none" stroke="#000000" points="16,-143 16,-195 603,-195 603,-143 16,-143"/>
</g>
<!-- AppComponent -->
<g id="node1" class="node">
<title>AppComponent</title>
<polygon fill="#ffffb3" stroke="#000000" points="1718.9399,-187 1613.0601,-187 1613.0601,-151 1718.9399,-151 1718.9399,-187"/>
<text text-anchor="middle" x="1666" y="-164.8" font-family="Times,serif" font-size="14.00" fill="#000000">AppComponent</text>
</g>
<!-- AppModule -->
<g id="node7" class="node">
<title>AppModule</title>
<polygon fill="#8dd3c7" stroke="#000000" points="900.6571,-252 897.6571,-256 876.6571,-256 873.6571,-252 817.3429,-252 817.3429,-216 900.6571,-216 900.6571,-252"/>
<text text-anchor="middle" x="859" y="-229.8" font-family="Times,serif" font-size="14.00" fill="#000000">AppModule</text>
</g>
<!-- AppComponent&#45;&gt;AppModule -->
<g id="edge1" class="edge">
<title>AppComponent&#45;&gt;AppModule</title>
<path fill="none" stroke="#000000" d="M1666,-187.2479C1666,-210.0179 1666,-246 1666,-246 1666,-246 910.6885,-246 910.6885,-246"/>
<polygon fill="#000000" stroke="#000000" points="910.6885,-242.5001 900.6885,-246 910.6884,-249.5001 910.6885,-242.5001"/>
</g>
<!-- StatusComponent -->
<g id="node2" class="node">
<title>StatusComponent</title>
<polygon fill="#ffffb3" stroke="#000000" points="1595.5563,-187 1480.4437,-187 1480.4437,-151 1595.5563,-151 1595.5563,-187"/>
<text text-anchor="middle" x="1538" y="-164.8" font-family="Times,serif" font-size="14.00" fill="#000000">StatusComponent</text>
</g>
<!-- StatusComponent&#45;&gt;AppModule -->
<g id="edge3" class="edge">
<title>StatusComponent&#45;&gt;AppModule</title>
<path fill="none" stroke="#000000" d="M1538,-187.2843C1538,-208.3211 1538,-240 1538,-240 1538,-240 910.7069,-240 910.7069,-240"/>
<polygon fill="#000000" stroke="#000000" points="910.7069,-236.5001 900.7069,-240 910.7069,-243.5001 910.7069,-236.5001"/>
</g>
<!-- OverviewComponent -->
<g id="node3" class="node">
<title>OverviewComponent</title>
<polygon fill="#ffffb3" stroke="#000000" points="1462.0268,-187 1325.9732,-187 1325.9732,-151 1462.0268,-151 1462.0268,-187"/>
<text text-anchor="middle" x="1394" y="-164.8" font-family="Times,serif" font-size="14.00" fill="#000000">OverviewComponent</text>
</g>
<!-- OverviewComponent&#45;&gt;AppModule -->
<g id="edge4" class="edge">
<title>OverviewComponent&#45;&gt;AppModule</title>
<path fill="none" stroke="#000000" d="M1394,-187.1061C1394,-206.3391 1394,-234 1394,-234 1394,-234 910.9806,-234 910.9806,-234"/>
<polygon fill="#000000" stroke="#000000" points="910.9806,-230.5001 900.9806,-234 910.9805,-237.5001 910.9806,-230.5001"/>
</g>
<!-- SettingsComponent -->
<g id="node4" class="node">
<title>SettingsComponent</title>
<polygon fill="#ffffb3" stroke="#000000" points="1308.4468,-187 1181.5532,-187 1181.5532,-151 1308.4468,-151 1308.4468,-187"/>
<text text-anchor="middle" x="1245" y="-164.8" font-family="Times,serif" font-size="14.00" fill="#000000">SettingsComponent</text>
</g>
<!-- SettingsComponent&#45;&gt;AppModule -->
<g id="edge5" class="edge">
<title>SettingsComponent&#45;&gt;AppModule</title>
<path fill="none" stroke="#000000" d="M1245,-187.0225C1245,-204.3734 1245,-228 1245,-228 1245,-228 910.6755,-228 910.6755,-228"/>
<polygon fill="#000000" stroke="#000000" points="910.6755,-224.5001 900.6755,-228 910.6755,-231.5001 910.6755,-224.5001"/>
</g>
<!-- StakinginfoComponent -->
<g id="node5" class="node">
<title>StakinginfoComponent</title>
<polygon fill="#ffffb3" stroke="#000000" points="1163.1624,-187 1016.8376,-187 1016.8376,-151 1163.1624,-151 1163.1624,-187"/>
<text text-anchor="middle" x="1090" y="-164.8" font-family="Times,serif" font-size="14.00" fill="#000000">StakinginfoComponent</text>
</g>
<!-- StakinginfoComponent&#45;&gt;AppModule -->
<g id="edge6" class="edge">
<title>StakinginfoComponent&#45;&gt;AppModule</title>
<path fill="none" stroke="#000000" d="M1090,-187.2396C1090,-202.5706 1090,-222 1090,-222 1090,-222 910.8324,-222 910.8324,-222"/>
<polygon fill="#000000" stroke="#000000" points="910.8324,-218.5001 900.8324,-222 910.8323,-225.5001 910.8324,-218.5001"/>
</g>
<!-- ColdstakeComponent -->
<g id="node6" class="node">
<title>ColdstakeComponent</title>
<polygon fill="#ffffb3" stroke="#000000" points="998.8244,-187 861.1756,-187 861.1756,-151 998.8244,-151 998.8244,-187"/>
<text text-anchor="middle" x="930" y="-164.8" font-family="Times,serif" font-size="14.00" fill="#000000">ColdstakeComponent</text>
</g>
<!-- ColdstakeComponent&#45;&gt;AppModule -->
<g id="edge7" class="edge">
<title>ColdstakeComponent&#45;&gt;AppModule</title>
<path fill="none" stroke="#000000" d="M881.0831,-187.1061C881.0831,-187.1061 881.0831,-205.991 881.0831,-205.991"/>
<polygon fill="#000000" stroke="#000000" points="877.5832,-205.9909 881.0831,-215.991 884.5832,-205.991 877.5832,-205.9909"/>
</g>
<!-- AppComponent  -->
<g id="node11" class="node">
<title>AppComponent </title>
<polygon fill="#80b1d3" stroke="#000000" points="913.439,-317 804.561,-317 804.561,-281 913.439,-281 913.439,-317"/>
<text text-anchor="middle" x="859" y="-294.8" font-family="Times,serif" font-size="14.00" fill="#000000">AppComponent </text>
</g>
<!-- AppModule&#45;&gt;AppComponent  -->
<g id="edge10" class="edge">
<title>AppModule&#45;&gt;AppComponent </title>
<path fill="none" stroke="#000000" stroke-dasharray="1,5" d="M859,-252.1061C859,-252.1061 859,-270.991 859,-270.991"/>
<polygon fill="#000000" stroke="#000000" points="855.5001,-270.9909 859,-280.991 862.5001,-270.991 855.5001,-270.9909"/>
</g>
<!-- SettingsService -->
<g id="node8" class="node">
<title>SettingsService</title>
<ellipse fill="#fdb462" stroke="#000000" cx="1648" cy="-104" rx="71.221" ry="18"/>
<text text-anchor="middle" x="1648" y="-99.8" font-family="Times,serif" font-size="14.00" fill="#000000">SettingsService</text>
</g>
<!-- SettingsService&#45;&gt;AppComponent -->
<g id="edge2" class="edge">
<title>SettingsService&#45;&gt;AppComponent</title>
<path fill="none" stroke="#000000" d="M1666,-121.4188C1666,-121.4188 1666,-140.6234 1666,-140.6234"/>
<polygon fill="#000000" stroke="#000000" points="1662.5001,-140.6234 1666,-150.6234 1669.5001,-140.6234 1662.5001,-140.6234"/>
</g>
<!-- SharedModule -->
<g id="node9" class="node">
<title>SharedModule</title>
<polygon fill="#8dd3c7" stroke="#000000" points="837.4231,-187 834.4231,-191 813.4231,-191 810.4231,-187 738.5769,-187 738.5769,-151 837.4231,-151 837.4231,-187"/>
<text text-anchor="middle" x="788" y="-164.8" font-family="Times,serif" font-size="14.00" fill="#000000">SharedModule</text>
</g>
<!-- SharedModule&#45;&gt;AppModule -->
<g id="edge8" class="edge">
<title>SharedModule&#45;&gt;AppModule</title>
<path fill="none" stroke="#000000" d="M827.1915,-187.1061C827.1915,-187.1061 827.1915,-205.991 827.1915,-205.991"/>
<polygon fill="#000000" stroke="#000000" points="823.6915,-205.9909 827.1915,-215.991 830.6915,-205.991 823.6915,-205.9909"/>
</g>
<!-- ModalsModule -->
<g id="node10" class="node">
<title>ModalsModule</title>
<polygon fill="#8dd3c7" stroke="#000000" points="720.5452,-187 717.5452,-191 696.5452,-191 693.5452,-187 619.4548,-187 619.4548,-151 720.5452,-151 720.5452,-187"/>
<text text-anchor="middle" x="670" y="-164.8" font-family="Times,serif" font-size="14.00" fill="#000000">ModalsModule</text>
</g>
<!-- ModalsModule&#45;&gt;AppModule -->
<g id="edge9" class="edge">
<title>ModalsModule&#45;&gt;AppModule</title>
<path fill="none" stroke="#000000" d="M670,-187.2396C670,-202.5706 670,-222 670,-222 670,-222 807.0548,-222 807.0548,-222"/>
<polygon fill="#000000" stroke="#000000" points="807.0548,-225.5001 817.0548,-222 807.0547,-218.5001 807.0548,-225.5001"/>
</g>
<!-- WindowService -->
<g id="node12" class="node">
<title>WindowService</title>
<ellipse fill="#fdb462" stroke="#000000" cx="522" cy="-169" rx="73.4959" ry="18"/>
<text text-anchor="middle" x="522" y="-164.8" font-family="Times,serif" font-size="14.00" fill="#000000">WindowService</text>
</g>
<!-- WindowService&#45;&gt;AppModule -->
<g id="edge11" class="edge">
<title>WindowService&#45;&gt;AppModule</title>
<path fill="none" stroke="#000000" d="M497.5842,-186.078C497.5842,-205.3364 497.5842,-234 497.5842,-234 497.5842,-234 807.1879,-234 807.1879,-234"/>
<polygon fill="#000000" stroke="#000000" points="807.188,-237.5001 817.1879,-234 807.1879,-230.5001 807.188,-237.5001"/>
</g>
<!-- WindowService&#45;&gt;AppModule -->
<g id="edge14" class="edge">
<title>WindowService&#45;&gt;AppModule</title>
<path fill="none" stroke="#000000" d="M546.4158,-186.0652C546.4158,-203.4902 546.4158,-228 546.4158,-228 546.4158,-228 807.1679,-228 807.1679,-228"/>
<polygon fill="#000000" stroke="#000000" points="807.1679,-231.5001 817.1679,-228 807.1678,-224.5001 807.1679,-231.5001"/>
</g>
<!-- BlockStatusService -->
<g id="node13" class="node">
<title>BlockStatusService</title>
<ellipse fill="#fdb462" stroke="#000000" cx="344" cy="-169" rx="86.832" ry="18"/>
<text text-anchor="middle" x="344" y="-164.8" font-family="Times,serif" font-size="14.00" fill="#000000">BlockStatusService</text>
</g>
<!-- BlockStatusService&#45;&gt;AppModule -->
<g id="edge12" class="edge">
<title>BlockStatusService&#45;&gt;AppModule</title>
<path fill="none" stroke="#000000" d="M344,-187.2843C344,-208.3211 344,-240 344,-240 344,-240 807.2916,-240 807.2916,-240"/>
<polygon fill="#000000" stroke="#000000" points="807.2917,-243.5001 817.2916,-240 807.2916,-236.5001 807.2917,-243.5001"/>
</g>
<!-- FlashNotificationService -->
<g id="node14" class="node">
<title>FlashNotificationService</title>
<ellipse fill="#fdb462" stroke="#000000" cx="132" cy="-169" rx="107.656" ry="18"/>
<text text-anchor="middle" x="132" y="-164.8" font-family="Times,serif" font-size="14.00" fill="#000000">FlashNotificationService</text>
</g>
<!-- FlashNotificationService&#45;&gt;AppModule -->
<g id="edge13" class="edge">
<title>FlashNotificationService&#45;&gt;AppModule</title>
<path fill="none" stroke="#000000" d="M132,-187.2479C132,-210.0179 132,-246 132,-246 132,-246 807.3022,-246 807.3022,-246"/>
<polygon fill="#000000" stroke="#000000" points="807.3022,-249.5001 817.3022,-246 807.3021,-242.5001 807.3022,-249.5001"/>
</g>
</g>
</svg>
