<svg width="21" height="21" viewBox="0 0 21 21" fill="none" xmlns="http://www.w3.org/2000/svg">
<path fill-rule="evenodd" clip-rule="evenodd" d="M10.5 0C4.70102 0 0 4.70102 0 10.4999C0 16.299 4.70102 21 10.5 21C16.2989 21 21 16.299 21 10.4999C21 4.70102 16.2989 0 10.5 0ZM6.43797 5H10.5761C13.0932 5 15.0011 6.45454 15.7109 8.57106H17V9.85033H15.9824C16.0024 10.0525 16.0125 10.2584 16.0125 10.4677V10.4991C16.0125 10.7347 15.9996 10.9662 15.9745 11.193H17V12.4723H15.6864C14.9579 14.5594 13.0647 16 10.5761 16H6.43797V12.4723H5V11.193H6.43797V9.85033H5V8.57106H6.43797V5ZM7.59482 12.4723V14.8524H10.5761C12.4158 14.8524 13.7826 13.8992 14.4189 12.4723H7.59482ZM14.7733 11.193H7.59482V9.85033H14.7751C14.8018 10.0616 14.8153 10.2782 14.8153 10.4991V10.5305C14.8153 10.7564 14.8011 10.9776 14.7733 11.193ZM10.5761 6.14569C12.4243 6.14569 13.7952 7.12413 14.4276 8.57106H7.59482V6.14569H10.5761Z" fill="#F4B731"/>
</svg>
