<svg width="21" height="21" viewBox="0 0 21 21" fill="none" xmlns="http://www.w3.org/2000/svg">
<g clip-path="url(#clip0)">
<path d="M9.12991 11.8681H11.8495V9.13232H9.12991V11.8681Z" fill="#46D593"/>
<path fill-rule="evenodd" clip-rule="evenodd" d="M0 10.5001C0 4.70099 4.70108 0 10.5001 0C16.2991 0 21 4.70099 21 10.5001C21 16.2991 16.2991 21.0002 10.5001 21.0002C4.70108 21.0002 0 16.2991 0 10.5001ZM14.9641 5.61121C15.483 6.02148 15.8407 6.63824 15.9531 7.28963C15.9948 7.5571 15.9975 7.83282 15.9997 8.10304C16.0001 9.15278 16 10.2023 15.9999 11.2519C15.9998 11.7767 15.9997 12.3015 15.9997 12.8264C15.9997 12.8403 15.9996 12.8542 15.9995 12.868C15.9975 13.2683 15.9957 13.6467 15.8774 14.0359C15.7003 14.6312 15.3152 15.1365 14.8188 15.5028C14.3558 15.8219 13.8067 16.0049 13.2428 15.9999C12.5295 15.9989 11.8163 15.9989 11.1031 15.9989C10.6827 15.999 10.2624 15.999 9.84192 15.9988C9.77977 15.9987 9.71811 15.999 9.65678 15.9994C9.35112 16.001 9.05379 16.0025 8.74538 15.9527C8.4322 15.8906 8.14091 15.7483 7.96866 15.4677C7.76111 15.1575 7.7538 14.8202 7.74612 14.4651C7.74539 14.4316 7.74466 14.398 7.74377 14.3643C7.74494 13.5181 7.7446 12.6702 7.74427 11.822C7.74382 10.691 7.74337 9.55974 7.74651 8.43203C7.73501 8.06185 8.04434 7.73834 8.41574 7.74769C9.10545 7.74536 9.79578 7.74565 10.4862 7.74595C11.0943 7.74621 11.7025 7.74648 12.3103 7.74494C12.3498 7.74567 12.389 7.74526 12.4278 7.74486C12.5947 7.74312 12.7555 7.74144 12.9077 7.83007C13.1326 7.9509 13.2554 8.17776 13.2445 8.43203C13.2445 8.78271 13.2444 9.13335 13.2444 9.48397C13.2443 10.5068 13.2442 11.5294 13.245 12.5524C13.2423 12.6803 13.2318 12.8028 13.1682 12.9176C13.0558 13.1428 12.7749 13.2664 12.5308 13.2532C11.7095 13.2512 10.8885 13.2515 10.0673 13.2519C9.75486 13.252 9.4424 13.2521 9.12991 13.2521C9.12828 13.7057 9.12775 14.1594 9.13044 14.6125C9.78535 14.6117 10.4406 14.612 11.0959 14.6122C11.8303 14.6124 12.5648 14.6126 13.2988 14.6115C13.8029 14.6208 14.268 14.3082 14.4831 13.8579C14.5873 13.636 14.6141 13.3987 14.6141 13.156V8.21288C14.614 8.16702 14.6144 8.12043 14.6147 8.07341C14.6164 7.85411 14.6181 7.62527 14.5752 7.41542C14.4831 6.98149 14.149 6.60418 13.7277 6.46418C13.5125 6.38251 13.3064 6.38448 13.0869 6.38658C13.0479 6.38695 13.0085 6.38732 12.9685 6.38724C12.0912 6.38779 11.2133 6.38766 10.3353 6.38753C9.45741 6.38739 8.57948 6.38726 7.7021 6.38782C7.23033 6.38175 6.78546 6.65529 6.55729 7.06445C6.4092 7.32094 6.38778 7.59338 6.38504 7.88335C6.38674 8.75805 6.38653 9.6329 6.38632 10.5078C6.38613 11.3173 6.38594 12.1268 6.38726 12.9363C6.35872 13.6519 6.37244 14.3775 6.5507 15.0761C6.63683 15.3947 6.75418 15.689 7.01915 15.9005C6.14259 15.655 5.40864 14.9503 5.1366 14.0798C5.01424 13.7041 4.99726 13.3279 5.00053 12.9363C5 12.1018 5.00014 11.267 5.00028 10.4322C5.00042 9.58249 5.00056 8.73279 5 7.88335C5.00053 7.3671 5.0982 6.86071 5.35875 6.41031C5.82772 5.57108 6.7383 5.01253 7.7021 5.00154C9.1891 4.99933 10.6771 4.99996 12.1645 5.0006C12.524 5.00075 12.8834 5.0009 13.2428 5.00101C13.8654 5.00154 14.4825 5.21463 14.9641 5.61121Z" fill="#46D593"/>
</g>
<defs>
<clipPath id="clip0">
<rect width="21" height="21" fill="white"/>
</clipPath>
</defs>
</svg>
