<svg width="16" height="16" viewBox="0 0 16 16" fill="none" xmlns="http://www.w3.org/2000/svg">
<path d="M14.6867 8.8L12.4966 9.4L10.0077 8L12.4966 6.6L14.7863 7.2C15.2841 7.3 15.8814 7 15.9809 6.5C16.0805 6 15.7818 5.4 15.2841 5.3L13.5916 4.8L13.9899 3C14.0894 2.5 13.7907 1.9 13.293 1.8C12.7952 1.7 12.1979 2 12.0983 2.5L11.501 4.8L9.01218 6.3V3.4L10.7046 1.7C11.1028 1.3 11.1028 0.7 10.7046 0.3C10.3064 -0.1 9.70905 -0.1 9.31084 0.3L8.01664 1.6L6.72245 0.3C6.32423 -0.1 5.72691 -0.1 5.3287 0.3C4.93048 0.7 4.93048 1.3 5.3287 1.7L7.02111 3.4V6.3L4.53227 4.8L3.93495 2.5C3.8354 2 3.23807 1.7 2.74031 1.8C2.14299 1.9 1.84432 2.5 2.04343 3L2.5412 4.8L0.848789 5.2C0.251468 5.4 -0.0471923 5.9 0.0523612 6.5C0.251468 7 0.749236 7.3 1.34656 7.2L3.63629 6.6L6.02557 8L3.53673 9.4L1.34656 8.8C0.749236 8.7 0.251468 9 0.0523612 9.5C-0.146746 10 0.251468 10.6 0.749236 10.7L2.44165 11.1L2.04343 13C1.94388 13.5 2.24254 14.1 2.74031 14.2C3.23807 14.3 3.8354 14 3.93495 13.5L4.53227 11.2L7.02111 9.7V12.6L5.3287 14.3C4.93048 14.7 4.93048 15.3 5.3287 15.7C5.72691 16.1 6.32423 16.1 6.72245 15.7L8.01664 14.4L9.31084 15.7C9.70905 16.1 10.3064 16.1 10.7046 15.7C11.1028 15.3 11.1028 14.7 10.7046 14.3L9.01218 12.6V9.7L11.501 11.1L12.0983 13.4C12.1979 13.9 12.7952 14.3 13.293 14.1C13.7907 14 14.189 13.4 13.9899 12.9L13.4921 11.1L15.1845 10.7C15.6823 10.6 15.9809 10 15.8814 9.5C15.7818 9 15.1845 8.7 14.6867 8.8V8.8Z" fill="#282B2C"/>
</svg>
