<?xml version="1.0" encoding="UTF-8" standalone="no"?>
<!DOCTYPE svg PUBLIC "-//W3C//DTD SVG 1.1//EN"
 "http://www.w3.org/Graphics/SVG/1.1/DTD/svg11.dtd">
<!-- Generated by graphviz version 2.40.1 (20161225.0304)
 -->
<!-- Title: dependencies Pages: 1 -->
<svg width="2526pt" height="284pt"
 viewBox="0.00 0.00 2526.00 284.00" xmlns="http://www.w3.org/2000/svg" xmlns:xlink="http://www.w3.org/1999/xlink">
<g id="graph0" class="graph" transform="scale(1 1) rotate(0) translate(4 280)">
<title>dependencies</title>
<polygon fill="#ffffff" stroke="transparent" points="-4,4 -4,-280 2522,-280 2522,4 -4,4"/>
<text text-anchor="start" x="1238.0091" y="-42.4" font-family="sans-serif" font-weight="bold" font-size="14.00" fill="#000000">Legend</text>
<polygon fill="#ffffb3" stroke="transparent" points="1025,-10 1025,-30 1045,-30 1045,-10 1025,-10"/>
<text text-anchor="start" x="1048.629" y="-15.4" font-family="sans-serif" font-size="14.00" fill="#000000"> &#160;Declarations</text>
<polygon fill="#8dd3c7" stroke="transparent" points="1138,-10 1138,-30 1158,-30 1158,-10 1138,-10"/>
<text text-anchor="start" x="1161.7251" y="-15.4" font-family="sans-serif" font-size="14.00" fill="#000000"> &#160;Module</text>
<polygon fill="#80b1d3" stroke="transparent" points="1224,-10 1224,-30 1244,-30 1244,-10 1224,-10"/>
<text text-anchor="start" x="1247.7812" y="-15.4" font-family="sans-serif" font-size="14.00" fill="#000000"> &#160;Bootstrap</text>
<polygon fill="#fdb462" stroke="transparent" points="1321,-10 1321,-30 1341,-30 1341,-10 1321,-10"/>
<text text-anchor="start" x="1344.6732" y="-15.4" font-family="sans-serif" font-size="14.00" fill="#000000"> &#160;Providers</text>
<polygon fill="#fb8072" stroke="transparent" points="1417,-10 1417,-30 1437,-30 1437,-10 1417,-10"/>
<text text-anchor="start" x="1440.7258" y="-15.4" font-family="sans-serif" font-size="14.00" fill="#000000"> &#160;Exports</text>
<g id="clust1" class="cluster">
<title>cluster_WalletModule</title>
<polygon fill="none" stroke="#000000" stroke-dasharray="1,5" points="8,-70 8,-268 2510,-268 2510,-70 8,-70"/>
</g>
<g id="clust2" class="cluster">
<title>cluster_WalletModule_declarations</title>
<polygon fill="none" stroke="#000000" points="138,-78 138,-130 2502,-130 2502,-78 138,-78"/>
</g>
<g id="clust16" class="cluster">
<title>cluster_WalletModule_imports</title>
<polygon fill="none" stroke="#000000" points="16,-78 16,-130 130,-130 130,-78 16,-78"/>
</g>
<g id="clust17" class="cluster">
<title>cluster_WalletModule_exports</title>
<polygon fill="none" stroke="#000000" points="1142,-208 1142,-260 1674,-260 1674,-208 1142,-208"/>
</g>
<!-- TransactionsTableComponent -->
<g id="node1" class="node">
<title>TransactionsTableComponent</title>
<polygon fill="#ffffb3" stroke="#000000" points="2494.2324,-122 2309.7676,-122 2309.7676,-86 2494.2324,-86 2494.2324,-122"/>
<text text-anchor="middle" x="2402" y="-99.8" font-family="Times,serif" font-size="14.00" fill="#000000">TransactionsTableComponent</text>
</g>
<!-- WalletModule -->
<g id="node14" class="node">
<title>WalletModule</title>
<polygon fill="#8dd3c7" stroke="#000000" points="1427.3655,-187 1424.3655,-191 1403.3655,-191 1400.3655,-187 1330.6345,-187 1330.6345,-151 1427.3655,-151 1427.3655,-187"/>
<text text-anchor="middle" x="1379" y="-164.8" font-family="Times,serif" font-size="14.00" fill="#000000">WalletModule</text>
</g>
<!-- TransactionsTableComponent&#45;&gt;WalletModule -->
<g id="edge1" class="edge">
<title>TransactionsTableComponent&#45;&gt;WalletModule</title>
<path fill="none" stroke="#000000" d="M2402,-122.2921C2402,-144.2057 2402,-178 2402,-178 2402,-178 1437.6532,-178 1437.6532,-178"/>
<polygon fill="#000000" stroke="#000000" points="1437.6532,-174.5001 1427.6532,-178 1437.6532,-181.5001 1437.6532,-174.5001"/>
</g>
<!-- AddressTableComponent -->
<g id="node2" class="node">
<title>AddressTableComponent</title>
<polygon fill="#ffffb3" stroke="#000000" points="2291.5758,-122 2132.4242,-122 2132.4242,-86 2291.5758,-86 2291.5758,-122"/>
<text text-anchor="middle" x="2212" y="-99.8" font-family="Times,serif" font-size="14.00" fill="#000000">AddressTableComponent</text>
</g>
<!-- AddressTableComponent&#45;&gt;WalletModule -->
<g id="edge2" class="edge">
<title>AddressTableComponent&#45;&gt;WalletModule</title>
<path fill="none" stroke="#000000" d="M2212,-122.0267C2212,-142.7672 2212,-174 2212,-174 2212,-174 1437.3861,-174 1437.3861,-174"/>
<polygon fill="#000000" stroke="#000000" points="1437.3862,-170.5001 1427.3861,-174 1437.3861,-177.5001 1437.3862,-170.5001"/>
</g>
<!-- ReceiveComponent -->
<g id="node3" class="node">
<title>ReceiveComponent</title>
<polygon fill="#ffffb3" stroke="#000000" points="2114.4187,-122 1987.5813,-122 1987.5813,-86 2114.4187,-86 2114.4187,-122"/>
<text text-anchor="middle" x="2051" y="-99.8" font-family="Times,serif" font-size="14.00" fill="#000000">ReceiveComponent</text>
</g>
<!-- ReceiveComponent&#45;&gt;WalletModule -->
<g id="edge3" class="edge">
<title>ReceiveComponent&#45;&gt;WalletModule</title>
<path fill="none" stroke="#000000" d="M2051,-122.1061C2051,-141.3391 2051,-169 2051,-169 2051,-169 1437.5989,-169 1437.5989,-169"/>
<polygon fill="#000000" stroke="#000000" points="1437.5989,-165.5001 1427.5989,-169 1437.5989,-172.5001 1437.5989,-165.5001"/>
</g>
<!-- SendComponent -->
<g id="node4" class="node">
<title>SendComponent</title>
<polygon fill="#ffffb3" stroke="#000000" points="1969.8301,-122 1860.1699,-122 1860.1699,-86 1969.8301,-86 1969.8301,-122"/>
<text text-anchor="middle" x="1915" y="-99.8" font-family="Times,serif" font-size="14.00" fill="#000000">SendComponent</text>
</g>
<!-- SendComponent&#45;&gt;WalletModule -->
<g id="edge4" class="edge">
<title>SendComponent&#45;&gt;WalletModule</title>
<path fill="none" stroke="#000000" d="M1915,-122.302C1915,-140.2699 1915,-165 1915,-165 1915,-165 1437.5118,-165 1437.5118,-165"/>
<polygon fill="#000000" stroke="#000000" points="1437.5118,-161.5001 1427.5118,-165 1437.5117,-168.5001 1437.5118,-161.5001"/>
</g>
<!-- HistoryComponent -->
<g id="node5" class="node">
<title>HistoryComponent</title>
<polygon fill="#ffffb3" stroke="#000000" points="1842.8258,-122 1719.1742,-122 1719.1742,-86 1842.8258,-86 1842.8258,-122"/>
<text text-anchor="middle" x="1781" y="-99.8" font-family="Times,serif" font-size="14.00" fill="#000000">HistoryComponent</text>
</g>
<!-- HistoryComponent&#45;&gt;WalletModule -->
<g id="edge5" class="edge">
<title>HistoryComponent&#45;&gt;WalletModule</title>
<path fill="none" stroke="#000000" d="M1781,-122.027C1781,-138.3976 1781,-160 1781,-160 1781,-160 1437.4906,-160 1437.4906,-160"/>
<polygon fill="#000000" stroke="#000000" points="1437.4906,-156.5001 1427.4906,-160 1437.4906,-163.5001 1437.4906,-156.5001"/>
</g>
<!-- AddressBookComponent -->
<g id="node6" class="node">
<title>AddressBookComponent</title>
<polygon fill="#ffffb3" stroke="#000000" points="1701.5407,-122 1544.4593,-122 1544.4593,-86 1701.5407,-86 1701.5407,-122"/>
<text text-anchor="middle" x="1623" y="-99.8" font-family="Times,serif" font-size="14.00" fill="#000000">AddressBookComponent</text>
</g>
<!-- AddressBookComponent&#45;&gt;WalletModule -->
<g id="edge6" class="edge">
<title>AddressBookComponent&#45;&gt;WalletModule</title>
<path fill="none" stroke="#000000" d="M1605.173,-122.1871C1605.173,-137.1824 1605.173,-156 1605.173,-156 1605.173,-156 1437.5198,-156 1437.5198,-156"/>
<polygon fill="#000000" stroke="#000000" points="1437.5198,-152.5001 1427.5198,-156 1437.5198,-159.5001 1437.5198,-152.5001"/>
</g>
<!-- BalanceComponent -->
<g id="node7" class="node">
<title>BalanceComponent</title>
<polygon fill="#ffffb3" stroke="#000000" points="1526.4187,-122 1399.5813,-122 1399.5813,-86 1526.4187,-86 1526.4187,-122"/>
<text text-anchor="middle" x="1463" y="-99.8" font-family="Times,serif" font-size="14.00" fill="#000000">BalanceComponent</text>
</g>
<!-- BalanceComponent&#45;&gt;WalletModule -->
<g id="edge7" class="edge">
<title>BalanceComponent&#45;&gt;WalletModule</title>
<path fill="none" stroke="#000000" d="M1413.6119,-122.1061C1413.6119,-122.1061 1413.6119,-140.991 1413.6119,-140.991"/>
<polygon fill="#000000" stroke="#000000" points="1410.1119,-140.9909 1413.6119,-150.991 1417.1119,-140.991 1410.1119,-140.9909"/>
</g>
<!-- AddressLookupComponent -->
<g id="node8" class="node">
<title>AddressLookupComponent</title>
<polygon fill="#ffffb3" stroke="#000000" points="1381.2562,-122 1210.7438,-122 1210.7438,-86 1381.2562,-86 1381.2562,-122"/>
<text text-anchor="middle" x="1296" y="-99.8" font-family="Times,serif" font-size="14.00" fill="#000000">AddressLookupComponent</text>
</g>
<!-- AddressLookupComponent&#45;&gt;WalletModule -->
<g id="edge8" class="edge">
<title>AddressLookupComponent&#45;&gt;WalletModule</title>
<path fill="none" stroke="#000000" d="M1355.9727,-122.1061C1355.9727,-122.1061 1355.9727,-140.991 1355.9727,-140.991"/>
<polygon fill="#000000" stroke="#000000" points="1352.4727,-140.9909 1355.9727,-150.991 1359.4727,-140.991 1352.4727,-140.9909"/>
</g>
<!-- AddAddressLabelComponent -->
<g id="node9" class="node">
<title>AddAddressLabelComponent</title>
<polygon fill="#ffffb3" stroke="#000000" points="1192.6825,-122 1009.3175,-122 1009.3175,-86 1192.6825,-86 1192.6825,-122"/>
<text text-anchor="middle" x="1101" y="-99.8" font-family="Times,serif" font-size="14.00" fill="#000000">AddAddressLabelComponent</text>
</g>
<!-- AddAddressLabelComponent&#45;&gt;WalletModule -->
<g id="edge9" class="edge">
<title>AddAddressLabelComponent&#45;&gt;WalletModule</title>
<path fill="none" stroke="#000000" d="M1171.3161,-122.1871C1171.3161,-137.1824 1171.3161,-156 1171.3161,-156 1171.3161,-156 1320.5695,-156 1320.5695,-156"/>
<polygon fill="#000000" stroke="#000000" points="1320.5695,-159.5001 1330.5695,-156 1320.5694,-152.5001 1320.5695,-159.5001"/>
</g>
<!-- NewAddressModalComponent -->
<g id="node10" class="node">
<title>NewAddressModalComponent</title>
<polygon fill="#ffffb3" stroke="#000000" points="991.1811,-122 800.8189,-122 800.8189,-86 991.1811,-86 991.1811,-122"/>
<text text-anchor="middle" x="896" y="-99.8" font-family="Times,serif" font-size="14.00" fill="#000000">NewAddressModalComponent</text>
</g>
<!-- NewAddressModalComponent&#45;&gt;WalletModule -->
<g id="edge10" class="edge">
<title>NewAddressModalComponent&#45;&gt;WalletModule</title>
<path fill="none" stroke="#000000" d="M896,-122.027C896,-138.3976 896,-160 896,-160 896,-160 1320.4767,-160 1320.4767,-160"/>
<polygon fill="#000000" stroke="#000000" points="1320.4767,-163.5001 1330.4767,-160 1320.4766,-156.5001 1320.4767,-163.5001"/>
</g>
<!-- QrCodeModalComponent -->
<g id="node11" class="node">
<title>QrCodeModalComponent</title>
<polygon fill="#ffffb3" stroke="#000000" points="783.2007,-122 620.7993,-122 620.7993,-86 783.2007,-86 783.2007,-122"/>
<text text-anchor="middle" x="702" y="-99.8" font-family="Times,serif" font-size="14.00" fill="#000000">QrCodeModalComponent</text>
</g>
<!-- QrCodeModalComponent&#45;&gt;WalletModule -->
<g id="edge11" class="edge">
<title>QrCodeModalComponent&#45;&gt;WalletModule</title>
<path fill="none" stroke="#000000" d="M702,-122.302C702,-140.2699 702,-165 702,-165 702,-165 1320.5835,-165 1320.5835,-165"/>
<polygon fill="#000000" stroke="#000000" points="1320.5836,-168.5001 1330.5835,-165 1320.5835,-161.5001 1320.5836,-168.5001"/>
</g>
<!-- SendConfirmationModalComponent -->
<g id="node12" class="node">
<title>SendConfirmationModalComponent</title>
<polygon fill="#ffffb3" stroke="#000000" points="602.8144,-122 381.1856,-122 381.1856,-86 602.8144,-86 602.8144,-122"/>
<text text-anchor="middle" x="492" y="-99.8" font-family="Times,serif" font-size="14.00" fill="#000000">SendConfirmationModalComponent</text>
</g>
<!-- SendConfirmationModalComponent&#45;&gt;WalletModule -->
<g id="edge12" class="edge">
<title>SendConfirmationModalComponent&#45;&gt;WalletModule</title>
<path fill="none" stroke="#000000" d="M492,-122.1061C492,-141.3391 492,-169 492,-169 492,-169 1320.3648,-169 1320.3648,-169"/>
<polygon fill="#000000" stroke="#000000" points="1320.3648,-172.5001 1330.3648,-169 1320.3648,-165.5001 1320.3648,-172.5001"/>
</g>
<!-- SignatureAddressModalComponent -->
<g id="node13" class="node">
<title>SignatureAddressModalComponent</title>
<polygon fill="#ffffb3" stroke="#000000" points="363.9072,-122 146.0928,-122 146.0928,-86 363.9072,-86 363.9072,-122"/>
<text text-anchor="middle" x="255" y="-99.8" font-family="Times,serif" font-size="14.00" fill="#000000">SignatureAddressModalComponent</text>
</g>
<!-- SignatureAddressModalComponent&#45;&gt;WalletModule -->
<g id="edge13" class="edge">
<title>SignatureAddressModalComponent&#45;&gt;WalletModule</title>
<path fill="none" stroke="#000000" d="M255,-122.0267C255,-142.7672 255,-174 255,-174 255,-174 1320.3424,-174 1320.3424,-174"/>
<polygon fill="#000000" stroke="#000000" points="1320.3424,-177.5001 1330.3424,-174 1320.3423,-170.5001 1320.3424,-177.5001"/>
</g>
<!-- TransactionsTableComponent  -->
<g id="node16" class="node">
<title>TransactionsTableComponent </title>
<polygon fill="#fb8072" stroke="#000000" points="1666.2323,-252 1477.7677,-252 1477.7677,-216 1666.2323,-216 1666.2323,-252"/>
<text text-anchor="middle" x="1572" y="-229.8" font-family="Times,serif" font-size="14.00" fill="#000000">TransactionsTableComponent </text>
</g>
<!-- WalletModule&#45;&gt;TransactionsTableComponent  -->
<g id="edge15" class="edge">
<title>WalletModule&#45;&gt;TransactionsTableComponent </title>
<path fill="none" stroke="#000000" stroke-dasharray="5,2" d="M1427.6312,-183C1462.0248,-183 1502.0465,-183 1502.0465,-183 1502.0465,-183 1502.0465,-205.8757 1502.0465,-205.8757"/>
<polygon fill="#000000" stroke="#000000" points="1498.5465,-205.8757 1502.0465,-215.8757 1505.5465,-205.8757 1498.5465,-205.8757"/>
</g>
<!-- AddressTableComponent  -->
<g id="node17" class="node">
<title>AddressTableComponent </title>
<polygon fill="#fb8072" stroke="#000000" points="1460.0764,-252 1297.9236,-252 1297.9236,-216 1460.0764,-216 1460.0764,-252"/>
<text text-anchor="middle" x="1379" y="-229.8" font-family="Times,serif" font-size="14.00" fill="#000000">AddressTableComponent </text>
</g>
<!-- WalletModule&#45;&gt;AddressTableComponent  -->
<g id="edge16" class="edge">
<title>WalletModule&#45;&gt;AddressTableComponent </title>
<path fill="none" stroke="#000000" stroke-dasharray="5,2" d="M1379,-187.1061C1379,-187.1061 1379,-205.991 1379,-205.991"/>
<polygon fill="#000000" stroke="#000000" points="1375.5001,-205.9909 1379,-215.991 1382.5001,-205.991 1375.5001,-205.9909"/>
</g>
<!-- BalanceComponent  -->
<g id="node18" class="node">
<title>BalanceComponent </title>
<polygon fill="#fb8072" stroke="#000000" points="1279.918,-252 1150.082,-252 1150.082,-216 1279.918,-216 1279.918,-252"/>
<text text-anchor="middle" x="1215" y="-229.8" font-family="Times,serif" font-size="14.00" fill="#000000">BalanceComponent </text>
</g>
<!-- WalletModule&#45;&gt;BalanceComponent  -->
<g id="edge17" class="edge">
<title>WalletModule&#45;&gt;BalanceComponent </title>
<path fill="none" stroke="#000000" stroke-dasharray="5,2" d="M1330.3496,-183C1292.1187,-183 1245.2905,-183 1245.2905,-183 1245.2905,-183 1245.2905,-205.8757 1245.2905,-205.8757"/>
<polygon fill="#000000" stroke="#000000" points="1241.7906,-205.8757 1245.2905,-215.8757 1248.7906,-205.8757 1241.7906,-205.8757"/>
</g>
<!-- SharedModule -->
<g id="node15" class="node">
<title>SharedModule</title>
<polygon fill="#8dd3c7" stroke="#000000" points="122.4231,-122 119.4231,-126 98.4231,-126 95.4231,-122 23.5769,-122 23.5769,-86 122.4231,-86 122.4231,-122"/>
<text text-anchor="middle" x="73" y="-99.8" font-family="Times,serif" font-size="14.00" fill="#000000">SharedModule</text>
</g>
<!-- SharedModule&#45;&gt;WalletModule -->
<g id="edge14" class="edge">
<title>SharedModule&#45;&gt;WalletModule</title>
<path fill="none" stroke="#000000" d="M73,-122.2921C73,-144.2057 73,-178 73,-178 73,-178 1320.5791,-178 1320.5791,-178"/>
<polygon fill="#000000" stroke="#000000" points="1320.5791,-181.5001 1330.5791,-178 1320.579,-174.5001 1320.5791,-181.5001"/>
</g>
</g>
</svg>
