<?xml version="1.0" standalone="no"?><!-- Generator: Gravit.io --><svg xmlns="http://www.w3.org/2000/svg" xmlns:xlink="http://www.w3.org/1999/xlink" style="isolation:isolate" viewBox="-9.5 209.5 73.59 80.077" width="73.59" height="80.077"><g id="accept-bid"><path d=" M 49 258.182 L 49 214 L -5 214 L -5 274.873 L 32.309 274.873" fill="none" vector-effect="non-scaling-stroke" stroke-width="3" stroke="rgb(220,220,220)" stroke-linejoin="miter" stroke-linecap="square" stroke-miterlimit="3"/><g id="list"><line x1="17.625" y1="251.273" x2="31.5" y2="251.273" vector-effect="non-scaling-stroke" stroke-width="2" stroke="rgb(195,195,195)" stroke-linejoin="miter" stroke-linecap="square" stroke-miterlimit="3"/><path d=" M 6 251.273 C 6 249.617 7.344 248.273 9 248.273 C 10.656 248.273 12 249.617 12 251.273 C 12 252.928 10.656 254.273 9 254.273 C 7.344 254.273 6 252.928 6 251.273 Z " fill="none" vector-effect="non-scaling-stroke" stroke-width="2" stroke="rgb(195,195,195)" stroke-linejoin="miter" stroke-linecap="square" stroke-miterlimit="3"/><line x1="17.625" y1="240" x2="27.375" y2="240" vector-effect="non-scaling-stroke" stroke-width="2" stroke="rgb(195,195,195)" stroke-linejoin="miter" stroke-linecap="square" stroke-miterlimit="3"/><path d=" M 6 240 C 6 238.344 7.344 237 9 237 C 10.656 237 12 238.344 12 240 C 12 241.656 10.656 243 9 243 C 7.344 243 6 241.656 6 240 Z " fill="none" vector-effect="non-scaling-stroke" stroke-width="2" stroke="rgb(195,195,195)" stroke-linejoin="miter" stroke-linecap="square" stroke-miterlimit="3"/><line x1="17.625" y1="228.727" x2="36.375" y2="228.727" vector-effect="non-scaling-stroke" stroke-width="2" stroke="rgb(195,195,195)" stroke-linejoin="miter" stroke-linecap="square" stroke-miterlimit="3"/><path d=" M 6 228.727 C 6 227.072 7.344 225.727 9 225.727 C 10.656 225.727 12 227.072 12 228.727 C 12 230.383 10.656 231.727 9 231.727 C 7.344 231.727 6 230.383 6 228.727 Z " fill="none" vector-effect="non-scaling-stroke" stroke-width="2" stroke="rgb(195,195,195)" stroke-linejoin="miter" stroke-linecap="square" stroke-miterlimit="3"/></g><g id="arrow"><path d=" M 54.513 255.775 C 52.779 255.27 50.947 255 49.051 255 C 38.268 255 29.513 263.755 29.513 274.538 C 29.513 276.532 29.812 278.457 30.368 280.269 L 54.513 280.269 L 54.513 255.775 Z " fill="rgb(255,255,255)"/><path d=" M 49.66 279.071 L 54.195 274.536 L 49.66 270" fill="none" vector-effect="non-scaling-stroke" stroke-width="3" stroke="rgb(2,232,176)" stroke-linejoin="miter" stroke-linecap="square" stroke-miterlimit="3"/><path d=" M 35.513 274.538 C 35.513 267.066 41.579 261 49.051 261 C 56.523 261 62.59 267.066 62.59 274.538 C 62.59 282.011 56.523 288.077 49.051 288.077 C 41.579 288.077 35.513 282.011 35.513 274.538 Z " fill="rgb(255,255,255)" vector-effect="non-scaling-stroke" stroke-width="3" stroke="rgb(2,232,176)" stroke-linejoin="miter" stroke-linecap="butt" stroke-miterlimit="3"/><path d=" M 43.55 275.052 L 47.359 278.861 L 54.553 271.667" fill="none" vector-effect="non-scaling-stroke" stroke-width="3" stroke="rgb(2,232,176)" stroke-linejoin="miter" stroke-linecap="square" stroke-miterlimit="3"/></g></g></svg>