<?xml version="1.0" standalone="no"?><!-- Generator: Gravit.io --><svg xmlns="http://www.w3.org/2000/svg" xmlns:xlink="http://www.w3.org/1999/xlink" style="isolation:isolate" viewBox="-17.5 344.876 89 79.239" width="89" height="79.239"><g id="delivered"><g id="box"><path d=" M 53.586 409.395 L 53.586 369.52 L 45.473 354.769 L 8.596 354.769 L 0.483 369.52 L 0.483 409.347 L 53.586 409.395 Z " fill="none" vector-effect="non-scaling-stroke" stroke-width="3" stroke="rgb(220,220,220)" stroke-linejoin="miter" stroke-linecap="square" stroke-miterlimit="3"/><line x1="1.417" y1="369.52" x2="52.787" y2="369.52" vector-effect="non-scaling-stroke" stroke-width="3" stroke="rgb(220,220,220)" stroke-linejoin="miter" stroke-linecap="square" stroke-miterlimit="3"/><path d=" M 0.483 369.151 L -13 361.96 L -0.416 349.376 L 8.573 354.769 L 0.483 369.151 Z " fill="none" vector-effect="non-scaling-stroke" stroke-width="3" stroke="rgb(220,220,220)" stroke-linejoin="miter" stroke-linecap="square" stroke-miterlimit="3"/><path d=" M 53.517 369.151 L 67 361.96 L 54.416 349.376 L 45.427 354.769 L 53.517 369.151 Z " fill="none" vector-effect="non-scaling-stroke" stroke-width="3" stroke="rgb(220,220,220)" stroke-linejoin="miter" stroke-linecap="square" stroke-miterlimit="3"/><line x1="8.573" y1="354.769" x2="8.573" y2="369.151" vector-effect="non-scaling-stroke" stroke-width="2" stroke="rgb(220,220,220)" stroke-linejoin="miter" stroke-linecap="square" stroke-miterlimit="3"/><line x1="45.427" y1="354.769" x2="45.427" y2="369.151" vector-effect="non-scaling-stroke" stroke-width="2" stroke="rgb(220,220,220)" stroke-linejoin="miter" stroke-linecap="square" stroke-miterlimit="3"/><path d=" M 28.829 359.325 L 28.829 350.558 C 28.829 350.239 28.711 349.943 28.487 349.719 C 28.262 349.506 27.967 349.376 27.648 349.376 C 27.341 349.376 27.033 349.506 26.809 349.719 C 26.596 349.943 26.466 350.239 26.466 350.558 L 26.466 350.558 L 26.466 359.325 C 26.858 359.3 27.252 359.288 27.65 359.288 C 28.046 359.288 28.439 359.3 28.829 359.325 Z  M 34.318 360.523 L 36.946 354.929 C 37.076 354.646 37.1 354.315 36.994 354.019 C 36.887 353.724 36.663 353.488 36.379 353.346 C 36.096 353.216 35.777 353.204 35.481 353.31 C 35.186 353.417 34.938 353.63 34.808 353.913 L 34.808 353.913 L 32.038 359.81 C 32.818 360 33.58 360.239 34.318 360.523 Z  M 40.442 364.404 L 41.708 363.235 C 41.932 363.023 42.074 362.727 42.086 362.408 C 42.098 362.101 41.98 361.794 41.767 361.557 C 41.554 361.333 41.259 361.191 40.952 361.179 C 40.633 361.168 40.337 361.286 40.101 361.498 L 40.101 361.498 L 38.612 362.873 C 39.255 363.345 39.866 363.856 40.442 364.404 Z  M 23.258 359.811 L 20.488 353.913 C 20.358 353.63 20.122 353.417 19.826 353.31 C 19.531 353.204 19.2 353.216 18.916 353.346 C 18.633 353.488 18.42 353.724 18.314 354.019 C 18.207 354.315 18.219 354.646 18.349 354.929 L 18.349 354.929 L 20.978 360.525 C 21.717 360.24 22.478 360.001 23.258 359.811 Z  M 16.685 362.875 L 15.195 361.498 C 14.97 361.286 14.663 361.168 14.344 361.179 C 14.037 361.191 13.741 361.333 13.529 361.557 C 13.316 361.794 13.198 362.101 13.21 362.408 C 13.222 362.727 13.363 363.023 13.588 363.235 L 13.588 363.235 L 14.856 364.406 C 15.432 363.858 16.043 363.346 16.685 362.875 Z " fill-rule="evenodd" fill="rgb(2,232,176)"/></g><g id="stamp"><path d="M 10.565 381.72 L 30.333 378.18 C 31.339 378 32.303 378.671 32.483 379.677 L 33.462 385.146 C 33.642 386.152 32.972 387.115 31.965 387.295 L 12.197 390.835 C 11.191 391.015 10.228 390.345 10.047 389.338 L 9.068 383.869 C 8.888 382.863 9.559 381.9 10.565 381.72 Z" style="fill:none;stroke:#C3C3C3;stroke-width:2;stroke-linecap:square;stroke-miterlimit:3;"/><line x1="13.83" y1="385.839" x2="24.769" y2="383.88" vector-effect="non-scaling-stroke" stroke-width="2" stroke="rgb(195,195,195)" stroke-linejoin="miter" stroke-linecap="square" stroke-miterlimit="3"/></g><g id="check"><path d=" M 59.513 390.313 C 57.779 389.809 55.947 389.538 54.051 389.538 C 43.268 389.538 34.513 398.293 34.513 409.077 C 34.513 411.071 34.812 412.995 35.368 414.808 L 59.513 414.808 L 59.513 390.313 Z " fill="rgb(255,255,255)"/><path d=" M 40.513 409.077 C 40.513 401.605 46.579 395.538 54.051 395.538 C 61.523 395.538 67.59 401.605 67.59 409.077 C 67.59 416.549 61.523 422.615 54.051 422.615 C 46.579 422.615 40.513 416.549 40.513 409.077 Z " fill="rgb(255,255,255)" vector-effect="non-scaling-stroke" stroke-width="3" stroke="rgb(2,232,176)" stroke-linejoin="miter" stroke-linecap="butt" stroke-miterlimit="3"/><path d=" M 48.55 409.591 L 52.359 413.399 L 59.553 406.205" fill="none" vector-effect="non-scaling-stroke" stroke-width="3" stroke="rgb(2,232,176)" stroke-linejoin="miter" stroke-linecap="square" stroke-miterlimit="3"/></g></g></svg>