<?xml version="1.0" standalone="no"?><!-- Generator: Gravit.io --><svg xmlns="http://www.w3.org/2000/svg" xmlns:xlink="http://www.w3.org/1999/xlink" style="isolation:isolate" viewBox="108.244 209.5 73.59 80.077" width="73.59" height="80.077"><g id="reject-bid"><path d=" M 166.744 258.182 L 166.744 214 L 112.744 214 L 112.744 274.873 L 150.053 274.873" fill="none" vector-effect="non-scaling-stroke" stroke-width="3" stroke="rgb(220,220,220)" stroke-linejoin="miter" stroke-linecap="square" stroke-miterlimit="3"/><g id="list"><line x1="135.369" y1="251.273" x2="149.244" y2="251.273" vector-effect="non-scaling-stroke" stroke-width="2" stroke="rgb(195,195,195)" stroke-linejoin="miter" stroke-linecap="square" stroke-miterlimit="3"/><path d=" M 123.744 251.273 C 123.744 249.617 125.088 248.273 126.744 248.273 C 128.399 248.273 129.744 249.617 129.744 251.273 C 129.744 252.928 128.399 254.273 126.744 254.273 C 125.088 254.273 123.744 252.928 123.744 251.273 Z " fill="none" vector-effect="non-scaling-stroke" stroke-width="2" stroke="rgb(195,195,195)" stroke-linejoin="miter" stroke-linecap="square" stroke-miterlimit="3"/><line x1="135.369" y1="240" x2="145.119" y2="240" vector-effect="non-scaling-stroke" stroke-width="2" stroke="rgb(195,195,195)" stroke-linejoin="miter" stroke-linecap="square" stroke-miterlimit="3"/><path d=" M 123.744 240 C 123.744 238.344 125.088 237 126.744 237 C 128.399 237 129.744 238.344 129.744 240 C 129.744 241.656 128.399 243 126.744 243 C 125.088 243 123.744 241.656 123.744 240 Z " fill="none" vector-effect="non-scaling-stroke" stroke-width="2" stroke="rgb(195,195,195)" stroke-linejoin="miter" stroke-linecap="square" stroke-miterlimit="3"/><line x1="135.369" y1="228.727" x2="154.119" y2="228.727" vector-effect="non-scaling-stroke" stroke-width="2" stroke="rgb(195,195,195)" stroke-linejoin="miter" stroke-linecap="square" stroke-miterlimit="3"/><path d=" M 123.744 228.727 C 123.744 227.072 125.088 225.727 126.744 225.727 C 128.399 225.727 129.744 227.072 129.744 228.727 C 129.744 230.383 128.399 231.727 126.744 231.727 C 125.088 231.727 123.744 230.383 123.744 228.727 Z " fill="none" vector-effect="non-scaling-stroke" stroke-width="2" stroke="rgb(195,195,195)" stroke-linejoin="miter" stroke-linecap="square" stroke-miterlimit="3"/></g><g id="arrow"><path d=" M 172.256 255.775 C 170.523 255.27 168.69 255 166.795 255 C 156.011 255 147.256 263.755 147.256 274.538 C 147.256 276.532 147.556 278.457 148.112 280.269 L 172.256 280.269 L 172.256 255.775 Z " fill="rgb(255,255,255)"/><path d=" M 153.256 274.538 C 153.256 267.066 159.323 261 166.795 261 C 174.267 261 180.333 267.066 180.333 274.538 C 180.333 282.011 174.267 288.077 166.795 288.077 C 159.323 288.077 153.256 282.011 153.256 274.538 Z " fill="rgb(255,255,255)" vector-effect="non-scaling-stroke" stroke-width="3" stroke="rgb(236,75,80)" stroke-linejoin="miter" stroke-linecap="butt" stroke-miterlimit="3"/><g id="×"><line x1="170.897" y1="270.897" x2="162.692" y2="279.103" vector-effect="non-scaling-stroke" stroke-width="3" stroke="rgb(236,75,80)" stroke-linejoin="miter" stroke-linecap="square" stroke-miterlimit="3"/><line x1="162.692" y1="270.897" x2="170.897" y2="279.103" vector-effect="non-scaling-stroke" stroke-width="3" stroke="rgb(236,75,80)" stroke-linejoin="miter" stroke-linecap="square" stroke-miterlimit="3"/></g></g></g></svg>