<svg width="100" height="100" viewBox="0 0 100 100" fill="none" xmlns="http://www.w3.org/2000/svg">
<rect width="100" height="100" fill="#171B1E"/>
<path d="M38.002 52.1782C37.3796 52.8472 36.7417 53.1739 36.0416 53.1739C34.7035 53.1739 33.6611 52.0692 33.6611 50.6534C33.6611 49.222 34.6724 48.1173 35.9794 48.1173C36.944 48.1173 37.5663 48.6308 37.9864 49.082L38.0642 49.1753L38.8733 48.3196L38.7955 48.2418C38.2509 47.6661 37.4419 46.9971 35.9949 46.9971C34.0034 46.9971 32.3853 48.6463 32.3853 50.669C32.3853 52.7227 33.9722 54.3408 35.9949 54.3408C37.4574 54.3408 38.2976 53.6095 38.8577 52.9872L38.9355 52.8938L38.0953 52.1159L38.002 52.1782V52.1782Z" fill="white"/>
<path d="M43.2294 46.982C42.3114 46.982 41.5646 47.3398 41.0201 48.0556V44.2437L39.7754 44.8504V54.1391H41.0201V50.1405C41.0201 48.958 41.8136 48.1334 42.9494 48.1334C44.0541 48.1334 44.7075 48.8647 44.7075 50.0627V54.1546H45.9522V49.8137C45.9522 48.0867 44.8942 46.982 43.2294 46.982V46.982Z" fill="white"/>
<path d="M50.1061 47.0132C49.0326 47.0132 48.2546 47.2932 47.5856 47.6044L47.4922 47.6511L47.8812 48.6935L47.9901 48.6468C48.7214 48.3201 49.3282 48.1645 50.0127 48.1645C51.2574 48.1645 51.9109 48.7557 51.9109 49.8915V49.9538C51.3975 49.8137 50.8062 49.7048 49.9505 49.7048C48.0524 49.7048 46.9321 50.5761 46.9321 52.0387C46.9321 53.5167 48.2702 54.2947 49.5927 54.2947C50.7284 54.2947 51.4597 53.8124 51.9265 53.33V54.1391H53.1556V49.876C53.1556 48.9735 52.9067 48.289 52.4088 47.7911C51.8798 47.2932 51.0863 47.0132 50.1061 47.0132V47.0132ZM51.9109 50.9962V51.5407C51.9109 52.521 50.9929 53.2522 49.7638 53.2522C49.0014 53.2522 48.1768 52.8632 48.1768 52.0075C48.1768 51.214 48.877 50.7317 50.0439 50.7317C50.8529 50.7317 51.4908 50.8717 51.9109 50.9962Z" fill="white"/>
<path d="M58.0722 46.9817C57.1543 46.9817 56.4074 47.3395 55.8629 48.0552V47.1373H54.6182V54.1696H55.8629V50.1399C55.8629 48.9574 56.6564 48.1328 57.7921 48.1328C58.8968 48.1328 59.5503 48.8641 59.5503 50.0621V54.154H60.795V49.8131C60.795 48.0861 59.7214 46.9814 58.0722 46.9814V46.9817Z" fill="white"/>
<path d="M67.6736 48.1333C67.0047 47.3709 66.1491 46.9819 65.1376 46.9819C64.2973 46.9819 63.4576 47.3087 62.8506 47.8688C62.1817 48.4911 61.8237 49.3469 61.8237 50.3115C61.8237 51.2606 62.1817 52.1319 62.8506 52.7543C63.4576 53.3143 64.2973 53.6411 65.1376 53.6411C66.1491 53.6411 66.9894 53.2366 67.6895 52.4275V52.8943C67.6895 54.3568 66.8334 55.197 65.3401 55.197C64.4221 55.197 63.5666 54.9169 62.7882 54.3568L62.6793 54.279L62.1039 55.2748L62.197 55.337C63.115 55.9749 64.1884 56.3016 65.3554 56.3016C66.4913 56.3016 67.4092 55.9749 68.0316 55.3526C68.6228 54.7458 68.9343 53.9211 68.9343 52.8631V47.1221H67.6895V48.1335H67.6736V48.1333ZM67.7207 50.2959C67.7207 51.6807 66.5071 52.5053 65.3401 52.5053C64.0795 52.5053 63.0996 51.5406 63.0996 50.3115C63.0996 49.0357 64.0329 48.1177 65.3401 48.1177C66.5071 48.1022 67.7207 48.9268 67.7207 50.2959V50.2959Z" fill="white"/>
<path d="M73.4588 46.9814C71.5293 46.9814 70.0825 48.5529 70.0825 50.6533C70.0825 52.7538 71.5917 54.3252 73.5989 54.3252C74.7813 54.3252 75.6681 53.9206 76.4925 53.0027L76.5702 52.9093L75.7611 52.1936L75.6834 52.2714C75.0769 52.9093 74.4233 53.1894 73.6296 53.1894C72.4319 53.1894 71.5451 52.3803 71.3738 51.1668H76.7415L76.7574 51.0579C76.7727 50.9023 76.7727 50.7934 76.7727 50.7C76.7574 48.4751 75.4349 46.9814 73.4588 46.9814V46.9814ZM75.4814 50.1243H71.3585C71.5451 48.9107 72.3854 48.0706 73.443 48.0706C74.7342 48.0706 75.3413 49.0974 75.4814 50.1243Z" fill="white"/>
<path d="M77.9272 54.1545H79.172V44.6792L77.9272 45.3015V54.1544V54.1545Z" fill="white"/>
<path d="M80.8042 54.1542H82.049V44.2432L80.8042 44.8655V54.1541V54.1542Z" fill="white"/>
<path d="M88.677 47.1221L86.5608 52.5987L84.1649 47.1221H82.7959L85.9385 54.0148C85.5186 54.9794 85.1606 55.1661 84.6784 55.1661C84.2739 55.1661 83.9941 55.1039 83.6673 54.9328L83.5584 54.8705L83.1227 55.8974L83.2158 55.9441C83.7292 56.193 84.1649 56.3019 84.7096 56.3019C85.8142 56.3019 86.499 55.7263 87.0743 54.3104L89.9995 47.1221H88.677V47.1221Z" fill="white"/>
<path d="M28.9378 40.4935C28.86 40.4935 27.133 40.5713 24.9859 41.0848C22.0764 41.7693 19.8982 42.9052 18.5601 44.4455C18.2645 44.7878 17.9844 45.1145 17.7355 45.4257C17.2065 45.5657 15.7439 45.9702 15.0749 46.0947C14.686 46.1725 14.3592 46.3903 14.1259 46.7171C13.6435 47.4172 12.8034 48.8486 12.7723 48.9109L11.8076 50.5601L13.5658 49.7977C14.3282 49.4554 15.4017 49.222 15.7129 49.4087C15.7285 49.4243 15.744 49.4243 15.7595 49.5176C15.7595 50.0155 15.884 50.4978 16.1174 50.9802C15.6351 51.3536 15.3706 51.9448 15.4017 52.5516V54.6987H17.5488C18.1556 54.7298 18.7313 54.4498 19.1202 53.983C19.6026 54.2164 20.0849 54.3253 20.5828 54.3408C20.6606 54.3564 20.6761 54.372 20.6761 54.3875C20.8629 54.6987 20.6294 55.7723 20.2872 56.5346L19.5248 58.2772L21.174 57.3126C21.2362 57.2815 22.6676 56.4413 23.3678 55.959C23.6945 55.7411 23.9124 55.3988 23.9901 55.0099C24.1302 54.3408 24.5191 52.8783 24.6592 52.3493C24.9704 52.1004 25.2971 51.8203 25.6394 51.5247C29.249 48.3352 29.5758 41.427 29.5913 41.1314L29.6224 40.4624L28.9378 40.4935V40.4935ZM16.0085 48.1953C15.604 48.0708 15.1372 48.0864 14.686 48.1642C14.8572 47.8841 15.0283 47.6196 15.1683 47.4174C15.1995 47.3551 15.2617 47.324 15.3395 47.3085C15.6507 47.2462 16.133 47.1218 16.6153 47.0128C16.3352 47.433 16.1485 47.8219 16.0085 48.1953ZM18.1245 53.1897C18 53.3608 17.7822 53.4542 17.5799 53.4386H17.3777L18.669 51.416L16.6464 52.7229V52.5051C16.6309 52.2873 16.7242 52.085 16.8954 51.9605L19.3692 50.0001C19.4937 49.8912 19.6648 49.8134 19.8204 49.7823L20.4739 49.6267L20.3183 50.2802C20.2716 50.4513 20.2094 50.6069 20.1004 50.7314L18.1245 53.1897V53.1897ZM22.761 54.7611C22.7454 54.8233 22.7143 54.8855 22.6521 54.9322C22.4498 55.0723 22.1853 55.2434 21.9052 55.4145C21.9831 54.9634 21.9986 54.4966 21.8742 54.0921C22.2476 53.952 22.6366 53.7653 23.0566 53.5008C22.9477 53.9676 22.8232 54.4343 22.761 54.7611V54.7611ZM24.8147 50.5913C22.6676 52.4895 21.4852 53.0497 20.6294 53.0807H20.5984C20.3339 53.0807 20.116 53.0341 19.8982 52.9563L21.0495 51.4938C21.2674 51.2137 21.4229 50.9025 21.5163 50.5602L22.1387 47.9464L19.5248 48.5687C19.1825 48.6465 18.8557 48.8021 18.5912 49.0199L17.1287 50.1713C17.0509 49.9535 17.0043 49.7356 17.0043 49.4711V49.44C17.0198 48.5998 17.5955 47.4018 19.4937 45.2547C21.7808 42.6564 26.5106 41.9562 28.2842 41.7851C28.113 43.5744 27.4129 48.304 24.8146 50.5915L24.8147 50.5913Z" fill="#10D078"/>
<path d="M15.1457 57.7729C14.3522 57.9285 13.5431 57.9752 12.7341 57.9907C12.2673 57.9907 11.8006 57.9752 11.3183 57.9285C11.505 57.6173 11.6761 57.3062 11.8317 56.9794C12.1273 56.3104 12.3451 55.6413 12.5163 54.9568C12.6719 54.3033 12.8586 53.6654 13.092 53.0275C13.3098 52.3896 13.5587 51.7516 13.8388 51.1138C13.5898 51.3627 13.372 51.6272 13.1697 51.9073C12.9675 52.1873 12.7652 52.483 12.5785 52.7785C12.2206 53.3698 11.9095 54.0233 11.645 54.6611C11.396 55.2835 11.1315 55.9058 10.8204 56.466C10.5092 57.0261 10.1514 57.5395 9.71571 58.0374L9 58.8776L10.1047 59.0332C10.976 59.1576 11.8628 59.2199 12.7497 59.1887C13.2009 59.1732 13.6365 59.1421 14.0877 59.0643C14.5234 59.002 14.9745 58.8932 15.3947 58.7687C16.2504 58.5197 17.075 58.1152 17.8062 57.6018C18.1641 57.3373 18.5064 57.0417 18.7864 56.6993C19.0665 56.357 19.331 55.9992 19.5021 55.5947C18.9109 56.217 18.1952 56.6682 17.4639 57.0261C16.7171 57.3839 15.9392 57.6173 15.1457 57.7729H15.1457Z" fill="#10D078"/>
<path d="M24.3637 47.8999C24.9238 47.8999 25.4839 47.6821 25.9196 47.262C26.7753 46.4062 26.7753 45.0215 25.9196 44.1658C25.4995 43.7457 24.9549 43.5278 24.3637 43.5278C23.7724 43.5278 23.2279 43.7612 22.8078 44.1658C21.9521 45.0215 21.9521 46.4062 22.8078 47.262C23.2279 47.6821 23.788 47.8999 24.3637 47.8999ZM23.6791 45.0371C23.8658 44.8504 24.0992 44.757 24.3481 44.757C24.5971 44.757 24.846 44.8504 25.0171 45.0371C25.3906 45.4105 25.3906 46.0017 25.0171 46.3751C24.6437 46.7485 24.0525 46.7485 23.6791 46.3751C23.3212 46.0172 23.3212 45.4105 23.6791 45.0371Z" fill="#10D078"/>
</svg>
