<svg width="100" height="100" viewBox="0 0 100 100" fill="none" xmlns="http://www.w3.org/2000/svg">
<rect width="100" height="100" fill="#171B1E"/>
<path d="M73.9417 26.9124C73.7507 26.9124 69.5114 27.1034 64.2408 28.3637C57.0988 30.0441 51.7518 32.8323 48.4671 36.6133C47.7414 37.4536 47.054 38.2556 46.4429 39.0195C45.1443 39.3632 41.5542 40.3562 39.912 40.6617C38.9571 40.8527 38.1551 41.3875 37.5823 42.1895C36.3983 43.9081 34.3359 47.4219 34.2596 47.5746L31.8916 51.623L36.2074 49.7516C38.0789 48.9113 40.7142 48.3385 41.478 48.7967C41.5162 48.835 41.5544 48.835 41.5925 49.0641C41.5925 50.2863 41.8981 51.4703 42.471 52.6542C41.2871 53.5709 40.6378 55.0222 40.7142 56.5117V61.7823H45.9847C47.4743 61.8586 48.8873 61.1712 49.8421 60.0254C51.0262 60.5982 52.2101 60.8656 53.4322 60.9038C53.6233 60.942 53.6614 60.9803 53.6614 61.0184C54.1198 61.7823 53.5468 64.4176 52.7066 66.2889L50.8351 70.5666L54.8835 68.1986C55.0363 68.1223 58.5501 66.0598 60.2688 64.8759C61.0708 64.3411 61.6055 63.5009 61.7964 62.5461C62.1402 60.9038 63.095 57.3137 63.4387 56.0152C64.2026 55.4041 65.0046 54.7166 65.8449 53.9909C74.7056 46.1615 75.5076 29.2038 75.5458 28.4782L75.6221 26.8359L73.9417 26.9123V26.9124ZM42.2036 45.8181C41.2107 45.5126 40.0649 45.5508 38.9573 45.7418C39.3774 45.0543 39.7975 44.405 40.1412 43.9085C40.2177 43.7557 40.3704 43.6794 40.5614 43.6412C41.3253 43.4884 42.5092 43.1829 43.6931 42.9155C43.0057 43.9468 42.5474 44.9015 42.2036 45.8181ZM47.3978 58.078C47.0923 58.498 46.5576 58.7273 46.0611 58.689H45.5646L48.7345 53.724L43.7696 56.9322V56.3974C43.7314 55.8628 43.9605 55.3663 44.3807 55.0607L50.4532 50.2484C50.7588 49.9812 51.179 49.7902 51.5609 49.7138L53.165 49.3319L52.7829 50.936C52.6685 51.356 52.5157 51.7381 52.2483 52.0435L47.3978 58.078V58.078ZM58.7792 61.9353C58.741 62.0881 58.6647 62.2409 58.5119 62.3555C58.0154 62.6992 57.3661 63.1194 56.6786 63.5394C56.8697 62.432 56.9078 61.2861 56.6023 60.2931C57.5189 59.9494 58.4738 59.491 59.5049 58.8418C59.2375 59.9875 58.932 61.1333 58.7792 61.9353V61.9353ZM63.8206 51.6998C58.5501 56.3593 55.6474 57.7343 53.5468 57.8106H53.4705C52.8212 57.8106 52.2865 57.696 51.7518 57.5051L54.578 53.915C55.1128 53.2275 55.4947 52.4636 55.7239 51.6234L57.2515 45.207L50.8351 46.7348C49.9949 46.9257 49.1929 47.3076 48.5436 47.8424L44.9535 50.6686C44.7626 50.134 44.648 49.5992 44.648 48.9499V48.8736C44.6861 46.8111 46.0993 43.8703 50.7588 38.5997C56.3732 32.2216 67.9836 30.5029 72.3372 30.0828C71.917 34.475 70.1984 46.0849 63.8202 51.7002L63.8206 51.6998Z" fill="#10D078"/>
<path d="M40.0859 69.3289C38.1381 69.7107 36.1521 69.8253 34.1662 69.8635C33.0204 69.8635 31.8746 69.8254 30.6907 69.7107C31.149 68.9468 31.5691 68.1831 31.9511 67.381C32.6767 65.7386 33.2114 64.0964 33.6315 62.416C34.0134 60.8119 34.4717 59.2459 35.0446 57.6801C35.5793 56.1142 36.1904 54.5482 36.8778 52.9824C36.2668 53.5935 35.7321 54.2428 35.2356 54.9302C34.7391 55.6177 34.2426 56.3434 33.7843 57.069C32.9058 58.5203 32.142 60.1244 31.4927 61.6902C30.8817 63.218 30.2324 64.7457 29.4686 66.1207C28.7047 67.4955 27.8263 68.7559 26.7569 69.9781L25 72.0404L27.7117 72.4224C29.8505 72.728 32.0275 72.8808 34.2044 72.8043C35.312 72.7662 36.3814 72.6897 37.489 72.4988C38.5584 72.346 39.6659 72.0787 40.6972 71.7732C42.7978 71.1621 44.8219 70.1691 46.6169 68.9087C47.4954 68.2594 48.3357 67.5338 49.0231 66.6935C49.7105 65.8533 50.3598 64.9749 50.78 63.9819C49.3286 65.5095 47.5718 66.6171 45.7767 67.4955C43.9435 68.374 42.0339 68.9468 40.0861 69.3289H40.0859Z" fill="#10D078"/>
<path d="M62.714 45.0926C64.089 45.0926 65.4639 44.5579 66.5333 43.5266C68.6339 41.426 68.6339 38.0269 66.5333 35.9263C65.502 34.8951 64.1653 34.3604 62.714 34.3604C61.2627 34.3604 59.926 34.9332 58.8947 35.9263C56.7942 38.0269 56.7942 41.426 58.8947 43.5266C59.926 44.5579 61.3008 45.0926 62.714 45.0926ZM61.0336 38.0652C61.4918 37.6069 62.0647 37.3777 62.6758 37.3777C63.2869 37.3777 63.8979 37.6069 64.3181 38.0652C65.2348 38.9818 65.2348 40.433 64.3181 41.3497C63.4014 42.2662 61.9501 42.2662 61.0336 41.3497C60.1551 40.4712 60.1551 38.9817 61.0336 38.0652Z" fill="#10D078"/>
</svg>
