<svg width="100" height="100" viewBox="0 0 100 100" fill="none" xmlns="http://www.w3.org/2000/svg">
<rect width="100" height="100" fill="#1D1D22"/>
<path d="M16.723 51.3065C16.723 50.909 16.5827 50.6051 16.3022 50.3947C16.0217 50.1797 15.5167 49.9552 14.7873 49.7214C14.0579 49.483 13.4804 49.2492 13.055 49.0201C11.8954 48.3935 11.3156 47.5496 11.3156 46.4882C11.3156 45.9365 11.4699 45.4455 11.7785 45.0154C12.0918 44.5805 12.5383 44.2415 13.1181 43.9984C13.7025 43.7553 14.3571 43.6337 15.0819 43.6337C15.8113 43.6337 16.4612 43.767 17.0316 44.0335C17.602 44.2953 18.0439 44.667 18.3572 45.1486C18.6751 45.6302 18.8341 46.1773 18.8341 46.7898H16.73C16.73 46.3222 16.5827 45.9598 16.2882 45.7027C15.9936 45.4408 15.5798 45.3099 15.0468 45.3099C14.5325 45.3099 14.1327 45.4198 13.8475 45.6396C13.5623 45.8546 13.4197 46.1399 13.4197 46.4952C13.4197 46.8272 13.5856 47.1054 13.9176 47.3298C14.2543 47.5542 14.7475 47.7646 15.3975 47.961C16.5944 48.321 17.4665 48.7676 18.0135 49.3006C18.5605 49.8336 18.8341 50.4976 18.8341 51.2924C18.8341 52.1761 18.4997 52.8705 17.8311 53.3755C17.1625 53.8758 16.2624 54.1259 15.1309 54.1259C14.3454 54.1259 13.6301 53.9833 12.9848 53.698C12.3396 53.4082 11.8463 53.0131 11.505 52.5128C11.1683 52.0125 11 51.4327 11 50.7734H13.1111C13.1111 51.9003 13.7844 52.4637 15.1309 52.4637C15.6312 52.4637 16.0217 52.3632 16.3022 52.1621C16.5827 51.9564 16.723 51.6711 16.723 51.3065ZM25.8476 46.397L25.9107 47.2456C26.4484 46.5864 27.1754 46.2567 28.0919 46.2567C29.0691 46.2567 29.74 46.6425 30.1048 47.414C30.6378 46.6425 31.3976 46.2567 32.3841 46.2567C33.2071 46.2567 33.8196 46.4975 34.2217 46.9791C34.6238 47.4561 34.8249 48.1761 34.8249 49.1393V53.9856H32.7909V49.1463C32.7909 48.7161 32.7068 48.4029 32.5384 48.2065C32.3701 48.0054 32.0732 47.9049 31.6477 47.9049C31.0399 47.9049 30.6191 48.1948 30.3853 48.7746L30.3923 53.9856H28.3654V49.1533C28.3654 48.7138 28.2789 48.3959 28.1059 48.1995C27.9329 48.0031 27.6383 47.9049 27.2222 47.9049C26.6471 47.9049 26.231 48.1434 25.9738 48.6203V53.9856H23.9469V46.397H25.8476ZM43.22 50.2615C43.22 51.4304 42.9535 52.3678 42.4205 53.0739C41.8921 53.7752 41.1767 54.1259 40.2743 54.1259C39.5075 54.1259 38.888 53.8594 38.4158 53.3263V56.9032H36.3889V46.397H38.2685L38.3386 47.1404C38.8295 46.5513 39.4701 46.2567 40.2603 46.2567C41.1954 46.2567 41.9225 46.6027 42.4415 47.2947C42.9605 47.9867 43.22 48.9406 43.22 50.1563V50.2615ZM41.1931 50.1142C41.1931 49.4081 41.0669 48.8634 40.8144 48.48C40.5666 48.0966 40.2042 47.9049 39.7273 47.9049C39.0914 47.9049 38.6542 48.148 38.4158 48.6343V51.7413C38.6636 52.2416 39.1054 52.4918 39.7413 52.4918C40.7092 52.4918 41.1931 51.6992 41.1931 50.1142ZM46.6215 53.9856H44.5876V43.2129H46.6215V53.9856ZM51.7905 54.1259C50.6777 54.1259 49.7706 53.7846 49.0692 53.1019C48.3726 52.4193 48.0243 51.5099 48.0243 50.3737V50.1773C48.0243 49.4152 48.1715 48.7349 48.4661 48.1363C48.7607 47.5332 49.1768 47.0703 49.7145 46.7477C50.2569 46.4204 50.874 46.2567 51.566 46.2567C52.604 46.2567 53.4199 46.584 54.0137 47.2386C54.6123 47.8932 54.9115 48.8213 54.9115 50.023V50.8506H50.0792C50.1447 51.3462 50.341 51.7437 50.6683 52.0429C51.0003 52.3421 51.4188 52.4918 51.9237 52.4918C52.7046 52.4918 53.3147 52.2089 53.7543 51.6431L54.7502 52.7583C54.4462 53.1884 54.0348 53.525 53.5158 53.7682C52.9968 54.0067 52.4217 54.1259 51.7905 54.1259ZM51.559 47.8979C51.1569 47.8979 50.8296 48.0335 50.5772 48.3047C50.3293 48.5759 50.1704 48.9639 50.1002 49.4689H52.9197V49.3076C52.9103 48.8587 52.7887 48.5128 52.5549 48.2696C52.3212 48.0218 51.9892 47.8979 51.559 47.8979Z" fill="white"/>
<path d="M22.2708 53.9856H20.2369V46.397H22.2708V53.9856ZM20.1177 44.4332C20.1177 44.1293 20.2182 43.8791 20.4193 43.6828C20.625 43.4864 20.9032 43.3882 21.2538 43.3882C21.5999 43.3882 21.8757 43.4864 22.0814 43.6828C22.2872 43.8791 22.3901 44.1293 22.3901 44.4332C22.3901 44.7418 22.2849 44.9943 22.0744 45.1906C21.8687 45.387 21.5952 45.4852 21.2538 45.4852C20.9125 45.4852 20.6367 45.387 20.4262 45.1906C20.2205 44.9943 20.1177 44.7418 20.1177 44.4332ZM61.4972 51.3064C61.4972 50.909 61.3571 50.6051 61.0767 50.3947C60.7959 50.1796 60.291 49.9551 59.5616 49.7214C58.8322 49.4829 58.2547 49.2491 57.8293 49.02C56.6697 48.3935 56.0899 47.5495 56.0899 46.4881C56.0899 45.9364 56.2442 45.4455 56.5528 45.0153C56.8661 44.5805 57.3126 44.2415 57.8924 43.9984C58.4768 43.7552 59.1314 43.6337 59.8561 43.6337C60.5854 43.6337 61.2352 43.7669 61.8058 44.0334C62.3764 44.2953 62.8182 44.667 63.1312 45.1486C63.4492 45.6302 63.6082 46.1772 63.6082 46.7897H61.5042C61.5042 46.3222 61.3571 45.9598 61.0624 45.7026C60.7677 45.4408 60.3541 45.3099 59.821 45.3099C59.3067 45.3099 58.907 45.4198 58.6218 45.6395C58.3365 45.8546 58.1939 46.1398 58.1939 46.4952C58.1939 46.8271 58.3599 47.1053 58.6919 47.3298C59.0286 47.5542 59.5218 47.7646 60.1718 47.961C61.369 48.321 62.2407 48.7675 62.788 49.3006C63.3348 49.8336 63.6082 50.4975 63.6082 51.2924C63.6082 52.1761 63.2739 52.8704 62.6052 53.3754C61.9366 53.8757 61.0366 54.1258 59.9052 54.1258C59.1197 54.1258 58.4044 53.9832 57.7591 53.698C57.1139 53.4081 56.6206 53.0131 56.2793 52.5128C55.9426 52.0125 55.7743 51.4327 55.7743 50.7734H57.8853C57.8853 51.9002 58.5586 52.4636 59.9052 52.4636C60.4055 52.4636 60.7959 52.3631 61.0767 52.1621C61.3571 51.9563 61.4972 51.6711 61.4972 51.3064ZM71.5057 51.2293L72.5013 46.397H74.4582L72.5226 53.9856H70.8252L69.3873 49.2094L67.9495 53.9856H66.2595L64.3239 46.397H66.2803L67.2694 51.2223L68.6583 46.397H70.1238L71.5057 51.2293ZM79.8659 53.9856C79.7722 53.8032 79.7044 53.5765 79.6623 53.3053C79.1714 53.8523 78.533 54.1258 77.7475 54.1258C77.004 54.1258 76.3869 53.9108 75.896 53.4806C75.4097 53.0505 75.1665 52.5081 75.1665 51.8535C75.1665 51.0492 75.4636 50.4321 76.0575 50.0019C76.6558 49.5717 77.5186 49.3543 78.6454 49.3496H79.5781V48.9148C79.5781 48.5641 79.487 48.2836 79.3047 48.0732C79.1269 47.8628 78.8441 47.7576 78.4557 47.7576C78.1145 47.7576 77.8455 47.8394 77.6494 48.0031C77.4577 48.1667 77.3616 48.3911 77.3616 48.6764H75.3349C75.3349 48.2369 75.4706 47.8301 75.7415 47.456C76.0129 47.082 76.3963 46.7897 76.8921 46.5793C77.3874 46.3642 77.9441 46.2567 78.5612 46.2567C79.4964 46.2567 80.2373 46.4928 80.7846 46.9651C81.3359 47.4326 81.6118 48.0919 81.6118 48.9428V52.2322C81.6167 52.9522 81.7173 53.497 81.9134 53.8664V53.9856H79.8659ZM78.1893 52.5759C78.4884 52.5759 78.7643 52.5104 79.0169 52.3795C79.2695 52.2439 79.4567 52.0639 79.5781 51.8394V50.5349H78.8208C77.8059 50.5349 77.266 50.8856 77.2007 51.5869L77.1937 51.7062C77.1937 51.9587 77.2824 52.1667 77.4602 52.3304C77.6375 52.494 77.8807 52.5759 78.1893 52.5759ZM90.0001 50.2614C90.0001 51.4303 89.7337 52.3678 89.2007 53.0738C88.6722 53.7752 87.957 54.1258 87.0546 54.1258C86.2879 54.1258 85.6683 53.8593 85.1958 53.3263V56.9032H83.169V46.397H85.0486L85.119 47.1404C85.6098 46.5513 86.2502 46.2567 87.0402 46.2567C87.9754 46.2567 88.7025 46.6027 89.2215 47.2947C89.7406 47.9867 90.0001 48.9405 90.0001 50.1562V50.2614ZM87.9734 50.1141C87.9734 49.4081 87.8471 48.8634 87.5945 48.48C87.3468 48.0966 86.9843 47.9049 86.5073 47.9049C85.8713 47.9049 85.4345 48.148 85.1958 48.6343V51.7413C85.4439 52.2415 85.8857 52.4917 86.5217 52.4917C87.4895 52.4917 87.9734 51.6992 87.9734 50.1141Z" fill="#0087D7"/>
</svg>
