<svg width="100" height="100" viewBox="0 0 100 100" fill="none" xmlns="http://www.w3.org/2000/svg">
<rect width="100" height="100" fill="#1D1D22"/>
<path d="M34.8589 61.408C34.8589 60.8689 34.6665 60.4567 34.2815 60.1713C33.8958 59.8795 33.2025 59.575 32.2008 59.2579C31.1992 58.9345 30.4062 58.6174 29.822 58.3066C28.2296 57.4566 27.4334 56.3118 27.4334 54.8721C27.4334 54.1237 27.6453 53.4577 28.0691 52.8742C28.4993 52.2844 29.1124 51.8245 29.9086 51.4947C30.7112 51.1649 31.6101 51 32.6053 51C33.6068 51 34.4991 51.1808 35.2827 51.5423C36.0662 51.8975 36.6729 52.4017 37.1028 53.055C37.5395 53.7082 37.7578 54.4503 37.7578 55.2812H34.8685C34.8685 54.6469 34.6665 54.1554 34.2618 53.8066C33.8571 53.4514 33.2891 53.2738 32.5572 53.2738C31.8509 53.2738 31.3019 53.4228 30.9103 53.7209C30.5186 54.0127 30.3228 54.3996 30.3228 54.8816C30.3228 55.3319 30.5507 55.7093 31.0066 56.0137C31.4689 56.3182 32.1463 56.6036 33.0388 56.87C34.6828 57.3583 35.8799 57.964 36.6314 58.6871C37.3823 59.4102 37.7578 60.3108 37.7578 61.389C37.7578 62.5878 37.2987 63.5296 36.3805 64.2146C35.4623 64.8933 34.2264 65.2326 32.6728 65.2326C31.5941 65.2326 30.6117 65.0391 29.7257 64.6522C28.8396 64.259 28.1622 63.7231 27.6935 63.0444C27.2312 62.3658 27 61.5793 27 60.685H29.899C29.899 62.2135 30.8236 62.9778 32.6728 62.9778C33.3598 62.9778 33.8958 62.8415 34.2815 62.5687C34.6665 62.2897 34.8589 61.9027 34.8589 61.408ZM48.6029 61.3034L49.97 54.7484H52.6573L49.9993 65.0423H47.6684L45.6939 58.5634L43.7194 65.0423H41.3987L38.7406 54.7484H41.4272L42.7855 61.2939L44.6927 54.7484H46.7053L48.6029 61.3034ZM60.0833 65.0423C59.9547 64.7949 59.8616 64.4873 59.8037 64.1195C59.1297 64.8616 58.253 65.2326 57.1743 65.2326C56.1533 65.2326 55.3059 64.9408 54.6318 64.3573C53.9639 63.7738 53.6299 63.038 53.6299 62.1501C53.6299 61.0592 54.038 60.222 54.8536 59.6385C55.6752 59.0549 56.86 58.7601 58.4074 58.7537H59.6881V58.1639C59.6881 57.6882 59.563 57.3076 59.3127 57.0222C59.0685 56.7368 58.6801 56.5941 58.1469 56.5941C57.6783 56.5941 57.3089 56.7051 57.0396 56.9271C56.7764 57.1491 56.6444 57.4535 56.6444 57.8404H53.8612C53.8612 57.2442 54.0476 56.6924 54.4196 56.185C54.7923 55.6776 55.3188 55.2812 55.9996 54.9958C56.6798 54.704 57.4443 54.5581 58.2918 54.5581C59.5759 54.5581 60.5934 54.8784 61.345 55.519C62.102 56.1533 62.4808 57.0475 62.4808 58.2019V62.6639C62.4876 63.6406 62.6257 64.3795 62.8951 64.8806V65.0423H60.0833ZM57.781 63.13C58.1918 63.13 58.5706 63.0412 58.9175 62.8636C59.2644 62.6797 59.5215 62.4355 59.6881 62.1311V60.3615H58.6482C57.2545 60.3615 56.5131 60.8372 56.4234 61.7886L56.4138 61.9503C56.4138 62.2928 56.5356 62.5751 56.7798 62.797C57.0233 63.019 57.3572 63.13 57.781 63.13ZM74 59.9905C74 61.5761 73.6341 62.8478 72.9022 63.8055C72.1765 64.7569 71.1944 65.2326 69.9551 65.2326C68.9022 65.2326 68.0513 64.871 67.4025 64.148V69H64.6193V54.7484H67.2005L67.297 55.7569C67.9711 54.9577 68.8505 54.5581 69.9354 54.5581C71.2195 54.5581 72.218 55.0275 72.9308 55.9662C73.6436 56.9049 74 58.1987 74 59.8478V59.9905ZM71.2168 59.7907C71.2168 58.833 71.0434 58.0941 70.6965 57.574C70.3564 57.0539 69.8585 56.7939 69.2035 56.7939C68.3302 56.7939 67.7303 57.1237 67.4025 57.7833V61.9979C67.7432 62.6765 68.3499 63.0159 69.2233 63.0159C70.5523 63.0159 71.2168 61.9408 71.2168 59.7907Z" fill="#0087D7"/>
<path d="M27.7704 41.0616C27.7704 40.5184 27.5787 40.103 27.1953 39.8155C26.8119 39.5215 26.1217 39.2148 25.1249 38.8952C24.128 38.5694 23.3388 38.2499 22.7573 37.9367C21.1725 37.0804 20.3801 35.927 20.3801 34.4764C20.3801 33.7223 20.591 33.0514 21.0127 32.4635C21.4409 31.8692 22.0511 31.4059 22.8435 31.0736C23.6423 30.7413 24.5369 30.5751 25.5274 30.5751C26.5243 30.5751 27.4125 30.7572 28.1922 31.1215C28.9718 31.4793 29.5757 31.9874 30.0038 32.6456C30.4383 33.3038 30.6556 34.0514 30.6556 34.8886H27.78C27.78 34.2495 27.5787 33.7543 27.1762 33.4028C26.7735 33.045 26.208 32.866 25.4795 32.866C24.7766 32.866 24.2302 33.0162 23.8404 33.3165C23.4506 33.6105 23.2557 34.0003 23.2557 34.486C23.2557 34.9397 23.4826 35.3199 23.9363 35.6266C24.3964 35.9334 25.0705 36.2209 25.9588 36.4893C27.5947 36.9814 28.7865 37.5916 29.5342 38.3201C30.2818 39.0486 30.6556 39.9561 30.6556 41.0424C30.6556 42.2502 30.1987 43.1991 29.2849 43.8893C28.3711 44.5731 27.141 44.9149 25.5945 44.9149C24.521 44.9149 23.5433 44.72 22.6614 44.3302C21.7795 43.934 21.1054 43.394 20.6389 42.7103C20.1788 42.0265 19.9487 41.2341 19.9487 40.333H22.8339C22.8339 41.8731 23.7541 42.6431 25.5945 42.6431C26.2783 42.6431 26.8119 42.5058 27.1953 42.231C27.5787 41.9498 27.7704 41.56 27.7704 41.0616ZM40.2411 34.3518L40.3273 35.5116C41.0622 34.6106 42.0559 34.1601 43.3084 34.1601C44.644 34.1601 45.5609 34.6873 46.0594 35.7417C46.7879 34.6873 47.8263 34.1601 49.1746 34.1601C50.2994 34.1601 51.1364 34.4892 51.686 35.1474C52.2356 35.7992 52.5104 36.7833 52.5104 38.0997V44.7232H49.7306V38.1093C49.7306 37.5214 49.6156 37.0932 49.3855 36.8248C49.1555 36.55 48.7497 36.4126 48.1682 36.4126C47.3375 36.4126 46.7623 36.8088 46.4428 37.6012L46.4524 44.7232H43.6822V38.1189C43.6822 37.5182 43.564 37.0836 43.3275 36.8152C43.0911 36.5468 42.6885 36.4126 42.1198 36.4126C41.3338 36.4126 40.765 36.7386 40.4136 37.3904V44.7232H37.6434V34.3518H40.2411ZM63.9841 39.6334C63.9841 41.2309 63.6199 42.5121 62.8914 43.4771C62.1693 44.4356 61.1915 44.9149 59.9582 44.9149C58.9102 44.9149 58.0635 44.5506 57.4181 43.8221V48.7107H54.6479V34.3518H57.2168L57.3127 35.3678C57.9836 34.5627 58.8591 34.1601 59.9391 34.1601C61.2171 34.1601 62.2108 34.633 62.9201 35.5787C63.6294 36.5245 63.9841 37.8281 63.9841 39.4896V39.6334ZM61.2139 39.432C61.2139 38.4671 61.0414 37.7227 60.6963 37.1987C60.3576 36.6746 59.8624 36.4126 59.2106 36.4126C58.3415 36.4126 57.744 36.7449 57.4181 37.4095V41.6559C57.7568 42.3396 58.3607 42.6815 59.2297 42.6815C60.5525 42.6815 61.2139 41.5984 61.2139 39.432ZM68.633 44.7232H65.8533V30H68.633V44.7232ZM75.6975 44.9149C74.1766 44.9149 72.9369 44.4484 71.9783 43.5154C71.0262 42.5825 70.5501 41.3396 70.5501 39.7867V39.5183C70.5501 38.4767 70.7514 37.5469 71.154 36.7289C71.5566 35.9046 72.1254 35.272 72.8602 34.831C73.6015 34.3837 74.445 34.1601 75.3907 34.1601C76.8094 34.1601 77.9245 34.6074 78.736 35.502C79.554 36.3967 79.963 37.6651 79.963 39.3074V40.4385H73.3587C73.4481 41.1159 73.7165 41.6591 74.1638 42.068C74.6175 42.477 75.1895 42.6815 75.8796 42.6815C76.9468 42.6815 77.7807 42.2949 78.3814 41.5217L79.7426 43.0458C79.3271 43.6337 78.7648 44.0937 78.0555 44.426C77.3462 44.752 76.5602 44.9149 75.6975 44.9149ZM75.3812 36.4031C74.8316 36.4031 74.3843 36.5884 74.0392 36.959C73.7005 37.3296 73.4833 37.86 73.3874 38.5502H77.2408V38.3297C77.228 37.7162 77.0618 37.2434 76.7423 36.9111C76.4228 36.5724 75.9691 36.4031 75.3812 36.4031Z" fill="white"/>
<path d="M35.3529 44.7233H32.5731V34.3519H35.3529V44.7233ZM32.4102 31.668C32.4102 31.2526 32.5476 30.9107 32.8223 30.6423C33.1035 30.3739 33.4837 30.2397 33.963 30.2397C34.4359 30.2397 34.8129 30.3739 35.094 30.6423C35.3752 30.9107 35.5158 31.2526 35.5158 31.668C35.5158 32.0897 35.3721 32.4348 35.0845 32.7032C34.8033 32.9716 34.4295 33.1058 33.963 33.1058C33.4965 33.1058 33.1195 32.9716 32.8319 32.7032C32.5508 32.4348 32.4102 32.0897 32.4102 31.668Z" fill="#0087D7"/>
</svg>
