<svg width="100" height="100" viewBox="0 0 100 100" fill="none" xmlns="http://www.w3.org/2000/svg">
<rect width="100" height="100" fill="#FDE937"/>
<path d="M86.5047 48.7787L74.2013 32.8891C73.8805 32.4625 73.2377 32.1426 72.7039 32.1426H16V67.6428H73.3455C73.8805 67.6428 74.3078 67.4295 74.6286 67.0029L86.6112 51.6582C87.1462 50.805 87.1462 49.6319 86.5047 48.7787ZM42.8534 61.3625H23.5958V38.2212H42.4261V44.0865H31.2993V46.7526H41.1417V52.4046H31.2993V55.3906H42.8534V61.3625ZM61.4694 61.3625L57.5111 55.1774L53.5529 61.3625H44.6728L53.0178 49.7385L44.887 38.3278H53.6594L57.6176 44.1932L61.4694 38.3278H69.9223L61.8979 49.5252L70.456 61.4692H61.4694V61.3625Z" fill="black"/>
<path fill-rule="evenodd" clip-rule="evenodd" d="M23.5664 61.3631H42.824V55.3911H31.2687V52.4051H41.1124V46.7531H31.2687V44.087H42.3955V38.2217H23.5664V61.3631ZM57.4818 55.1778L61.44 61.3631V61.4697H70.4267L61.8673 49.5258L69.8916 38.3283H61.44L57.5883 44.1936L53.63 38.3283H44.8564L52.9872 49.7391L44.6421 61.3631H53.5222L57.4818 55.1778Z" fill="white"/>
</svg>
