<svg width="100" height="100" viewBox="0 0 100 100" fill="none" xmlns="http://www.w3.org/2000/svg">
<rect width="100" height="100" fill="#FDE937"/>
<path d="M88.8004 49.444L83.8444 43.0434C83.7152 42.8715 83.4563 42.7427 83.2413 42.7427H60.3999V57.0428H83.4997C83.7152 57.0428 83.8873 56.9569 84.0165 56.785L88.8433 50.6039C89.0588 50.2602 89.0589 49.7877 88.8004 49.444ZM71.2169 54.513H63.4596V45.1912H71.0448V47.5539H66.5627V48.6278H70.5274V50.9046H66.5627V52.1074H71.2169V54.513ZM78.7158 54.513L77.1213 52.0215L75.5269 54.513H71.9498L75.3113 49.8306L72.0361 45.2342H75.5698L77.1642 47.5969L78.7158 45.2342H82.1207L78.8884 49.7447L82.3358 54.5559H78.7158V54.513Z" fill="black"/>
<path fill-rule="evenodd" clip-rule="evenodd" d="M63.4478 54.5132H71.2051V52.1075H66.5504V50.9047H70.5156V48.628H66.5504V47.5541H71.0324V45.1914H63.4478V54.5132ZM77.1095 52.0216L78.7039 54.5132V54.5561H82.3239L78.876 49.7449L82.1084 45.2344H78.7039L77.1524 47.597L75.5579 45.2344H72.0237L75.299 49.8308L71.9374 54.5132H75.5145L77.1095 52.0216Z" fill="white"/>
<path opacity="0.95" fill-rule="evenodd" clip-rule="evenodd" d="M14.0457 51.5617C14.1106 52.0303 14.2382 52.3805 14.4283 52.6124C14.7762 53.0345 15.3723 53.2456 16.2165 53.2456C16.7221 53.2456 17.1327 53.1899 17.4481 53.0786C18.0465 52.8652 18.3457 52.4686 18.3457 51.8888C18.3457 51.5501 18.1973 51.2881 17.9004 51.1025C17.6035 50.9216 17.1373 50.7616 16.5018 50.6224L15.4164 50.3789C14.3495 50.1377 13.6119 49.8756 13.2037 49.5926C12.5126 49.1195 12.167 48.3796 12.167 47.373C12.167 46.4546 12.501 45.6915 13.1689 45.0839C13.8369 44.4762 14.818 44.1724 16.1122 44.1724C17.193 44.1724 18.1149 44.4588 18.8778 45.0317C19.6409 45.6046 20.0411 46.436 20.0783 47.5261H18.0187C17.9815 46.9092 17.7125 46.4708 17.2115 46.211C16.8775 46.0394 16.4624 45.9536 15.9661 45.9536C15.414 45.9536 14.9734 46.0649 14.644 46.2876C14.3147 46.5102 14.15 46.821 14.15 47.22C14.15 47.5864 14.3124 47.8601 14.6371 48.041C14.8458 48.1616 15.2911 48.3031 15.973 48.4654L17.7404 48.8899C18.5149 49.0754 19.0995 49.3236 19.4937 49.6344C20.1062 50.1168 20.4123 50.8149 20.4123 51.7287C20.4123 52.6657 20.054 53.4439 19.3371 54.0631C18.6205 54.6824 17.6081 54.992 16.3 54.992C14.9641 54.992 13.9135 54.687 13.1481 54.0771C12.3827 53.4671 12 52.6286 12 51.5617H14.0457ZM21.0594 48.6255V47.213H22.117V45.0978H24.0792V47.213H25.3106V48.6255H24.0792V52.6333C24.0792 52.944 24.1184 53.1377 24.1972 53.2143C24.2763 53.2908 24.5172 53.3291 24.9211 53.3291C24.9812 53.3291 25.045 53.3279 25.1122 53.3256C25.1796 53.3232 25.2458 53.3198 25.3106 53.3152V54.7972L24.3713 54.832C23.4344 54.8645 22.7943 54.7021 22.451 54.3449C22.2283 54.1176 22.117 53.7674 22.117 53.2943V48.6255H21.0594ZM29.5757 48.5768C29.1168 48.5768 28.7605 48.7206 28.5079 49.0082C28.2549 49.2958 28.0961 49.6854 28.0313 50.1771H31.1136C31.081 49.653 30.9221 49.2552 30.637 48.9838C30.3518 48.7124 29.9979 48.5768 29.5757 48.5768ZM29.5757 46.9416C30.2065 46.9416 30.7749 47.0599 31.2804 47.2965C31.7862 47.5331 32.2037 47.9065 32.5331 48.4167C32.8298 48.8667 33.0223 49.3885 33.1104 49.9823C33.1616 50.3302 33.1825 50.8311 33.1732 51.4852H27.9824C28.0103 52.2459 28.2493 52.7794 28.6993 53.0856C28.9728 53.2757 29.3022 53.3708 29.6871 53.3708C30.0956 53.3708 30.4269 53.2549 30.6822 53.0229C30.8214 52.8977 30.9444 52.7237 31.0511 52.5011H33.0758C33.0246 52.951 32.7903 53.4079 32.3728 53.8718C31.7234 54.6093 30.8144 54.9781 29.6455 54.9781C28.6807 54.9781 27.8296 54.6673 27.0917 54.0458C26.3542 53.4242 25.9856 52.4129 25.9856 51.012C25.9856 49.6993 26.3183 48.6927 26.984 47.9923C27.6497 47.2918 28.5135 46.9416 29.5757 46.9416ZM38.6906 51.0399C38.5657 51.1187 38.4391 51.1825 38.3118 51.2312C38.1842 51.2799 38.009 51.3252 37.7863 51.3669L37.341 51.4504C36.9235 51.5246 36.6244 51.6151 36.4433 51.7218C36.1371 51.9027 35.9842 52.1833 35.9842 52.5637C35.9842 52.9023 36.078 53.147 36.2661 53.2978C36.4539 53.4485 36.6822 53.5239 36.9514 53.5239C37.3782 53.5239 37.7713 53.3986 38.1306 53.1482C38.4902 52.8977 38.6771 52.4408 38.6906 51.7775V51.0399ZM37.4872 50.1145C37.8535 50.0681 38.1157 50.0101 38.2732 49.9406C38.5564 49.8199 38.6976 49.6321 38.6976 49.3769C38.6976 49.0662 38.5899 48.8516 38.3742 48.7333C38.1586 48.615 37.8418 48.5559 37.4244 48.5559C36.9561 48.5559 36.6244 48.6719 36.4296 48.9038C36.2904 49.0754 36.1976 49.3074 36.1511 49.5996H34.2377C34.2796 48.9362 34.4651 48.3912 34.7944 47.9645C35.3186 47.2965 36.2183 46.9625 37.4942 46.9625C38.3244 46.9625 39.0619 47.1272 39.7067 47.4565C40.3514 47.7859 40.6738 48.4075 40.6738 49.3213V52.8003C40.6738 53.0415 40.6785 53.3337 40.6878 53.677C40.7017 53.9367 40.741 54.113 40.8061 54.2058C40.8709 54.2986 40.9683 54.3751 41.0983 54.4354V54.7276H38.9412C38.8811 54.5746 38.8392 54.4307 38.816 54.2962C38.793 54.1617 38.7744 54.0086 38.7605 53.837C38.4866 54.1339 38.1712 54.3867 37.8142 54.5954C37.3875 54.8413 36.9049 54.9642 36.3668 54.9642C35.6805 54.9642 35.1132 54.7682 34.6655 54.3762C34.2181 53.9843 33.9941 53.4288 33.9941 52.7098C33.9941 51.7775 34.3537 51.1025 35.0726 50.685C35.4671 50.4578 36.0468 50.2954 36.8122 50.198L37.4872 50.1145ZM44.459 54.7276H42.4759V44.4716H44.459V54.7276ZM45.614 48.6255V47.213H46.6716V45.0978H48.6338V47.213H49.8652V48.6255H48.6338V52.6333C48.6338 52.944 48.6733 53.1377 48.7521 53.2143C48.8309 53.2908 49.0722 53.3291 49.4757 53.3291C49.5361 53.3291 49.5996 53.3279 49.6671 53.3256C49.7342 53.3232 49.8004 53.3198 49.8652 53.3152V54.7972L48.9259 54.832C47.989 54.8645 47.3489 54.7021 47.0056 54.3449C46.7829 54.1176 46.6716 53.7674 46.6716 53.2943V48.6255H45.614ZM55.3205 46.9486C55.7888 46.9486 56.2145 47.0298 56.5971 47.1921C56.98 47.3545 57.2941 47.6027 57.54 47.9366C57.7487 48.2196 57.8763 48.5106 57.9225 48.8099C57.9691 49.1091 57.9923 49.5972 57.9923 50.2745V54.7276H55.9676V50.1145C55.9676 49.7063 55.8978 49.377 55.7589 49.1265C55.5777 48.7739 55.2344 48.5976 54.7289 48.5976C54.2048 48.5976 53.807 48.7727 53.5357 49.1229C53.2642 49.4732 53.1286 49.973 53.1286 50.6224V54.7276H51.1524V44.5063H53.1286V48.1314C53.4161 47.6908 53.7491 47.3835 54.127 47.2095C54.5052 47.0356 54.9031 46.9486 55.3205 46.9486Z" fill="black"/>
</svg>
