<svg id="b1906fbd-debd-48f4-becc-050b3be1d47c" data-name="Layer 1" xmlns="http://www.w3.org/2000/svg" xmlns:xlink="http://www.w3.org/1999/xlink" width="988.73407" height="579.5" viewBox="0 0 988.73407 579.5"><defs><linearGradient id="ea70ace5-c99b-481d-ac97-2307e331f198" x1="943.98299" y1="726.30507" x2="943.98299" y2="160.25" gradientUnits="userSpaceOnUse"><stop offset="0" stop-color="gray" stop-opacity="0.25"/><stop offset="0.53514" stop-color="gray" stop-opacity="0.12"/><stop offset="1" stop-color="gray" stop-opacity="0.1"/></linearGradient></defs><title>accept request</title><circle cx="593.53491" cy="76.62531" r="25.14978" fill="none" stroke="#3f3d56" stroke-miterlimit="10"/><path d="M750.67784,189.5763l-6.08073-6.1126a3.22835,3.22835,0,0,0-4.58435-.03167l-38.171,37.8525-16.14072-16.268a3.21846,3.21846,0,0,0-4.55248-.03187l-6.14427,6.08073a3.25705,3.25705,0,0,0-.03187,4.58435L699.486,240.35409a3.25706,3.25706,0,0,0,4.58435.03186l46.57565-46.2253A3.22853,3.22853,0,0,0,750.67784,189.5763Z" transform="translate(-105.88296 -160.25)" fill="#45d391"/><rect y="64.05042" width="456.01602" height="51.97622" rx="25.61024" fill="#f2f2f2"/><rect x="0.57002" y="154.17048" width="456.01602" height="51.97622" rx="25.61024" fill="#f2f2f2"/><rect x="1.14004" y="244.29054" width="456.01602" height="51.97622" rx="25.61024" fill="#f2f2f2"/><rect x="1.71006" y="334.4106" width="456.01602" height="51.97622" rx="25.61024" fill="#f2f2f2"/><rect x="14.25154" y="50.6372" width="456.01602" height="51.97622" rx="25.61024" fill="none" stroke="#3f3d56" stroke-miterlimit="10"/><rect x="14.82156" y="140.75726" width="456.01602" height="51.97622" rx="25.61024" fill="none" stroke="#3f3d56" stroke-miterlimit="10"/><rect x="15.39158" y="230.87732" width="456.01602" height="51.97622" rx="25.61024" fill="none" stroke="#3f3d56" stroke-miterlimit="10"/><rect x="15.9616" y="320.99738" width="456.01602" height="51.97622" rx="25.61024" fill="none" stroke="#3f3d56" stroke-miterlimit="10"/><circle cx="593.53491" cy="167.16454" r="25.14978" fill="none" stroke="#3f3d56" stroke-miterlimit="10"/><circle cx="593.53491" cy="257.70376" r="25.14978" fill="none" stroke="#3f3d56" stroke-miterlimit="10"/><circle cx="593.53491" cy="348.24298" r="25.14978" fill="none" stroke="#3f3d56" stroke-miterlimit="10"/><path d="M750.67784,280.95385l-6.08073-6.1126a3.22836,3.22836,0,0,0-4.58435-.03167l-38.171,37.8525-16.14072-16.268a3.21846,3.21846,0,0,0-4.55248-.03187l-6.14427,6.08073a3.25705,3.25705,0,0,0-.03187,4.58435L699.486,331.73164a3.25706,3.25706,0,0,0,4.58435.03186L750.646,285.5382A3.22853,3.22853,0,0,0,750.67784,280.95385Z" transform="translate(-105.88296 -160.25)" fill="#45d391"/><path d="M750.67784,463.709l-6.08073-6.1126a3.22836,3.22836,0,0,0-4.58435-.03167l-38.171,37.8525-16.14072-16.268a3.21846,3.21846,0,0,0-4.55248-.03187l-6.14427,6.08073a3.25705,3.25705,0,0,0-.03187,4.58435L699.486,514.48674a3.25707,3.25707,0,0,0,4.58435.03187L750.646,468.2933A3.22853,3.22853,0,0,0,750.67784,463.709Z" transform="translate(-105.88296 -160.25)" fill="#45d391"/><ellipse cx="809.23407" cy="555.5" rx="154" ry="24" fill="#f2f2f2"/><ellipse cx="834.23407" cy="546.5" rx="154" ry="24" fill="none" stroke="#3f3d56" stroke-miterlimit="10"/><path d="M1015.731,270.118q-.66715-.76012-1.37246-1.479c3.60966-4.09523,7.34572-8.29474,7.31248-13.55789-.04044-6.39611-5.71507-11.30335-7.83462-17.34974-2.88466-8.229,1.11832-17.04462,2.76476-25.59747a48.00524,48.00524,0,0,0-10.41037-39.52942c-1.66736-1.97019-3.60318-3.87577-6.08411-4.65777-3.77509-1.19-7.79016.46332-11.72325.949-12.98319,1.6033-24.79534-9.58367-37.84068-8.58217a7.03588,7.03588,0,0,0-2.51132.56218c-1.68809.80728-2.60326,2.58858-3.64674,4.12409-4.05159,5.96224-10.85669,8.92553-17.62676,11.988a9.21262,9.21262,0,0,0-2.40534,1.10294c-2.03327.94667-4.035,1.93361-5.924,3.05167-12.78224,7.56563-10.92812,18.151-3.39148,24.68948-1.47266,7.34-8.97643,13.80355-7.68367,21.34992,1.01346,5.91592,7.17395,9.94216,8.36063,15.82674.68924,3.41778-.39636,6.67471-1.90361,9.90759-14.30363,3.31015-30.46208,9.40623-31.72314,20.16422-2.19388,18.71589-8.79718,70.40566-8.79718,70.40566s-7.64972,41.41509,21.41922,21.837l-.37319,1.10211a240.91987,240.91987,0,0,0-10.66918,48.81711c-.29476,2.46881-.88641,4.41456-1.96216,5.0499-.39.23035.38146.59541,2.06049,1.052-.19.69661-.39449,1.38922-.57644,2.088a198.38911,198.38911,0,0,0-6.09685,36.97236,260.04785,260.04785,0,0,1-4.56686,32.9288c-6.88475,34.63808,0,79.06518,0,79.06518l15.02406,70.737,2.5703,12.09321a17.96865,17.96865,0,0,0,6.08952,4.39474,94.292,94.292,0,0,1,2.088,13.16526c.04076.49333.07359.99314.10543,1.49351a6.28179,6.28179,0,0,0-4.45812,2.78354c-5.35481,7.53.765,13.554-19.88928,28.61406-5.336,3.89076-7.90969,7.42827-8.56247,10.43361h0v.00009c-.70259,3.23487.82357,5.85125,3.54771,7.623l.00565.00359a12.91681,12.91681,0,0,0,1.445.80815l.02344.011q.3786.181.77636.34461l.0036.00147q.39891.16338.816.30852l.04818.01627q.39186.13519.79794.25407l.05818.01742q.42174.12195.85718.226c.02465.00593.04968.01121.07442.017q.39971.09382.80966.17217c.03539.0068.07041.01411.10589.02068q.43828.08161.88642.14574c.03235.00459.06508.00836.09753.01286q.40124.05529.80928.09569c.05169.00515.103.01085.15487.01567q.44718.04158.90071.06623c.03865.002.07759.00294.1163.00483q.40144.01916.8069.02394c.06341.00083.12658.002.19012.0023.30195.00133.60487-.00216.90906-.01259.03987-.00133.07989-.004.11981-.00556q.40333-.01593.80835-.04642c.07152-.00529.14291-.01034.21449-.01632.30316-.02528.60655-.05524.91-.09251.03609-.00442.07214-.01016.10823-.01476q.40759-.05211.81455-.11958c.07555-.01241.15105-.02473.22654-.03792.30162-.05262.60278-.10971.90281-.17469.0289-.0063.05761-.01365.08651-.02.27431-.06058.5474-.12745.81965-.19855.077-.02008.1537-.04026.23042-.06122.297-.081.593-.16632.8865-.26017l.04879-.0165c.27916-.09.5559-.18752.83114-.28927q.11129-.04116.222-.08351c.28958-.111.57756-.226.86167-.3503,13.7695-6.024,42.07347-21.83705,42.07347-21.83705l-.00037-.14395-.00042-.09633-.0008-.13953-.00084-.12524-.00177-.21937-.00187-.19615c-.00079-.07818-.00159-.15613-.00261-.24322l-.00294-.23086c-.00136-.10511-.00271-.20847-.00439-.32378-.00117-.07809-.00266-.164-.004-.24653-.002-.121-.00378-.23733-.00612-.36758q-.00567-.31237-.01293-.65769h0c-.14068-6.58021-.78986-21.69563-3.78583-21.10583-1.02065.20094-1.71446,1.63529-2.43032,3.28685-.11588-.2184-.2335-.44149-.35419-.67395-2.91576-5.62275-7.13286-15.27329-7.54406-24.7053a44.20726,44.20726,0,0,0,6.50371-5.76866s-1.5376-6.47584-2.84567-13.30558c-1.1322-5.91858-2.09607-12.10823-1.74416-14.55549.765-5.271-9.17967-45.9331-9.17967-45.9331s1.02508-8.94566,3.08286-21.37773c4.00079-24.16385,11.88-61.50517,23.63761-72.06227.27538-.241.54315-.4744.81853-.68521,0,0,8.41469,1.506,15.29944,48.94511l1.99657,21.12922a122.61829,122.61829,0,0,0,2.96809,17.36422,91.451,91.451,0,0,1,1.92009,27.77071c-.87208,12.45463-1.24691,27.1156-1.40757,37.40912-.12237,7.75591-.12237,13.042-.12237,13.042a28.87834,28.87834,0,0,0,4.58983,3.1714v6.90947a5.74882,5.74882,0,0,1-1.61025,3.92637l-.0268.02873a10.66486,10.66486,0,0,0-2.30967,4.24933c-1.33539,2.40373-2.46548,6.308-2.938,12.58777-1.52994,20.33105-2.29492,18.072-2.29492,18.072a26.80959,26.80959,0,0,0-1.73458,6.85579v0l0,.00073c-.04342.43956-.07083.88234-.07881,1.32594-.00126.06963-.00094.13916-.00122.20875q-.00111.30492.011.60777.00616.149.016.29717.01478.22509.03791.44774.02115.20282.04949.40339c.01368.09541.02769.1905.04408.285q.04678.27051.10893.535c.01858.07882.03926.15663.06.23453.04889.18412.10174.36644.16319.54463.01937.056.04174.11039.06242.16577q.09077.24391.199.47862c.02185.04734.0417.09574.06467.14248.08918.18186.18933.35752.29583.52945.02946.04757.05887.095.08974.14179a5.67085,5.67085,0,0,0,.36647.49558c.03067.037.06322.07275.095.10911a5.46261,5.46261,0,0,0,.461.473c.017.01535.03609.02928.05336.04444a5.63173,5.63173,0,0,0,.52882.40877c.02866.01967.0556.04053.08488.05979a6.11867,6.11867,0,0,0,.62929.3594c.043.02151.08591.043.12989.06375a6.95634,6.95634,0,0,0,.71852.29189c.04193.01434.08572.02721.1284.041a8.28482,8.28482,0,0,0,.85088.22907l.03063.00547c.29783.06154.61444.10841.944.14477.04552.00505.08927.01149.13545.016.3265.032.67084.04955,1.0291.05575.06658.00115.13353.002.20123.00221.3632.00119.741-.0097,1.13723-.036.06154-.00409.12551-.01039.18784-.01513.42124-.03226.85588-.07574,1.31517-.14031,16.06441-2.259,23.71414-3.765,22.94916-12.801-.46106-5.4463-1.75583-13.35457-2.71181-18.77844a28.23684,28.23684,0,0,0-2.64635-7.91906q.05994-.635.11047-1.30663c.27537-3.73491.26006-8.17759-.87208-11.152l.35251-6.59272a21.02015,21.02015,0,0,0,10.3571-6.20831s.11476-4.887.45135-11.36281c.50486-10.00738,1.51463-23.81745,3.37351-29.29928,3.05989-9.036,0-40.66209,0-40.66209s-11.47459-54.21613-.765-77.55918c9.44847-20.59108,9.36512-41.18906.27832-61.26513a3.09818,3.09818,0,0,0,.48666-.481s-2.29492-1.506-1.52995-18.825c.58382-13.21789-3.28563-26.86457-5.15212-32.59113a79.72651,79.72651,0,0,0,8.977,3.22406c17.59436,5.271,19.12431-14.307,19.12431-14.307L1017.105,335.956l4.53646-43.77388-.00042-.0017C1022.885,288.746,1024.55182,280.16843,1015.731,270.118Zm-77.76631-29.01515c-.02143.4846-.05439.96887-.10323,1.45076a19.4876,19.4876,0,0,1-.98068,4.57206,30.382,30.382,0,0,0,.94888-6.10808C937.87432,241.04658,937.91994,241.07415,937.96471,241.10288ZM984.21117,348.004c.27187.497.52965.98114.77818,1.45678l-1.932-.9862a43.26044,43.26044,0,0,1,3.44877-10.2596,72.6506,72.6506,0,0,0,4.6757-11.82081,118.02385,118.02385,0,0,0,.67911,14.07981C993.39083,352.522,984.21117,348.004,984.21117,348.004Z" transform="translate(-105.88296 -160.25)" fill="url(#ea70ace5-c99b-481d-ac97-2307e331f198)"/><path d="M919.34225,184.28705c-2.44545,1.66753-5.00136,3.59509-5.87166,6.42413-1.40363,4.56268,2.11921,9.14375,2.46763,13.90472.63358,8.65733-9.15673,15.812-7.71333,24.37166.98934,5.867,7.00327,9.85991,8.16172,15.69585,1.6895,8.5112-7.536,16.01691-6.81,24.66375.38672,4.60589,3.5899,8.51741,7.225,11.37218a35.16767,35.16767,0,0,0,17.64492,7.24044c-.42806-7.40408-5.91968-14.14052-4.9772-21.49684.64627-5.04427,4.1951-9.169,6.2483-13.82164,3.60492-8.16882,2.45163-17.62394.289-26.287S930.7225,209.12741,930.5654,200.2c-.09457-5.37353,2.42669-13.27233.57724-18.3713C928.89431,175.63,923.532,181.43011,919.34225,184.28705Z" transform="translate(-105.88296 -160.25)" fill="#3f3d56"/><path d="M919.34225,184.493c-2.44545,1.66754-5.00136,3.59509-5.87166,6.42413-1.40363,4.56268,2.11921,9.14376,2.46763,13.90473.63358,8.65733-9.15673,15.812-7.71333,24.37166.98934,5.867,7.00327,9.85991,8.16172,15.69584,1.6895,8.5112-7.536,16.01691-6.81,24.66375.38672,4.60589,3.5899,8.51741,7.225,11.37219a35.16776,35.16776,0,0,0,17.64492,7.24044c-.42806-7.40408-5.91968-14.14053-4.9772-21.49684.64627-5.04427,4.1951-9.169,6.2483-13.82164,3.60492-8.16882,2.45163-17.62394.289-26.287s-5.28421-17.22691-5.44131-26.15434c-.09457-5.37353,2.42669-13.27232.57724-18.3713C928.89431,175.836,923.532,181.6361,919.34225,184.493Z" transform="translate(-105.88296 -160.25)" opacity="0.1"/><path d="M926.49933,684.11231l-6.721,6.721s-23.89679,12.69517-20.90969-4.48064a61.80274,61.80274,0,0,0,.51528-15.4433,95.98483,95.98483,0,0,0-4.24915-21.14865L917.538,645.28c-3.72639,11.70942,2.41207,26.45074,6.243,33.95581C925.32689,682.26028,926.49933,684.11231,926.49933,684.11231Z" transform="translate(-105.88296 -160.25)" fill="#ffb9b9"/><path d="M977.38455,670.52848a68.31511,68.31511,0,0,1-.85133,6.86286s-18.66936,12.69517-20.16291-1.49355c-.9708-9.24507,1.22472-13.41956,2.88254-15.20431l.02616-.02848a5.74873,5.74873,0,0,0,1.572-3.8939V640.05262L977.28,645.28l-.74677,14.18871C977.63843,662.41852,977.65338,666.82446,977.38455,670.52848Z" transform="translate(-105.88296 -160.25)" fill="#ffb9b9"/><path d="M926.49933,684.11231l-6.721,6.721s-23.89679,12.69517-20.90969-4.48064a61.80274,61.80274,0,0,0,.51528-15.4433c5.23489-.76919,11.43311,4.98845,11.43311,4.98845,8.75218,12.35164,11.112,7.67682,12.964,3.33806C925.32689,682.26028,926.49933,684.11231,926.49933,684.11231Z" transform="translate(-105.88296 -160.25)" opacity="0.05"/><path d="M910.81706,677.39134s-10.45484-9.70807-15.68226-2.24032.74677,13.44194-19.41614,28.37743,0,24.64356,13.44194,18.66936,41.0726-21.65646,41.0726-21.65646,0-24.64356-3.73387-23.89678S923.51223,695.31393,910.81706,677.39134Z" transform="translate(-105.88296 -160.25)" fill="#3f3d56"/><path d="M977.38455,670.52848a68.31511,68.31511,0,0,1-.85133,6.86286s-18.66936,12.69517-20.16291-1.49355c-.9708-9.24507,1.22472-13.41956,2.88254-15.20431a4.46077,4.46077,0,0,1,4.5852-.478c2.9871-1.32928,6.27293.88866,8.99115,3.75625A26.39928,26.39928,0,0,1,977.38455,670.52848Z" transform="translate(-105.88296 -160.25)" opacity="0.05"/><path d="M963.83805,661.70908s-8.21452-4.48065-9.70807,15.68226-2.24032,17.92259-2.24032,17.92259-7.46774,17.92259,8.21452,15.68226,23.15-3.73387,22.40324-12.69516c-.45011-5.40124-1.71408-13.24409-2.64732-18.62312a27.38264,27.38264,0,0,0-7.028-14.2155C970.10727,662.59414,966.82515,660.38148,963.83805,661.70908Z" transform="translate(-105.88296 -160.25)" fill="#3f3d56"/><path d="M990.72194,566.12194s2.98709,31.36453,0,40.32582c-1.81466,5.4365-2.80041,19.13236-3.29326,29.057-.32858,6.42229-.44062,11.26885-.44062,11.26885-14.18871,14.93549-30.61775,0-30.61775,0s0-5.24237.11946-12.93414c.15684-10.2084.52275-24.74812,1.37409-37.09975a92.094,92.094,0,0,0-1.87441-27.541A123.369,123.369,0,0,1,953.092,551.978l-1.94907-20.95449c-6.721-47.04679-14.93549-48.54034-14.93549-48.54034-.26883.20907-.53023.44057-.79906.67954-11.47792,10.4698-19.16969,47.50232-23.0753,71.46633-2.00883,12.32926-3.00953,21.20094-3.00953,21.20094s9.70807,40.32582,8.9613,45.55324c-.34353,2.427.59741,8.56549,1.70267,14.43512,1.27695,6.77325,2.778,13.19554,2.778,13.19554-18.66937,20.16291-31.36453,4.48065-31.36453,4.48065l-2.50915-11.9932-14.66667-70.152s-6.721-44.05969,0-78.41132a261.77029,261.77029,0,0,0,4.45823-32.65648,199.61659,199.61659,0,0,1,5.95181-36.66661q1.36656-5.332,3.0319-10.58178s28.04138-4.87646,54.44731-4.87646c19.80448,0,38.683,2.74069,44.12693,12.3442q1.88185,3.31565,3.42024,6.64627c9.45414,20.31975,9.73792,41.19211.31363,62.057C979.52032,512.35418,990.72194,566.12194,990.72194,566.12194Z" transform="translate(-105.88296 -160.25)" fill="#3f3d56"/><path d="M927.99288,295.0428s-39.57905-40.32583-9.70807-37.33873c6.77325.67955,11.35846-.53022,14.39783-2.8004,3.465-2.58386,4.92122-6.54175,5.32446-10.67144.82148-8.2369-2.54648-17.14591-2.54648-17.14591s40.32583-32.11131,32.11131,8.21452a68.74694,68.74694,0,0,0-1.56821,12.46367c-.13446,8.558,2.68089,11.83635,6.63136,13.18054,6.66121,2.2777,16.56345-.911,21.07395,6.46709C1001.92355,280.85408,927.99288,295.0428,927.99288,295.0428Z" transform="translate(-105.88296 -160.25)" fill="#ffb9b9"/><path d="M927.99288,295.0428s-39.57905-40.32583-9.70807-37.33873c6.77325.67955,11.35846-.53022,14.39783-2.8004,3.465-2.58386,4.92122-6.54175,5.32446-10.67144.82148-8.2369-2.54648-17.14591-2.54648-17.14591s40.32583-32.11131,32.11131,8.21452a68.74694,68.74694,0,0,0-1.56821,12.46367c-.13446,8.558,2.68089,11.83635,6.63136,13.18054,6.66121,2.2777,16.56345-.911,21.07395,6.46709C1001.92355,280.85408,927.99288,295.0428,927.99288,295.0428Z" transform="translate(-105.88296 -160.25)" opacity="0.1"/><path d="M987.73484,215.8847a32.11131,32.11131,0,0,1-64.22261,0c0-.59741.01495-1.19487.05228-1.7848a32.10995,32.10995,0,0,1,64.17033,1.7848Z" transform="translate(-105.88296 -160.25)" fill="#ffb9b9"/><path d="M927.99288,295.0428s-39.57905-40.32583-9.70807-37.33873c6.77325.67955,11.35846-.53022,14.39783-2.8004-5.78007,9.58856-12.28445,26.8316,16.9667,25.20364,26.77185-1.48608,26.31632-12.15751,22.98574-19.16226,6.66121,2.2777,16.56345-.911,21.07395,6.46709C1001.92355,280.85408,927.99288,295.0428,927.99288,295.0428Z" transform="translate(-105.88296 -160.25)" opacity="0.05"/><path d="M990.72194,430.209c-6.79563,8.83431-93.42148-2.74812-106.08679-6.594q1.36656-5.332,3.0319-10.58178s28.04138-4.87646,54.44731-4.87646c19.80448,0,38.683,2.74069,44.12693,12.3442q1.88185,3.31565,3.42024,6.64627C990.13943,429.82064,990.72194,430.209,990.72194,430.209Z" transform="translate(-105.88296 -160.25)" opacity="0.1"/><path d="M936.2074,250.9831s-50.40728,4.10726-52.64761,23.5234c-2.14167,18.56114-8.5879,69.82341-8.5879,69.82341s-7.46775,41.0726,20.90968,21.65647l-.36433,1.093a242.19087,242.19087,0,0,0-10.41533,48.41343c-.28777,2.44837-.86535,4.378-1.9155,5.00811-3.73388,2.24033,100.06778,17.17582,107.53553,7.46775,0,0-2.24033-1.49355-1.49355-18.66936s-5.9742-35.09841-5.9742-35.09841-5.9742-17.92258,2.24032-35.0984,5.22743-22.40323,5.22743-22.40323l28.37743-21.65646s6.12844-10.50591-5.07516-23.47414a38.81153,38.81153,0,0,0-26.6722-13.14194l-19.57358-1.39231s21.45,23.0729-18.87587,25.31322S936.2074,250.9831,936.2074,250.9831Z" transform="translate(-105.88296 -160.25)" fill="#575a89"/><path d="M902.60254,292.0557s1.49355,11.94839-1.49354,15.68226-3.73388,20.90969,0,31.36453" transform="translate(-105.88296 -160.25)" opacity="0.05"/><path d="M935.40834,483.16274c-11.47792,10.4698-19.16969,47.50232-23.0753,71.46633-5.43654-33.3584,17.15339-88.57491,17.15339-88.57491Z" transform="translate(-105.88296 -160.25)" opacity="0.1"/><path d="M922.76546,649.01391c-18.66937,20.16291-31.36453,4.48065-31.36453,4.48065l-2.50915-11.9932c7.057,3.66664,18.983,6.51185,31.0957-5.683C921.26443,642.59162,922.76546,649.01391,922.76546,649.01391Z" transform="translate(-105.88296 -160.25)" opacity="0.1"/><path d="M987.42868,635.50474c-.32858,6.42229-.44062,11.26885-.44062,11.26885-14.18871,14.93549-30.61775,0-30.61775,0s0-5.24237.11946-12.93414C962.65066,637.75254,973.72534,642.06144,987.42868,635.50474Z" transform="translate(-105.88296 -160.25)" opacity="0.1"/><rect x="800.45345" y="157.19603" width="50.78067" height="20.90969" rx="3.75" fill="#cdd0db"/><rect x="800.45345" y="157.19603" width="50.78067" height="20.90969" rx="3.75" opacity="0.05"/><rect x="800.45345" y="157.94281" width="50.78067" height="20.90969" rx="3.75" fill="#3f3d56"/><circle cx="840.40589" cy="168.02426" r="2.24032" fill="#9da7c0"/><path d="M884.72411,350.55791a14.52273,14.52273,0,0,1,8.43648-8.88785,13.24085,13.24085,0,0,0,7.24336-6.50348c2.94537-6.51893,8.17279-13.2399,21.61473-8.75925s-3.73387,7.46774-3.73387,7.46774,30.61775-4.48065,18.66936,4.48065-26.88388,14.18871-26.88388,14.18871l-7.35421,7.78682a10.99157,10.99157,0,0,1-16.41677-.32582A9.51052,9.51052,0,0,1,884.72411,350.55791Z" transform="translate(-105.88296 -160.25)" opacity="0.05"/><path d="M883.97734,349.06436a14.5227,14.5227,0,0,1,8.43648-8.88785,13.2408,13.2408,0,0,0,7.24335-6.50348c2.94537-6.51893,8.1728-13.2399,21.61474-8.75925s-3.73388,7.46774-3.73388,7.46774,30.61776-4.48064,18.66937,4.48065-26.88389,14.18872-26.88389,14.18872l-7.35421,7.78681a10.99157,10.99157,0,0,1-16.41677-.32582A9.51054,9.51054,0,0,1,883.97734,349.06436Z" transform="translate(-105.88296 -160.25)" fill="#ffb9b9"/><path d="M989.22839,364.49283,984.001,377.188l-6.69111-4.92126-18.69922-13.7481-12.69516-8.21452c-17.92259-13.44194,0-15.68226,0-15.68226-6.721-2.9871,0-5.9742,0-5.9742,23.89678-5.22742,19.41613,14.18872,19.41613,14.18872l15.13714,7.8486,5.02577,2.60624Z" transform="translate(-105.88296 -160.25)" opacity="0.05"/><path d="M990.72194,362.99928l-5.22743,12.69516-6.69111-4.92126-18.69922-13.7481L947.409,348.81056c-17.92258-13.44194,0-15.68226,0-15.68226-6.721-2.9871,0-5.9742,0-5.9742,23.89679-5.22742,19.41614,14.18872,19.41614,14.18872l15.13714,7.8486,5.02577,2.60624Z" transform="translate(-105.88296 -160.25)" fill="#ffb9b9"/><path d="M990.72194,362.99928l-5.22743,12.69516-6.69111-4.92126c6.05637.21659,13.21044-2.7108,3.15889-21.58176l5.02577,2.60624Z" transform="translate(-105.88296 -160.25)" opacity="0.05"/><path d="M1018.35259,287.575l1.44146,5.87527-4.42856,43.41185-3.73387,29.12421s-1.49355,19.41613-18.66936,14.18871-18.66936-10.45484-18.66936-10.45484,24.64355,8.21452,8.96129-20.90969c0,0,8.96129,4.48065,7.46775-7.46774s0-32.85808,0-32.85808Z" transform="translate(-105.88296 -160.25)" fill="#575a89"/><path d="M987.73484,215.8847a32.11613,32.11613,0,0,1-25.00947,31.31972c-1.07536-3.1066-1.83708-6.19821-1.053-9.34215,1.516-6.10114,8.55805-10.55193,7.774-16.78748a4.13664,4.13664,0,0,0-.70945-1.95659c-1.57568-2.076-4.7868-1.04546-7.3408-.53018a13.96841,13.96841,0,0,1-15.62251-9.63341,21.8248,21.8248,0,0,1-22.20907,5.14529,32.10995,32.10995,0,0,1,64.17033,1.7848Z" transform="translate(-105.88296 -160.25)" opacity="0.05"/><path d="M946.52384,207.46336a13.95619,13.95619,0,0,0,15.6156,9.62952c2.5563-.51026,5.76607-1.54153,7.34188.535a4.035,4.035,0,0,1,.70847,1.94986c.78984,6.23968-6.2529,10.68781-7.76981,16.79161-1.56206,6.28541,3.0172,12.35622,3.992,18.759.53324,3.50259-.0306,7.07063.0096,10.61334s.83569,7.34862,3.462,9.72669,7.4807,2.40206,9.24018-.67311c8.40293,4.4402,5.0476,18.203,11.42828,25.2465,3.51923,3.88484,9.30844,4.81913,14.5266,4.32143a6.12723,6.12723,0,0,0,3.41465-1.102,5.9344,5.9344,0,0,0,1.67009-3.13963,25.4709,25.4709,0,0,0-.65029-15.10526c-.838-2.31977-2.03818-4.66518-1.72757-7.112a10.52888,10.52888,0,0,1,2.59014-5.07553c4.01189-4.9736,9.48711-9.78274,9.44734-16.17261-.03948-6.34325-5.57908-11.20988-7.64823-17.2063-2.81605-8.16089,1.09173-16.90362,2.699-25.38577a48.15685,48.15685,0,0,0-10.16273-39.2025c-1.6277-1.95389-3.51745-3.84371-5.93935-4.61928-3.68529-1.18015-7.60486.45952-11.4444.9412-12.67433,1.59-24.20548-9.50443-36.94048-8.51122a6.77869,6.77869,0,0,0-2.45161.55757c-1.64793.80056-2.54132,2.56715-3.55995,4.09-5.62152,8.404-16.67361,10.7988-25.3386,16.009C893.73141,198.54478,927.17086,226.08905,946.52384,207.46336Z" transform="translate(-105.88296 -160.25)" fill="#3f3d56"/><path d="M889.1606,719.21071c-8.72692,3.87864-20.28242,1.1456-21.80072-5.33494-1.82942,8.55618,11.83148,12.75283,21.80072,8.322,13.44194-5.97419,41.0726-21.65646,41.0726-21.65646s-.00009-1.15995-.0381-2.96549C929.39044,698.0322,902.40154,713.32585,889.1606,719.21071Z" transform="translate(-105.88296 -160.25)" fill="#fff" opacity="0.3"/><path d="M982.46872,697.87135c-.86109,6.71814-8.31243,8.13029-22.36454,10.13775-7.14623,1.02089-9.47871-2.14712-9.90784-5.89612-.46715,4.80171.89655,10.17056,9.90784,8.88321,15.68227-2.24032,23.15-3.73387,22.40324-12.69516C982.49579,698.1616,982.48139,698.014,982.46872,697.87135Z" transform="translate(-105.88296 -160.25)" fill="#fff" opacity="0.3"/><g opacity="0.1"><path d="M1008.06516,301.07253c-5.21817.49768-11.00736-.43661-14.5266-4.32144-6.38067-7.04354-3.02534-20.80631-11.42829-25.24649-1.75946,3.07516-6.6139,3.05119-9.24014.67308s-3.42179-6.184-3.462-9.72667.52367-7.11077-.00957-10.61337c-.97476-6.40282-5.554-12.4736-3.992-18.759,1.51693-6.10383,8.55965-10.552,7.7698-16.79163a4.0347,4.0347,0,0,0-.70844-1.94984c-1.57582-2.07651-4.78562-1.04523-7.3419-.535a13.9562,13.9562,0,0,1-15.61558-9.62954c-17.29915,16.64906-45.84737-3.59148-33.63986-18.9427-19.04908,15.48131,12.20282,39.68639,30.65276,21.9298a13.9562,13.9562,0,0,0,15.61558,9.62954c2.55628-.51027,5.76608-1.54155,7.3419.535a4.03489,4.03489,0,0,1,.70845,1.94985c.78984,6.23965-6.25287,10.6878-7.7698,16.79162-1.56206,6.28542,3.01722,12.35619,3.992,18.759.53324,3.5026-.03058,7.07066.00958,10.61337s.8357,7.3486,3.462,9.72666,7.48069,2.40209,9.24015-.67307c8.40294,4.44017,5.04761,18.203,11.42828,25.24649,3.51924,3.88483,9.30843,4.81912,14.5266,4.32143a6.12751,6.12751,0,0,0,3.41468-1.102,4.86556,4.86556,0,0,0,1.3785-2.18622A10.46812,10.46812,0,0,1,1008.06516,301.07253Z" transform="translate(-105.88296 -160.25)"/><path d="M947.36179,164.0291c.25652-.3835.50525-.78241.75994-1.17754-.0618.02643-.12643.04521-.1871.07466-1.64793.8006-2.54133,2.56717-3.55994,4.09q-.52556.7857-1.11273,1.5034A21.34621,21.34621,0,0,0,947.36179,164.0291Z" transform="translate(-105.88296 -160.25)"/></g><path d="M906.33642,372.93479s-1.93248,6.721,10.76269,9.70807S906.33642,372.93479,906.33642,372.93479Z" transform="translate(-105.88296 -160.25)" opacity="0.1"/><path d="M900.77842,392.84878s-6.481,4.72957,9.15154,12.94409S900.77842,392.84878,900.77842,392.84878Z" transform="translate(-105.88296 -160.25)" opacity="0.1"/><path d="M886.23243,471.758s17.59421-4.9785,19.99872-12.44624S886.23243,471.758,886.23243,471.758Z" transform="translate(-105.88296 -160.25)" opacity="0.1"/><path d="M886.23243,566.34939s7.57987,3.73387,12.37784,3.236S886.23243,566.34939,886.23243,566.34939Z" transform="translate(-105.88296 -160.25)" opacity="0.1"/><path d="M888.89178,576.80423s3.427,1.74247,9.71849,1.9914S888.89178,576.80423,888.89178,576.80423Z" transform="translate(-105.88296 -160.25)" opacity="0.1"/><path d="M1017.60543,605.45005a15.5288,15.5288,0,1,0,2.068-29.78188l.38868,7.99268-3.78148-6.8498a15.47027,15.47027,0,0,0-7.97139,8.74657,15.22775,15.22775,0,0,0-.89321,4.2006A15.52586,15.52586,0,0,0,1017.60543,605.45005Z" transform="translate(-105.88296 -160.25)" fill="#57b894"/><path d="M1036.31634,698.15153c-1.33487-6.79742,4.44939-12.82355,10.16291-16.74051s12.38944-7.76554,14.3389-14.41283c2.80172-9.55332-5.54375-18.30237-12.03926-25.84718a93.48983,93.48983,0,0,1-12.3287-18.32295,25.22231,25.22231,0,0,1-2.94886-8.33146c-.51215-4.23462.8483-8.44847,2.21891-12.48774q6.8489-20.184,14.64532-40.0298" transform="translate(-105.88296 -160.25)" fill="none" stroke="#3f3d56" stroke-miterlimit="10"/><path d="M1018.245,603.39227a15.5288,15.5288,0,1,0,2.068-29.78187l.38868,7.99267-3.78148-6.84979a15.47022,15.47022,0,0,0-7.97139,8.74656,15.22791,15.22791,0,0,0-.89321,4.2006A15.52585,15.52585,0,0,0,1018.245,603.39227Z" transform="translate(-105.88296 -160.25)" fill="none" stroke="#3f3d56" stroke-miterlimit="10"/><path d="M1034.41834,559.21886a15.51067,15.51067,0,0,1,11.17694-9.84713l1.27858,7.59841,2.37047-7.98034a15.52689,15.52689,0,1,1-14.826,10.22906Z" transform="translate(-105.88296 -160.25)" fill="#57b894"/><path d="M1035.271,556.47516A15.51068,15.51068,0,0,1,1046.448,546.628l1.27857,7.59841,2.37047-7.98034a15.52689,15.52689,0,1,1-14.826,10.22906Z" transform="translate(-105.88296 -160.25)" fill="none" stroke="#3f3d56" stroke-miterlimit="10"/><path d="M1046.053,641.305a15.52693,15.52693,0,0,0,13.743-27.62365l-1.82146,6.13262-1.29158-7.688a.27155.27155,0,0,0-.03953-.015,15.52776,15.52776,0,1,0-10.59039,29.194Z" transform="translate(-105.88296 -160.25)" fill="#57b894"/><path d="M1046.79183,638.52592a15.52693,15.52693,0,0,0,13.743-27.62365l-1.82145,6.13262-1.29159-7.688a.27093.27093,0,0,0-.03952-.015,15.52776,15.52776,0,1,0-10.59039,29.194Z" transform="translate(-105.88296 -160.25)" fill="none" stroke="#3f3d56" stroke-miterlimit="10"/><path d="M1029.88671,667.09315a15.52043,15.52043,0,1,0,2.9924-12.15992l6.9186,10.41337-9.4534-5.52709A15.38252,15.38252,0,0,0,1029.88671,667.09315Z" transform="translate(-105.88296 -160.25)" fill="#57b894"/><path d="M1030.52623,665.03538a15.52042,15.52042,0,1,0,2.9924-12.15993l6.9186,10.41337-9.4534-5.52708A15.38252,15.38252,0,0,0,1030.52623,665.03538Z" transform="translate(-105.88296 -160.25)" fill="none" stroke="#3f3d56" stroke-miterlimit="10"/><path d="M1014.75665,707.35881s13.703-5.37011,17.83272-8.31084,21.07863-6.45212,22.10312-1.73584,20.593,23.45665,5.12244,23.58144-35.94679,2.53829-40.06858.02754S1014.75665,707.35881,1014.75665,707.35881Z" transform="translate(-105.88296 -160.25)" fill="#656380"/><path d="M1060.091,719.25181c-15.4706.12482-35.94678,2.53831-40.06857.02756-3.139-1.91207-4.38981-8.773-4.80833-11.9384-.28985.01246-.45746.01783-.45746.01783s.86791,11.05155,4.9897,13.5623,24.598.09727,40.06858-.02755c4.46574-.036,6.00829-1.62487,5.92359-3.97809C1065.11814,718.33722,1063.41494,719.225,1060.091,719.25181Z" transform="translate(-105.88296 -160.25)" opacity="0.2"/></svg>