<svg width="803" height="711" viewBox="0 0 803 711" fill="none" xmlns="http://www.w3.org/2000/svg">
<g clip-path="url(#clip0)">
<path d="M169.846 710.172L709.643 520.955L556.153 83.0781L0 254.625L169.846 710.172Z" fill="white"/>
<path d="M70.9995 707.625H719V709.625H70.9995V707.625Z" fill="#2F2E41"/>
<path d="M171.416 709.144L173.614 708.009C145.069 652.823 160.333 581.155 178.164 530.752C190.271 496.873 205.714 464.281 224.265 433.456L222.174 432.135C203.527 463.117 188.004 495.875 175.833 529.926C157.838 580.79 142.466 653.173 171.416 709.144Z" fill="#2F2E41"/>
<path d="M150.247 432.576L166.292 520.386L163.86 520.83L147.814 433.02L150.247 432.576Z" fill="#2F2E41"/>
<path d="M256.94 507.39L258.751 509.076L175.894 598.117L174.082 596.432L256.94 507.39Z" fill="#2F2E41"/>
<path d="M107.983 605.199L150.011 663.338L148.006 664.787L105.978 606.649L107.983 605.199Z" fill="#2F2E41"/>
<path d="M277.632 504.523C270.802 504.523 265.265 498.986 265.265 492.156C265.265 485.326 270.802 479.789 277.632 479.789C284.462 479.789 289.999 485.326 289.999 492.156C289.999 498.986 284.462 504.523 277.632 504.523Z" fill="#3F3D56"/>
<path d="M223.219 516.89C216.389 516.89 210.852 511.353 210.852 504.523C210.852 497.693 216.389 492.156 223.219 492.156C230.049 492.156 235.586 497.693 235.586 504.523C235.586 511.353 230.049 516.89 223.219 516.89Z" fill="#3F3D56"/>
<path d="M247.952 565.121C241.122 565.121 235.585 559.584 235.585 552.754C235.585 545.924 241.122 540.387 247.952 540.387C254.782 540.387 260.319 545.924 260.319 552.754C260.319 559.584 254.782 565.121 247.952 565.121Z" fill="#F2F2F2"/>
<path d="M93.3668 596.038C86.5367 596.038 80.9999 590.501 80.9999 583.671C80.9999 576.841 86.5367 571.304 93.3668 571.304C100.197 571.304 105.734 576.841 105.734 583.671C105.734 590.501 100.197 596.038 93.3668 596.038Z" fill="#3F3D56"/>
<path d="M134.177 609.641C127.347 609.641 121.81 604.105 121.81 597.275C121.81 590.445 127.347 584.908 134.177 584.908C141.007 584.908 146.544 590.445 146.544 597.275C146.544 604.105 141.007 609.641 134.177 609.641Z" fill="#F2F2F2"/>
<path d="M105.734 649.215C98.9037 649.215 93.3668 643.678 93.3668 636.848C93.3668 630.018 98.9037 624.481 105.734 624.481C112.564 624.481 118.101 630.018 118.101 636.848C118.101 643.678 112.564 649.215 105.734 649.215Z" fill="#3F3D56"/>
<path d="M235.586 424.139C228.756 424.139 223.219 418.602 223.219 411.772C223.219 404.942 228.756 399.405 235.586 399.405C242.416 399.405 247.953 404.942 247.953 411.772C247.953 418.602 242.416 424.139 235.586 424.139Z" fill="#3F3D56"/>
<path d="M156.922 554.63L158.666 552.875C114.556 509.118 107.08 436.225 108.574 382.782C109.696 346.822 114.386 311.063 122.577 276.031L120.182 275.416C111.948 310.626 107.231 346.568 106.102 382.711C104.593 436.644 112.187 510.25 156.922 554.63Z" fill="#2F2E41"/>
<path d="M51.8652 297.912L94.0945 376.556L91.9161 377.725L49.6868 299.082L51.8652 297.912Z" fill="#2F2E41"/>
<path d="M176.374 336.363L178.615 337.411L127.097 447.591L124.855 446.543L176.374 336.363Z" fill="#2F2E41"/>
<path d="M64.6388 475.181L122.486 517.608L121.023 519.603L63.1758 477.176L64.6388 475.181Z" fill="#2F2E41"/>
<path d="M33.8655 278.638C27.0355 278.638 21.4987 273.101 21.4987 266.271C21.4987 259.441 27.0355 253.904 33.8655 253.904C40.6956 253.904 46.2324 259.441 46.2324 266.271C46.2324 273.101 40.6956 278.638 33.8655 278.638Z" fill="#F2F2F2"/>
<path d="M191.39 327.878C184.559 327.878 179.023 322.341 179.023 315.511C179.023 308.681 184.559 303.145 191.39 303.145C198.22 303.145 203.756 308.681 203.756 315.511C203.756 322.341 198.22 327.878 191.39 327.878Z" fill="#3F3D56"/>
<path d="M143.4 356.354C136.57 356.354 131.033 350.817 131.033 343.987C131.033 337.157 136.57 331.62 143.4 331.62C150.23 331.62 155.767 337.157 155.767 343.987C155.767 350.817 150.23 356.354 143.4 356.354Z" fill="#3F3D56"/>
<path d="M181.748 394.662C174.918 394.662 169.381 389.125 169.381 382.295C169.381 375.465 174.918 369.928 181.748 369.928C188.578 369.928 194.115 375.465 194.115 382.295C194.115 389.125 188.578 394.662 181.748 394.662Z" fill="#F2F2F2"/>
<path d="M44.1193 471.546C37.2892 471.546 31.7524 466.009 31.7524 459.179C31.7524 452.349 37.2892 446.812 44.1193 446.812C50.9493 446.812 56.4861 452.349 56.4861 459.179C56.4861 466.009 50.9493 471.546 44.1193 471.546Z" fill="#3F3D56"/>
<path d="M87.1361 471.963C80.3061 471.963 74.7692 466.426 74.7692 459.596C74.7692 452.766 80.3061 447.229 87.1361 447.229C93.9661 447.229 99.5029 452.766 99.5029 459.596C99.5029 466.426 93.9661 471.963 87.1361 471.963Z" fill="#3F3D56"/>
<path d="M72.2159 518.359C65.3859 518.359 59.849 512.822 59.849 505.992C59.849 499.162 65.3859 493.625 72.2159 493.625C79.0459 493.625 84.5828 499.162 84.5828 505.992C84.5828 512.822 79.0459 518.359 72.2159 518.359Z" fill="#3F3D56"/>
<path d="M126.694 264.285C119.864 264.285 114.327 258.748 114.327 251.918C114.327 245.088 119.864 239.552 126.694 239.552C133.524 239.552 139.061 245.088 139.061 251.918C139.061 258.748 133.524 264.285 126.694 264.285Z" fill="#3F3D56"/>
<path d="M518.402 109.044C523.033 104.856 525.921 99.0808 526.494 92.8634C527.067 86.646 525.282 80.4403 521.495 75.4766C521.996 75.9466 522.486 76.4346 522.955 76.9535C527.384 81.8519 529.686 88.3091 529.354 94.9045C529.022 101.5 526.084 107.693 521.185 112.122C516.287 116.551 509.83 118.853 503.234 118.521C496.639 118.189 490.445 115.251 486.016 110.352C485.547 109.833 485.111 109.297 484.694 108.751C489.252 113.018 495.247 115.416 501.491 115.47C507.734 115.524 513.77 113.231 518.402 109.044V109.044Z" fill="#2F2E41"/>
<path d="M520.736 115.012C492.414 115.012 469.454 92.0529 469.454 63.731C469.454 35.4091 492.414 12.4497 520.736 12.4497C549.057 12.4497 572.017 35.4091 572.017 63.731C572.017 92.0529 549.057 115.012 520.736 115.012Z" fill="#2F2E41"/>
<path d="M658.869 695.114C658.869 695.114 672.505 708.749 658.869 708.749C645.234 708.749 632.191 699.857 632.191 699.857L658.869 695.114Z" fill="#2F2E41"/>
<path d="M460.538 686.568C460.538 686.568 464.312 705.479 452.97 697.911C441.627 690.342 435.714 675.706 435.714 675.706L460.538 686.568Z" fill="#2F2E41"/>
<path d="M607.885 243.957L616.778 264.706L671.32 337.034C671.32 337.034 708.669 377.348 687.92 379.719C667.17 382.09 653.535 342.369 653.535 342.369L589.507 278.935L582.393 249.885L607.885 243.957Z" fill="#FFB8B8"/>
<path d="M580.614 159.772L589.208 162.178C589.208 162.178 622.706 221.429 619.149 233.878C615.592 246.328 599.585 261.742 592.471 260.557C585.357 259.371 580.614 159.772 580.614 159.772Z" fill="#2F2E41"/>
<path d="M553.342 95.7449C553.342 95.7449 544.45 132.501 550.971 139.616C557.492 146.73 571.721 152.065 571.721 152.065L569.349 218.464C569.349 218.464 542.078 208.979 540.893 207.793C539.707 206.607 515.4 168.072 515.4 168.072L491.686 145.544C491.686 145.544 527.85 128.352 517.179 98.7091C506.507 69.0667 553.342 95.7449 553.342 95.7449Z" fill="#FFB8B8"/>
<path d="M531.407 109.38C514.381 109.38 500.579 95.5781 500.579 78.5522C500.579 61.5263 514.381 47.7241 531.407 47.7241C548.433 47.7241 562.235 61.5263 562.235 78.5522C562.235 95.5781 548.433 109.38 531.407 109.38Z" fill="#FFB8B8"/>
<path d="M566.385 149.101C566.385 149.101 588.321 155.03 589.506 163.329C590.692 171.629 589.506 188.822 591.285 192.379C593.063 195.936 598.399 201.272 596.028 223.8C593.656 246.328 594.842 259.964 594.842 259.964C594.842 259.964 715.19 684.443 672.505 696.892C629.82 709.342 566.978 695.707 567.571 687.407C568.164 679.107 578.835 514.888 578.835 514.888C578.835 514.888 516.586 733.056 439.516 682.071C362.446 631.086 379.638 621.601 386.752 618.044C393.867 614.486 501.172 445.525 500.579 414.104C499.986 382.683 501.765 284.27 514.807 269.449C514.807 269.449 501.172 224.393 494.651 218.464C488.129 212.536 472.122 156.808 472.122 156.808C472.122 156.808 482.201 143.173 490.501 143.173C498.801 143.173 506.508 146.137 515.993 155.03C525.479 163.922 560.457 207.2 560.457 207.2C560.457 207.2 571.721 157.401 566.385 149.101Z" fill="#2F2E41"/>
<path d="M531.704 68.7703C517.297 68.7703 505.618 60.8075 505.618 50.9849C505.618 41.1623 517.297 33.1995 531.704 33.1995C546.11 33.1995 557.789 41.1623 557.789 50.9849C557.789 60.8075 546.11 68.7703 531.704 68.7703Z" fill="#2F2E41"/>
<path d="M487.241 49.7992C473.489 49.7992 462.341 38.6513 462.341 24.8996C462.341 11.1479 473.489 0 487.241 0C500.992 0 512.14 11.1479 512.14 24.8996C512.14 38.6513 500.992 49.7992 487.241 49.7992Z" fill="#2F2E41"/>
<path d="M469.455 42.685C475.699 42.6841 481.714 40.3373 486.309 36.1097C490.904 31.8821 493.742 26.0824 494.262 19.8604C494.319 20.5452 494.355 21.2359 494.355 21.9354C494.355 28.5391 491.731 34.8724 487.062 39.542C482.392 44.2116 476.059 46.835 469.455 46.835C462.851 46.835 456.518 44.2116 451.848 39.542C447.179 34.8724 444.556 28.5391 444.556 21.9354C444.556 21.2359 444.592 20.5453 444.648 19.8604C445.168 26.0824 448.006 31.8821 452.601 36.1097C457.196 40.3373 463.211 42.6841 469.455 42.685V42.685Z" fill="#2F2E41"/>
<path d="M680.261 251.001H802.884V373.625H680.261V251.001Z" fill="#3F3D56"/>
<path d="M722.202 314.026C722.202 314.026 737.715 316.242 742.886 330.277C748.056 344.312 752.489 356.131 761.353 353.915C770.217 351.699 765.046 323.629 765.046 323.629C765.046 323.629 783.514 325.845 784.252 319.196C784.864 313.692 784.463 292.489 784.307 285.357C784.274 282.471 783.388 279.659 781.759 277.276C780.609 275.532 778.972 274.165 777.051 273.344C775.131 272.523 773.011 272.285 770.956 272.659C766.858 273.17 762.729 273.386 758.6 273.305C751.2 273.21 743.936 275.298 737.715 279.307V279.307L722.202 280.046L722.202 314.026Z" fill="#F2F2F2"/>
<path d="M730.328 324.367H698.564V270.443H730.328V324.367Z" fill="#D6292F"/>
<path d="M751.966 344.177C750.899 344.175 749.838 344.328 748.814 344.63L749.025 345.338C750.427 344.921 751.902 344.802 753.353 344.99C754.804 345.178 756.199 345.668 757.449 346.428C758.699 347.189 759.775 348.203 760.608 349.406C761.442 350.608 762.014 351.972 762.287 353.41L763.013 353.272C762.527 350.703 761.156 348.385 759.137 346.723C757.119 345.061 754.581 344.16 751.966 344.177V344.177Z" fill="#3F3D56"/>
<path d="M362.115 404.625H484.738V527.248H362.115V404.625Z" fill="#3F3D56"/>
<path d="M442.798 464.224C442.798 464.224 427.285 462.008 422.114 447.972C416.943 433.937 412.511 422.118 403.647 424.334C394.783 426.55 399.953 454.621 399.953 454.621C399.953 454.621 381.486 452.405 380.747 459.053C380.136 464.557 380.537 485.76 380.693 492.892C380.726 495.778 381.612 498.59 383.24 500.974C384.391 502.717 386.028 504.085 387.948 504.905C389.869 505.726 391.989 505.964 394.044 505.591C398.142 505.08 402.271 504.864 406.4 504.944C413.8 505.039 421.064 502.951 427.285 498.942L442.798 498.204V464.224Z" fill="#F2F2F2"/>
<path d="M434.672 507.807H466.436V453.882H434.672V507.807Z" fill="#45D391"/>
<path d="M413.034 434.072C414.101 434.074 415.162 433.921 416.185 433.619L415.975 432.911C414.572 433.328 413.098 433.447 411.647 433.259C410.196 433.072 408.801 432.582 407.551 431.821C406.301 431.06 405.225 430.046 404.391 428.843C403.558 427.641 402.986 426.277 402.713 424.84L401.987 424.977C402.472 427.547 403.844 429.864 405.862 431.526C407.881 433.188 410.419 434.089 413.034 434.072V434.072Z" fill="#3F3D56"/>
<path d="M470.345 238.621L473.309 271.821L467.38 371.419C467.38 371.419 453.745 421.811 474.494 420.625C495.244 419.44 487.537 367.862 487.537 367.862L497.023 252.257L470.345 238.621Z" fill="#FFB8B8"/>
<path d="M487.537 148.508L472.123 156.808C472.123 156.808 451.373 229.136 463.23 242.771C475.087 256.407 499.394 261.742 500.579 256.407C501.765 251.071 505.915 211.35 505.915 211.35L487.537 148.508Z" fill="#2F2E41"/>
</g>
<defs>
<clipPath id="clip0">
<rect width="802.884" height="710.172" fill="white"/>
</clipPath>
</defs>
</svg>
