<?xml version="1.0" encoding="UTF-8" standalone="no"?>
<svg
   xmlns:dc="http://purl.org/dc/elements/1.1/"
   xmlns:cc="http://creativecommons.org/ns#"
   xmlns:rdf="http://www.w3.org/1999/02/22-rdf-syntax-ns#"
   xmlns:svg="http://www.w3.org/2000/svg"
   xmlns="http://www.w3.org/2000/svg"
   xmlns:sodipodi="http://sodipodi.sourceforge.net/DTD/sodipodi-0.dtd"
   xmlns:inkscape="http://www.inkscape.org/namespaces/inkscape"
   id="b13b70b1-aa4f-457d-9f62-b44ed99594ac"
   data-name="Layer 1"
   width="846.02039"
   height="638.14148"
   viewBox="0 0 846.02036 638.14148"
   version="1.1"
   sodipodi:docname="_no-markets.svg"
   inkscape:version="0.92.4 5da689c313, 2019-01-14">
  <metadata
     id="metadata73">
    <rdf:RDF>
      <cc:Work
         rdf:about="">
        <dc:format>image/svg+xml</dc:format>
        <dc:type
           rdf:resource="http://purl.org/dc/dcmitype/StillImage" />
        <dc:title>social thinking</dc:title>
      </cc:Work>
    </rdf:RDF>
  </metadata>
  <defs
     id="defs71" />
  <sodipodi:namedview
     pagecolor="#ffffff"
     bordercolor="#666666"
     borderopacity="1"
     objecttolerance="10"
     gridtolerance="10"
     guidetolerance="10"
     inkscape:pageopacity="0"
     inkscape:pageshadow="2"
     inkscape:window-width="2560"
     inkscape:window-height="1360"
     id="namedview69"
     showgrid="false"
     fit-margin-top="0"
     fit-margin-left="0"
     fit-margin-right="0"
     fit-margin-bottom="0"
     inkscape:zoom="1.3230002"
     inkscape:cx="451.82786"
     inkscape:cy="312.23078"
     inkscape:window-x="1920"
     inkscape:window-y="0"
     inkscape:window-maximized="1"
     inkscape:current-layer="b13b70b1-aa4f-457d-9f62-b44ed99594ac" />
  <title
     id="title2">social thinking</title>
  <path
     d="m 93.4835,604.48779 c 0,22.46856 -13.35644,30.31375 -29.83388,30.31375 q -0.57256,0 -1.14331,-0.0127 c -0.76345,-0.0164 -1.51962,-0.0527 -2.26669,-0.10361 -14.87057,-1.05244 -26.42387,-9.30115 -26.42387,-30.19741 0,-21.62514 27.63446,-48.91242 29.71026,-50.93189 l 0.004,-0.004 c 0.08,-0.0782 0.12,-0.11633 0.12,-0.11633 0,0 29.83385,28.58329 29.83385,51.05185 z"
     id="path4"
     inkscape:connector-curvature="0"
     style="fill:#45d391" />
  <path
     d="m 62.56264,631.36426 10.91163,-15.24683 -10.9389,16.92094 -0.0291,1.75044 c -0.76345,-0.0164 -1.51962,-0.0527 -2.26669,-0.10361 l 1.17607,-22.47946 -0.009,-0.1745 0.02,-0.0327 0.11088,-2.12307 -10.96619,-16.96276 11.0007,15.37045 0.0255,0.45079 0.88883,-16.98456 -9.38839,-17.52807 9.50291,14.547 0.9252,-35.21244 0.004,-0.12 v 0.11633 l -0.1545,27.76715 9.34661,-11.008 -9.38478,13.40006 -0.2472,15.20685 8.72677,-14.59429 -8.76312,16.83189 -0.13814,8.4541 12.66934,-20.31277 -12.7166,23.2629 z"
     id="path6"
     inkscape:connector-curvature="0"
     style="fill:#3f3d56" />
  <path
     d="m 733.09095,319 c 0,176.17883 -79.99182,315.16327 -178.5,319 -128.46253,5.00342 -296.35675,-123.08576 -178.5,-319 90.81781,-150.96723 79.91717,-319 178.5,-319 98.58283,0 178.5,142.82116 178.5,319 z"
     id="path8"
     inkscape:connector-curvature="0"
     style="fill:#f2f2f2" />
  <rect
     x="374.94699"
     y="412.66043"
     width="254.51357"
     height="221.02495"
     id="rect10"
     style="fill:#45d391" />
  <line
     y1="633.68536"
     x2="846.02039"
     y2="633.68536"
     stroke-miterlimit="10"
     id="line12"
     x1="0"
     style="fill:none;stroke:#3f3d56;stroke-width:2;stroke-miterlimit:10" />
  <path
     d="m 537.44635,192.73029 c 0,0 42.34638,1.15129 49.34015,3.69575 6.99377,2.54446 10.12111,20.7396 10.12111,20.7396 l -32.87919,10.33437 -24.59189,-1.393 -18.50788,1.30782 10.33421,-27.06532 z"
     id="path26"
     inkscape:connector-curvature="0"
     style="fill:#2f2e41" />
  <path
     d="m 539.27293,178.83515 c 0,0 2.78616,10.76072 -3.39733,18.38 -6.18349,7.61928 26.58208,34.76969 26.58208,34.76969 l 17.28539,-2.971 c 0,0 -3.8097,-33.064 1.30766,-41.43662 5.11736,-8.37262 -41.7778,-8.74207 -41.7778,-8.74207 z"
     id="path28"
     inkscape:connector-curvature="0"
     style="fill:#9f616a" />
  <path
     d="m 539.27293,178.83515 c 0,0 2.78616,10.76072 -3.39733,18.38 -6.18349,7.61928 26.58208,34.76969 26.58208,34.76969 l 17.28539,-2.971 c 0,0 -3.8097,-33.064 1.30766,-41.43662 5.11736,-8.37262 -41.7778,-8.74207 -41.7778,-8.74207 z"
     id="path30"
     inkscape:connector-curvature="0"
     style="opacity:0.1" />
  <polygon
     points="642.119,634.616 677.941,576.007 654.23,568.843 616.092,619.42 "
     id="polygon32"
     style="fill:#9f616a"
     transform="translate(0,-75.38823)" />
  <path
     d="m 627.47779,544.88445 c 0,0 -14.04443,-16.31874 -13.419,-12.67971 0.62543,3.63903 -9.993,34.49974 -0.11362,37.48486 9.87938,2.98512 94.60062,10.90262 95.76622,1.33594 1.1656,-9.56668 -25.27421,-16.26185 -25.27421,-16.26185 0,0 -15.70758,-15.09625 -19.19024,-13.561 -3.48266,1.53525 -37.76915,3.68176 -37.76915,3.68176 z"
     id="path34"
     inkscape:connector-curvature="0"
     style="fill:#2f2e41" />
  <polygon
     points="699.136,655.725 668.417,613.236 645.673,617.145 676.136,669.044 "
     id="polygon36"
     style="fill:#9f616a"
     transform="translate(0,-75.38823)" />
  <path
     d="m 693.76182,418.2858 -9.04064,12.79349 c 0,0 -43.09961,59.85933 -38.52238,64.69241 4.57723,4.83308 23.63955,23.09925 33.33415,19.5597 9.6946,-3.53955 44.13723,-64.72086 44.13723,-64.72086 l -8.984,-35.92119 z"
     id="path38"
     inkscape:connector-curvature="0"
     style="fill:#2f2e41" />
  <path
     d="m 508.10018,406.17516 c 0,0 9.652,18.01033 34.116,24.10848 24.464,6.09815 50.02251,18.56461 50.93227,18.40824 0.90976,-0.15637 3.48266,-1.53522 4.10813,2.10381 0.62547,3.63903 7.33495,9.97888 7.33495,9.97888 0,0 27.02289,91.82859 37.343,91.92807 10.32011,0.0995 31.52877,-7.29236 31.96943,-10.178 0.44066,-2.88564 -31.60014,-96.66167 -31.91287,-98.48119 l -3.75291,-21.83417 c 0,0 42.37483,6.76621 46.32659,7.96025 3.95176,1.19404 39.10541,20.44101 39.10541,20.44101 0,0 35.83585,-25.82869 2.3169,-51.913 -33.51895,-26.08431 -91.13226,-45.21755 -91.13226,-45.21755 l -20.66857,-5.81387 -18.01336,-1.07517 -2.65227,-10.17093 -42.66206,2.46143 -44.52122,18.89181 z"
     id="path40"
     inkscape:connector-curvature="0"
     style="fill:#2f2e41" />
  <circle
     cx="564.40497"
     cy="167.02245"
     r="33.23151"
     id="circle42"
     style="fill:#9f616a" />
  <path
     d="m 534.34038,193.73245 3.99683,-0.687 c 0,0 7.21885,27.79487 29.55057,32.38625 0,0 11.01915,-13.2004 10.54876,-15.42771 -0.47039,-2.22731 8.72665,-14.111 13.61662,-7.45845 4.88997,6.65255 -1.19372,123.84077 2.91441,125.94457 4.10813,2.1038 12.92142,4.33553 5.82817,12.11113 -7.09325,7.7756 -35.26728,18.2379 -41.50765,14.62732 -6.24037,-3.61058 -18.99129,-34.20115 -24.50673,-44.49277 -5.51544,-10.29162 -14.343,-45.303 -14.343,-45.303 0,0 -11.27257,-38.33773 -4.33569,-47.02309 6.93688,-8.68536 18.23771,-24.67725 18.23771,-24.67725 z"
     id="path44"
     inkscape:connector-curvature="0"
     style="fill:#d0cde1" />
  <path
     d="m 566.14476,338.00312 a 189.57234,189.57234 0 0 1 -3.80657,24.26808 c -1.62981,6.508 -3.52744,10.43726 -5.693,10.26986 -5.52564,-0.413 -8.03729,7.69124 -9.33222,17.03456 -1.38419,9.91264 -1.38419,21.22057 -2.14325,25.2169 -1.00462,5.28009 -7.43445,9.30987 -20.28293,8.12661 a 90.65971,90.65971 0 0 1 -22.3481,-5.481 c -17.34708,-6.307 -16.83363,-57.45529 -13.93125,-95.40907 1.77486,-23.26347 4.44281,-41.58172 4.44281,-41.58172 0,0 -5.26885,-15.71734 -6.95445,-26.48955 a 35.21062,35.21062 0 0 1 -0.50235,-5.94976 c 0.25673,-9.4103 17.43641,-34.83936 27.81787,-50.67949 10.39264,-15.84012 24.5695,-4.21953 24.5695,-4.21953 l -4.934,14.89124 c 0,0 7.64654,11.79917 7.70241,23.029 0.0559,11.22983 18.30708,19.33411 24.85968,24.77042 4.11909,3.41585 4.01867,49.01624 0.53585,82.20345 z"
     id="path46"
     inkscape:connector-curvature="0"
     style="fill:#2f2e41" />
  <path
     d="m 580.57456,198.43037 c 0,0 1.19752,1.41554 6.681,0.72494 6.5762,-0.82821 15.61831,1.4471 17.719,7.72579 3.85229,11.51411 14.71265,58.35238 14.71265,58.35238 0,0 4.52051,53.54776 6.55328,65.3746 2.03277,11.82684 1.02354,22.30328 3.02786,28.51521 2.00432,6.21193 -19.78726,-11.58514 -27.81871,-9.26808 -8.03145,2.31706 -13.19156,-27.70492 -12.18233,-38.18136 1.00923,-10.47644 1.8621,-21.86262 -0.92406,-32.62334 -2.78616,-10.76072 2.15346,-39.24041 1.96865,-45.76508 -0.18481,-6.52467 -17.7094,-22.96903 -9.73734,-34.85506 z"
     id="path48"
     inkscape:connector-curvature="0"
     style="fill:#2f2e41" />
  <path
     d="m 604.08818,364.85616 c 0,0 35.18569,19.19574 38.5531,46.51753 3.36741,27.32179 -47.0621,-26.45463 -47.0621,-26.45463 z"
     id="path50"
     inkscape:connector-curvature="0"
     style="fill:#9f616a" />
  <path
     d="m 624.17372,345.48113 c 0,0 10.78165,54.34488 27.57717,51.4581 16.79552,-2.88678 -9.382,-54.58544 -9.382,-54.58544 z"
     id="path52"
     inkscape:connector-curvature="0"
     style="fill:#9f616a" />
  <path
     d="m 681.69377,582.39764 c 0,0 -8.6,9.90785 -10.73228,8.40107 -2.13228,-1.50678 -7.03635,19.00543 -2.61549,22.92875 4.42086,3.92332 21.45041,10.36265 21.63522,16.88732 0.18481,6.52467 45.85749,5.231 47.49219,-1.60643 1.6347,-6.83743 -5.72869,-22.43119 -10.90294,-25.28839 -5.17425,-2.8572 -24.3062,-29.15463 -24.3062,-29.15463 0,0 -14.98404,2.1889 -20.5705,7.83231 z"
     id="path54"
     inkscape:connector-curvature="0"
     style="fill:#2f2e41" />
  <path
     d="m 598.48358,398.0929 c -8.16006,-5.76008 -30.94346,-7.18889 -51.17065,-8.51728 -8.87443,-0.56932 -17.25776,-1.12746 -23.69876,-2.03165 -6.20656,-0.85956 -11.788,-6.53032 -16.74432,-14.98063 -7.51259,-12.80379 -13.5852,-32.00395 -18.26245,-50.53429 1.77486,-23.26347 4.44281,-41.58172 4.44281,-41.58172 0,0 -5.26885,-15.71734 -6.95445,-26.48955 a 14.17612,14.17612 0 0 1 4.48749,-4.041 c 21.455,-9.20938 41.93887,81.422 44.53984,95.64358 0.0447,0.23438 0.0781,0.45765 0.11167,0.6474 1.26134,7.32284 14.89124,13.58527 27.10343,16.06339 7.52376,1.52931 14.52291,1.62981 17.749,-0.35722 8.47258,-5.20187 34.52676,15.61685 36.50255,16.20852 1.97585,0.60282 -6.38514,28.26446 -18.10616,19.97045 z"
     id="path56"
     inkscape:connector-curvature="0"
     style="opacity:0.1" />
  <path
     d="m 490.58686,244.33784 c 0,0 -15.5938,7.3634 -8.74209,41.7778 6.85171,34.4144 20.6546,92.92317 41.76383,95.85139 21.10923,2.92822 63.14288,2.26 74.87024,10.5473 11.72736,8.2873 20.08569,-19.375 18.10981,-19.97208 -1.97588,-0.59708 -28.032,-21.40765 -36.50407,-16.205 -8.47207,5.20265 -42.81548,-3.88057 -44.84825,-15.70742 -2.03277,-11.82685 -22.84374,-105.65971 -44.64947,-96.29199 z"
     id="path58"
     inkscape:connector-curvature="0"
     style="fill:#2f2e41" />
  <path
     d="m 602.9561,227.83396 17.138,39.767 c 0,0 1.72533,-0.86074 3.72966,5.3512 2.00433,6.21194 2.94253,11.67047 6.45363,15.75016 3.5111,4.07969 19.13352,62.2757 19.60262,65.005 0.4691,2.7293 -21.57703,12.13832 -26.50314,4.55532 -4.92611,-7.583 -20.42077,-130.42868 -20.42077,-130.42868 z"
     id="path60"
     inkscape:connector-curvature="0"
     style="fill:#2f2e41" />
  <path
     d="m 545.49833,166.55987 c 1.27358,-0.34 1.46068,-2.031 1.50337,-3.34847 0.22859,-7.05539 4.4771,-14.295 11.23078,-16.34894 a 18.88145,18.88145 0 0 1 7.95871,-0.438 30.14519,30.14519 0 0 1 10.77823,3.59582 c 1.759,0.98891 3.48436,2.18 5.47953,2.482 1.31767,0.1995 7.02305,1.85833 8.33513,2.09178 2.88475,0.51325 5.56568,3.09426 8.33384,2.13381 2.64832,-0.91886 3.23456,-4.34782 3.29857,-7.15029 0.14583,-6.38457 -4.70095,-15.22107 -8.97,-19.9707 -3.23965,-3.60433 -8.11764,-5.26813 -12.88608,-6.13328 a 85.79023,85.79023 0 0 0 -16.85259,-1.02522 c -7.63115,0.1361 -15.47383,0.72512 -22.355,4.027 -6.88117,3.30188 -12.66118,9.8735 -12.991,17.49873 -0.0687,1.58841 0.0951,3.18344 -0.0384,4.76771 -0.3258,3.86482 -2.37806,7.35567 -3.34078,11.11282 a 20.33477,20.33477 0 0 0 2.83974,16.25034 c 2.5538,3.75829 6.56761,7.1574 6.42,11.69885 l 5.53742,-5.73689 a 4.54729,4.54729 0 0 0 1.35239,-5.55565 l -1.96,-7.64516 a 6.89794,6.89794 0 0 1 -0.16972,-4.25467 c 2.10108,-5.19209 4.3724,2.51536 6.49586,1.94841 z"
     id="path62"
     inkscape:connector-curvature="0"
     style="fill:#2f2e41" />
  <path
     d="m 292.58257,393.54588 c 0,105.94884 -62.9849,142.94222 -140.68072,142.94222 -77.69582,0 -140.68073,-36.99338 -140.68073,-142.94222 0,-105.94884 140.68073,-240.73248 140.68073,-240.73248 0,0 140.68072,134.78364 140.68072,240.73248 z"
     id="path64"
     inkscape:connector-curvature="0"
     style="fill:#f2f2f2" />
  <polygon
     points="208.179,397.303 148.444,493.09 149.091,453.22 190.417,373.856 149.263,442.67 149.263,442.67 150.428,370.963 194.68,307.779 150.611,359.687 151.339,228.202 146.765,402.264 147.14,395.084 102.149,326.217 146.419,408.868 142.227,488.953 142.102,486.827 90.235,414.355 141.945,494.336 141.421,504.352 141.327,504.502 141.37,505.324 130.734,708.506 144.944,708.506 146.649,603.558 198.232,523.773 146.777,595.669 148.218,507 "
     id="polygon66"
     style="fill:#3f3d56"
     transform="translate(0,-75.38823)" />
</svg>
