<svg width="21" height="21" viewBox="0 0 21 21" fill="none" xmlns="http://www.w3.org/2000/svg">
<g clip-path="url(#clip0)">
<circle cx="10.5" cy="10.5" r="9.5" fill="white"/>
<path d="M12.5646 11.3178C12.3226 11.1965 11.7835 11.0332 11.1418 10.9907C10.4998 10.9483 9.67637 10.9907 9.67637 10.9907V13.7701C9.67637 13.7701 10.5362 13.7884 11.1117 13.746C11.6867 13.7036 12.2802 13.5583 12.5769 13.3946C12.8735 13.2311 13.2308 12.9768 13.2308 12.3411C13.2308 11.7052 12.8069 11.4389 12.5646 11.3178ZM10.7542 9.70081C11.2267 9.68257 11.7292 9.5737 12.0923 9.37381C12.4557 9.17402 12.6615 8.85933 12.6496 8.38688C12.6372 7.91452 12.3226 7.51493 11.7898 7.35125C11.2568 7.18774 10.8998 7.17562 10.4938 7.1696C10.0881 7.16367 9.67627 7.19996 9.67627 7.19996V9.70081C9.67637 9.70081 10.2819 9.71905 10.7542 9.70081Z" fill="#F7931A"/>
<path d="M10.5001 0C4.70108 0 0 4.70099 0 10.5001C0 16.2991 4.70108 21.0002 10.5001 21.0002C16.2991 21.0002 21 16.2991 21 10.5001C21 4.70099 16.2991 0 10.5001 0ZM14.7754 14.5149C13.994 15.0599 13.1584 15.1569 12.789 15.2052C12.6067 15.2291 12.2944 15.2544 11.9596 15.274V17.3792H10.6636V15.3081H9.67667V17.3792H8.38079V15.3081H5.83152L6.09788 13.7516H6.87289C7.13342 13.7516 7.2422 13.7274 7.35117 13.6246C7.46014 13.5215 7.4844 13.3642 7.4844 13.2369V7.87482C7.4844 7.53893 7.45709 7.44801 7.30266 7.27553C7.14823 7.10268 6.78503 7.08 6.58051 7.08H5.83142V5.73449H8.38069V3.65749H9.67648V5.73449H10.6634V3.65749H11.9594V5.7594C12.9255 5.8193 13.6447 6.00335 14.2724 6.46719C15.084 7.06666 15.0414 8.10813 15.0232 8.35644C15.0052 8.60474 14.8962 9.08321 14.678 9.39179C14.4602 9.70074 13.9273 10.0096 13.9273 10.0096C13.9273 10.0096 14.557 10.1427 14.9993 10.4758C15.441 10.809 15.7683 11.3962 15.7497 12.2561C15.732 13.116 15.5564 13.9699 14.7754 14.5149Z" fill="#F7931A"/>
</g>
<defs>
<clipPath id="clip0">
<rect width="21" height="21" fill="white"/>
</clipPath>
</defs>
</svg>
