<svg width="21" height="21" viewBox="0 0 21 21" fill="none" xmlns="http://www.w3.org/2000/svg">
<path fill-rule="evenodd" clip-rule="evenodd" d="M0 10.4999C0 4.70102 4.70102 0 10.5 0C16.2989 0 21 4.70102 21 10.4999C21 16.299 16.2989 21 10.5 21C4.70102 21 0 16.299 0 10.4999Z" fill="#F4B731"/>
<path fill-rule="evenodd" clip-rule="evenodd" d="M10.5761 5H6.43797V8.57107H5V9.85033H6.43797V11.193H5V12.4723H6.43797V16H10.5761C13.0647 16 14.9579 14.5594 15.6864 12.4723H17V11.193H15.9745C15.9996 10.9662 16.0125 10.7347 16.0125 10.4991V10.4677C16.0125 10.2584 16.0024 10.0525 15.9824 9.85033H17V8.57107H15.7109C15.0011 6.45454 13.0932 5 10.5761 5ZM7.59482 14.8524V12.4723H14.4189C13.7826 13.8992 12.4158 14.8524 10.5761 14.8524H7.59482ZM7.59482 11.193H14.7733C14.8011 10.9776 14.8153 10.7564 14.8153 10.5305V10.4991C14.8153 10.2782 14.8018 10.0616 14.7751 9.85033H7.59482V11.193ZM14.4276 8.57107C13.7952 7.12413 12.4243 6.14569 10.5761 6.14569H7.59482V8.57107H14.4276Z" fill="white"/>
</svg>
