<svg width="21" height="21" viewBox="0 0 21 21" fill="none" xmlns="http://www.w3.org/2000/svg">
<circle cx="10.5" cy="10.5" r="9.5" fill="white"/>
<path d="M10.5 0C4.70102 0 0 4.70102 0 10.4999C0 16.299 4.70102 21 10.5 21C16.2989 21 21 16.299 21 10.4999C21 4.70102 16.2989 0 10.5 0ZM8.35962 14.9208C6.38082 14.9208 4.77662 13.3168 4.77662 11.3379C4.77662 9.83682 5.70012 8.55099 7.00972 8.01807L4.77693 6.07973H7.33187L11.1913 9.43012H8.35962C7.30785 9.43012 6.45161 10.2858 6.45161 11.338C6.45161 12.3898 7.30771 13.2459 8.35962 13.2459H9.26171L11.1913 14.9208H8.35962ZM16.2229 14.9208H13.6679L9.80849 11.571H12.6404C13.6924 11.571 14.5482 10.7148 14.5482 9.66269C14.5482 8.61057 13.6924 7.75469 12.6404 7.75469H11.7383L9.80849 6.07973H12.6404C14.619 6.07973 16.2231 7.68418 16.2231 9.66273C16.2231 11.1639 15.2997 12.4495 13.9901 12.9824L16.2229 14.9208Z" fill="#3B7CFB"/>
</svg>
