<svg width="21" height="21" viewBox="0 0 21 21" fill="none" xmlns="http://www.w3.org/2000/svg">
<path d="M10.5 0C4.70101 0 0 4.70101 0 10.5C0 16.299 4.70101 21 10.5 21C16.299 21 21 16.299 21 10.5C21 4.70101 16.299 0 10.5 0ZM10.3639 17.4565L6.2144 11.5869L10.3639 14.0163V17.4565ZM10.3639 13.156L6.18632 10.709L10.3639 8.87903V13.156ZM10.3639 8.58501L6.32087 10.3558L10.3639 3.56301V8.58501ZM10.6332 3.56097L14.733 10.381L10.6332 8.58501V3.56097ZM10.6332 17.4565V14.0163L14.7826 11.5869L10.6332 17.4565ZM10.6332 13.1561V8.87913L14.8138 10.7103L10.6332 13.1561Z" fill="#282828"/>
</svg>
