<svg width="21" height="21" viewBox="0 0 21 21" fill="none" xmlns="http://www.w3.org/2000/svg">
<path d="M10.5 21C16.299 21 21 16.299 21 10.5C21 4.70101 16.299 0 10.5 0C4.70101 0 0 4.70101 0 10.5C0 16.299 4.70101 21 10.5 21Z" fill="#2775CA"/>
<path d="M4 10.5C4 7.35679 6.10358 4.71957 8.94 4V5.24974C6.75745 5.93668 5.17 8.02742 5.17 10.5C5.17 12.9726 6.75745 15.0633 8.94 15.7503V17C6.10358 16.2804 4 13.6432 4 10.5Z" fill="white"/>
<path d="M15.83 10.5C15.83 12.9726 14.2426 15.0633 12.06 15.7503V17C14.8964 16.2804 17 13.6432 17 10.5C17 7.35679 14.8964 4.71957 12.06 4V5.24974C14.2426 5.93668 15.83 8.02742 15.83 10.5Z" fill="white"/>
<path d="M11.605 9.01247H12.645C12.645 8.47754 12.3035 7.47238 11.02 7.23702V6.37543C11.02 6.22605 10.9036 6.10496 10.76 6.10496H10.24C10.0964 6.10496 9.98 6.22605 9.98 6.37543V7.21994C8.16599 7.49549 7.83628 9.41948 8.68002 10.2972C9.07856 10.7118 9.71399 10.8281 10.3024 10.9357C11.0574 11.0739 11.735 11.1979 11.735 11.92C11.735 13.2047 9.98 13.0018 9.655 12.7314C9.33 12.4609 9.135 12.0552 9.135 11.7847C9.135 11.783 8.82351 11.7836 8.49958 11.7841H8.49926C8.33252 11.7844 8.1625 11.7847 8.03 11.7847C8.04957 12.4158 8.47924 13.617 9.98 13.8435V14.6923C9.98 14.8416 10.0964 14.9627 10.24 14.9627H10.76C10.9036 14.9627 11.02 14.8416 11.02 14.6923V13.8455C12.8541 13.5812 12.8415 11.9171 12.8401 11.7276L12.8401 11.7273C12.84 11.7232 12.84 11.7198 12.84 11.7171L12.84 11.7133L12.8401 11.7034C12.8424 11.5056 12.8581 10.151 10.89 9.9591C8.81 9.75625 9.005 8.13345 10.37 8.13345C11.462 8.13345 11.605 8.742 11.605 9.01247Z" fill="white"/>
</svg>
