<svg width="21" height="21" viewBox="0 0 21 21" fill="none" xmlns="http://www.w3.org/2000/svg">
<path d="M10.5 20C15.7467 20 20 15.7467 20 10.5C20 5.25329 15.7467 1 10.5 1C5.25329 1 1 5.25329 1 10.5C1 15.7467 5.25329 20 10.5 20Z" fill="white"/>
<path fill-rule="evenodd" clip-rule="evenodd" d="M0 10.4999C0 4.70083 4.7011 0 10.5 0C16.2988 0 20.9999 4.70083 20.9999 10.4999C20.9999 16.2987 16.2989 21 10.5 21C4.7011 21 0 16.2987 0 10.4999ZM11.7907 16.9141V12.2826C14.7221 12.1268 16.9278 11.4503 16.9278 10.6396C16.9278 9.82919 14.7221 9.15274 11.7909 8.9968L11.7907 7.70519H15.4506V5.01715H5.44303V7.70519H9.10255V9.003C6.22496 9.16978 4.07234 9.83901 4.07234 10.6396C4.07234 11.4405 6.22496 12.1098 9.10255 12.2763V16.9141H11.7907ZM11.7907 10.8635V9.29124C14.3148 9.40283 16.1965 9.83463 16.1966 10.351C16.1966 10.9521 13.646 11.4389 10.4999 11.4389C7.35371 11.4389 4.80327 10.9521 4.80327 10.351C4.80327 9.84213 6.63206 9.41496 9.10249 9.29606V9.60229H9.10277V10.8576C9.99804 10.9062 10.8952 10.9082 11.7907 10.8635Z" fill="#26A17B"/>
</svg>
