<svg width="21" height="21" viewBox="0 0 21 21" fill="none" xmlns="http://www.w3.org/2000/svg">
<path d="M10.5 21C16.299 21 21 16.299 21 10.5C21 4.70101 16.299 0 10.5 0C4.70101 0 0 4.70101 0 10.5C0 16.299 4.70101 21 10.5 21Z" fill="#FF6828"/>
<path d="M6.27314 12.5409V7.08441L10.5019 11.3132L14.7265 7.08854V12.5409H16.6726C16.89 11.8825 17.0006 11.1934 17 10.5C17 6.91014 14.0899 4 10.5 4C6.91014 4 4 6.91014 4 10.5C4 11.2131 4.11515 11.899 4.32739 12.5409H6.27314V12.5409Z" fill="white"/>
<path d="M13.3161 13.8631V10.4136L10.4778 13.2519L7.65931 10.4335V13.8631H4.93652C6.07564 15.7433 8.14096 16.9999 10.4998 16.9999C12.8588 16.9999 14.924 15.7433 16.0631 13.8631H13.3161V13.8631Z" fill="white"/>
</svg>
