<?xml version="1.0" encoding="utf-8"?>
<!-- Generator: Adobe Illustrator 24.2.0, SVG Export Plug-In . SVG Version: 6.00 Build 0)  -->
<svg version="1.1" id="Layer_1" xmlns="http://www.w3.org/2000/svg" xmlns:xlink="http://www.w3.org/1999/xlink" x="0px" y="0px"
	 width="21px" height="21px" viewBox="0 0 21 21" style="enable-background:new 0 0 21 21;" xml:space="preserve">
<style type="text/css">
	.st0{fill-rule:evenodd;clip-rule:evenodd;fill:#3FAD54;}
</style>
<path class="st0" d="M10.5,21C4.7,21,0,16.3,0,10.5S4.7,0,10.5,0S21,4.7,21,10.5S16.3,21,10.5,21z M12.4,12.7h2.4v2.1H7.7l8.8-8.9
	c0.3-0.3,0.4-0.7,0.2-1.1c-0.2-0.4-0.5-0.6-0.9-0.6H5.2c-0.6,0-1,0.4-1,1v7.5l4.4-4.4H6.2V6.2h7.1l-8.8,8.9
	c-0.3,0.3-0.4,0.7-0.2,1.1c0.2,0.4,0.5,0.6,0.9,0.6h10.6c0.6,0,1-0.4,1-1V8.3L12.4,12.7L12.4,12.7z"/>
</svg>
