<svg width="21" height="21" viewBox="0 0 21 21" fill="none" xmlns="http://www.w3.org/2000/svg">
<path d="M10.5 21C16.299 21 21 16.299 21 10.5C21 4.70101 16.299 0 10.5 0C4.70101 0 0 4.70101 0 10.5C0 16.299 4.70101 21 10.5 21Z" fill="#3BA959"/>
<path fill-rule="evenodd" clip-rule="evenodd" d="M12.1654 12.4235H14.2366V14.2352H8.01356L15.7388 6.50333C15.9907 6.25121 16.0653 5.86834 15.9347 5.54149C15.7947 5.21487 15.4775 5 15.1136 5H5.88638C5.39189 5 5 5.39219 5 5.88711V12.4236L8.8346 8.58571H6.76337V6.76484H12.9771L5.26121 14.4967C5.00931 14.7488 4.93466 15.1317 5.06534 15.4585C5.20526 15.7851 5.5225 16 5.88638 16H15.1136C15.5988 16 16 15.6078 16 15.1129V8.58571L12.1654 12.4235Z" fill="white"/>
</svg>
