<svg width="21" height="21" viewBox="0 0 21 21" fill="none" xmlns="http://www.w3.org/2000/svg">
<path fill-rule="evenodd" clip-rule="evenodd" d="M10.5 0C4.70102 0 0 4.70102 0 10.4999C0 16.299 4.70102 21 10.5 21C16.2989 21 21 16.299 21 10.4999C21 4.70102 16.2989 0 10.5 0ZM12.1088 10.3242C12.6774 10.3242 13.231 10.3861 13.7646 10.5021V10.5011C13.7646 8.69743 12.3027 7.23654 10.5001 7.23654C8.69643 7.23654 7.23554 8.69843 7.23554 10.5011C7.23554 10.6489 7.24653 10.7948 7.26551 10.9377C7.26551 10.9377 7.26524 10.9377 7.26498 10.9379C7.26474 10.938 7.26452 10.9382 7.26452 10.9387C6.44214 11.5632 6.05244 12.0579 6.04045 12.0739C5.86658 11.5822 5.76965 11.0536 5.76965 10.5021C5.76965 7.88904 7.88804 5.77165 10.5001 5.77165C11.2655 5.77165 11.9869 5.95451 12.6264 6.27727L14.2742 5.21208C13.21 4.44866 11.908 4 10.5001 4C6.90979 4 4 6.91079 4 10.5001C4 11.945 4.47264 13.2789 5.27003 14.3581C5.5778 13.8015 5.95251 13.2869 6.38119 12.8243C6.38119 12.8243 7.0227 12.1548 7.51333 11.8191C8.80335 10.8798 10.3911 10.3242 12.1088 10.3242ZM15.7843 6.71828V6.71729C16.5487 7.78347 17.0004 9.08948 17.0014 10.5004C17.0014 14.0897 14.0916 17.0005 10.5013 17.0005C9.09039 17.0005 7.78638 16.5498 6.72119 15.7864L8.36794 14.7222C9.00845 15.0469 9.7329 15.2308 10.5003 15.2308C13.1123 15.2308 15.2307 13.1134 15.2307 10.5004C15.2307 9.73199 15.0469 9.00654 14.7211 8.36503L15.7843 6.71828ZM13.7107 11.0838C13.4309 12.6025 12.1011 13.7544 10.5006 13.7544C9.37257 13.7544 8.37846 13.183 7.79199 12.3137C9.01789 11.4355 10.5175 10.917 12.1401 10.917C12.6796 10.917 13.2041 10.9759 13.7107 11.0838Z" fill="#041742"/>
</svg>
