<svg width="21" height="21" viewBox="0 0 21 21" fill="none" xmlns="http://www.w3.org/2000/svg">
<path fill-rule="evenodd" clip-rule="evenodd" d="M0 10.4999C0 4.70102 4.70102 0 10.5 0C16.2989 0 21 4.70102 21 10.4999C21 16.299 16.2989 21 10.5 21C4.70102 21 0 16.299 0 10.4999Z" fill="#041742"/>
<path fill-rule="evenodd" clip-rule="evenodd" d="M13.7646 10.5021C13.231 10.3861 12.6774 10.3242 12.1088 10.3242C10.3911 10.3242 8.80335 10.8798 7.51333 11.8191C7.0227 12.1548 6.38119 12.8243 6.38119 12.8243C5.95251 13.2869 5.5778 13.8015 5.27003 14.3581C4.47264 13.2789 4 11.945 4 10.5001C4 6.91079 6.90979 4 10.5001 4C11.908 4 13.21 4.44866 14.2742 5.21208L12.6264 6.27727C11.9869 5.95451 11.2655 5.77165 10.5001 5.77165C7.88804 5.77165 5.76965 7.88904 5.76965 10.5021C5.76965 11.0536 5.86658 11.5822 6.04045 12.0739C6.05244 12.0579 6.44214 11.5632 7.26452 10.9387C7.26452 10.9377 7.26551 10.9377 7.26551 10.9377C7.24653 10.7948 7.23554 10.6489 7.23554 10.5011C7.23554 8.69842 8.69643 7.23654 10.5001 7.23654C12.3027 7.23654 13.7646 8.69743 13.7646 10.5011V10.5021ZM15.7843 6.71729V6.71828L14.7211 8.36503C15.0469 9.00654 15.2307 9.73199 15.2307 10.5004C15.2307 13.1134 13.1123 15.2308 10.5003 15.2308C9.7329 15.2308 9.00845 15.0469 8.36794 14.7222L6.72119 15.7864C7.78638 16.5498 9.09039 17.0005 10.5013 17.0005C14.0916 17.0005 17.0014 14.0897 17.0014 10.5004C17.0004 9.08948 16.5487 7.78347 15.7843 6.71729ZM10.5006 13.7544C12.1011 13.7544 13.4309 12.6025 13.7107 11.0838C13.2041 10.9759 12.6796 10.917 12.1401 10.917C10.5175 10.917 9.01789 11.4355 7.79199 12.3137C8.37846 13.183 9.37257 13.7544 10.5006 13.7544Z" fill="white"/>
</svg>
