<svg width="189" height="59" viewBox="0 0 189 59" fill="none" xmlns="http://www.w3.org/2000/svg">
<path d="M89.856 29.1845C89.856 26.6579 88.1676 25.0748 85.8387 25.0748C83.5097 25.0748 81.8213 26.6579 81.8213 29.1845C81.8213 31.7109 83.5097 33.294 85.8387 33.294C88.1676 33.294 89.856 31.7109 89.856 29.1845ZM94.919 29.1845C94.919 34.2034 91.2733 38.0778 86.8519 38.0778C84.5898 38.0778 82.9352 37.3027 81.8213 36.023V44.3435H76.7583V20.7628H81.8213V22.3459C82.9352 21.0661 84.5898 20.291 86.8519 20.291C91.2733 20.291 94.919 24.1654 94.919 29.1845Z" fill="white"/>
<path d="M110.186 29.1845C110.186 26.6579 108.498 25.0748 106.17 25.0748C103.84 25.0748 102.152 26.6579 102.152 29.1845C102.152 31.7109 103.84 33.294 106.17 33.294C108.498 33.294 110.186 31.7109 110.186 29.1845ZM115.25 20.7628V37.606H110.186V36.023C109.072 37.3027 107.418 38.0778 105.156 38.0778C100.734 38.0778 97.0889 34.2034 97.0889 29.1845C97.0889 24.1654 100.734 20.291 105.156 20.291C107.418 20.291 109.072 21.0661 110.186 22.3459V20.7628H115.25Z" fill="white"/>
<path d="M129.285 20.4268V26.1534C127.191 25.8166 124.221 26.6587 124.221 29.9937V37.6068H119.157V20.7636H124.221V23.7619C124.896 21.5049 127.158 20.4268 129.285 20.4268Z" fill="white"/>
<path d="M138.62 25.6124V31.575C138.62 33.0233 139.869 33.1582 142.097 33.0233V37.6047C135.481 38.2785 133.557 36.2913 133.557 31.575V25.6124H130.856V20.7615H133.557V17.5617L138.62 16.0454V20.7615H142.097V25.6124H138.62Z" fill="white"/>
<path d="M145.483 20.7627H150.546V37.6059H145.483V20.7627ZM144.976 16.2486C144.976 14.598 146.36 13.2168 148.014 13.2168C149.669 13.2168 151.053 14.598 151.053 16.2486C151.053 17.8991 149.669 19.2803 148.014 19.2803C146.36 19.2803 144.976 17.8991 144.976 16.2486Z" fill="white"/>
<path d="M153.409 29.1845C153.409 24.1654 157.223 20.291 162.354 20.291C165.629 20.291 168.53 22.0094 169.983 24.603L165.56 27.1634C164.987 25.9839 163.771 25.2767 162.287 25.2767C160.092 25.2767 158.472 26.8604 158.472 29.1845C158.472 31.5086 160.092 33.0918 162.287 33.0918C163.771 33.0918 165.02 32.3849 165.56 31.2056L169.983 33.7323C168.53 36.3595 165.662 38.0778 162.354 38.0778C157.223 38.0778 153.409 34.2034 153.409 29.1845Z" fill="white"/>
<path d="M172.423 13.0146H177.488V37.606H172.423V13.0146Z" fill="white"/>
<path d="M189 29.1847C189 26.6583 187.313 25.0752 184.985 25.0752C182.655 25.0752 180.966 26.6583 180.966 29.1847C180.966 31.7113 182.655 33.2944 184.985 33.2944C187.313 33.2944 189 31.7113 189 29.1847Z" fill="#45D492"/>
<path d="M36.2096 36.8527H21.8822V22.4403H36.2096V36.8527ZM57.8281 12.7326C57.2358 9.30096 55.3516 6.05178 52.6179 3.8904C50.0808 1.80111 46.8297 0.678537 43.5496 0.675751C33.8226 0.672708 24.0872 0.664074 14.3602 0.678537C9.28272 0.736414 4.48562 3.679 2.01494 8.10022C0.642349 10.473 0.127782 13.1408 0.125 15.8604C0.130834 24.7319 0.122212 33.6088 0.127782 42.4803C0.110552 44.5434 0.200024 46.5254 0.844624 48.5045C2.2778 53.0907 6.14438 56.8031 10.7623 58.0962C9.36638 56.9823 8.74813 55.4315 8.29441 53.7531C7.35526 50.0728 7.28302 46.2505 7.43334 42.4803C7.41889 33.6061 7.43891 24.7319 7.42167 15.8604C7.43612 14.3329 7.54892 12.8976 8.32913 11.5464C9.53113 9.3908 11.8748 7.94973 14.3602 7.9817C23.6046 7.97587 32.8607 7.98449 42.1048 7.97865C43.5007 7.9817 44.7692 7.87738 46.1045 8.38397C48.3237 9.12152 50.0836 11.1093 50.569 13.3953C50.8436 14.7379 50.7713 16.228 50.7741 17.5965V43.6376C50.7741 44.9165 50.6326 46.1665 50.0836 47.3355C48.9509 49.708 46.5005 51.3545 43.8447 51.3055C36.5275 51.3169 29.2019 51.3025 21.8849 51.3111C21.8708 48.9241 21.8735 46.534 21.8822 44.1442C27.8552 44.1442 33.8257 44.1354 39.7989 44.1497C41.0848 44.2193 42.5644 43.5683 43.1568 42.382C43.4919 41.7772 43.5468 41.1318 43.5613 40.4577C43.5555 33.2213 43.5586 25.9876 43.5586 18.7511C43.6163 17.4114 42.9689 16.2163 41.7842 15.5798C40.7959 15.0042 39.7381 15.1516 38.6372 15.1313C31.7999 15.1485 24.9542 15.1226 18.1198 15.1458C16.1632 15.0965 14.5335 16.8008 14.5942 18.7511C14.5653 29.1473 14.5942 39.6014 14.5797 50.0032C14.6346 52.0691 14.568 54.028 15.7645 55.8163C16.6719 57.2947 18.2065 58.0442 19.8564 58.3714C21.8071 58.6865 23.6738 58.6114 25.6332 58.6142C31.6062 58.6169 37.5766 58.6114 43.5496 58.62C46.5205 58.6462 49.4132 57.6825 51.8522 56.0013C54.4673 54.0714 56.4962 51.4095 57.4294 48.273C58.0738 46.152 58.0621 44.0919 58.0738 41.9015C58.0738 33.6061 58.0768 25.3134 58.0738 17.0179C58.0621 15.5943 58.0479 14.1417 57.8281 12.7326Z" fill="#46D593"/>
</svg>
