<svg width="600" height="600" viewBox="0 0 600 600" fill="none" xmlns="http://www.w3.org/2000/svg">
<rect width="600" height="600" fill="#212121"/>
<path d="M341.372 340.296H261.02V259.716H341.372V340.296ZM462.615 205.44C459.293 186.254 448.726 168.087 433.394 156.003C419.166 144.322 400.932 138.045 382.537 138.03C327.985 138.013 273.387 137.965 218.835 138.045C190.359 138.369 163.455 154.821 149.599 179.54C141.901 192.806 139.016 207.722 139 222.928C139.033 272.528 138.984 322.159 139.016 371.759C138.919 383.295 139.421 394.376 143.036 405.441C151.074 431.083 172.758 451.838 198.657 459.068C190.828 452.84 187.361 444.17 184.816 434.786C179.549 414.209 179.144 392.839 179.987 371.759C179.906 322.144 180.018 272.528 179.922 222.928C180.003 214.387 180.635 206.362 185.011 198.807C191.752 186.756 204.896 178.699 218.835 178.877C270.68 178.845 322.59 178.893 374.434 178.86C382.263 178.877 389.376 178.294 396.865 181.127C409.311 185.25 419.181 196.364 421.904 209.145C423.443 216.652 423.038 224.983 423.054 232.634V378.23C423.054 385.38 422.26 392.369 419.181 398.905C412.828 412.17 399.086 421.375 384.192 421.101C343.155 421.165 302.071 421.084 261.036 421.132C260.956 407.787 260.972 394.424 261.02 381.062C294.518 381.062 328.002 381.013 361.502 381.094C368.714 381.482 377.011 377.843 380.334 371.21C382.213 367.829 382.521 364.22 382.602 360.451C382.57 319.992 382.587 279.549 382.587 239.089C382.911 231.599 379.28 224.917 372.636 221.358C367.093 218.14 361.161 218.965 354.987 218.851C316.641 218.948 278.248 218.803 239.92 218.932C228.946 218.657 219.807 228.185 220.147 239.089C219.985 297.214 220.147 355.664 220.066 413.82C220.374 425.371 220 436.323 226.71 446.321C231.8 454.587 240.406 458.777 249.659 460.606C260.599 462.369 271.068 461.949 282.057 461.964C315.555 461.98 349.039 461.949 382.537 461.997C399.198 462.143 415.421 456.755 429.1 447.356C443.766 436.566 455.144 421.683 460.379 404.147C463.992 392.288 463.927 380.77 463.992 368.524C463.992 322.144 464.009 275.779 463.992 229.399C463.927 221.439 463.847 213.318 462.615 205.44Z" fill="url(#paint0_linear)"/>
<defs>
<linearGradient id="paint0_linear" x1="301.5" y1="462" x2="301.5" y2="138" gradientUnits="userSpaceOnUse">
<stop stop-color="#46D593"/>
<stop offset="1" stop-color="#2BEB92"/>
</linearGradient>
</defs>
</svg>
