<?xml version="1.0" encoding="UTF-8" standalone="no"?>
<svg
   xmlns:dc="http://purl.org/dc/elements/1.1/"
   xmlns:cc="http://creativecommons.org/ns#"
   xmlns:rdf="http://www.w3.org/1999/02/22-rdf-syntax-ns#"
   xmlns:svg="http://www.w3.org/2000/svg"
   xmlns="http://www.w3.org/2000/svg"
   height="44.600002"
   width="44.5"
   xml:space="preserve"
   viewBox="0 0 44.5 44.600002"
   y="0px"
   x="0px"
   id="Layer_1"
   version="1.1"><metadata
     id="metadata73"><rdf:RDF><cc:Work
         rdf:about=""><dc:format>image/svg+xml</dc:format><dc:type
           rdf:resource="http://purl.org/dc/dcmitype/StillImage" /><dc:title>Layer 1</dc:title></cc:Work></rdf:RDF></metadata><defs
     id="defs71" /><style
     id="style2"
     type="text/css">
	.st0{fill:#FFFFFF;}
	.st1{fill:#05D5A3;}
	.st2{fill:#02E8B0;}
	.st3{fill:#00E9BE;}
</style><title
     id="title4">Layer 1</title><g
     transform="translate(-2.5000001,-2.6999999)"
     id="g66"><path
       style="fill:#02e8b0"
       id="path24"
       d="m 23.5,3.1 c 1.4,-0.6 2.5,0.7 3.4,1.6 1.5,1.3 3,2.8 4.5,4.3 0.8,0.9 0.5,2.5 -0.6,3 -0.8,0.5 -1.9,0.1 -2.5,-0.5 -1.7,-1.7 -3.4,-3.4 -5.2,-5 -1.2,-0.9 -1,-2.9 0.4,-3.4 z"
       class="st2" /><path
       style="fill:#02e8b0"
       id="path26"
       d="m 39.2,7.7 c 1,-0.5 2.5,-0.1 2.8,1.1 0.4,1 -0.2,2.1 -1,2.7 -1.6,1.6 -3.1,3.2 -4.7,4.8 -0.6,0.7 -1.6,0.9 -2.4,0.5 -1.2,-0.5 -1.5,-2.2 -0.6,-3.1 2,-2 3.7,-4.2 5.9,-6 z"
       class="st2" /><path
       style="fill:#02e8b0"
       id="path28"
       d="m 8,8 c 1,-0.6 2.3,-0.2 3,0.6 1.7,1.7 3.4,3.4 5.1,5 1.1,1 0.3,3.3 -1.2,3.3 -1.3,0.2 -2,-1.1 -2.9,-1.8 C 10.4,13.8 9,12.4 7.6,11 6.9,10.1 7.1,8.6 8,8 Z"
       class="st2" /><path
       style="fill:#02e8b0"
       id="path30"
       d="m 9.3,18.1 c 1.7,-0.7 3.4,1.5 2.3,3 -1.3,1.6 -2.9,3 -4.3,4.5 C 6.5,26.4 5.7,27.7 4.4,27.5 2.8,27.4 2,25.2 3.2,24.2 5.3,22.2 7,19.7 9.3,18.1 Z"
       class="st2" /><path
       style="fill:#00e9be"
       id="path32"
       d="m 43.8,22.8 c 1.2,-0.8 2.9,0.1 3,1.5 0.2,1.3 -1.1,2 -1.9,2.9 -1.3,1.5 -2.7,3 -4.1,4.3 -1.1,1 -3,0.3 -3.2,-1.1 -0.2,-1.5 1.2,-2.4 2,-3.4 1.5,-1.3 2.7,-2.9 4.2,-4.2 z"
       class="st3" /><path
       style="fill:#02e8b0"
       id="path34"
       d="m 13.8,33.3 c 1.1,-0.7 2.9,0.1 2.9,1.5 0.2,1.3 -1.1,2 -1.8,2.9 -1.3,1.5 -2.7,2.9 -4.1,4.3 C 9.9,42.9 7.9,42.5 7.6,41.1 7.1,39.9 8.2,38.8 9,38 c 1.7,-1.5 3.1,-3.2 4.8,-4.7 z"
       class="st2" /><path
       style="fill:#02e8b0"
       id="path36"
       d="m 34,33.2 c 0.6,-0.2 1.4,-0.2 2,0.2 2,1.9 4.1,3.6 5.9,5.6 0.6,0.6 0.6,1.6 0.2,2.2 -0.5,1.2 -2.4,1.3 -3.3,0.4 C 37,39.9 35.3,38.1 33.5,36.4 32.4,35.7 32.7,33.7 34,33.2 Z"
       class="st2" /><path
       style="fill:#02e8b0"
       id="path38"
       d="m 18.8,38 c 0.9,-0.5 2,0 2.7,0.7 1.7,1.7 3.4,3.4 5.2,5 1.2,1.1 0.4,3.3 -1.3,3.4 -1.3,0.2 -2,-1.2 -2.9,-1.9 -1.5,-1.3 -3,-2.7 -4.3,-4.1 -0.8,-0.9 -0.5,-2.6 0.6,-3.1 z"
       class="st2" /><g
       id="g64"><circle
         style="fill:#02e8b0"
         id="circle40"
         r="1.9"
         cy="4.8000002"
         cx="13.9"
         class="st2" /><circle
         style="fill:#02e8b0"
         id="circle42"
         r="1.9"
         cy="9.8999996"
         cx="19.5"
         class="st2" /><circle
         style="fill:#02e8b0"
         id="circle44"
         r="1.9"
         cy="14.7"
         cx="4.4000001"
         class="st2" /><circle
         style="fill:#02e8b0"
         id="circle46"
         r="1.9"
         cy="4.5999999"
         cx="35.099998"
         class="st2" /><circle
         style="fill:#02e8b0"
         id="circle48"
         r="1.9"
         cy="14.2"
         cx="45.099998"
         class="st2" /><circle
         style="fill:#02e8b0"
         id="circle50"
         r="1.9"
         cy="19.700001"
         cx="39.799999"
         class="st2" /><circle
         style="fill:#02e8b0"
         id="circle52"
         r="1.9"
         cy="35.400002"
         cx="45.099998"
         class="st2" /><circle
         style="fill:#02e8b0"
         id="circle54"
         r="1.9"
         cy="40.099998"
         cx="30"
         class="st2" /><circle
         style="fill:#02e8b0"
         id="circle56"
         r="1.9"
         cy="45.400002"
         cx="35.599998"
         class="st2" /><circle
         style="fill:#02e8b0"
         id="circle58"
         r="1.9"
         cy="45.400002"
         cx="14.4"
         class="st2" /><circle
         style="fill:#02e8b0"
         id="circle60"
         r="1.9"
         cy="30.200001"
         cx="9.6999998"
         class="st2" /><circle
         style="fill:#02e8b0"
         id="circle62"
         r="1.9"
         cy="35.799999"
         cx="4.4000001"
         class="st2" /></g></g></svg>