<svg width="130" height="49" viewBox="0 0 130 49" fill="none" xmlns="http://www.w3.org/2000/svg">
<g clip-path="url(#clip0)">
<path d="M77.1637 37.995H79.3903V44H80.9102V37.995H83.1367V36.7273H77.1637V37.995ZM84.1204 44H89.0352V42.7322H85.658V40.9957H88.7688V39.728H85.658V37.995H89.021V36.7273H84.1204V44ZM94.1887 38.8189H95.6625C95.6412 37.5227 94.5758 36.6278 92.9565 36.6278C91.362 36.6278 90.1937 37.5085 90.2008 38.8295C90.1973 39.902 90.9537 40.5163 92.1824 40.8111L92.9743 41.0099C93.7662 41.2017 94.2065 41.429 94.21 41.919C94.2065 42.4517 93.7022 42.8139 92.921 42.8139C92.122 42.8139 91.5467 42.4446 91.497 41.7166H90.0091C90.0481 43.2898 91.1738 44.103 92.9387 44.103C94.7143 44.103 95.7583 43.2543 95.7619 41.9226C95.7583 40.7116 94.8457 40.0689 93.5815 39.7848L92.9281 39.6286C92.296 39.483 91.7669 39.2486 91.7775 38.7266C91.7775 38.2578 92.193 37.9134 92.9458 37.9134C93.6809 37.9134 94.1319 38.2472 94.1887 38.8189ZM96.5192 37.995H98.7457V44H100.266V37.995H102.492V36.7273H96.5192V37.995ZM109.559 36.7273H108.028V41.3011H107.964L104.825 36.7273H103.476V44H105.013V39.4226H105.067L108.231 44H109.559V36.7273ZM110.829 44H115.744V42.7322H112.367V40.9957H115.478V39.728H112.367V37.995H115.73V36.7273H110.829V44ZM116.675 37.995H118.902V44H120.422V37.995H122.648V36.7273H116.675V37.995Z" fill="white" fill-opacity="0.5"/>
<path d="M66.6095 24.8967C66.6095 23.3034 65.547 22.3051 64.0814 22.3051C62.6158 22.3051 61.5533 23.3034 61.5533 24.8967C61.5533 26.4899 62.6158 27.4882 64.0814 27.4882C65.547 27.4882 66.6095 26.4899 66.6095 24.8967ZM69.7956 24.8967C69.7956 28.0617 67.5014 30.5049 64.719 30.5049C63.2955 30.5049 62.2543 30.0161 61.5533 29.2091V34.4561H58.3672V19.5859H61.5533V20.5842C62.2543 19.7772 63.2955 19.2884 64.719 19.2884C67.5014 19.2884 69.7956 21.7316 69.7956 24.8967Z" fill="white"/>
<path d="M79.4031 24.8968C79.4031 23.3035 78.3409 22.3052 76.8756 22.3052C75.4098 22.3052 74.3475 23.3035 74.3475 24.8968C74.3475 26.49 75.4098 27.4883 76.8756 27.4883C78.3409 27.4883 79.4031 26.49 79.4031 24.8968ZM82.5898 19.586V30.2075H79.4031V29.2092C78.7021 30.0162 77.6612 30.505 76.238 30.505C73.455 30.505 71.1611 28.0618 71.1611 24.8968C71.1611 21.7317 73.455 19.2885 76.238 19.2885C77.6612 19.2885 78.7021 19.7773 79.4031 20.5843V19.586H82.5898Z" fill="white"/>
<path d="M91.4219 19.3735V22.9848C90.1046 22.7724 88.2352 23.3034 88.2352 25.4065V30.2074H85.0488V19.5859H88.2352V21.4767C88.6601 20.0534 90.0834 19.3735 91.4219 19.3735Z" fill="white"/>
<path d="M97.2965 22.645V26.4051C97.2965 27.3184 98.0826 27.4035 99.4848 27.3184V30.2075C95.321 30.6324 94.1104 29.3792 94.1104 26.4051V22.645H92.4111V19.586H94.1104V17.5682L97.2965 16.612V19.586H99.4848V22.645H97.2965Z" fill="white"/>
<path d="M101.615 19.586H104.801V30.2075H101.615V19.586ZM101.296 16.7394C101.296 15.6985 102.167 14.8275 103.208 14.8275C104.249 14.8275 105.12 15.6985 105.12 16.7394C105.12 17.7802 104.249 18.6512 103.208 18.6512C102.167 18.6512 101.296 17.7802 101.296 16.7394Z" fill="white"/>
<path d="M106.603 24.8968C106.603 21.7317 109.003 19.2885 112.232 19.2885C114.293 19.2885 116.119 20.3721 117.033 22.0077L114.25 23.6223C113.889 22.8785 113.124 22.4325 112.19 22.4325C110.809 22.4325 109.789 23.4312 109.789 24.8968C109.789 26.3624 110.809 27.3608 112.19 27.3608C113.124 27.3608 113.91 26.915 114.25 26.1713L117.033 27.7647C116.119 29.4214 114.314 30.505 112.232 30.505C109.003 30.505 106.603 28.0618 106.603 24.8968Z" fill="white"/>
<path d="M118.569 14.7H121.756V30.2075H118.569V14.7Z" fill="white"/>
<path d="M129 24.8967C129 23.3035 127.938 22.3052 126.473 22.3052C125.007 22.3052 123.944 23.3035 123.944 24.8967C123.944 26.49 125.007 27.4883 126.473 27.4883C127.938 27.4883 129 26.49 129 24.8967Z" fill="#45D492"/>
<path d="M30.4404 30.4826H18.7511V18.7389H30.4404V30.4826ZM48.0783 10.8287C47.595 8.0325 46.0578 5.38496 43.8274 3.62379C41.7575 1.92136 39.105 1.00665 36.4289 1.00438C28.4929 1.0019 20.5501 0.994865 12.6141 1.00665C8.47152 1.05381 4.5577 3.45153 2.54195 7.0541C1.42209 8.98754 1.00227 11.1613 1 13.3774C1.00476 20.6062 0.997725 27.8394 1.00227 35.0682C0.988212 36.7493 1.06121 38.3643 1.58712 39.9769C2.75641 43.7139 5.91104 46.7389 9.67865 47.7926C8.53977 46.8849 8.03536 45.6213 7.66518 44.2537C6.89896 41.2548 6.84002 38.1403 6.96266 35.0682C6.95087 27.8372 6.96721 20.6062 6.95314 13.3774C6.96493 12.1327 7.05696 10.9632 7.69351 9.86213C8.67419 8.10571 10.5863 6.93147 12.6141 6.95752C20.1563 6.95277 27.7081 6.9598 35.2501 6.95504C36.389 6.95752 37.4239 6.87252 38.5133 7.28531C40.3239 7.88629 41.7598 9.506 42.1558 11.3687C42.3798 12.4627 42.3208 13.6769 42.3231 14.792V36.0112C42.3231 37.0533 42.2077 38.0718 41.7598 39.0244C40.8356 40.9576 38.8364 42.2992 36.6696 42.2593C30.6997 42.2686 24.723 42.2568 18.7533 42.2638C18.7418 40.3188 18.744 38.3713 18.7511 36.424C23.6243 36.424 28.4954 36.4168 33.3688 36.4285C34.4179 36.4852 35.6251 35.9547 36.1084 34.9881C36.3818 34.4953 36.4266 33.9694 36.4384 33.4201C36.4337 27.5236 36.4362 21.6294 36.4362 15.7328C36.4833 14.6412 35.9551 13.6674 34.9885 13.1487C34.1822 12.6797 33.3192 12.7998 32.421 12.7833C26.8426 12.7973 21.2574 12.7762 15.6814 12.7951C14.0851 12.7549 12.7555 14.1436 12.805 15.7328C12.7814 24.204 12.805 32.7224 12.7932 41.1981C12.838 42.8815 12.7836 44.4777 13.7598 45.9348C14.5001 47.1395 15.7522 47.7502 17.0983 48.0168C18.6898 48.2736 20.2128 48.2124 21.8114 48.2147C26.6846 48.2169 31.5557 48.2124 36.4289 48.2194C38.8527 48.2407 41.2128 47.4555 43.2027 46.0856C45.3363 44.513 46.9916 42.344 47.753 39.7883C48.2787 38.06 48.2692 36.3814 48.2787 34.5966C48.2787 27.8372 48.2812 21.08 48.2787 14.3205C48.2692 13.1605 48.2576 11.9769 48.0783 10.8287" fill="#46D593"/>
</g>
<defs>
<clipPath id="clip0">
<rect width="130" height="49" fill="white"/>
</clipPath>
</defs>
</svg>
