<?xml version="1.0" encoding="utf-8"?>
<!-- Generator: Adobe Illustrator 21.1.0, SVG Export Plug-In . SVG Version: 6.00 Build 0)  -->
<svg version="1.1" id="Layer_1" xmlns="http://www.w3.org/2000/svg" xmlns:xlink="http://www.w3.org/1999/xlink" x="0px" y="0px"
	 viewBox="0 0 529.8 215.2" style="enable-background:new 0 0 529.8 215.2;" xml:space="preserve">
<style type="text/css">
	.st0{fill:#212121;}
	.st1{fill:#02E8B0;}
	.st2{fill:#00E9BE;}
</style>
<g>
	<path class="st0" d="M268.2,148.8h-12.6V89.7h12.6v4.6c4.1-5.3,9.2-6,12.2-6c7,0,11.4,3.1,13.8,5.5c3.5,3.5,5.9,8.8,5.9,15.2
		c0,6.7-2.4,11.8-6.2,15.7c-3.9,3.9-8.1,5.3-13.2,5.3c-7.8,0-11.1-3.9-12.4-5.8V148.8z M270.3,102.1c-2,2-3,4.8-3,7.2
		c0,2.5,1,5,2.8,6.9c1.8,1.8,4.5,3,7.2,3c2.4,0,4.9-1,6.7-2.7c2-1.9,3.1-4.9,3.1-7.4c0-2.9-1.2-5.4-3-7.1c-1.8-1.8-4.3-2.7-6.8-2.7
		C273.8,99.2,271.5,100.9,270.3,102.1z"/>
	<path class="st0" d="M337.9,89.7h12.6v39.1h-12.6V124c-3.4,5.3-8.3,6-11.6,6c-5.6,0-10.3-1.4-14.6-6c-4.1-4.4-5.7-9.5-5.7-14.6
		c0-6.6,2.5-12.2,6-15.8c3.4-3.4,8.1-5.3,13.6-5.3c3.3,0,8.7,0.8,12.3,5.7V89.7z M321.9,102c-1.3,1.3-2.9,3.6-2.9,7.1s1.5,5.8,2.6,7
		c1.8,1.8,4.5,3.1,7.4,3.1c2.5,0,4.9-1.1,6.6-2.7c1.7-1.6,3.1-4,3.1-7.4c0-2.8-1.1-5.4-2.9-7.2c-1.9-1.8-4.7-2.7-7-2.7
		C326.1,99.2,323.5,100.3,321.9,102z"/>
	<path class="st0" d="M360.3,89.7H373v6.1c1.1-2.2,2.9-4.2,4.9-5.4c2.1-1.3,4.3-1.7,6.7-1.7c1.6,0,2.7,0.2,4.1,0.6l-0.7,11.8
		c-1.7-0.9-3.5-1.4-5.7-1.4c-2.7,0-4.7,1-6.3,2.6c-2.8,3-3.1,7.2-3.1,10.5v15.9h-12.6V89.7z"/>
	<path class="st0" d="M409.8,99.8v28.9h-12.6V99.8h-4.4V89.7h4.4V77h12.6v12.6h7.8v10.2H409.8z"/>
	<path class="st0" d="M430.2,65.6c4.1,0,7.4,3.2,7.4,7.4c0,4.1-3.2,7.4-7.4,7.4s-7.4-3.2-7.4-7.4C422.8,68.9,426,65.6,430.2,65.6z
		 M436.5,89.7v39.1h-12.6V89.7H436.5z"/>
	<path class="st0" d="M476.5,102c-3.1-2.5-6.2-3-8.2-3c-3.9,0-6.3,1.9-7.2,2.8c-1.7,1.7-2.9,4.2-2.9,7.4c0,2.9,1.1,5.3,2.6,7
		c1.9,2.1,4.8,3.2,7.6,3.2c2.2,0,5.2-0.6,8.1-3.1v11.4c-3.3,1.8-6.5,2.4-10,2.4c-6.6,0-11.6-2.4-15.2-5.9c-3-2.9-6.1-7.8-6.1-14.9
		c0-6.7,2.8-11.9,6.5-15.4c4.4-4.1,9.5-5.5,14.9-5.5c3.4,0,6.6,0.6,9.9,2.2V102z"/>
	<path class="st0" d="M497.9,64.9v63.9h-12.6V64.9H497.9z"/>
</g>
<ellipse transform="matrix(0.6891 -0.7247 0.7247 0.6891 86.2246 408.1865)" class="st1" cx="518.8" cy="103.6" rx="11" ry="11"/>
<path class="st1" d="M101.4,1.9c6.9-3,11.9,3.4,16.2,7.7c7.6,6.5,14.9,13.4,21.8,20.7c4,4.3,2.4,12.2-3,14.6
	c-4.1,2.3-9.2,0.6-12.3-2.6c-8.3-8-16.3-16.3-24.9-23.9C93.7,13.9,94.8,4.4,101.4,1.9z"/>
<path class="st1" d="M177.1,23.9c4.7-2.5,12.2-0.5,13.5,5.1c2,5-1.2,9.9-4.7,13.2c-7.7,7.6-15.2,15.4-22.6,23.2
	c-2.7,3.3-7.5,4.2-11.4,2.4c-5.6-2.3-7.1-10.7-2.9-14.9C158.4,43.4,166.8,32.6,177.1,23.9z"/>
<path class="st1" d="M26.8,25.5c4.9-3,11-1,14.6,3c8.1,8.2,16.6,16.2,24.8,24.3c5.5,5,1.6,15.7-6,15.8c-6.4,1-9.7-5.3-14-8.8
	c-7.5-6.2-14.3-13.1-21.1-20C21.3,35.8,22.4,28.6,26.8,25.5z"/>
<path class="st1" d="M33.1,74.1c8.2-3.2,16.2,7.2,11.1,14.3c-6.1,7.9-13.9,14.3-20.6,21.7c-3.9,4-7.5,10.2-14,9.4
	c-7.6-0.3-11.4-10.9-5.9-16C13.7,94,21.7,81.9,33.1,74.1z"/>
<path class="st2" d="M199.6,97c5.6-3.7,14.2,0.5,14.4,7.3c0.8,6.4-5.5,9.8-9,14.1c-6.2,7.4-12.9,14.3-19.9,21
	c-5.1,4.8-14.6,1.4-15.5-5.5c-1.2-7.2,5.6-11.7,9.8-16.3C186.4,111,192.4,103.3,199.6,97z"/>
<path class="st1" d="M54.5,147.6c5.5-3.3,13.8,0.6,13.9,7.3c1,6.4-5.3,9.8-8.8,14.1c-6.1,7.4-13,14.2-19.9,21
	c-4.5,4.5-14.1,2.4-15.3-4.2c-2.2-6.3,3.2-11.4,7.2-15.3C39.6,163.2,46.4,154.7,54.5,147.6z"/>
<path class="st1" d="M152,147.4c3-1,6.9-1.1,9.5,1.1c9.5,9,19.6,17.4,28.5,27.1c2.8,2.8,3,7.5,1.2,10.8c-2.6,6-11.4,6.2-15.7,1.9
	c-8.7-8.2-17-16.8-25.7-24.9C144.5,159.3,145.7,149.8,152,147.4z"/>
<path class="st1" d="M78.9,170.5c4.5-2.4,9.8-0.1,13.1,3.3c8.2,8.1,16.4,16.3,24.9,24.1c5.6,5.3,1.8,16.1-6.1,16.2
	c-6.4,0.8-9.7-5.6-14-9c-7.4-6.2-14.3-12.9-21-19.9C71.8,180.8,73.5,172.9,78.9,170.5z"/>
<g>
	<circle class="st1" cx="55" cy="10.1" r="9.3"/>
	<circle class="st1" cx="82.2" cy="34.9" r="9.3"/>
	<circle class="st1" cx="9.3" cy="57.7" r="9.3"/>
	<circle class="st1" cx="157.5" cy="9.3" r="9.3"/>
	<circle class="st1" cx="205.9" cy="55.4" r="9.3"/>
	<circle class="st1" cx="180.3" cy="82.2" r="9.3"/>
	<circle class="st1" cx="205.8" cy="157.6" r="9.3"/>
	<circle class="st1" cx="133" cy="180.3" r="9.3"/>
	<circle class="st1" cx="159.9" cy="205.9" r="9.3"/>
	<circle class="st1" cx="57.6" cy="205.9" r="9.3"/>
	<circle class="st1" cx="34.9" cy="132.8" r="9.3"/>
	<circle class="st1" cx="9.3" cy="159.9" r="9.3"/>
</g>
</svg>
