<svg width="130" height="50" viewBox="0 0 130 50" fill="none" xmlns="http://www.w3.org/2000/svg">
<path d="M66.6095 25.0748C66.6095 23.4815 65.547 22.4832 64.0814 22.4832C62.6158 22.4832 61.5533 23.4815 61.5533 25.0748C61.5533 26.668 62.6158 27.6663 64.0814 27.6663C65.547 27.6663 66.6095 26.668 66.6095 25.0748ZM69.7956 25.0748C69.7956 28.2398 67.5014 30.683 64.719 30.683C63.2955 30.683 62.2543 30.1942 61.5533 29.3872V34.6342H58.3672V19.764H61.5533V20.7623C62.2543 19.9553 63.2955 19.4665 64.719 19.4665C67.5014 19.4665 69.7956 21.9097 69.7956 25.0748Z" fill="#212121"/>
<path d="M79.4031 25.0749C79.4031 23.4816 78.3409 22.4833 76.8756 22.4833C75.4098 22.4833 74.3475 23.4816 74.3475 25.0749C74.3475 26.6681 75.4098 27.6664 76.8756 27.6664C78.3409 27.6664 79.4031 26.6681 79.4031 25.0749ZM82.5898 19.7641V30.3856H79.4031V29.3873C78.7021 30.1943 77.6612 30.6831 76.238 30.6831C73.455 30.6831 71.1611 28.2399 71.1611 25.0749C71.1611 21.9098 73.455 19.4666 76.238 19.4666C77.6612 19.4666 78.7021 19.9554 79.4031 20.7624V19.7641H82.5898Z" fill="#212121"/>
<path d="M91.4219 19.5516V23.1629C90.1046 22.9505 88.2352 23.4815 88.2352 25.5846V30.3855H85.0488V19.764H88.2352V21.6548C88.6601 20.2315 90.0834 19.5516 91.4219 19.5516Z" fill="#212121"/>
<path d="M97.2965 22.8231V26.5832C97.2965 27.4965 98.0826 27.5816 99.4848 27.4965V30.3856C95.321 30.8105 94.1104 29.5573 94.1104 26.5832V22.8231H92.4111V19.7641H94.1104V17.7463L97.2965 16.7901V19.7641H99.4848V22.8231H97.2965Z" fill="#212121"/>
<path d="M101.615 19.7641H104.801V30.3856H101.615V19.7641ZM101.296 16.9175C101.296 15.8766 102.167 15.0056 103.208 15.0056C104.249 15.0056 105.12 15.8766 105.12 16.9175C105.12 17.9583 104.249 18.8293 103.208 18.8293C102.167 18.8293 101.296 17.9583 101.296 16.9175Z" fill="#212121"/>
<path d="M106.603 25.0749C106.603 21.9098 109.003 19.4666 112.232 19.4666C114.293 19.4666 116.119 20.5502 117.033 22.1858L114.25 23.8004C113.889 23.0566 113.124 22.6106 112.19 22.6106C110.809 22.6106 109.789 23.6093 109.789 25.0749C109.789 26.5405 110.809 27.5389 112.19 27.5389C113.124 27.5389 113.91 27.0931 114.25 26.3494L117.033 27.9428C116.119 29.5995 114.314 30.6831 112.232 30.6831C109.003 30.6831 106.603 28.2399 106.603 25.0749Z" fill="#212121"/>
<path d="M118.569 14.8782H121.756V30.3856H118.569V14.8782Z" fill="#212121"/>
<path d="M129 25.075C129 23.4817 127.938 22.4834 126.473 22.4834C125.007 22.4834 123.944 23.4817 123.944 25.075C123.944 26.6682 125.007 27.6665 126.473 27.6665C127.938 27.6665 129 26.6682 129 25.075Z" fill="#45D492"/>
<path d="M30.4404 30.6607H18.7511V18.917H30.4404V30.6607ZM48.0783 11.0068C47.595 8.2106 46.0578 5.56306 43.8274 3.80189C41.7575 2.09946 39.105 1.18475 36.4289 1.18248C28.4929 1.18 20.5501 1.17297 12.6141 1.18475C8.47152 1.23191 4.5577 3.62963 2.54195 7.2322C1.42209 9.16564 1.00227 11.3394 1 13.5555C1.00476 20.7843 0.997725 28.0175 1.00227 35.2463C0.988212 36.9274 1.06121 38.5424 1.58712 40.155C2.75641 43.892 5.91104 46.917 9.67865 47.9707C8.53977 47.063 8.03536 45.7994 7.66518 44.4318C6.89896 41.4329 6.84002 38.3184 6.96266 35.2463C6.95087 28.0153 6.96721 20.7843 6.95314 13.5555C6.96493 12.3108 7.05696 11.1413 7.69351 10.0402C8.67419 8.28382 10.5863 7.10957 12.6141 7.13562C20.1563 7.13087 27.7081 7.1379 35.2501 7.13314C36.389 7.13562 37.4239 7.05062 38.5133 7.46341C40.3239 8.06439 41.7598 9.68411 42.1558 11.5468C42.3798 12.6408 42.3208 13.855 42.3231 14.9701V36.1893C42.3231 37.2314 42.2077 38.2499 41.7598 39.2025C40.8356 41.1357 38.8364 42.4773 36.6696 42.4374C30.6997 42.4467 24.723 42.4349 18.7533 42.4419C18.7418 40.4969 18.744 38.5494 18.7511 36.6021C23.6243 36.6021 28.4954 36.5949 33.3688 36.6066C34.4179 36.6633 35.6251 36.1328 36.1084 35.1662C36.3818 34.6734 36.4266 34.1475 36.4384 33.5982C36.4337 27.7017 36.4362 21.8075 36.4362 15.9109C36.4833 14.8193 35.9551 13.8455 34.9885 13.3268C34.1822 12.8578 33.3192 12.9779 32.421 12.9614C26.8426 12.9754 21.2574 12.9543 15.6814 12.9732C14.0851 12.933 12.7555 14.3217 12.805 15.9109C12.7814 24.3821 12.805 32.9005 12.7932 41.3762C12.838 43.0596 12.7836 44.6558 13.7598 46.1129C14.5001 47.3176 15.7522 47.9283 17.0983 48.1949C18.6898 48.4517 20.2128 48.3905 21.8114 48.3928C26.6846 48.395 31.5557 48.3905 36.4289 48.3975C38.8527 48.4188 41.2128 47.6336 43.2027 46.2637C45.3363 44.6911 46.9916 42.5221 47.753 39.9664C48.2787 38.2381 48.2692 36.5595 48.2787 34.7747C48.2787 28.0153 48.2812 21.2581 48.2787 14.4986C48.2692 13.3386 48.2576 12.155 48.0783 11.0068" fill="#46D593"/>
</svg>
