<svg width="130" height="49" viewBox="0 0 130 49" fill="none" xmlns="http://www.w3.org/2000/svg">
<path d="M66.6095 24.8969C66.6095 23.3036 65.547 22.3053 64.0814 22.3053C62.6158 22.3053 61.5533 23.3036 61.5533 24.8969C61.5533 26.4901 62.6158 27.4884 64.0814 27.4884C65.547 27.4884 66.6095 26.4901 66.6095 24.8969ZM69.7956 24.8969C69.7956 28.0619 67.5014 30.5051 64.719 30.5051C63.2955 30.5051 62.2543 30.0163 61.5533 29.2093V34.4563H58.3672V19.5861H61.5533V20.5844C62.2543 19.7774 63.2955 19.2886 64.719 19.2886C67.5014 19.2886 69.7956 21.7318 69.7956 24.8969Z" fill="white"/>
<path d="M79.4031 24.8969C79.4031 23.3036 78.3409 22.3053 76.8756 22.3053C75.4098 22.3053 74.3475 23.3036 74.3475 24.8969C74.3475 26.4901 75.4098 27.4884 76.8756 27.4884C78.3409 27.4884 79.4031 26.4901 79.4031 24.8969ZM82.5898 19.5861V30.2076H79.4031V29.2093C78.7021 30.0163 77.6612 30.5051 76.238 30.5051C73.455 30.5051 71.1611 28.0619 71.1611 24.8969C71.1611 21.7318 73.455 19.2886 76.238 19.2886C77.6612 19.2886 78.7021 19.7774 79.4031 20.5844V19.5861H82.5898Z" fill="white"/>
<path d="M91.4219 19.3735V22.9848C90.1046 22.7724 88.2352 23.3034 88.2352 25.4065V30.2074H85.0488V19.5859H88.2352V21.4767C88.6601 20.0534 90.0834 19.3735 91.4219 19.3735Z" fill="white"/>
<path d="M97.2965 22.6453V26.4054C97.2965 27.3187 98.0826 27.4038 99.4848 27.3187V30.2078C95.321 30.6327 94.1104 29.3795 94.1104 26.4054V22.6453H92.4111V19.5863H94.1104V17.5685L97.2965 16.6123V19.5863H99.4848V22.6453H97.2965Z" fill="white"/>
<path d="M101.615 19.5861H104.801V30.2076H101.615V19.5861ZM101.296 16.7395C101.296 15.6986 102.167 14.8276 103.208 14.8276C104.249 14.8276 105.12 15.6986 105.12 16.7395C105.12 17.7803 104.249 18.6513 103.208 18.6513C102.167 18.6513 101.296 17.7803 101.296 16.7395Z" fill="white"/>
<path d="M106.603 24.8969C106.603 21.7318 109.003 19.2886 112.232 19.2886C114.293 19.2886 116.119 20.3722 117.033 22.0078L114.25 23.6224C113.889 22.8786 113.124 22.4326 112.19 22.4326C110.809 22.4326 109.789 23.4313 109.789 24.8969C109.789 26.3625 110.809 27.3609 112.19 27.3609C113.124 27.3609 113.91 26.9151 114.25 26.1714L117.033 27.7648C116.119 29.4215 114.314 30.5051 112.232 30.5051C109.003 30.5051 106.603 28.0619 106.603 24.8969Z" fill="white"/>
<path d="M118.569 14.7002H121.756V30.2077H118.569V14.7002Z" fill="white"/>
<path d="M129 24.8967C129 23.3035 127.938 22.3052 126.473 22.3052C125.007 22.3052 123.944 23.3035 123.944 24.8967C123.944 26.49 125.007 27.4883 126.473 27.4883C127.938 27.4883 129 26.49 129 24.8967Z" fill="#45D492"/>
<path d="M24.5 34.6981L1.22168 1L24.5 10.9764L27 10V31L24.5 34.6981Z" fill="#46DF98"/>
<path d="M24.5 34.6981L47.7783 1L24.5 10.9764V20.9528V34.6981Z" fill="#38CA86"/>
<path d="M1 14.0796V41.5702L22.9481 47.9994L1 14.0796Z" fill="#38CA86"/>
<path d="M48 14.0796V41.5702L26.0519 47.9994L48 14.0796Z" fill="#46DF98"/>
<path d="M80.5928 36.7271V43.9998H82.0843V39.2484H82.1446L84.0267 43.9643H85.0423L86.9244 39.2661H86.9848V43.9998H88.4763V36.7271H86.58L84.5771 41.6134H84.4919L82.4891 36.7271H80.5928Z" fill="#979797"/>
<path d="M90.9967 43.9998L91.5365 42.3414H94.1608L94.7006 43.9998H96.3483L93.8412 36.7271H91.8596L89.349 43.9998H90.9967ZM91.9271 41.1411L92.822 38.389H92.8788L93.7737 41.1411H91.9271Z" fill="#979797"/>
<path d="M97.2236 43.9998H98.7613V41.4217H99.8834L101.261 43.9998H102.959L101.414 41.1731C102.241 40.818 102.699 40.0971 102.699 39.1028C102.699 37.6574 101.744 36.7271 100.093 36.7271H97.2236V43.9998ZM98.7613 40.1859V37.9842H99.7982C100.686 37.9842 101.116 38.3783 101.116 39.1028C101.116 39.8236 100.686 40.1859 99.8053 40.1859H98.7613Z" fill="#979797"/>
<path d="M103.786 43.9998H105.324V41.933L106.08 41.0097L108.072 43.9998H109.912L107.181 39.9834L109.88 36.7271H108.037L105.42 39.9337H105.324V36.7271H103.786V43.9998Z" fill="#979797"/>
<path d="M110.681 43.9998H115.595V42.732H112.218V40.9955H115.329V39.7278H112.218V37.9948H115.581V36.7271H110.681V43.9998Z" fill="#979797"/>
<path d="M116.527 37.9948H118.753V43.9998H120.273V37.9948H122.5V36.7271H116.527V37.9948Z" fill="#979797"/>
</svg>
