<?xml version="1.0" encoding="utf-8"?>
<!-- Generator: Adobe Illustrator 22.0.1, SVG Export Plug-In . SVG Version: 6.00 Build 0)  -->
<svg version="1.1" xmlns="http://www.w3.org/2000/svg" xmlns:xlink="http://www.w3.org/1999/xlink" x="0px" y="0px"
	 viewBox="0 0 115 50" style="enable-background:new 0 0 115 50;" xml:space="preserve">
<style type="text/css">
	.st0{display:none;}
	.st1{display:inline;}
	.st2{fill:#FFFFFF;}
	.st3{fill:#05D5A3;}
	.st4{fill:#02E8B0;}
	.st5{fill:none;stroke:#02E8B0;stroke-miterlimit:10;}
</style>
<g id="Layer_2" class="st0">
	<rect x="-43.3" y="-40.3" class="st1" width="204.8" height="115"/>
</g>
<g id="Layer_1">
	<title>Layer 1</title>
	<g>
		<path class="st2" d="M58.3,32.2h-2.5V20.3h2.5v0.9c0.8-1.1,1.9-1.2,2.4-1.2c1.4,0,2.3,0.7,2.8,1.1c0.7,0.7,1.2,1.8,1.2,3.1
			c0,1.4-0.5,2.4-1.2,3.2c-0.7,0.7-1.6,1-2.7,1c-1.6,0-2.2-0.8-2.5-1.1C58.3,27.3,58.3,32.2,58.3,32.2z M58.8,22.8
			c-0.4,0.4-0.6,0.9-0.6,1.5c0,0.5,0.2,1,0.6,1.4c0.4,0.4,0.9,0.6,1.5,0.6c0.5,0,1-0.2,1.4-0.6s0.7-1,0.7-1.5c0-0.6-0.3-1.1-0.6-1.4
			c-0.4-0.4-0.8-0.6-1.4-0.6C59.4,22.1,58.9,22.5,58.8,22.8z"/>
		<path class="st2" d="M72.3,20.3h2.5v7.8h-2.5v-0.9c-0.7,1-1.7,1.2-2.3,1.2c-1.1,0-2-0.3-3-1.2c-0.8-0.8-1.1-1.9-1.1-3
			c0-1.3,0.5-2.4,1.2-3.2c0.7-0.7,1.7-1.1,2.7-1.1c0.7,0,1.8,0.2,2.5,1.1C72.3,21,72.3,20.3,72.3,20.3z M69.1,22.7
			c-0.3,0.3-0.6,0.7-0.6,1.4c0,0.7,0.3,1.1,0.6,1.4c0.4,0.4,0.9,0.7,1.5,0.7c0.5,0,1-0.2,1.3-0.6c0.4-0.3,0.7-0.8,0.7-1.5
			c0-0.6-0.2-1.1-0.6-1.5S71.1,22,70.6,22C69.9,22.1,69.5,22.4,69.1,22.7z"/>
		<path class="st2" d="M76.8,20.3h2.5v1.2c0.2-0.5,0.6-0.8,1-1.1c0.5-0.3,0.9-0.4,1.4-0.4c0.3,0,0.6,0,0.8,0.1l-0.2,2.4
			c-0.3-0.1-0.7-0.2-1.1-0.2c-0.6,0-0.9,0.2-1.3,0.6c-0.6,0.6-0.7,1.5-0.7,2.1v3.2h-2.5L76.8,20.3L76.8,20.3z"/>
		<path class="st2" d="M86.8,22.3v5.8h-2.5v-5.8h-0.8v-2h0.8v-2.5h2.5v2.5h1.6v2H86.8z"/>
		<path class="st2" d="M90.9,15.4c0.8,0,1.5,0.7,1.5,1.5s-0.7,1.5-1.5,1.5s-1.5-0.7-1.5-1.5S90,15.4,90.9,15.4z M92.2,20.3v7.8h-2.5
			v-7.8H92.2z"/>
		<path class="st2" d="M100.2,22.7c-0.7-0.5-1.2-0.6-1.7-0.6c-0.8,0-1.3,0.4-1.5,0.6c-0.4,0.4-0.6,0.8-0.6,1.5
			c0,0.6,0.2,1.1,0.6,1.4c0.4,0.5,0.9,0.7,1.5,0.7c0.5,0,1-0.1,1.6-0.7v2.3c-0.7,0.4-1.3,0.5-2,0.5c-1.3,0-2.3-0.5-3.1-1.2
			c-0.6-0.6-1.2-1.6-1.2-3c0-1.3,0.6-2.4,1.3-3.1C95.9,20.3,97,20,98,20c0.7,0,1.3,0.1,2,0.5v2.2H100.2z"/>
		<path class="st2" d="M104.5,15.3v12.8H102V15.3H104.5z"/>
	</g>
	<ellipse class="st3" cx="108.7" cy="22.3" rx="2.2" ry="2.2"/>
	<path class="st4" d="M23.5,3.1c1.4-0.6,2.5,0.7,3.4,1.6c1.5,1.3,3,2.8,4.5,4.3c0.8,0.9,0.5,2.5-0.6,3c-0.8,0.5-1.9,0.1-2.5-0.5
		c-1.7-1.7-3.4-3.4-5.2-5C21.9,5.6,22.1,3.6,23.5,3.1z"/>
	<path class="st4" d="M39.2,7.7c1-0.5,2.5-0.1,2.8,1.1c0.4,1-0.2,2.1-1,2.7c-1.6,1.6-3.1,3.2-4.7,4.8c-0.6,0.7-1.6,0.9-2.4,0.5
		c-1.2-0.5-1.5-2.2-0.6-3.1C35.3,11.7,37,9.5,39.2,7.7z"/>
	<path class="st4" d="M8,8c1-0.6,2.3-0.2,3,0.6c1.7,1.7,3.4,3.4,5.1,5c1.1,1,0.3,3.3-1.2,3.3c-1.3,0.2-2-1.1-2.9-1.8
		c-1.6-1.3-3-2.7-4.4-4.1C6.9,10.1,7.1,8.6,8,8z"/>
	<path class="st4" d="M13.8,33.3c1.1-0.7,2.9,0.1,2.9,1.5c0.2,1.3-1.1,2-1.8,2.9c-1.3,1.5-2.7,2.9-4.1,4.3c-0.9,0.9-2.9,0.5-3.2-0.9
		C7.1,39.9,8.2,38.8,9,38C10.7,36.5,12.1,34.8,13.8,33.3z"/>
	<path class="st4" d="M34,33.2c0.6-0.2,1.4-0.2,2,0.2c2,1.9,4.1,3.6,5.9,5.6c0.6,0.6,0.6,1.6,0.2,2.2c-0.5,1.2-2.4,1.3-3.3,0.4
		c-1.8-1.7-3.5-3.5-5.3-5.2C32.4,35.7,32.7,33.7,34,33.2z"/>
	<path class="st4" d="M18.8,38c0.9-0.5,2,0,2.7,0.7c1.7,1.7,3.4,3.4,5.2,5c1.2,1.1,0.4,3.3-1.3,3.4c-1.3,0.2-2-1.2-2.9-1.9
		c-1.5-1.3-3-2.7-4.3-4.1C17.4,40.2,17.7,38.5,18.8,38z"/>
	<circle class="st4" cx="13.9" cy="4.8" r="1.9"/>
	<circle class="st4" cx="19.5" cy="9.9" r="1.9"/>
	<circle class="st4" cx="4.4" cy="14.7" r="1.9"/>
	<circle class="st4" cx="35.1" cy="4.6" r="1.9"/>
	<circle class="st4" cx="45.1" cy="14.2" r="1.9"/>
	<circle class="st4" cx="45.1" cy="35.4" r="1.9"/>
	<circle class="st4" cx="30" cy="40.1" r="1.9"/>
	<circle class="st4" cx="35.6" cy="45.4" r="1.9"/>
	<circle class="st4" cx="14.4" cy="45.4" r="1.9"/>
	<circle class="st4" cx="4.4" cy="35.8" r="1.9"/>
</g>
<g id="Layer_3">
	<path class="st5" d="M41.7,31H8.1c-3.2,0-5.7-2.6-5.7-5.7v-0.3c0-3.2,2.6-5.7,5.7-5.7h33.7c3.2,0,5.7,2.6,5.7,5.7v0.3
		C47.5,28.4,44.9,31,41.7,31z"/>
	<g>
		<path class="st2" d="M9.7,21.5V23h1.4V24H9.7v2.2c0,0.5,0.3,0.7,0.7,0.7c0.2,0,0.4-0.1,0.6-0.2l0.3,1.1C11,28,10.7,28,10.3,28
			c-1.1,0-1.8-0.6-1.8-1.8V24H7.5V23h0.9v-1.3L9.7,21.5z"/>
		<path class="st2" d="M13.1,25.9c0.1,0.6,0.6,1.1,1.5,1.1c0.5,0,1.1-0.2,1.3-0.5l0.8,0.8c-0.5,0.6-1.4,0.8-2.2,0.8
			c-1.7,0-2.8-1.1-2.8-2.7c0-1.5,1-2.6,2.7-2.6c1.7,0,2.7,1,2.5,3.1H13.1z M15.9,24.9c-0.1-0.7-0.6-1-1.3-1c-0.7,0-1.2,0.3-1.4,1
			H15.9z"/>
		<path class="st2" d="M21.3,24.3c-0.4-0.3-0.8-0.5-1.2-0.5c-0.6,0-0.9,0.2-0.9,0.5c0,0.3,0.3,0.5,0.9,0.6c1,0.1,2.2,0.3,2.2,1.6
			c0,0.9-0.7,1.7-2.2,1.7c-0.8,0-1.6-0.1-2.3-0.9l0.6-0.9c0.4,0.4,1.2,0.7,1.7,0.7c0.5,0,0.9-0.2,0.9-0.6c0-0.3-0.3-0.5-1-0.5
			c-1-0.1-2.1-0.4-2.1-1.6c0-1.2,1.2-1.6,2.1-1.6c0.8,0,1.4,0.2,2,0.7L21.3,24.3z"/>
		<path class="st2" d="M24.8,21.5V23h1.4V24h-1.4v2.2c0,0.5,0.3,0.7,0.7,0.7c0.2,0,0.4-0.1,0.6-0.2l0.3,1.1C26,28,25.7,28,25.4,28
			c-1.1,0-1.8-0.6-1.8-1.8V24h-0.9V23h0.9v-1.3L24.8,21.5z"/>
		<path class="st2" d="M30.8,28v-2.6c0-0.8-0.4-1.3-1.2-1.3c-0.8,0-1.3,0.6-1.3,1.4V28h-1.2v-5.1h1.1l0.1,0.7c0.5-0.5,1-0.8,1.7-0.8
			c1.2,0,2.1,0.9,2.1,2.5V28H30.8z"/>
		<path class="st2" d="M34.2,25.9c0.1,0.6,0.6,1.1,1.5,1.1c0.5,0,1.1-0.2,1.3-0.5l0.8,0.8c-0.5,0.6-1.4,0.8-2.2,0.8
			c-1.7,0-2.8-1.1-2.8-2.7c0-1.5,1-2.6,2.7-2.6c1.7,0,2.7,1,2.5,3.1H34.2z M36.9,24.9c-0.1-0.7-0.6-1-1.3-1c-0.7,0-1.2,0.3-1.4,1
			H36.9z"/>
		<path class="st2" d="M40.6,21.5V23H42V24h-1.4v2.2c0,0.5,0.3,0.7,0.7,0.7c0.2,0,0.4-0.1,0.6-0.2l0.3,1.1c-0.4,0.1-0.7,0.2-1,0.2
			c-1.1,0-1.8-0.6-1.8-1.8V24h-0.9V23h0.9v-1.3L40.6,21.5z"/>
	</g>
</g>
</svg>
