<svg width="44" height="44" viewBox="0 0 44 44" fill="none" xmlns="http://www.w3.org/2000/svg">
<g clip-path="url(#clip0)">
<path d="M27.3981 27.4722H16.5197V16.5293H27.3981V27.4722ZM43.8125 9.15851C43.3627 6.55295 41.9321 4.08593 39.8565 2.44486C37.9301 0.858507 35.4616 0.00617201 32.9712 0.00405226C25.5857 0.0017398 18.1939 -0.00481187 10.8084 0.00617232C6.95321 0.0501091 3.3109 2.28433 1.43499 5.64126C0.392812 7.44286 0.00211707 9.46838 0 11.5334C0.00442659 18.2692 -0.00211707 25.0093 0.00211707 31.7451C-0.0109702 33.3116 0.0569683 34.8164 0.546395 36.3191C1.63457 39.8013 4.57036 42.62 8.07661 43.6019C7.01673 42.7561 6.54731 41.5787 6.20281 40.3043C5.48974 37.5099 5.43489 34.6077 5.54902 31.7451C5.53805 25.0072 5.55326 18.2692 5.54017 11.5334C5.55114 10.3735 5.63678 9.28377 6.22918 8.25781C7.14182 6.62116 8.92131 5.52698 10.8084 5.55127C17.8274 5.54683 24.8553 5.55338 31.8742 5.54895C32.934 5.55126 33.8971 5.47206 34.911 5.8567C36.596 6.4167 37.9322 7.92597 38.3008 9.66167C38.5092 10.6811 38.4544 11.8124 38.4565 12.8515V32.6238C38.4565 33.5949 38.3491 34.5439 37.9322 35.4315C37.0721 37.233 35.2116 38.483 33.1952 38.4458C27.6394 38.4545 22.0773 38.4435 16.5218 38.4501C16.511 36.6377 16.5131 34.823 16.5197 33.0085C21.0548 33.0085 25.588 33.0017 30.1233 33.0127C31.0997 33.0655 32.2231 32.5712 32.6729 31.6705C32.9273 31.2113 32.9691 30.7213 32.98 30.2094C32.9756 24.715 32.9779 19.2227 32.9779 13.7281C33.0218 12.711 32.5303 11.8036 31.6307 11.3203C30.8803 10.8832 30.0772 10.9952 29.2413 10.9798C24.0499 10.9929 18.8521 10.9732 13.663 10.9908C12.1774 10.9534 10.94 12.2474 10.986 13.7281C10.9641 21.6217 10.986 29.5592 10.9751 37.4571C11.0168 39.0257 10.9662 40.513 11.8746 41.8708C12.5636 42.9933 13.7288 43.5624 14.9815 43.8108C16.4627 44.0501 17.88 43.9931 19.3677 43.9952C23.9028 43.9973 28.436 43.9931 32.9712 43.9996C35.2268 44.0195 37.4232 43.2878 39.275 42.0113C41.2606 40.5459 42.8011 38.5249 43.5097 36.1434C43.999 34.533 43.9901 32.9688 43.999 31.3057C43.999 25.0072 44.0013 18.7107 43.999 12.4121C43.9901 11.3313 43.9793 10.2284 43.8125 9.15851" fill="#46D593"/>
</g>
<defs>
<clipPath id="clip0">
<rect width="44" height="44" fill="white"/>
</clipPath>
</defs>
</svg>
