<?xml version="1.0" encoding="utf-8"?>
<!-- Generator: Adobe Illustrator 21.0.2, SVG Export Plug-In . SVG Version: 6.00 Build 0)  -->
<svg version="1.1" id="Layer_1" xmlns="http://www.w3.org/2000/svg" xmlns:xlink="http://www.w3.org/1999/xlink" x="0px" y="0px"
	 viewBox="0 -20 115 50" style="enable-background:new 0 0 180 26;" xml:space="preserve">
<style type="text/css">
	.st0{fill:#FFFFFF;}
	.st1{fill:#05D5A3;}
	.st2{fill:#02E8B0;}
</style>
<title>Layer 1</title>
<g>
	<path class="st0" d="M58.3,12.2h-2.5V0.3h2.5v0.9C59.1,0.1,60.2,0,60.7,0c1.4,0,2.3,0.7,2.8,1.1c0.7,0.7,1.2,1.8,1.2,3.1
		c0,1.4-0.5,2.4-1.2,3.2c-0.7,0.7-1.6,1-2.7,1c-1.6,0-2.2-0.8-2.5-1.1C58.3,7.3,58.3,12.2,58.3,12.2z M58.8,2.8
		c-0.4,0.4-0.6,0.9-0.6,1.5c0,0.5,0.2,1,0.6,1.4c0.4,0.4,0.9,0.6,1.5,0.6c0.5,0,1-0.2,1.4-0.6s0.7-1,0.7-1.5c0-0.6-0.3-1.1-0.6-1.4
		c-0.4-0.4-0.8-0.6-1.4-0.6C59.4,2.1,58.9,2.5,58.8,2.8z"/>
	<path class="st0" d="M72.3,0.3h2.5v7.8h-2.5V7.2c-0.7,1-1.7,1.2-2.3,1.2c-1.1,0-2-0.3-3-1.2c-0.8-0.8-1.1-1.9-1.1-3
		c0-1.3,0.5-2.4,1.2-3.2c0.7-0.7,1.7-1.1,2.7-1.1c0.7,0,1.8,0.2,2.5,1.1C72.3,1,72.3,0.3,72.3,0.3z M69.1,2.7
		c-0.3,0.3-0.6,0.7-0.6,1.4s0.3,1.1,0.6,1.4c0.4,0.4,0.9,0.7,1.5,0.7c0.5,0,1-0.2,1.3-0.6c0.4-0.3,0.7-0.8,0.7-1.5
		c0-0.6-0.2-1.1-0.6-1.5S71.1,2,70.6,2C69.9,2.1,69.5,2.4,69.1,2.7z"/>
	<path class="st0" d="M76.8,0.3h2.5v1.2c0.2-0.5,0.6-0.8,1-1.1C80.8,0.1,81.2,0,81.7,0c0.3,0,0.6,0,0.8,0.1l-0.2,2.4
		c-0.3-0.1-0.7-0.2-1.1-0.2c-0.6,0-0.9,0.2-1.3,0.6c-0.6,0.6-0.7,1.5-0.7,2.1v3.2h-2.5L76.8,0.3L76.8,0.3z"/>
	<path class="st0" d="M86.8,2.3v5.8h-2.5V2.3h-0.8v-2h0.8v-2.5h2.5v2.5h1.6v2H86.8z"/>
	<path class="st0" d="M90.9-4.6c0.8,0,1.5,0.7,1.5,1.5s-0.7,1.5-1.5,1.5s-1.5-0.7-1.5-1.5S90-4.6,90.9-4.6z M92.2,0.3v7.8h-2.5V0.3
		H92.2z"/>
	<path class="st0" d="M100.2,2.7c-0.7-0.5-1.2-0.6-1.7-0.6c-0.8,0-1.3,0.4-1.5,0.6c-0.4,0.4-0.6,0.8-0.6,1.5c0,0.6,0.2,1.1,0.6,1.4
		c0.4,0.5,0.9,0.7,1.5,0.7c0.5,0,1-0.1,1.6-0.7v2.3c-0.7,0.4-1.3,0.5-2,0.5c-1.3,0-2.3-0.5-3.1-1.2c-0.6-0.6-1.2-1.6-1.2-3
		c0-1.3,0.6-2.4,1.3-3.1C95.9,0.3,97,0,98,0c0.7,0,1.3,0.1,2,0.5v2.2H100.2z"/>
	<path class="st0" d="M104.5-4.7V8.1H102V-4.7H104.5z"/>
</g>
<ellipse transform="matrix(0.6891 -0.7247 0.7247 0.6891 32.1269 79.481)" class="st1" cx="108.7" cy="2.3" rx="2.2" ry="2.2"/>
<g>
	<path class="st2" d="M12.5-15.8c1.3-0.7,3,0.6,2.7,2c-0.2,1.4-2.2,2.1-3.2,1C11.1-13.6,11.4-15.3,12.5-15.8z"/>
	<path class="st2" d="M32.1-15.5c0.9-0.8,2.5-0.6,3,0.5c0.4,0.7,0,1.5-0.2,2.3c-0.7,0.3-1.4,0.7-2.1,0.3
		C31.5-12.8,31.1-14.7,32.1-15.5z"/>
	<path class="st2" d="M22.4-15.6c1.4-0.6,2.3,0.7,3.2,1.5c1.5,1.3,2.9,2.6,4.3,4.1c0.8,0.8,0.5,2.4-0.6,2.9
		c-0.8,0.4-1.8,0.1-2.4-0.5c-1.6-1.6-3.2-3.2-4.9-4.7C20.9-13.3,21.1-15.1,22.4-15.6z"/>
	<path class="st2" d="M37.2-11.3c0.9-0.5,2.4-0.1,2.7,1c0.4,1-0.2,1.9-0.9,2.6c-1.5,1.5-3,3-4.4,4.6C34-2.5,33-2.3,32.3-2.7
		c-1.1-0.5-1.4-2.1-0.6-2.9C33.6-7.5,35.2-9.6,37.2-11.3z"/>
	<path class="st2" d="M7.8-11c1-0.6,2.1-0.2,2.9,0.6c1.6,1.6,3.2,3.2,4.9,4.8c1.1,1,0.3,3.1-1.2,3.1c-1.2,0.2-1.9-1-2.7-1.7
		c-1.5-1.2-2.8-2.6-4.1-3.9C6.7-9,6.9-10.4,7.8-11z"/>
	<path class="st2" d="M17.7-10.8c1.2-0.8,3,0.3,2.8,1.8c0,1.4-1.9,2.2-3,1.3C16.4-8.4,16.5-10.1,17.7-10.8z"/>
	<path class="st2" d="M42-6.8c1.2-0.6,2.8,0.3,2.7,1.7c0.1,1.5-1.9,2.5-3,1.5C40.6-4.5,40.8-6.3,42-6.8z"/>
	<path class="st2" d="M3.5-6.4c0.7-0.4,1.5,0,2.3,0.2C6-5.5,6.4-4.8,6.1-4C5.7-2.8,3.8-2.4,2.9-3.4C2.1-4.2,2.4-5.9,3.5-6.4z"/>
	<path class="st2" d="M9-1.5c1.6-0.6,3.2,1.4,2.2,2.8c-1.2,1.5-2.7,2.8-4,4.3c-0.8,0.8-1.5,2-2.8,1.8C2.9,7.4,2.1,5.3,3.2,4.3
		C5.2,2.4,6.7,0.1,9-1.5z"/>
	<path class="st2" d="M37.1-1.6c1.4-0.7,3,0.8,2.6,2.2c-0.3,1.3-2.2,1.9-3.1,0.8C35.6,0.6,35.9-1.1,37.1-1.6z"/>
	<path class="st2" d="M41.7,3c1.1-0.7,2.8,0.1,2.8,1.4c0.2,1.3-1.1,1.9-1.8,2.8c-1.2,1.5-2.5,2.8-3.9,4.1c-1,0.9-2.9,0.3-3-1.1
		c-0.2-1.4,1.1-2.3,1.9-3.2C39.1,5.8,40.2,4.3,41.7,3z"/>
	<path class="st2" d="M8.6,8.4c1.2-0.6,2.8,0.5,2.6,1.9c0,1.5-2.2,2.3-3.2,1.2C7,10.5,7.4,8.9,8.6,8.4z"/>
	<path class="st2" d="M13.2,13c1.1-0.6,2.7,0.1,2.7,1.4c0.2,1.3-1,1.9-1.7,2.8c-1.2,1.5-2.5,2.8-3.9,4.1c-0.9,0.9-2.8,0.5-3-0.8
		c-0.4-1.2,0.6-2.2,1.4-3C10.3,16,11.6,14.3,13.2,13z"/>
	<path class="st2" d="M32.3,12.9c0.6-0.2,1.4-0.2,1.9,0.2c1.9,1.8,3.8,3.4,5.6,5.3c0.5,0.5,0.6,1.5,0.2,2.1
		c-0.5,1.2-2.2,1.2-3.1,0.4c-1.7-1.6-3.3-3.3-5-4.9C30.8,15.2,31.1,13.4,32.3,12.9z"/>
	<path class="st2" d="M41.1,14.2c0.4-1.3,2.3-1.6,3.2-0.6c0.8,0.9,0.6,2.5-0.6,3c-0.7,0.4-1.5,0-2.2-0.2
		C41.2,15.7,40.8,15,41.1,14.2z"/>
	<path class="st2" d="M3.6,13.6c1.2-0.6,2.7,0.4,2.6,1.7c0.1,1.5-1.9,2.5-3,1.5C2,16.1,2.3,14.2,3.6,13.6z"/>
	<path class="st2" d="M18,17.4c0.9-0.5,1.9,0,2.6,0.7c1.6,1.6,3.2,3.2,4.9,4.7c1.1,1,0.4,3.2-1.2,3.2c-1.2,0.1-1.9-1.1-2.7-1.8
		c-1.5-1.2-2.8-2.5-4.1-3.9C16.6,19.5,16.9,17.9,18,17.4z"/>
	<path class="st2" d="M27.8,17.6c1.2-0.6,2.8,0.5,2.6,1.9c0,1.4-2,2.3-3,1.3C26.3,20,26.6,18.1,27.8,17.6z"/>
	<path class="st2" d="M12.3,23c0.7-0.3,1.4-0.7,2.1-0.3c1.3,0.4,1.6,2.3,0.6,3.1c-0.9,0.8-2.5,0.6-3-0.5
		C11.7,24.5,12.1,23.7,12.3,23z"/>
	<path class="st2" d="M33.4,22.6c1.2-0.4,2.6,0.8,2.3,2.1c-0.1,1.5-2.3,2.2-3.2,1C31.5,24.7,32,22.8,33.4,22.6z"/>
</g>
</svg>
