<svg width="130" height="50" viewBox="0 0 130 50" fill="none" xmlns="http://www.w3.org/2000/svg">
<path d="M78.1637 37.995H80.3903V44H81.9102V37.995H84.1367V36.7273H78.1637V37.995ZM85.1204 44H90.0352V42.7322H86.658V40.9957H89.7688V39.728H86.658V37.995H90.021V36.7273H85.1204V44ZM95.1887 38.8189H96.6625C96.6412 37.5227 95.5758 36.6278 93.9565 36.6278C92.362 36.6278 91.1937 37.5085 91.2008 38.8295C91.1973 39.902 91.9537 40.5163 93.1824 40.8111L93.9743 41.0099C94.7662 41.2017 95.2065 41.429 95.21 41.919C95.2065 42.4517 94.7022 42.8139 93.921 42.8139C93.122 42.8139 92.5467 42.4446 92.497 41.7166H91.0091C91.0481 43.2898 92.1738 44.103 93.9387 44.103C95.7143 44.103 96.7583 43.2543 96.7619 41.9226C96.7583 40.7116 95.8457 40.0689 94.5815 39.7848L93.9281 39.6286C93.296 39.483 92.7669 39.2486 92.7775 38.7266C92.7775 38.2578 93.193 37.9134 93.9458 37.9134C94.6809 37.9134 95.1319 38.2472 95.1887 38.8189ZM97.5192 37.995H99.7457V44H101.266V37.995H103.492V36.7273H97.5192V37.995ZM110.559 36.7273H109.028V41.3011H108.964L105.825 36.7273H104.476V44H106.013V39.4226H106.067L109.231 44H110.559V36.7273ZM111.829 44H116.744V42.7322H113.367V40.9957H116.478V39.728H113.367V37.995H116.73V36.7273H111.829V44ZM117.675 37.995H119.902V44H121.422V37.995H123.648V36.7273H117.675V37.995Z" fill="white" fill-opacity="0.5"/>
<path d="M67.3491 25.3084C67.3491 23.6871 66.2735 22.6713 64.7898 22.6713C63.306 22.6713 62.2304 23.6871 62.2304 25.3084C62.2304 26.9296 63.306 27.9456 64.7898 27.9456C66.2735 27.9456 67.3491 26.9296 67.3491 25.3084ZM70.5746 25.3084C70.5746 28.529 68.252 31.0151 65.4352 31.0151C63.9941 31.0151 62.94 30.5177 62.2304 29.6966V35.0356H59.0049V19.9044H62.2304V20.9202C62.94 20.099 63.9941 19.6016 65.4352 19.6016C68.252 19.6016 70.5746 22.0877 70.5746 25.3084Z" fill="white"/>
<path d="M80.3008 25.3082C80.3008 23.6869 79.2256 22.6711 77.7421 22.6711C76.2582 22.6711 75.1827 23.6869 75.1827 25.3082C75.1827 26.9294 76.2582 27.9454 77.7421 27.9454C79.2256 27.9454 80.3008 26.9294 80.3008 25.3082ZM83.527 19.9041V30.7122H80.3008V29.6964C79.5912 30.5175 78.5375 31.0149 77.0967 31.0149C74.2792 31.0149 71.957 28.5288 71.957 25.3082C71.957 22.0875 74.2792 19.6014 77.0967 19.6014C78.5375 19.6014 79.5912 20.0988 80.3008 20.9199V19.9041H83.527Z" fill="white"/>
<path d="M92.468 19.6883V23.363C91.1344 23.1469 89.2418 23.6871 89.2418 25.8272V30.7124H86.0161V19.9044H89.2418V21.8283C89.672 20.3799 91.1129 19.6883 92.468 19.6883Z" fill="white"/>
<path d="M98.4155 23.0169V26.843C98.4155 27.7724 99.2113 27.8588 100.631 27.7724V30.7121C96.4156 31.1446 95.19 29.8694 95.19 26.843V23.0169H93.4697V19.9041H95.19V17.8507L98.4155 16.878V19.9041H100.631V23.0169H98.4155Z" fill="white"/>
<path d="M102.786 19.9044H106.012V30.7124H102.786V19.9044ZM102.463 17.0079C102.463 15.9488 103.345 15.0625 104.399 15.0625C105.453 15.0625 106.335 15.9488 106.335 17.0079C106.335 18.067 105.453 18.9533 104.399 18.9533C103.345 18.9533 102.463 18.067 102.463 17.0079Z" fill="white"/>
<path d="M107.836 25.3082C107.836 22.0875 110.266 19.6014 113.535 19.6014C115.621 19.6014 117.47 20.704 118.395 22.3684L115.578 24.0113C115.213 23.2545 114.438 22.8008 113.492 22.8008C112.094 22.8008 111.062 23.8168 111.062 25.3082C111.062 26.7997 112.094 27.8157 113.492 27.8157C114.438 27.8157 115.234 27.3618 115.578 26.605L118.395 28.2265C117.47 29.9123 115.642 31.0149 113.535 31.0149C110.266 31.0149 107.836 28.5288 107.836 25.3082Z" fill="white"/>
<path d="M119.952 14.9326H123.178V30.7124H119.952V14.9326Z" fill="white"/>
<path d="M125.129 24.8145C125.129 23.7554 126.011 22.8691 127.065 22.8691C128.118 22.8691 129 23.7554 129 24.8145C129 25.8736 128.118 26.7599 127.065 26.7599C126.011 26.7599 125.129 25.8736 125.129 24.8145Z" fill="#46D593"/>
<path d="M30.7739 30.9697H18.9522V19.032H30.7739V30.9697ZM48.6117 10.9911C48.1229 8.14867 46.5683 5.45738 44.3126 3.66712C42.2192 1.93656 39.5367 1.00674 36.8303 1.00442C28.8044 1.0019 20.7715 0.994754 12.7456 1.00674C8.55616 1.05467 4.598 3.492 2.55942 7.1541C1.42687 9.11948 1.0023 11.3291 1 13.5819C1.00481 20.9301 0.997699 28.2829 1.0023 35.631C0.988078 37.3399 1.06191 38.9816 1.59378 40.6209C2.77631 44.4196 5.96668 47.4946 9.77696 48.5657C8.62518 47.643 8.11506 46.3585 7.74068 44.9683C6.96578 41.9199 6.90618 38.7539 7.0302 35.631C7.01828 28.2805 7.0348 20.9301 7.02058 13.5819C7.0325 12.3166 7.12558 11.1278 7.76934 10.0085C8.76113 8.22309 10.6949 7.02944 12.7456 7.05593C20.3733 7.05109 28.0106 7.05824 35.6381 7.0534C36.7899 7.05593 37.8365 6.96952 38.9383 7.38913C40.7694 8.00004 42.2215 9.64652 42.622 11.54C42.8485 12.6521 42.7889 13.8863 42.7912 15.0198V36.5896C42.7912 37.649 42.6745 38.6843 42.2215 39.6526C41.2868 41.6178 39.265 42.9815 37.0737 42.9409C31.0362 42.9504 24.9918 42.9384 18.9545 42.9455C18.9427 40.9684 18.945 38.9887 18.9522 37.0092C23.8806 37.0092 28.8069 37.0019 33.7355 37.0139C34.7965 37.0715 36.0173 36.5322 36.5061 35.5497C36.7826 35.0487 36.828 34.5141 36.8399 33.9557C36.8351 27.9618 36.8376 21.9703 36.8376 15.9761C36.8853 14.8666 36.3511 13.8766 35.3735 13.3494C34.5581 12.8726 33.6853 12.9948 32.7769 12.9779C27.1353 12.9922 21.4868 12.9708 15.8477 12.9899C14.2333 12.9491 12.8887 14.3608 12.9387 15.9761C12.9148 24.5873 12.9387 33.2465 12.9268 41.8623C12.9721 43.5735 12.9171 45.196 13.9043 46.6772C14.6531 47.9018 15.9193 48.5226 17.2806 48.7936C18.8902 49.0546 20.4304 48.9924 22.0471 48.9947C26.9756 48.997 31.9019 48.9924 36.8303 48.9996C39.2815 49.0212 41.6683 48.223 43.6807 46.8305C45.8385 45.2319 47.5126 43.0271 48.2827 40.4292C48.8143 38.6723 48.8047 36.9659 48.8143 35.1517C48.8143 28.2805 48.8168 21.4117 48.8143 14.5405C48.8047 13.3614 48.793 12.1583 48.6117 10.9911" fill="#46D593"/>
</svg>
