<?xml version="1.0" encoding="UTF-8" standalone="no"?>
<svg
   xmlns:dc="http://purl.org/dc/elements/1.1/"
   xmlns:cc="http://creativecommons.org/ns#"
   xmlns:rdf="http://www.w3.org/1999/02/22-rdf-syntax-ns#"
   xmlns:svg="http://www.w3.org/2000/svg"
   xmlns="http://www.w3.org/2000/svg"
   version="1.1"
   id="svg2"
   xml:space="preserve"
   width="400"
   height="450"
   viewBox="0 0 400 450"><metadata
     id="metadata8"><rdf:RDF><cc:Work
         rdf:about=""><dc:format>image/svg+xml</dc:format><dc:type
           rdf:resource="http://purl.org/dc/dcmitype/StillImage" /><dc:title></dc:title></cc:Work></rdf:RDF></metadata><defs
     id="defs6" /><g
     id="g10"
     transform="matrix(1.3333333,0,0,-1.3333333,-143.87397,384.49248)"><g
       id="g12"
       transform="matrix(0.1,0,0,0.1,-15.474966,-46.424898)"><g
         transform="translate(-1066.5855,-691.30741)"
         id="g852"><path
           id="path14"
           style="fill:#ffffff;fill-opacity:1;fill-rule:nonzero;stroke:none"
           d="m 2702.58,1131.24 c -20.15,-20.15 -29.78,-48.19 -29.78,-71.85 0,-24.53 9.63,-49.94 28.04,-69.21 18.39,-18.399 44.67,-29.789 71.83,-29.789 23.66,0 49.07,9.64 67.47,27.16 20.15,19.279 30.67,49.069 30.67,74.469 0,28.92 -12.27,54.33 -29.79,70.97 -18.41,17.53 -42.94,27.16 -68.35,27.16 -35.04,0 -57.82,-16.64 -70.09,-28.91 z m -21.02,-466.99 h -126.17 v 591.41 h 126.17 v -46.44 c 41.18,53.44 91.99,59.58 121.79,59.58 70.08,0 113.89,-30.67 138.42,-55.2 35.05,-35.05 58.7,-88.49 58.7,-152.45 0,-67.47 -23.65,-118.279 -62.2,-156.83 -38.55,-38.558 -80.61,-52.582 -132.3,-52.582 -77.98,0 -111.27,39.434 -124.41,57.832 V 664.25" /><path
           id="path16"
           style="fill:#ffffff;fill-opacity:1;fill-rule:nonzero;stroke:none"
           d="m 3218.68,1132.11 c -13.15,-13.13 -28.92,-35.92 -28.92,-70.96 0,-35.05 14.89,-57.83 26.28,-70.091 17.53,-18.399 44.69,-30.668 74.47,-30.668 25.41,0 49.08,10.507 65.72,27.16 16.65,15.769 30.67,40.299 30.67,73.599 0,28.03 -10.52,54.32 -28.92,71.84 -19.27,18.4 -47.31,27.16 -70.09,27.16 -27.16,0 -52.57,-11.38 -69.21,-28.04 z m 160.33,123.55 h 126.17 V 864.891 h -126.17 v 47.308 c -34.17,-52.57 -83.23,-60.461 -115.65,-60.461 -56.08,0 -103.39,14.024 -146.32,59.582 -41.18,43.809 -56.96,94.63 -56.96,146.32 0,65.71 24.54,121.79 60.46,157.71 34.17,34.17 81.49,53.45 135.8,53.45 33.3,0 86.75,-7.89 122.67,-56.95 v 43.81" /><path
           id="path18"
           style="fill:#ffffff;fill-opacity:1;fill-rule:nonzero;stroke:none"
           d="m 3603.34,1255.66 h 126.17 v -61.33 c 11.38,21.9 28.9,42.05 49.06,54.32 21.03,13.14 42.93,16.64 67.46,16.64 15.77,0 27.17,-1.75 41.18,-6.13 l -7.01,-118.28 c -16.64,8.76 -35.04,14.02 -56.94,14.02 -27.17,0 -47.32,-9.64 -63.09,-26.29 -28.04,-29.79 -30.66,-71.84 -30.66,-105.14 V 864.891 h -126.17 v 390.769" /><path
           id="path20"
           style="fill:#ffffff;fill-opacity:1;fill-rule:nonzero;stroke:none"
           d="M 4097.51,1154.02 V 864.891 h -126.18 v 289.129 h -43.8 v 101.64 h 43.8 v 126.16 h 126.18 v -126.16 h 77.97 v -101.64 h -77.97" /><path
           id="path22"
           style="fill:#ffffff;fill-opacity:1;fill-rule:nonzero;stroke:none"
           d="M 4364.75,1255.66 V 864.891 h -126.17 v 390.769 z m -63.08,240.06 c 41.18,0 73.6,-32.42 73.6,-73.59 0,-41.18 -32.42,-73.6 -73.6,-73.6 -41.19,0 -73.6,32.42 -73.6,73.6 0,41.17 32.41,73.59 73.6,73.59" /><path
           id="path24"
           style="fill:#ffffff;fill-opacity:1;fill-rule:nonzero;stroke:none"
           d="m 4765.16,1132.11 c -30.66,25.41 -62.21,29.8 -82.36,29.8 -39.43,0 -63.08,-19.28 -71.84,-28.04 -16.65,-16.65 -28.91,-42.06 -28.91,-73.6 0,-28.91 10.5,-53.44 26.28,-70.09 19.27,-21.032 48.19,-31.539 76.23,-31.539 21.9,0 51.69,6.129 80.6,30.66 V 875.398 c -33.29,-18.398 -64.83,-23.66 -99.88,-23.66 -65.71,0 -115.66,23.66 -151.57,58.711 -29.8,28.91 -61.34,77.981 -61.34,148.941 0,66.59 28.04,119.16 64.84,154.21 43.81,41.18 95.5,55.2 148.95,55.2 34.17,0 65.71,-6.14 99,-21.91 v -114.78" /><path
           id="path26"
           style="fill:#ffffff;fill-opacity:1;fill-rule:nonzero;stroke:none"
           d="M 4978.97,1503.61 V 864.891 H 4852.8 v 638.719 h 126.17" /><path
           id="path28"
           style="fill:#05d5a3;fill-opacity:1;fill-rule:nonzero;stroke:none"
           d="m 5108.96,1191.62 c 41.68,43.83 111.01,45.58 154.84,3.89 43.84,-41.68 45.58,-111.01 3.9,-154.85 -41.69,-43.832 -111.01,-45.57 -154.85,-3.89 -43.83,41.68 -45.58,111.01 -3.89,154.85" /></g><g
         transform="translate(1649.0569,1192.4827)"
         id="g874"><path
           id="path30"
           style="fill:#05d5a3;fill-opacity:1;fill-rule:nonzero;stroke:none"
           d="m 1013.95,2133.53 c 69.39,30.2 118.86,-33.8 161.64,-76.57 76.41,-64.82 149.06,-134.05 217.97,-206.71 39.51,-43.1 23.51,-121.96 -30.21,-145.96 -41.31,-22.53 -91.76,-5.55 -123.43,25.8 -83.11,79.68 -162.62,163.27 -248.99,239.36 -53.551,43.75 -42.614,138.77 23.02,164.08" /><path
           id="path32"
           style="fill:#05d5a3;fill-opacity:1;fill-rule:nonzero;stroke:none"
           d="m 1770.87,1912.79 c 47.03,25.31 122.29,4.73 135.36,-51.27 19.92,-49.8 -12.08,-99.1 -47.19,-132.25 -76.9,-75.92 -151.68,-153.96 -226.46,-232 -27.26,-32.99 -75.26,-41.81 -113.8,-24.01 -55.67,23.03 -70.69,106.62 -28.73,148.91 94.37,96 177.64,203.6 280.82,290.62" /><path
           id="path34"
           style="fill:#05d5a3;fill-opacity:1;fill-rule:nonzero;stroke:none"
           d="m 267.965,1897.28 c 48.984,29.55 109.555,9.96 145.801,-30.21 81.472,-82.28 165.554,-161.8 248.007,-242.78 54.536,-50.45 16.493,-157.23 -59.589,-157.56 -63.676,-9.8 -97.477,53.23 -140.09,87.68 -74.778,61.88 -143.188,130.78 -210.946,200.17 -38.371,39.51 -26.937,112 16.817,142.7" /><path
           id="path36"
           style="fill:#05d5a3;fill-opacity:1;fill-rule:nonzero;stroke:none"
           d="m 331.152,1410.89 c 82.125,31.68 162.289,-71.84 111.024,-143.18 -60.574,-79.03 -139.438,-142.54 -205.559,-217.16 -39.023,-40.16 -75.429,-101.878 -140.4139,-94.038 -76.0859,2.937 -114.289,108.738 -58.9414,159.998 99.9223,95.68 179.2733,216.67 293.8903,294.38" /><path
           id="path38"
           style="fill:#05d5a3;fill-opacity:1;fill-rule:nonzero;stroke:none"
           d="m 1996.35,1181.99 c 56.49,36.9 141.72,-5.06 143.52,-73.15 8.32,-64 -55.19,-97.79 -90.13,-140.738 -61.55,-74.122 -129.14,-143.192 -198.86,-209.641 -50.94,-48.16 -146.13,-14.359 -155.27,55.348 -11.92,72.011 55.67,116.742 98.29,162.781 70.53,65.48 130.12,142.7 202.45,205.4" /><path
           id="path40"
           style="fill:#05d5a3;fill-opacity:1;fill-rule:nonzero;stroke:none"
           d="m 545.363,675.68 c 54.856,32.82 138.129,-6.2 139.434,-72.809 C 694.918,538.539 631.406,504.41 596.633,461.469 535.238,387.18 466.832,319.102 397.766,251.828 c -44.899,-45.387 -140.578,-23.5 -153.313,41.633 -21.715,62.859 31.676,113.641 72.328,153.16 78.864,73.801 147.438,158.207 228.582,229.059" /><path
           id="path42"
           style="fill:#05d5a3;fill-opacity:1;fill-rule:nonzero;stroke:none"
           d="m 1520.42,678.141 c 30.37,10.437 68.9,11.257 94.53,-10.621 95.03,-90.29 196.09,-174.211 285.4,-270.54 27.59,-27.921 30.04,-74.781 11.76,-108.41 -25.8,-60.41 -114.3,-61.879 -157.24,-19.101 -86.69,81.801 -169.96,167.672 -257.15,249.152 -52.73,40.981 -40.33,135.84 22.7,159.52" /><path
           id="path44"
           style="fill:#05d5a3;fill-opacity:1;fill-rule:nonzero;stroke:none"
           d="m 788.801,447.27 c 45.222,24.492 98.289,1.3 130.781,-33.141 81.958,-81.309 163.918,-162.617 248.988,-240.668 56,-53.223 18.12,-161.1524 -60.74,-161.961 -63.67,-7.51172 -96.82,55.6719 -139.596,90.281 -74.289,61.559 -143.187,129.321 -209.8,199.039 -40.168,42.942 -23.84,122.77 30.367,146.45" /><path
           id="path46"
           style="fill:#05d5a3;fill-opacity:1;fill-rule:nonzero;stroke:none"
           d="m 643.438,2051.42 c 0,-51.56 -41.793,-93.35 -93.348,-93.35 -51.555,0 -93.348,41.79 -93.348,93.35 0,51.55 41.793,93.35 93.348,93.35 51.555,0 93.348,-41.8 93.348,-93.35" /><path
           id="path48"
           style="fill:#05d5a3;fill-opacity:1;fill-rule:nonzero;stroke:none"
           d="m 915.527,1803.13 c 0,-51.56 -41.793,-93.35 -93.347,-93.35 -51.555,0 -93.344,41.79 -93.344,93.35 0,51.55 41.789,93.35 93.344,93.35 51.554,0 93.347,-41.8 93.347,-93.35" /><path
           id="path50"
           style="fill:#05d5a3;fill-opacity:1;fill-rule:nonzero;stroke:none"
           d="m 186.695,1575.04 c 0,-51.56 -41.793,-93.35 -93.3512,-93.35 C 41.793,1481.69 0,1523.48 0,1575.04 c 0,51.55 41.793,93.34 93.3438,93.34 51.5582,0 93.3512,-41.79 93.3512,-93.34" /><path
           id="path52"
           style="fill:#05d5a3;fill-opacity:1;fill-rule:nonzero;stroke:none"
           d="m 1668.53,2058.82 c 0,-51.55 -41.79,-93.34 -93.34,-93.34 -51.56,0 -93.35,41.79 -93.35,93.34 0,51.56 41.79,93.35 93.35,93.35 51.55,0 93.34,-41.79 93.34,-93.35" /><path
           id="path54"
           style="fill:#05d5a3;fill-opacity:1;fill-rule:nonzero;stroke:none"
           d="m 2151.96,1598.46 c 0,-51.55 -41.79,-93.35 -93.34,-93.35 -51.55,0 -93.35,41.8 -93.35,93.35 0,51.55 41.8,93.35 93.35,93.35 51.55,0 93.34,-41.8 93.34,-93.35" /><path
           id="path56"
           style="fill:#05d5a3;fill-opacity:1;fill-rule:nonzero;stroke:none"
           d="m 1896.84,1330.23 c 0,-51.55 -41.8,-93.34 -93.35,-93.34 -51.55,0 -93.34,41.79 -93.34,93.34 0,51.55 41.79,93.34 93.34,93.34 51.55,0 93.35,-41.79 93.35,-93.34" /><path
           id="path58"
           style="fill:#05d5a3;fill-opacity:1;fill-rule:nonzero;stroke:none"
           d="m 2151.53,576.32 c 0,-51.55 -41.79,-93.34 -93.35,-93.34 -51.55,0 -93.34,41.79 -93.34,93.34 0,51.559 41.79,93.352 93.34,93.352 51.56,0 93.35,-41.793 93.35,-93.352" /><path
           id="path60"
           style="fill:#05d5a3;fill-opacity:1;fill-rule:nonzero;stroke:none"
           d="m 1423.53,348.699 c 0,-51.558 -41.8,-93.347 -93.35,-93.347 -51.55,0 -93.35,41.789 -93.35,93.347 0,51.551 41.8,93.352 93.35,93.352 51.55,0 93.35,-41.801 93.35,-93.352" /><path
           id="path62"
           style="fill:#05d5a3;fill-opacity:1;fill-rule:nonzero;stroke:none"
           d="M 1692.09,93.3516 C 1692.09,41.7891 1650.29,0 1598.74,0 c -51.56,0 -93.35,41.7891 -93.35,93.3516 0,51.5464 41.79,93.3394 93.35,93.3394 51.55,0 93.35,-41.793 93.35,-93.3394" /><path
           id="path64"
           style="fill:#05d5a3;fill-opacity:1;fill-rule:nonzero;stroke:none"
           d="m 669.82,93.3516 c 0,-51.5508 -41.793,-93.3398812 -93.343,-93.3398812 -51.559,0 -93.352,41.7890812 -93.352,93.3398812 0,51.5584 41.793,93.3474 93.352,93.3474 51.55,0 93.343,-41.789 93.343,-93.3474" /><path
           id="path66"
           style="fill:#05d5a3;fill-opacity:1;fill-rule:nonzero;stroke:none"
           d="m 442.148,824.488 c 0,-51.547 -41.793,-93.34 -93.343,-93.34 -51.559,0 -93.352,41.793 -93.352,93.34 0,51.563 41.793,93.352 93.352,93.352 51.55,0 93.343,-41.789 93.343,-93.352" /><path
           id="path68"
           style="fill:#05d5a3;fill-opacity:1;fill-rule:nonzero;stroke:none"
           d="m 186.695,553.18 c 0,-51.551 -41.793,-93.34 -93.3512,-93.34 C 41.793,459.84 0,501.629 0,553.18 c 0,51.558 41.793,93.351 93.3438,93.351 51.5582,0 93.3512,-41.793 93.3512,-93.351" /></g></g></g></svg>