<svg width="130" height="50" viewBox="0 0 130 50" fill="none" xmlns="http://www.w3.org/2000/svg">
<path d="M67.3491 25.3084C67.3491 23.6871 66.2735 22.6713 64.7898 22.6713C63.306 22.6713 62.2304 23.6871 62.2304 25.3084C62.2304 26.9296 63.306 27.9456 64.7898 27.9456C66.2735 27.9456 67.3491 26.9296 67.3491 25.3084ZM70.5746 25.3084C70.5746 28.529 68.252 31.0151 65.4352 31.0151C63.9941 31.0151 62.94 30.5177 62.2304 29.6966V35.0356H59.0049V19.9044H62.2304V20.9202C62.94 20.099 63.9941 19.6016 65.4352 19.6016C68.252 19.6016 70.5746 22.0877 70.5746 25.3084Z" fill="#212121"/>
<path d="M80.3009 25.3083C80.3009 23.687 79.2256 22.6712 77.7421 22.6712C76.2582 22.6712 75.1827 23.687 75.1827 25.3083C75.1827 26.9295 76.2582 27.9455 77.7421 27.9455C79.2256 27.9455 80.3009 26.9295 80.3009 25.3083ZM83.527 19.9043V30.7123H80.3009V29.6965C79.5912 30.5176 78.5375 31.015 77.0967 31.015C74.2792 31.015 71.957 28.5289 71.957 25.3083C71.957 22.0876 74.2792 19.6015 77.0967 19.6015C78.5375 19.6015 79.5912 20.0989 80.3009 20.9201V19.9043H83.527Z" fill="#212121"/>
<path d="M92.468 19.6883V23.363C91.1344 23.1469 89.2418 23.6871 89.2418 25.8272V30.7124H86.0161V19.9044H89.2418V21.8283C89.6721 20.3799 91.1129 19.6883 92.468 19.6883Z" fill="#212121"/>
<path d="M98.4155 23.017V26.8431C98.4155 27.7725 99.2113 27.8589 100.631 27.7725V30.7123C96.4156 31.1447 95.19 29.8695 95.19 26.8431V23.017H93.4697V19.9042H95.19V17.8508L98.4155 16.8781V19.9042H100.631V23.017H98.4155Z" fill="#212121"/>
<path d="M102.786 19.9044H106.012V30.7124H102.786V19.9044ZM102.463 17.0079C102.463 15.9488 103.345 15.0625 104.399 15.0625C105.453 15.0625 106.335 15.9488 106.335 17.0079C106.335 18.067 105.453 18.9533 104.399 18.9533C103.345 18.9533 102.463 18.067 102.463 17.0079Z" fill="#212121"/>
<path d="M107.836 25.3083C107.836 22.0876 110.267 19.6015 113.536 19.6015C115.622 19.6015 117.471 20.7042 118.396 22.3685L115.579 24.0114C115.213 23.2546 114.439 22.8009 113.492 22.8009C112.095 22.8009 111.063 23.8169 111.063 25.3083C111.063 26.7998 112.095 27.8158 113.492 27.8158C114.439 27.8158 115.234 27.362 115.579 26.6051L118.396 28.2266C117.471 29.9124 115.643 31.015 113.536 31.015C110.267 31.015 107.836 28.5289 107.836 25.3083Z" fill="#212121"/>
<path d="M119.952 14.9326H123.178V30.7124H119.952V14.9326Z" fill="#212121"/>
<path d="M125.129 24.8146C125.129 23.7555 126.011 22.8692 127.065 22.8692C128.118 22.8692 129 23.7555 129 24.8146C129 25.8737 128.118 26.76 127.065 26.76C126.011 26.76 125.129 25.8737 125.129 24.8146Z" fill="#46D593"/>
<path d="M30.7739 30.9697H18.9522V19.0319H30.7739V30.9697ZM48.6117 10.9911C48.1229 8.14864 46.5683 5.45735 44.3126 3.66708C42.2192 1.93652 39.5367 1.0067 36.8303 1.00439C28.8044 1.00186 20.7716 0.994717 12.7456 1.0067C8.55616 1.05463 4.598 3.49197 2.55942 7.15407C1.42687 9.11945 1.0023 11.3291 1 13.5819C1.00481 20.93 0.997699 28.2828 1.0023 35.631C0.988078 37.3399 1.06191 38.9816 1.59378 40.6209C2.77631 44.4196 5.96668 47.4946 9.77697 48.5657C8.62518 47.643 8.11507 46.3585 7.74069 44.9683C6.96579 41.9199 6.90618 38.7539 7.03021 35.631C7.01828 28.2805 7.03481 20.93 7.02058 13.5819C7.03251 12.3165 7.12558 11.1277 7.76934 10.0085C8.76113 8.22306 10.6949 7.02941 12.7456 7.0559C20.3733 7.05106 28.0106 7.05821 35.6381 7.05337C36.7899 7.05589 37.8365 6.96949 38.9383 7.3891C40.7694 8.00001 42.2215 9.64649 42.6221 11.54C42.8486 12.6521 42.789 13.8863 42.7913 15.0198V36.5896C42.7913 37.6489 42.6746 38.6843 42.2215 39.6526C41.2868 41.6178 39.265 42.9815 37.0737 42.9409C31.0362 42.9504 24.9918 42.9384 18.9545 42.9455C18.9427 40.9684 18.945 38.9887 18.9522 37.0092C23.8806 37.0092 28.8069 37.0019 33.7355 37.0139C34.7965 37.0715 36.0173 36.5322 36.5061 35.5497C36.7826 35.0487 36.828 34.5141 36.8399 33.9557C36.8351 27.9618 36.8376 21.9702 36.8376 15.9761C36.8853 14.8666 36.3511 13.8766 35.3736 13.3494C34.5581 12.8726 33.6853 12.9947 32.777 12.9779C27.1354 12.9922 21.4868 12.9708 15.8477 12.9899C14.2333 12.9491 12.8887 14.3608 12.9387 15.9761C12.9148 24.5873 12.9387 33.2464 12.9268 41.8623C12.9722 43.5735 12.9171 45.196 13.9043 46.6772C14.6531 47.9018 15.9193 48.5226 17.2806 48.7936C18.8903 49.0546 20.4304 48.9924 22.0472 48.9947C26.9756 48.997 31.9019 48.9924 36.8303 48.9996C39.2815 49.0212 41.6683 48.223 43.6808 46.8305C45.8386 45.2319 47.5126 43.0271 48.2827 40.4292C48.8144 38.6723 48.8047 36.9659 48.8144 35.1517C48.8144 28.2805 48.8169 21.4117 48.8144 14.5405C48.8047 13.3614 48.793 12.1582 48.6117 10.9911" fill="#46D593"/>
</svg>
