<?xml version="1.0" encoding="utf-8"?>
<!-- Generator: Adobe Illustrator 22.0.1, SVG Export Plug-In . SVG Version: 6.00 Build 0)  -->
<svg version="1.1" id="Layer_1" xmlns="http://www.w3.org/2000/svg" xmlns:xlink="http://www.w3.org/1999/xlink" x="0px" y="0px"
	 viewBox="0 0 115 50" style="enable-background:new 0 0 115 50;" xml:space="preserve">
<style type="text/css">
	.st0{fill:#FFFFFF;}
	.st1{fill:#05D5A3;}
	.st2{fill:#02E8B0;}
	.st3{fill:#00E9BE;}
	.st4{fill:#D30000;}
</style>
<title>Layer 1</title>
<g>
	<path class="st0" d="M60.7,36.6h-2.1V26.4h2.1v0.8c0.7-0.9,1.6-1,2.1-1c1.2,0,2,0.6,2.4,0.9c0.6,0.6,1,1.5,1,2.7
		c0,1.2-0.4,2.1-1,2.7c-0.6,0.6-1.4,0.9-2.3,0.9c-1.4,0-1.9-0.7-2.1-0.9C60.7,32.4,60.7,36.6,60.7,36.6z M61.1,28.5
		c-0.3,0.3-0.5,0.8-0.5,1.3c0,0.4,0.2,0.9,0.5,1.2c0.3,0.3,0.8,0.5,1.3,0.5c0.4,0,0.9-0.2,1.2-0.5c0.3-0.3,0.6-0.9,0.6-1.3
		c0-0.5-0.3-0.9-0.5-1.2C63.3,28.2,63,28,62.5,28C61.6,27.9,61.2,28.3,61.1,28.5z"/>
	<path class="st0" d="M72.7,26.4h2.1v6.7h-2.1v-0.8c-0.6,0.9-1.5,1-2,1c-0.9,0-1.7-0.3-2.6-1c-0.7-0.7-0.9-1.6-0.9-2.6
		c0-1.1,0.4-2.1,1-2.7c0.6-0.6,1.5-0.9,2.3-0.9c0.6,0,1.5,0.2,2.1,0.9C72.7,27,72.7,26.4,72.7,26.4z M69.9,28.5
		c-0.3,0.3-0.5,0.6-0.5,1.2c0,0.6,0.3,0.9,0.5,1.2c0.3,0.3,0.8,0.6,1.3,0.6c0.4,0,0.9-0.2,1.1-0.5c0.3-0.3,0.6-0.7,0.6-1.3
		c0-0.5-0.2-0.9-0.5-1.3c-0.3-0.3-0.8-0.5-1.2-0.5C70.6,27.9,70.3,28.2,69.9,28.5z"/>
	<path class="st0" d="M76.5,26.4h2.1v1c0.2-0.4,0.5-0.7,0.9-0.9c0.4-0.3,0.8-0.3,1.2-0.3c0.3,0,0.5,0,0.7,0.1l-0.2,2.1
		c-0.3-0.1-0.6-0.2-0.9-0.2c-0.5,0-0.8,0.2-1.1,0.5c-0.5,0.5-0.6,1.3-0.6,1.8v2.7h-2.1L76.5,26.4L76.5,26.4z"/>
	<path class="st0" d="M85.1,28.1v5H83v-5h-0.7v-1.7H83v-2.1h2.1v2.1h1.4v1.7H85.1z"/>
	<path class="st0" d="M88.7,22.2c0.7,0,1.3,0.6,1.3,1.3s-0.6,1.3-1.3,1.3s-1.3-0.6-1.3-1.3S87.9,22.2,88.7,22.2z M89.8,26.4v6.7
		h-2.1v-6.7H89.8z"/>
	<path class="st0" d="M96.6,28.5c-0.6-0.4-1-0.5-1.5-0.5c-0.7,0-1.1,0.3-1.3,0.5c-0.3,0.3-0.5,0.7-0.5,1.3c0,0.5,0.2,0.9,0.5,1.2
		c0.3,0.4,0.8,0.6,1.3,0.6c0.4,0,0.9-0.1,1.4-0.6v2c-0.6,0.3-1.1,0.4-1.7,0.4c-1.1,0-2-0.4-2.7-1c-0.5-0.5-1-1.4-1-2.6
		c0-1.1,0.5-2.1,1.1-2.7c0.7-0.7,1.6-0.9,2.5-0.9c0.6,0,1.1,0.1,1.7,0.4v1.9H96.6z"/>
	<path class="st0" d="M100.3,22.1v11h-2.1v-11H100.3z"/>
</g>
<ellipse class="st1" cx="103.9" cy="28.1" rx="1.9" ry="1.9"/>
<path class="st2" d="M18.6,24.5c1.5-0.6,2.9,1.3,2,2.6c-1.1,1.4-2.5,2.6-3.7,3.9c-0.7,0.7-1.4,1.8-2.5,1.6c-1.4-0.1-2.1-2-1-2.8
	C15.2,28,16.6,25.9,18.6,24.5z"/>
<path class="st3" d="M48.2,28.5c1-0.7,2.5,0.1,2.6,1.3c0.2,1.1-0.9,1.7-1.6,2.5c-1.1,1.3-2.3,2.6-3.5,3.7c-0.9,0.9-2.6,0.3-2.7-0.9
	c-0.2-1.3,1-2.1,1.7-2.9C45.9,31,46.9,29.7,48.2,28.5z"/>
<path class="st2" d="M22.5,37.6c0.9-0.6,2.5,0.1,2.5,1.3c0.2,1.1-0.9,1.7-1.5,2.5c-1.1,1.3-2.3,2.5-3.5,3.7
	c-0.8,0.8-2.5,0.4-2.7-0.8c-0.4-1,0.5-2,1.2-2.7C19.8,40.3,21,38.8,22.5,37.6z"/>
<path class="st2" d="M39.8,37.5c0.5-0.2,1.2-0.2,1.7,0.2c1.7,1.6,3.5,3.1,5.1,4.8c0.5,0.5,0.5,1.4,0.2,1.9c-0.4,1-2.1,1.1-2.8,0.3
	c-1.5-1.5-3-3-4.6-4.5C38.4,39.6,38.7,37.9,39.8,37.5z"/>
<path class="st2" d="M26.7,41.6c0.8-0.4,1.7,0,2.3,0.6c1.5,1.5,2.9,2.9,4.5,4.3c1,0.9,0.3,2.8-1.1,2.9c-1.1,0.2-1.7-1-2.5-1.6
	c-1.3-1.1-2.6-2.3-3.7-3.5C25.5,43.5,25.8,42,26.7,41.6z"/>
<circle class="st2" cx="22.5" cy="13.1" r="1.6"/>
<circle class="st2" cx="40.7" cy="12.9" r="1.6"/>
<circle class="st2" cx="49.3" cy="21.2" r="1.6"/>
<circle class="st2" cx="44.8" cy="25.9" r="1.6"/>
<circle class="st2" cx="49.3" cy="39.4" r="1.6"/>
<circle class="st2" cx="36.4" cy="43.4" r="1.6"/>
<circle class="st2" cx="41.2" cy="48" r="1.6"/>
<circle class="st2" cx="23" cy="48" r="1.6"/>
<circle class="st2" cx="18.9" cy="34.9" r="1.6"/>
<circle class="st2" cx="18.3" cy="38.6" r="1.5"/>
<path class="st0" d="M18,21.4l0.7,6.6c0.1,0.5,0.5,0.9,1.1,0.8l30.4-3.5c0.5-0.1,0.9-0.5,0.9-1l-0.7-6.6c-0.1-0.5-0.5-0.9-1.1-0.8
	l-30.4,3.5C18.4,20.4,18,20.9,18,21.4z"/>
<path class="st0" d="M9.9,41.3c0.4,3.1,3.2,5.3,6.3,5c3.1-0.4,5.3-3.2,5-6.3c-0.4-3.1-3.2-5.3-6.3-5S9.5,38.2,9.9,41.3z"/>
<path class="st4" d="M16.1,20.7c-0.1-1,0.6-2,1.7-2.1l27.9-3.2c0.3,0,0.5-0.2,0.7-0.4c0.2-0.2,0.2-0.5,0.1-0.8
	c-2.5-9.8-12.7-16-22.9-13.1C14.9,3.6,9.4,12.3,10.4,21.3l1.5,12.8c0.8-0.5,1.8-0.8,2.7-0.9c1-0.1,2,0,2.9,0.2L16.1,20.7z"/>
</svg>
