<svg width="952" height="1024" viewBox="0 0 952 1024" fill="none" xmlns="http://www.w3.org/2000/svg">
<path d="M514.027 395.226H356.784V237.796H514.027V395.226ZM751.289 131.758C744.788 94.2731 724.11 58.7817 694.107 35.1726C666.263 12.3508 630.582 0.0887408 594.583 0.0582452C487.83 0.0249773 380.984 -0.0692737 274.23 0.0887489C218.506 0.720839 165.858 32.8632 138.742 81.1572C123.678 107.076 118.031 136.216 118 165.924C118.064 262.828 117.969 359.793 118.031 456.697C117.841 479.233 118.823 500.882 125.898 522.5C141.627 572.596 184.062 613.147 234.744 627.272C219.424 615.105 212.638 598.166 207.659 579.832C197.352 539.631 196.559 497.879 198.209 456.697C198.05 359.762 198.27 262.828 198.081 165.924C198.239 149.237 199.477 133.56 208.04 118.8C221.232 95.2544 246.954 79.5132 274.23 79.8625C375.687 79.7987 477.272 79.893 578.726 79.8292C594.046 79.8625 607.967 78.723 622.622 84.2566C646.978 92.313 666.293 114.026 671.621 138.996C674.633 153.662 673.841 169.938 673.871 184.887V469.338C673.871 483.308 672.319 496.962 666.293 509.731C653.861 535.647 626.968 553.631 597.822 553.096C517.516 553.221 437.118 553.063 356.815 553.157C356.659 527.083 356.69 500.976 356.784 474.872C422.337 474.872 487.863 474.775 553.419 474.933C567.532 475.693 583.77 468.582 590.271 455.624C593.949 449.017 594.553 441.967 594.711 434.604C594.647 355.559 594.681 276.545 594.681 197.498C595.315 182.866 588.21 169.811 575.207 162.858C564.36 156.57 552.752 158.181 540.67 157.959C465.63 158.147 390.498 157.865 315.492 158.117C294.018 157.579 276.133 176.195 276.798 197.498C276.481 311.058 276.798 425.25 276.64 538.871C277.243 561.438 276.512 582.835 289.642 602.368C299.602 618.517 316.443 626.704 334.551 630.277C355.961 633.721 376.447 632.9 397.951 632.931C463.504 632.961 529.03 632.9 594.583 632.994C627.188 633.28 658.935 622.753 685.703 604.389C714.404 583.309 736.67 554.233 746.913 519.972C753.985 496.804 753.857 474.301 753.985 450.376C753.985 359.762 754.019 269.179 753.985 178.566C753.857 163.016 753.701 147.15 751.289 131.758Z" fill="#45D492"/>
<path d="M111.011 895.251C111.011 873.792 96.7002 860.347 76.9611 860.347C57.2221 860.347 42.9117 873.792 42.9117 895.251C42.9117 916.71 57.2221 930.155 76.9611 930.155C96.7002 930.155 111.011 916.71 111.011 895.251ZM153.922 895.251C153.922 937.879 123.023 970.785 85.5479 970.785C66.3765 970.785 52.3527 964.201 42.9117 953.333V1024H0V823.724H42.9117V837.169C52.3527 826.301 66.3765 819.717 85.5479 819.717C123.023 819.717 153.922 852.623 153.922 895.251Z" fill="white"/>
<path d="M283.313 895.251C283.313 873.793 269.008 860.348 249.272 860.348C229.53 860.348 215.223 873.793 215.223 895.251C215.223 916.71 229.53 930.155 249.272 930.155C269.008 930.155 283.313 916.71 283.313 895.251ZM326.233 823.724V966.778H283.313V953.333C273.872 964.202 259.854 970.785 240.685 970.785C203.202 970.785 172.308 937.879 172.308 895.251C172.308 852.623 203.202 819.718 240.685 819.718C259.854 819.718 273.872 826.301 283.313 837.169V823.724H326.233Z" fill="white"/>
<path d="M445.191 820.863V869.501C427.45 866.64 402.271 873.791 402.271 902.117V966.777H359.356V823.723H402.271V849.188C407.995 830.02 427.163 820.863 445.191 820.863Z" fill="white"/>
<path d="M524.312 864.923V915.565C524.312 927.866 534.899 929.013 553.784 927.866V966.777C497.706 972.5 481.4 955.622 481.4 915.565V864.923H458.514V823.723H481.4V796.546L524.312 783.669V823.723H553.784V864.923H524.312Z" fill="white"/>
<path d="M582.471 823.724H625.385V966.778H582.471V823.724ZM578.177 785.384C578.177 771.366 589.908 759.635 603.932 759.635C617.948 759.635 629.679 771.366 629.679 785.384C629.679 799.403 617.948 811.134 603.932 811.134C589.908 811.134 578.177 799.403 578.177 785.384Z" fill="white"/>
<path d="M649.645 895.251C649.645 852.623 681.98 819.718 725.468 819.718C753.22 819.718 777.82 834.312 790.125 856.341L752.644 878.086C747.783 868.069 737.48 862.062 724.892 862.062C706.296 862.062 692.565 875.512 692.565 895.251C692.565 914.99 706.296 928.438 724.892 928.438C737.48 928.438 748.064 922.433 752.644 912.416L790.125 933.878C777.82 956.191 753.501 970.785 725.468 970.785C681.98 970.785 649.645 937.879 649.645 895.251Z" fill="white"/>
<path d="M810.83 757.918H853.745V966.778H810.83V757.918Z" fill="white"/>
<path d="M951.311 895.251C951.311 873.792 937.006 860.347 917.27 860.347C897.528 860.347 883.217 873.792 883.217 895.251C883.217 916.71 897.528 930.155 917.27 930.155C937.006 930.155 951.311 916.71 951.311 895.251Z" fill="#45D492"/>
</svg>
