<svg width="130" height="50" viewBox="0 0 130 50" fill="none" xmlns="http://www.w3.org/2000/svg">
<path d="M67.3491 25.3084C67.3491 23.6871 66.2735 22.6713 64.7898 22.6713C63.306 22.6713 62.2304 23.6871 62.2304 25.3084C62.2304 26.9296 63.306 27.9456 64.7898 27.9456C66.2735 27.9456 67.3491 26.9296 67.3491 25.3084ZM70.5746 25.3084C70.5746 28.529 68.252 31.0151 65.4352 31.0151C63.9941 31.0151 62.94 30.5177 62.2304 29.6966V35.0356H59.0049V19.9044H62.2304V20.9202C62.94 20.099 63.9941 19.6016 65.4352 19.6016C68.252 19.6016 70.5746 22.0878 70.5746 25.3084Z" fill="white"/>
<path d="M80.3008 25.3082C80.3008 23.6869 79.2256 22.6711 77.7421 22.6711C76.2582 22.6711 75.1827 23.6869 75.1827 25.3082C75.1827 26.9294 76.2582 27.9454 77.7421 27.9454C79.2256 27.9454 80.3008 26.9294 80.3008 25.3082ZM83.527 19.9042V30.7122H80.3008V29.6964C79.5912 30.5175 78.5375 31.0149 77.0967 31.0149C74.2792 31.0149 71.957 28.5288 71.957 25.3082C71.957 22.0875 74.2792 19.6014 77.0967 19.6014C78.5375 19.6014 79.5912 20.0988 80.3008 20.92V19.9042H83.527Z" fill="white"/>
<path d="M92.468 19.6883V23.363C91.1344 23.1469 89.2418 23.6871 89.2418 25.8272V30.7124H86.0161V19.9044H89.2418V21.8283C89.672 20.3799 91.1129 19.6883 92.468 19.6883Z" fill="white"/>
<path d="M98.416 23.0169V26.843C98.416 27.7724 99.2118 27.8588 100.631 27.7724V30.7121C96.4161 31.1446 95.1905 29.8694 95.1905 26.843V23.0169H93.4702V19.9041H95.1905V17.8507L98.416 16.878V19.9041H100.631V23.0169H98.416Z" fill="white"/>
<path d="M102.786 19.9044H106.012V30.7124H102.786V19.9044ZM102.463 17.0079C102.463 15.9488 103.345 15.0625 104.399 15.0625C105.453 15.0625 106.335 15.9488 106.335 17.0079C106.335 18.067 105.453 18.9533 104.399 18.9533C103.345 18.9533 102.463 18.067 102.463 17.0079Z" fill="white"/>
<path d="M107.836 25.3082C107.836 22.0875 110.267 19.6014 113.536 19.6014C115.622 19.6014 117.471 20.7041 118.396 22.3684L115.579 24.0113C115.213 23.2545 114.439 22.8008 113.492 22.8008C112.095 22.8008 111.063 23.8168 111.063 25.3082C111.063 26.7997 112.095 27.8157 113.492 27.8157C114.439 27.8157 115.234 27.3618 115.579 26.605L118.396 28.2265C117.471 29.9123 115.643 31.0149 113.536 31.0149C110.267 31.0149 107.836 28.5288 107.836 25.3082Z" fill="white"/>
<path d="M119.952 14.9326H123.177V30.7124H119.952V14.9326Z" fill="white"/>
<path d="M125.129 24.8145C125.129 23.7554 126.011 22.8691 127.065 22.8691C128.118 22.8691 129 23.7554 129 24.8145C129 25.8736 128.118 26.7599 127.065 26.7599C126.011 26.7599 125.129 25.8736 125.129 24.8145Z" fill="#46D593"/>
<path d="M30.7739 30.9697H18.9522V19.032H30.7739V30.9697ZM48.6117 10.9911C48.1229 8.14869 46.5683 5.4574 44.3126 3.66714C42.2192 1.93657 39.5367 1.00675 36.8303 1.00444C28.8044 1.00192 20.7715 0.994772 12.7456 1.00675C8.55616 1.05469 4.598 3.49202 2.55942 7.15412C1.42687 9.1195 1.0023 11.3292 1 13.5819C1.00481 20.9301 0.997699 28.2829 1.0023 35.631C0.988078 37.3399 1.06191 38.9816 1.59378 40.6209C2.77631 44.4196 5.96668 47.4946 9.77696 48.5657C8.62518 47.643 8.11506 46.3585 7.74068 44.9683C6.96578 41.9199 6.90618 38.7539 7.0302 35.631C7.01828 28.2806 7.0348 20.9301 7.02058 13.5819C7.0325 12.3166 7.12558 11.1278 7.76934 10.0085C8.76113 8.22311 10.6949 7.02946 12.7456 7.05594C20.3733 7.05111 28.0106 7.05825 35.6381 7.05342C36.7899 7.05594 37.8365 6.96954 38.9383 7.38915C40.7694 8.00006 42.2215 9.64653 42.622 11.54C42.8485 12.6521 42.7889 13.8863 42.7912 15.0198V36.5896C42.7912 37.649 42.6745 38.6843 42.2215 39.6526C41.2868 41.6178 39.265 42.9815 37.0737 42.9409C31.0362 42.9504 24.9918 42.9384 18.9545 42.9455C18.9427 40.9684 18.945 38.9887 18.9522 37.0093C23.8806 37.0093 28.8069 37.0019 33.7355 37.0139C34.7965 37.0715 36.0173 36.5323 36.5061 35.5497C36.7826 35.0487 36.828 34.5141 36.8399 33.9557C36.8351 27.9619 36.8376 21.9703 36.8376 15.9762C36.8853 14.8666 36.3511 13.8767 35.3735 13.3494C34.5581 12.8726 33.6853 12.9948 32.7769 12.9779C27.1353 12.9922 21.4868 12.9708 15.8477 12.9899C14.2333 12.9491 12.8887 14.3608 12.9387 15.9762C12.9148 24.5873 12.9387 33.2465 12.9268 41.8623C12.9721 43.5735 12.9171 45.196 13.9043 46.6772C14.6531 47.9018 15.9193 48.5226 17.2806 48.7936C18.8902 49.0546 20.4304 48.9924 22.0471 48.9947C26.9756 48.997 31.9019 48.9924 36.8303 48.9996C39.2815 49.0212 41.6683 48.223 43.6807 46.8305C45.8385 45.2319 47.5126 43.0271 48.2827 40.4292C48.8143 38.6723 48.8047 36.9659 48.8143 35.1517C48.8143 28.2806 48.8168 21.4117 48.8143 14.5405C48.8047 13.3614 48.793 12.1583 48.6117 10.9911" fill="#46D593"/>
</svg>
