<?xml version="1.0" encoding="UTF-8" standalone="no"?>
<svg
   xmlns:dc="http://purl.org/dc/elements/1.1/"
   xmlns:cc="http://creativecommons.org/ns#"
   xmlns:rdf="http://www.w3.org/1999/02/22-rdf-syntax-ns#"
   xmlns:svg="http://www.w3.org/2000/svg"
   xmlns="http://www.w3.org/2000/svg"
   xmlns:sodipodi="http://sodipodi.sourceforge.net/DTD/sodipodi-0.dtd"
   xmlns:inkscape="http://www.inkscape.org/namespaces/inkscape"
   style="isolation:isolate"
   viewBox="616 419 26 16"
   width="26"
   height="16"
   version="1.1"
   id="svg249"
   sodipodi:docname="peers-0.svg"
   inkscape:version="0.92.2 5c3e80d, 2017-08-06">
  <metadata
     id="metadata255">
    <rdf:RDF>
      <cc:Work
         rdf:about="">
        <dc:format>image/svg+xml</dc:format>
        <dc:type
           rdf:resource="http://purl.org/dc/dcmitype/StillImage" />
      </cc:Work>
    </rdf:RDF>
  </metadata>
  <defs
     id="defs253" />
  <sodipodi:namedview
     pagecolor="#ffffff"
     bordercolor="#666666"
     borderopacity="1"
     objecttolerance="10"
     gridtolerance="10"
     guidetolerance="10"
     inkscape:pageopacity="0"
     inkscape:pageshadow="2"
     inkscape:window-width="2560"
     inkscape:window-height="1326"
     id="namedview251"
     showgrid="false"
     inkscape:zoom="2.0669275"
     inkscape:cx="192.28759"
     inkscape:cy="-72.076608"
     inkscape:window-x="1920"
     inkscape:window-y="30"
     inkscape:window-maximized="1"
     inkscape:current-layer="svg249" />
  <path
     d=" M 629 419 C 624.6 419 621 422.6 621 427 C 621 431.4 624.6 435 629 435 C 633.4 435 637 431.4 637 427 C 637 422.6 633.4 419 629 419 Z  M 629 421 C 630.3 421 631.5 421.4 632.5 422.1 L 624.1 430.5 C 623.4 429.5 623 428.3 623 427 C 623 423.7 625.7 421 629 421 Z  M 629 433 C 627.7 433 626.5 432.6 625.5 431.9 L 633.9 423.5 C 634.6 424.5 635 425.7 635 427 C 635 430.3 632.3 433 629 433 Z "
     fill="rgb(227,34,60)"
     id="path169" />
</svg>
