<svg width="875" height="657" viewBox="0 0 875 657" fill="none" xmlns="http://www.w3.org/2000/svg">
<path d="M521 26.6716H169V321.919H521V26.6716Z" fill="#F2F2F2"/>
<path d="M612.5 509C612.5 509 620.5 538 620.5 542C620.5 546 633.5 545 633.5 545L643.5 529C643.5 529 635.5 513 633.5 505C631.5 497 612.5 509 612.5 509Z" fill="#FBBEBE"/>
<path d="M627.5 536C627.5 536 639.5 539 639.5 530C639.5 521 644.5 525 644.5 525C644.5 525 656.5 532 651.5 539C646.5 546 637.5 554 634.5 561C631.5 568 622.5 587 612.5 583C602.5 579 609.5 570 609.5 570C609.5 570 617.5 558 615.5 548C613.5 538 612.5 533 615.5 533C618.5 533 623.5 530 623.5 534C623.5 538 627.5 536 627.5 536Z" fill="#2F2E41"/>
<path d="M627 164.5C647.987 164.5 665 147.487 665 126.5C665 105.513 647.987 88.5 627 88.5C606.013 88.5 589 105.513 589 126.5C589 147.487 606.013 164.5 627 164.5Z" fill="#2F2E41"/>
<path d="M623 128.5C641.778 128.5 657 113.278 657 94.5C657 75.7223 641.778 60.5 623 60.5C604.222 60.5 589 75.7223 589 94.5C589 113.278 604.222 128.5 623 128.5Z" fill="#2F2E41"/>
<path d="M605 295.5L585 293.5L576.835 273.528L578 255.5H605V295.5Z" fill="#3F3D56"/>
<path opacity="0.1" d="M605 295.5L585 293.5L576.835 273.528L578 255.5H605V295.5Z" fill="black"/>
<path d="M606.5 152C606.5 152 605.5 177 601.5 180C597.5 183 607.5 195 607.5 195L623.5 191L635.5 180L630.5 179C630.5 179 630.5 165 633.5 161C636.5 157 606.5 152 606.5 152Z" fill="#FBBEBE"/>
<path opacity="0.1" d="M606.5 152C606.5 152 605.5 177 601.5 180C597.5 183 607.5 195 607.5 195L623.5 191L635.5 180L630.5 179C630.5 179 630.5 165 633.5 161C636.5 157 606.5 152 606.5 152Z" fill="black"/>
<path d="M578.5 250C578.5 250 588.5 276 586.5 298C584.5 320 631.5 301 631.5 301L645.5 292C645.5 292 649.5 265 645.5 259C641.5 253 633.5 232 633.5 232L612.5 229L578.5 250Z" fill="#FBBEBE"/>
<path d="M746.642 364.791C746.642 364.791 763.694 345.942 766.546 344.129C769.399 342.316 762.793 333.5 762.793 333.5L746.852 333.621C746.852 333.621 739.069 346.578 734.271 351.63C729.473 356.682 746.642 364.791 746.642 364.791Z" fill="#FBBEBE"/>
<path d="M759.095 341.858C759.095 341.858 755.796 331.941 749.378 336.02C742.961 340.1 743.547 334.721 743.547 334.721C743.547 334.721 743.099 322.992 750.357 323.385C757.614 323.777 767.398 326.569 773.749 325.535C780.1 324.502 797.727 322.307 799.408 331.251C801.088 340.194 791.498 339.282 791.498 339.282C791.498 339.282 779.315 339.017 773.091 344.975C766.867 350.934 763.755 353.913 762.395 351.774C761.036 349.635 756.63 347.429 759.482 345.616C762.335 343.803 759.095 341.858 759.095 341.858Z" fill="#2F2E41"/>
<path d="M595.5 170C595.5 170 583.5 163 580.5 143C577.5 123 556.5 52.9999 556.5 52.9999C556.5 52.9999 542.5 4.99993 537.5 20.9999C532.5 36.9999 543.5 54.9999 543.5 54.9999L557.5 120C557.5 120 569.5 204 575.5 208C581.5 212 595.5 170 595.5 170Z" fill="#FBBEBE"/>
<path d="M644.196 173.884C644.196 173.884 658.087 173.733 670.584 157.832C683.08 141.931 735.944 91.4696 735.944 91.4696C735.944 91.4696 771.846 56.6695 768.281 73.0491C764.717 89.4287 746.255 99.6357 746.255 99.6357L701.948 149.212C701.948 149.212 649.984 216.293 642.791 216.803C635.598 217.313 644.196 173.884 644.196 173.884Z" fill="#FBBEBE"/>
<path d="M623.5 168C637.307 168 648.5 156.807 648.5 143C648.5 129.193 637.307 118 623.5 118C609.693 118 598.5 129.193 598.5 143C598.5 156.807 609.693 168 623.5 168Z" fill="#FBBEBE"/>
<path d="M647.278 276.264C647.278 276.264 612.5 301 599.5 297C586.5 293 584.5 290 584.5 290C584.5 290 572.5 372 581.5 404C581.5 404 582.5 436 591.5 448L612.5 517C612.5 517 635.5 516 635.5 508C635.5 508 632.5 491 632.5 479C632.5 467 616.5 437 616.5 437L627.5 353C627.5 353 669.5 437 686.5 431C703.5 425 751.5 362 751.5 362L736.5 348C736.5 348 694.5 373 689.5 386C689.5 386 656.055 283.527 647.278 276.264Z" fill="#2F2E41"/>
<path d="M620.5 183C620.5 183 633.5 173 635.5 173H648.5C648.5 173 658.5 197 654.5 207C654.5 207 649.5 233 648.5 235C647.5 237 648.5 243 650.5 249C652.5 255 658.5 268 655.5 271C652.5 274 649.5 282 647.5 282C645.5 282 629.5 267 626.5 257C623.5 247 623.5 244 616.5 248C609.5 252 578.5 250 580.5 266C581.402 274.066 582.737 282.078 584.5 290C584.5 290 572.5 294 570.5 275C568.5 256 566.5 255 572.5 248C578.5 241 570.5 212 570.5 212C570.5 212 580.5 195 582.5 186C584.5 177 592.5 168 592.5 168C592.5 168 597.5 165 600.5 167C603.5 169 605.105 168 605.105 168C605.105 168 599.5 182 605.5 182C611.5 182 620.5 183 620.5 183Z" fill="#3F3D56"/>
<path opacity="0.1" d="M605.5 291.5C606.328 291.5 607 290.157 607 288.5C607 286.843 606.328 285.5 605.5 285.5C604.672 285.5 604 286.843 604 288.5C604 290.157 604.672 291.5 605.5 291.5Z" fill="black"/>
<path d="M626 139.5C642.569 139.5 656 130.993 656 120.5C656 110.007 642.569 101.5 626 101.5C609.431 101.5 596 110.007 596 120.5C596 130.993 609.431 139.5 626 139.5Z" fill="#2F2E41"/>
<path d="M113 249.5C136.196 249.5 155 223.98 155 192.5C155 161.02 136.196 135.5 113 135.5C89.804 135.5 71 161.02 71 192.5C71 223.98 89.804 249.5 113 249.5Z" fill="#2F2E41"/>
<path d="M123.531 228.598C123.531 228.598 140.5 212 142.5 206C144.5 200 168.5 98 168.5 98C168.5 98 188.5 41 197.5 55C206.5 69 182.5 102 182.5 102C182.5 102 176.5 165 172.5 180C168.5 195 154.5 251 145.5 257L136.5 275L126.5 277L117.5 252L118.5 242L123.531 228.598Z" fill="#A0616A"/>
<path d="M173.5 494C173.5 494 197.5 501 200.5 497C203.5 493 214.5 517 214.5 517V526L204.5 528C204.5 528 174.5 515 169.5 515C164.5 515 173.5 494 173.5 494Z" fill="#A0616A"/>
<path d="M204.5 509C204.5 509 190.5 497 193.5 495C196.5 493 208.5 479 214.5 487C220.5 495 247.5 539 240.5 549C233.5 559 228.5 553 228.5 553C228.5 553 209.902 528 202.701 528C202.701 528 212.5 517 204.5 509Z" fill="#2F2E41"/>
<path d="M104.5 584C104.5 584 105.5 617 96.5 627C87.5 637 108.5 635 108.5 635L130.5 620C130.5 620 124.5 604 126.5 589L104.5 584Z" fill="#A0616A"/>
<path d="M130.5 612C130.5 612 128.5 610 123.5 616C118.5 622 108.5 629 102.5 623C96.5 617 96.5 622 96.5 622C96.5 622 83.5 643 72.5 646C61.5 649 69.5 659 79.5 655C89.5 651 138.5 634 138.5 634C138.5 634 137.5 620 130.5 612Z" fill="#2F2E41"/>
<path d="M57.5 346L42.5 369C42.5 369 5.49997 398 24.5 401C43.5 404 54.5 374 54.5 374L67.5 358L57.5 346Z" fill="#A0616A"/>
<path d="M52.5 342C52.5 342 69.5 367 77.5 369C85.5 371 82.5 350 82.5 350L52.5 342Z" fill="#45D391"/>
<path opacity="0.1" d="M52.5 342C52.5 342 69.5 367 77.5 369C85.5 371 82.5 350 82.5 350L52.5 342Z" fill="black"/>
<path d="M74.5 340L77.5 392C77.5 392 66.5 469 83.5 487C83.5 487 93.5 514 93.5 524C93.5 534 100.5 594 100.5 594H129.5C129.5 594 135.5 511 119.5 485V343L74.5 340Z" fill="#2F2E41"/>
<path opacity="0.1" d="M74.0072 443.051C74.1495 461.392 76.3441 479.423 83.5 487C83.5 487 93.5 514 93.5 524C93.5 534 100.5 594 100.5 594H129.5C129.5 594 135.5 511 119.5 485V447.87" fill="black"/>
<path d="M105.5 352L75.5 431C75.5 431 57.5 499 79.5 506C101.5 513 158.5 511 167.5 518C176.5 525 181.5 497 178.5 494C175.5 491 127.5 475 107.5 475C107.5 475 160.5 403 147.5 387C134.5 371 116.5 351 105.5 352Z" fill="#2F2E41"/>
<path d="M98.5 200C98.5 200 99.5 227 94.5 228C90.3969 229.001 86.3833 230.339 82.5 232V247L90.5 252L110.5 240L118.5 233L126.5 226C126.5 226 121.5 212 126.5 203L98.5 200Z" fill="#A0616A"/>
<path opacity="0.1" d="M98.5 200C98.5 200 99.5 227 94.5 228C90.3969 229.001 86.3833 230.339 82.5 232V247L90.5 252L110.5 240L118.5 233L126.5 226C126.5 226 121.5 212 126.5 203L98.5 200Z" fill="black"/>
<path d="M94.5 243C94.5 243 111.5 227 115.5 228C119.5 229 131 221.5 131 221.5C128.775 229.177 127.268 237.044 126.5 245C125.958 251.5 127.177 255.066 128.408 256.969C129.835 259.114 130.994 261.425 131.859 263.851C133.514 268.689 136.58 274.533 140.5 268C140.5 268 138.5 279 136.5 311C134.5 343 145.5 365 145.5 365C145.5 365 154.5 389 150.5 394C150.5 394 119.5 374 121.5 365C121.5 365 49.5 355 49.5 342C49.4808 338.256 50.3829 334.564 52.1268 331.251C53.8707 327.938 56.4028 325.104 59.5 323C60.169 316.871 61.5104 310.835 63.5 305C63.5 305 52.5 282 62.5 263C62.5 263 53.5 237 65.5 231C77.5 225 92.5 228 92.5 228C92.5 228 78.5 237 87.5 242L94.5 243Z" fill="#45D391"/>
<path d="M113.5 212C127.307 212 138.5 200.807 138.5 187C138.5 173.193 127.307 162 113.5 162C99.6929 162 88.5 173.193 88.5 187C88.5 200.807 99.6929 212 113.5 212Z" fill="#A0616A"/>
<path d="M115.5 186.5C130.688 186.5 143 180.008 143 172C143 163.992 130.688 157.5 115.5 157.5C100.312 157.5 88 163.992 88 172C88 180.008 100.312 186.5 115.5 186.5Z" fill="#2F2E41"/>
<path d="M83 153.5C87.4183 153.5 91 149.918 91 145.5C91 141.082 87.4183 137.5 83 137.5C78.5817 137.5 75 141.082 75 145.5C75 149.918 78.5817 153.5 83 153.5Z" fill="#2F2E41"/>
<path d="M143 153.5C147.418 153.5 151 149.918 151 145.5C151 141.082 147.418 137.5 143 137.5C138.582 137.5 135 141.082 135 145.5C135 149.918 138.582 153.5 143 153.5Z" fill="#2F2E41"/>
<path d="M543 0.5H191V295.748H543V0.5Z" stroke="#3F3D56" stroke-miterlimit="10"/>
<path d="M367 97.7636V78.8789L342.27 104.059L367 129.239V110.353C387.401 110.353 404.095 127.35 404.095 148.124C404.096 154.262 402.611 160.309 399.766 165.749L408.732 174.878C413.79 166.872 416.47 157.594 416.461 148.124C416.461 120.426 394.203 97.7636 367 97.7636ZM367 185.894C346.597 185.894 329.905 168.896 329.905 148.124C329.905 141.985 331.389 135.938 334.232 130.497L325.268 121.37C320.168 129.357 317.484 138.647 317.539 148.124C317.539 175.821 339.797 198.484 367 198.484V217.368L391.73 192.189L367 167.008V185.894Z" fill="#45D391">
    <animateTransform attributeName="transform"
                        attributeType="XML"
                        type="rotate"
                        from="360 366 149"
                        to="0 366 149"
                        dur="2.5s"
                        repeatCount="indefinite"/>
</path>
</svg>
